<svg version="1.2" xmlns="http://www.w3.org/2000/svg" viewBox="0 0 512 512" width="512" height="512">
	<style>
		.s0 { fill: #a52632 } 
	</style>
	<g id="Layer 1">
		<path class="s0" d="m166.22 448.31q0.34 0.19 0.69 0.35 0.35 0.16 0.71 0.29 0.36 0.14 0.74 0.24 0.37 0.1 0.75 0.18c8.05 2.58 15.94 4.86 23.84 6.68q0.38 0.06 0.76 0.09 0.38 0.03 0.76 0.03 0.38 0 0.76-0.03 0.38-0.03 0.76-0.09 1.64-0.03 3.15-0.68 1.51-0.65 2.66-1.82 1.15-1.17 1.77-2.69 0.62-1.52 0.62-3.16v-46.02q0.01-2.07-0.62-4.04-0.63-1.96-1.84-3.64-1.21-1.68-2.87-2.9-1.67-1.22-3.63-1.88h-0.76q-3.05-0.89-6.08-1.88-3.03-0.98-6.03-2.04-3-1.07-5.98-2.21-2.97-1.15-5.91-2.37h-1.21q-0.34-0.06-0.68-0.1-0.34-0.03-0.69-0.03-0.34 0-0.68 0.03-0.35 0.04-0.68 0.1-1.65 0.03-3.15 0.68-1.51 0.65-2.66 1.82-1.15 1.17-1.78 2.69-0.61 1.52-0.62 3.16v48.3q-0.05 1.83 0.38 3.6 0.45 1.78 1.35 3.36 0.9 1.59 2.21 2.88 1.3 1.28 2.9 2.16"/>
		<path class="s0" d="m213.91 115.08c1.35-0.02 2.68 0.22 3.93 0.71 1.25 0.5 2.4 1.23 3.37 2.15 0.97 0.93 1.75 2.04 2.29 3.27 0.55 1.23 0.85 2.55 0.89 3.9v327.9c-0.04 1.7 0.25 3.38 0.85 4.96 0.6 1.58 1.5 3.03 2.65 4.27 1.16 1.23 2.54 2.24 4.07 2.95 1.54 0.71 3.2 1.11 4.89 1.19 6.53 0 11.69 0 17.01 0q4.51 0 9.02-0.14 4.51-0.14 9.01-0.43 4.5-0.28 8.99-0.71 4.5-0.43 8.97-1c120.14-15.19 210.81-104.64 210.81-208.68 0-70.78-41.31-136.69-110.57-175.73h-1.06q-0.61-0.27-1.24-0.47-0.63-0.21-1.28-0.34-0.66-0.14-1.32-0.2-0.66-0.06-1.32-0.05c-1.49 0-2.96 0.28-4.34 0.83-1.38 0.55-2.65 1.36-3.73 2.38-1.07 1.02-1.95 2.24-2.57 3.59-0.62 1.35-0.98 2.8-1.06 4.29v46.62q0.09 1.71 0.5 3.36 0.42 1.65 1.14 3.19 0.72 1.54 1.73 2.92 1 1.38 2.25 2.53 0.36 0.32 0.72 0.62 0.37 0.3 0.75 0.59 0.38 0.28 0.77 0.55 0.4 0.27 0.8 0.52c8.39 5.92 16.06 12.79 22.86 20.48 6.79 7.7 12.67 16.16 17.5 25.21 4.84 9.05 8.6 18.64 11.22 28.57 2.61 9.93 4.06 20.12 4.31 30.39 0 66.37-55.74 124.08-135.78 140.64q-0.42 0.05-0.83 0.08-0.42 0.03-0.84 0.03-0.42 0-0.84-0.03-0.42-0.03-0.83-0.08c-1.33 0.04-2.66-0.19-3.9-0.66-1.24-0.48-2.37-1.2-3.33-2.12-0.96-0.91-1.73-2.02-2.27-3.23-0.53-1.22-0.81-2.53-0.83-3.86v-328.07c-0.09-1.63-0.47-3.24-1.14-4.74-0.66-1.5-1.59-2.86-2.74-4.03-1.15-1.16-2.51-2.11-4-2.79-1.49-0.68-3.09-1.09-4.73-1.19q-2.12-0.11-4.25-0.17-2.12-0.05-4.25-0.05-2.13 0-4.26 0.05-2.12 0.06-4.25 0.17-4.51 0-9.02 0.14-4.51 0.14-9.01 0.42-4.5 0.29-9 0.72-4.49 0.43-8.96 0.99c-119.53 14.89-210.66 104.04-210.66 208.69 0 70.77 41.31 136.69 110.42 175.72l1.21 0.76q0.73 0.37 1.49 0.67 0.76 0.3 1.54 0.53 0.79 0.23 1.59 0.38 0.8 0.16 1.61 0.25c1.45-0.14 2.86-0.54 4.16-1.2 1.3-0.66 2.46-1.56 3.43-2.65 0.96-1.09 1.71-2.36 2.21-3.73 0.49-1.36 0.72-2.82 0.68-4.27v-47.54q-0.09-1.7-0.5-3.35-0.42-1.65-1.14-3.2-0.72-1.54-1.73-2.92-1-1.37-2.25-2.53-0.32-0.33-0.66-0.64-0.34-0.31-0.71-0.59-0.36-0.29-0.74-0.55-0.38-0.26-0.78-0.5c-8.4-5.9-16.09-12.77-22.9-20.46-6.81-7.69-12.7-16.15-17.55-25.2-4.85-9.06-8.62-18.65-11.25-28.58-2.62-9.93-4.08-20.13-4.34-30.4 0-66.37 55.89-124.09 135.78-140.64h3.34"/>
		<path class="s0" d="m315.82 47.8c-1.13-0.04-2.25 0.14-3.31 0.54-1.06 0.4-2.02 1.01-2.84 1.79-0.82 0.77-1.48 1.71-1.94 2.74-0.45 1.04-0.7 2.15-0.72 3.28v46.63q-0.02 2.07 0.6 4.05 0.63 1.97 1.83 3.65 1.21 1.68 2.89 2.9 1.67 1.22 3.65 1.85h0.91q3.01 0.91 6 1.9 2.99 0.99 5.95 2.05 2.97 1.06 5.9 2.2 2.94 1.14 5.84 2.36h1.21q0.34 0.05 0.69 0.08 0.34 0.03 0.68 0.03 0.35 0 0.69-0.03 0.34-0.03 0.68-0.08 1.66 0 3.2-0.64 1.53-0.64 2.71-1.81 1.17-1.17 1.81-2.71 0.63-1.53 0.63-3.19v-46.78q0.06-1.86-0.37-3.67-0.44-1.81-1.34-3.43-0.9-1.63-2.21-2.95-1.3-1.33-2.91-2.26l-3.65-1.21c-7.9-2.58-15.19-4.71-23.84-6.53q-0.34-0.04-0.69-0.06-0.34-0.02-0.68-0.02-0.34 0-0.68 0.02-0.35 0.02-0.69 0.06"/>
	</g>
</svg>