<svg version="1.2" xmlns="http://www.w3.org/2000/svg" viewBox="0 0 512 512" width="512" height="512">
	<style>
		.s0 { fill: #ffffff } 
		.s1 { fill: #211261 } 
		.s2 { fill: #e1b77e } 
	</style>
	<path class="s0" d="m256.17 501.19c-130.76 0-238.08-102.36-244.39-233.12-6.46-134.82 98-249.8 232.82-256.27 3.91-0.15 7.96-0.3 11.87-0.3 130.77 0 238.08 102.36 244.39 233.12 6.47 134.82-97.99 249.8-232.96 256.27-3.91 0.3-7.82 0.3-11.73 0.3z"/>
	<path class="s1" d="m256.47 10v3.01-3.01c-3.91 0-7.96 0.15-11.87 0.3-135.72 6.46-240.78 122.05-234.32 257.77 6.31 131.51 114.23 234.62 245.89 234.62 3.91 0 7.97-0.15 11.88-0.3 135.72-6.46 240.78-122.05 234.32-257.77-3.01-63.73-30.06-122.95-76.36-166.83-45.99-43.59-106.11-67.79-169.54-67.79zm0 3.16c129.11 0 236.58 101.45 242.89 231.76 6.46 134.22-97.25 248.15-231.46 254.61-3.91 0.15-7.82 0.3-11.73 0.3-129.11 0-236.57-101.45-242.89-231.76-6.46-134.22 97.25-248.15 231.47-254.61 3.91-0.3 7.81-0.3 11.72-0.3z"/>
	<path class="s1" d="m67.69 232.75l-4.66-1.06 0.91-4.5-16.54-10.83-0.75 3.91-4.66-1.05 2.26-10.52 24.35-3.76 0.9-4.21 4.66 1.05-2.56 12.03-4.66-1.05 0.45-2.41-4.36 0.6-1.95 9.17 3.76 2.26 0.6-2.71 4.66 1.05zm-9.77-14.58l1.35-6.61-10.37 1.2z"/>
	<path class="s1" d="m76.71 192.02c-1.8 0.75-4.06 0.6-6.76-0.31l-8.72-3.15-1.35 3.76-4.06-1.51 1.35-3.75-3.75-1.36 0.3-5.41 5.26 1.96 1.95-5.42 4.06 1.51-1.96 5.41 7.22 2.7c3.61 1.36 5.71 1.06 6.46-0.9 0.3-0.75 0.3-1.95 0.15-3.3l4.06 0.45c0.15 1.95 0 3.75-0.45 4.96-0.6 2.1-1.95 3.6-3.76 4.36z"/>
	<path class="s1" d="m89.79 167.82c-1.35 2.55-3.01 4.21-4.81 5.11-1.81 0.75-3.61 0.6-5.56-0.45-1.96-1.06-3.01-2.41-3.16-4.21-0.3-1.81 0.3-3.91 1.65-6.47l2.56-4.65c-1.65-0.91-3.01-1.21-4.21-1.06-1.2 0.15-2.1 0.91-2.7 2.11q-0.91 1.8-1.36 3.6l1.81 1.51-2.71 3.6-4.06-3.15c0.45-2.71 1.36-5.26 2.56-7.67 1.5-2.7 3.3-4.36 5.56-4.96 2.25-0.6 4.66-0.15 7.51 1.36l6.92 3.75 3-2.85 3.16 3.45-4.81 4.36c0.3 2.41-0.15 4.66-1.35 6.62zm-9.02-1.96c0.15 0.75 0.75 1.36 1.5 1.81 1.51 0.9 3.01 0.15 4.21-1.96 0.9-1.5 1.2-3.15 1.05-4.81l-3.75-2.1-2.56 4.51c-0.6 0.9-0.75 1.8-0.45 2.55z"/>
	<path class="s1" d="m101.81 144.67q-2.93 0.45-6.31-2.25l-7.37-5.57-2.4 3.16-3.46-2.55 2.41-3.16-3.31-2.41 1.8-5.11 4.51 3.31 3.46-4.66 3.46 2.56-3.46 4.66 6.16 4.66c3.01 2.25 5.26 2.55 6.47 0.9 0.45-0.75 0.9-1.66 1.2-3.16l3.76 1.5c-0.45 1.96-1.06 3.61-1.81 4.66-1.5 2.11-3.15 3.16-5.11 3.46z"/>
	<path class="s1" d="m99.86 102.29q1.35 0 2.25 0.9 0.9 0.9 0.9 2.25 0 1.35-0.9 2.26-0.9 0.9-2.25 0.9-1.35 0-2.26-0.9-0.9-0.91-0.9-2.26 0-1.35 0.9-2.25c0.45-0.6 1.36-0.9 2.26-0.9zm25.7 17.58c-0.6 1.2-1.35 2.1-2.1 2.86-2.26 2.25-4.51 3.45-6.47 3.45q-3.15 0-6.31-3.15l-6.31-6.47-2.71 2.56-3-3.01 6.46-6.46 8.72 8.87c1.2 1.2 2.25 1.8 3.3 1.95 1.06 0.15 1.96-0.45 3.01-1.35 0.45-0.45 1.05-1.2 1.5-2.11 0.45-0.9 0.9-1.65 1.2-2.55l-8.26-8.42-2.71 2.56-3-3.01 6.46-6.46 11.27 11.42 3.91-1.95 2.25 4.36-6.01 3c-0.15 1.51-0.6 2.71-1.2 3.91zm-19.24-23.9q1.35 0 2.26 0.9 0.9 0.91 0.9 2.26 0 1.35-0.9 2.25-0.91 0.91-2.26 0.91-1.35 0-2.25-0.91-0.91-0.9-0.91-2.25 0-1.35 0.91-2.26 0.67-0.9 2.25-0.9z"/>
	<path class="s1" d="m139.69 79.89c0.9-0.6 1.95-1.2 3.15-1.5l4.06 4.36-3.15 3.3-1.81-1.8c-1.65 1.35-2.7 2.85-3.3 4.36l6.31 9.02 3.76-2.71 2.55 3.46-11.42 8.11-2.56-3.45 3.31-2.26-6.61-9.47-4.66 1.36-1.36-4.36 7.07-2.11c1.2-2.7 2.7-4.96 4.66-6.31z"/>
	<path class="s1" d="m148.26 62.91l8.86-1.21 7.22 14.58 3.15-1.5 0.45-4.96-2.1 1.05-1.8-3.76 10.22-4.96 1.8 3.76-3.16 1.66-0.9 7.36 6.62 3.76 3.45-1.81 1.96 3.91-6.01 2.86-8.42-5.26-3.16 1.65 1.81 3.61 1.5-0.75 1.95 3.9-9.92 4.81-1.95-3.9 3.61-1.81-9.47-19.39-4.66 0.6z"/>
	<path class="s1" d="m229.27 66.81c-1.5 2.26-3.91 3.61-7.52 4.21q-5.41 0.9-8.56-1.35c-2.11-1.5-3.61-4.06-4.21-7.52l-2.41-12.77-3.91 0.75-0.9-4.66 12.03-2.25 0.9 4.66-2.71 0.45 2.56 13.67c0.3 1.96 1.05 3.16 2.1 3.91 1.05 0.75 2.41 0.9 4.21 0.6 3.61-0.6 4.96-3 4.21-6.91l-2.41-13.23-2.7 0.45-0.9-4.66 12.02-2.25 0.9 4.66-4.05 0.75 2.4 12.78c0.75 3.75 0.45 6.61-1.05 8.71zm-16.69-32.46c0.76 0.45 1.21 1.2 1.36 2.1 0.15 0.9 0 1.66-0.6 2.41-0.45 0.75-1.21 1.2-2.11 1.35-0.9 0.15-1.65 0-2.4-0.45-0.75-0.45-1.21-1.2-1.36-2.1-0.15-0.91 0-1.66 0.61-2.41 0.45-0.75 1.2-1.2 2.1-1.35 0.9-0.3 1.65-0.15 2.4 0.45zm8.87-1.65c0.75 0.45 1.2 1.2 1.36 2.1 0.15 0.9 0 1.65-0.61 2.4-0.45 0.76-1.2 1.21-2.1 1.36-0.9 0.15-1.65 0-2.41-0.45-0.75-0.45-1.2-1.21-1.35-2.11-0.15-0.9 0-1.65 0.6-2.4 0.45-0.75 1.21-1.21 2.11-1.36 0.9-0.3 1.65-0.15 2.4 0.46z"/>
	<path class="s1" d="m243.55 62.61h4.05l0.16-11.58-4.51-1.65 1.35-4.36 6.61 2.41c1.35-0.91 2.71-1.51 3.91-1.96 1.2-0.45 2.71-0.6 4.36-0.6 2.7 0 4.81 0.9 6.16 2.56 1.35 1.65 2.11 3.75 1.95 6.46l-0.15 8.87h3.91v4.35l-11.27-0.15v-4.35h1.95l0.15-8.12c0-3.31-1.35-4.96-4.2-4.96q-1.36 0-2.71 0.45c-0.9 0.3-1.65 0.6-2.4 1.2l-0.15 11.43h1.95v4.35l-11.27-0.15z"/>
	<path class="s1" d="m282.63 47.43l9.31 1.5-2.55 16.68 3.91 0.6-0.6 4.21-13.08-2.1 0.6-4.21 3.91 0.6 1.95-12.48-3.91-0.6zm9.92-7.96c0.46 0.75 0.61 1.5 0.61 2.4-0.15 0.9-0.61 1.66-1.21 2.26-0.75 0.45-1.5 0.6-2.4 0.45-0.9-0.15-1.66-0.6-2.11-1.2-0.45-0.76-0.6-1.51-0.45-2.41 0.15-0.9 0.6-1.65 1.21-2.25 0.6-0.45 1.5-0.76 2.4-0.61 0.75 0.31 1.5 0.76 1.95 1.36z"/>
	<path class="s1" d="m303.82 50.73l11.12 3.31-1.2 4.06-2.41-0.75 0.9 8.41 0.31 4.66 2.85-3.76 5.41-6.46-2.4-0.75 1.2-4.06 10.82 3.31-1.2 4.06-3.01-0.91-12.17 13.98-5.71-1.65-2.26-18.34-3.3-1.05z"/>
	<path class="s1" d="m339.29 87.26q-3.16-1.58-4.96-4.06c-1.2-1.66-1.8-3.46-1.95-5.41-0.16-1.96 0.3-3.91 1.2-6.02 1.05-2.1 2.25-3.6 3.91-4.81 1.65-1.2 3.3-1.8 5.26-1.95 1.95-0.15 3.9 0.3 5.71 1.2q2.93 1.36 4.51 3.61 1.57 2.25 1.8 4.96c0.15 1.8-0.3 3.76-1.2 5.56q-0.45 1.13-1.36 2.26l-14.57-7.07c-0.61 1.65-0.61 3.16 0.15 4.51 0.75 1.35 1.95 2.41 3.45 3.16 2.41 1.2 4.81 1.5 7.37 0.9l0.3 3.76c-3.46 1.05-6.62 0.75-9.62-0.6zm10.22-14.13c-0.45-1.36-1.35-2.26-2.71-3.01-1.35-0.6-2.85-0.75-4.2-0.45-1.36 0.45-2.56 1.2-3.31 2.55l9.92 4.81c0.75-1.35 0.75-2.7 0.3-3.9z"/>
	<path class="s1" d="m380.62 85.45c0.9 0.6 1.81 1.5 2.41 2.41l-2.71 5.26-4.21-1.81 1.05-2.4c-1.8-1.05-3.6-1.65-5.26-1.5l-6.31 9.16 3.76 2.56-2.41 3.61-11.57-7.82 2.41-3.61 3.3 2.26 6.47-9.47-2.86-3.76 3.61-2.7 4.51 5.86c3.3-0.15 5.86 0.6 7.81 1.95z"/>
	<path class="s1" d="m396.55 103.64c-0.9-0.75-1.8-1.35-2.7-1.51-0.9-0.3-1.65 0-2.11 0.61-0.6 0.6-0.75 1.2-0.6 1.8 0.15 0.6 0.6 1.5 1.51 2.71l1.8 2.25c1.5 1.8 2.4 3.61 2.55 5.11 0.16 1.5-0.45 3.01-1.65 4.36-1.5 1.65-3.46 2.4-5.56 2.1-2.1-0.3-4.21-1.35-6.16-3.15-2.41-2.26-4.06-4.66-4.96-7.37l2.7-4.21 3.91 2.41-1.35 2.25c0.45 1.36 1.35 2.56 2.4 3.46 1.06 0.9 1.96 1.5 3.01 1.8 0.9 0.3 1.8 0.15 2.25-0.6 0.45-0.45 0.61-1.05 0.61-1.65-0.16-0.6-0.61-1.5-1.51-2.56l-1.65-2.1c-1.5-1.8-2.26-3.61-2.56-5.26-0.15-1.65 0.3-3.16 1.51-4.36 1.35-1.5 3.15-2.1 5.11-1.95 2.1 0.3 4.06 1.2 6.01 3 2.25 1.96 3.61 4.21 4.21 6.77l-2.41 3.9-3.45-2.1 1.35-2.71c-0.6-1.35-1.35-2.25-2.26-3z"/>
	<path class="s1" d="m413.09 115.81l6.01 7.22-12.93 10.82 2.56 3-3.31 2.71-8.57-10.22 3.31-2.71 2.56 3.01 9.62-8.12-2.56-3zm12.63 0.6c0 0.9-0.46 1.65-1.21 2.25-0.75 0.6-1.5 0.91-2.4 0.91-0.9 0-1.65-0.46-2.26-1.21-0.6-0.75-0.9-1.5-0.75-2.4 0.15-0.9 0.45-1.5 1.2-2.26 0.76-0.75 1.51-0.9 2.41-0.9 0.9 0 1.5 0.45 2.25 1.2 0.61 0.76 0.91 1.51 0.76 2.41z"/>
	<path class="s1" d="m414.44 150.08c0.45-1.95 1.8-3.61 4.36-5.26l7.66-5.11-2.1-3.31 3.61-2.4 2.1 3.31 3.46-2.26 4.21 3.46-4.66 3.15 3.15 4.81-3.6 2.41-3.16-4.81-6.46 4.21c-3.16 2.1-4.21 4.06-3.01 5.86 0.45 0.75 1.35 1.35 2.56 2.1l-2.71 3.01c-1.8-1.05-3.01-2.1-3.76-3.31-1.65-2.1-2.1-4.06-1.65-5.86z"/>
	<path class="s1" d="m426.91 176.23q-1.57-3.15-1.35-6.31c0.15-1.95 0.75-3.91 1.81-5.41 1.2-1.65 2.7-2.86 4.66-3.91 2.1-1.05 4.05-1.5 6.01-1.35q2.93 0 5.41 1.8c1.65 1.06 2.85 2.56 3.76 4.51 0.9 1.96 1.35 3.76 1.2 5.71q-0.23 2.71-1.81 4.96-1.57 2.26-4.5 3.61c-0.76 0.3-1.51 0.6-2.56 0.9l-7.06-14.73q-2.26 1.36-2.71 3.61c-0.3 1.5 0 3.16 0.75 4.66 1.2 2.4 2.86 4.06 5.26 5.26l-2.1 3.16c-3.16-1.36-5.41-3.46-6.77-6.47zm16.69-4.66c0.45-1.2 0.3-2.55-0.3-4.05-0.6-1.36-1.66-2.41-3.01-3.01-1.35-0.6-2.7-0.6-4.21 0l4.81 9.92c1.36-0.6 2.26-1.5 2.71-2.86z"/>
	<path class="s1" d="m454.72 196.07c-0.3-1.2-0.9-2.1-1.5-2.7-0.6-0.6-1.36-0.9-2.11-0.6-0.75 0.3-1.2 0.6-1.5 1.2-0.3 0.6-0.3 1.65 0 3.01l0.45 2.85c0.45 2.41 0.3 4.36-0.3 5.71-0.6 1.36-1.8 2.26-3.61 2.86-2.25 0.6-4.21 0.3-5.86-1.05q-2.48-2.03-3.61-5.87c-0.9-3.15-1.2-6.16-0.45-8.86l4.51-2.26 2.11 4.06-2.41 1.2c-0.3 1.36-0.15 2.86 0.3 4.21 0.45 1.35 0.9 2.41 1.66 3.16 0.75 0.75 1.5 0.9 2.25 0.75 0.6-0.15 1.05-0.6 1.35-1.2 0.3-0.6 0.15-1.51 0-2.86l-0.45-2.7c-0.3-2.41-0.15-4.21 0.45-5.87 0.6-1.5 1.81-2.55 3.46-3q2.93-0.9 5.41 0.9c1.65 1.2 2.86 3.16 3.61 5.71 0.9 2.86 0.9 5.41 0.15 7.97l-4.06 2.1-1.95-3.61 2.55-1.5q0.23-2.03-0.45-3.61z"/>
	<path class="s1" d="m462.84 215.01l1.5 9.17-16.68 2.86 0.6 3.9-4.21 0.75-2.26-13.07 4.21-0.75 0.6 3.91 12.48-2.11-0.6-3.91zm10.52 6.92c-0.45 0.75-1.2 1.05-2.26 1.35-0.9 0.15-1.8 0-2.55-0.45-0.75-0.45-1.05-1.2-1.35-2.26-0.3-1.05 0-1.8 0.45-2.4 0.45-0.75 1.2-1.05 2.25-1.2 0.9-0.15 1.81 0 2.41 0.45 0.75 0.45 1.05 1.2 1.2 2.1 0.6 0.9 0.45 1.66-0.15 2.41z"/>
	<path class="s1" d="m45.75 307.75l4.51-1.51 1.5 4.51 19.69 1.21-1.2-3.76 4.51-1.5 3.3 10.22-19.23 15.33 1.35 4.05-4.51 1.51-3.76-11.73 4.51-1.5 0.75 2.41 3.46-2.71-2.86-9.02-4.35-0.15 0.9 2.56-4.51 1.5zm15.78 7.97l2.1 6.46 8.42-6.16z"/>
	<path class="s1" d="m62.88 349.98c0.61-1.8 2.26-3.45 4.96-4.66l8.27-4.06-1.8-3.45 3.75-1.96 1.81 3.46 3.61-1.8 3.75 3.91-5.11 2.55 2.56 5.11-3.76 1.95-2.55-5.11-6.92 3.46c-3.46 1.65-4.66 3.46-3.76 5.41 0.45 0.75 1.21 1.51 2.26 2.41l-3.16 2.7c-1.65-1.2-2.7-2.55-3.3-3.76-1.06-2.4-1.36-4.35-0.61-6.16z"/>
	<path class="s1" d="m76.56 377.94c-1.65-2.41-2.4-4.51-2.4-6.46 0-1.96 1.05-3.46 2.85-4.81 1.81-1.21 3.46-1.51 5.26-0.91 1.81 0.61 3.46 2.11 4.96 4.36l3.01 4.36c1.5-1.05 2.4-2.1 2.7-3.31 0.31-1.2 0.15-2.25-0.6-3.3-0.75-1.05-1.65-1.96-2.55-2.86l-2.11 0.9-2.1-4.05 4.66-2.11c2.25 1.66 4.06 3.46 5.71 5.71 1.8 2.56 2.41 4.96 1.95 7.22-0.45 2.25-1.95 4.36-4.5 6.01l-6.47 4.51 1.2 4.06-4.5 1.35-1.81-6.16c-2.1-1.2-3.91-2.71-5.26-4.51zm5.86-7.22c-0.75-0.15-1.5 0-2.4 0.61-1.5 1.05-1.5 2.55-0.15 4.5 1.05 1.36 2.25 2.41 3.91 3.16l3.6-2.4-2.85-4.21c-0.6-1.05-1.36-1.51-2.11-1.66z"/>
	<path class="s1" d="m96.4 399.88c0.15-1.95 1.2-3.91 3.46-5.86l6.76-6.16-2.7-2.86 3.15-2.85 2.71 2.85 3-2.7 4.66 2.85-4.2 3.76 3.9 4.21-3.15 2.85-3.91-4.2-5.71 5.26c-2.86 2.55-3.46 4.66-2.11 6.16 0.6 0.6 1.51 1.2 2.86 1.65l-2.26 3.46c-1.95-0.75-3.3-1.65-4.2-2.71-1.66-1.95-2.41-3.75-2.26-5.71z"/>
	<path class="s1" d="m123.16 427.09q-1.81-0.68-3.16-1.81c-2.56-1.95-3.91-4.05-4.21-6.01-0.3-2.1 0.45-4.21 2.41-6.61l5.71-7.07-2.86-2.4 2.71-3.31 7.06 5.71-7.82 9.77c-1.05 1.36-1.65 2.56-1.5 3.46 0 1.05 0.6 1.95 1.81 2.86q0.9 0.67 2.25 1.35 1.35 0.68 2.71 0.9l7.36-9.17-2.86-2.4 2.71-3.31 7.06 5.71-10.07 12.63 2.41 3.76-4.06 2.7-3.76-5.71c-1.35-0.15-2.7-0.6-3.9-1.05zm14.42-27.66c0.15 0.9-0.15 1.65-0.75 2.41-0.6 0.75-1.35 1.05-2.25 1.2-0.9 0.15-1.66-0.15-2.41-0.6-0.75-0.6-1.05-1.2-1.2-2.11-0.15-0.9 0.15-1.65 0.6-2.4 0.6-0.75 1.35-1.05 2.26-1.2 0.9-0.15 1.65 0.15 2.4 0.75 0.9 0.3 1.2 1.05 1.35 1.95zm7.07 5.71c0.15 0.9-0.15 1.66-0.75 2.41-0.6 0.75-1.36 1.05-2.11 1.2-0.9 0.15-1.65-0.15-2.4-0.6-0.75-0.6-1.05-1.2-1.2-2.11-0.16-0.9 0.15-1.65 0.6-2.4 0.6-0.75 1.35-1.05 2.25-1.2 0.9-0.15 1.65 0.15 2.41 0.75 0.75 0.3 1.05 1.05 1.2 1.95z"/>
	<path class="s1" d="m166.74 428.74c1.05 0.6 1.96 1.35 2.56 2.25l-2.26 5.57-4.36-1.36 0.91-2.4c-1.96-0.9-3.76-1.35-5.41-1.05l-5.42 9.62 4.06 2.25-2.1 3.76-12.18-6.92 2.11-3.75 3.46 1.95 5.71-10.07-3.16-3.61 3.31-3 4.96 5.41c3.15-0.15 5.86 0.3 7.81 1.35z"/>
	<path class="s1" d="m181.32 425.13l6.92 5.71-5.72 15.34 3.31 1.2 3.76-3.16-2.26-0.9 1.51-4.06 10.67 3.91-1.5 4.06-3.31-1.2-6.01 4.5 1.8 7.37 3.76 1.35-1.51 4.06-6.16-2.25-1.95-9.62-3.61-1.36-1.35 3.76 1.5 0.6-1.5 4.06-10.37-3.76 1.5-4.06 3.76 1.36 7.51-20.29-3.75-3.01z"/>
	<path class="s1" d="m246.55 470.52c-1.95 1.81-4.81 2.41-8.41 2.11-3.61-0.3-6.32-1.5-7.97-3.46-1.65-2.1-2.4-4.81-2.1-8.42l1.05-12.92-4.06-0.3 0.45-4.81 12.17 1.05-0.45 4.81-2.7-0.3-1.2 13.98c-0.15 1.95 0.15 3.3 1.05 4.36 0.9 0.9 2.1 1.5 3.91 1.65 3.6 0.3 5.56-1.5 5.86-5.56l1.05-13.38-2.71-0.15 0.46-4.81 12.17 1.05-0.45 4.81-4.06-0.3-1.05 12.93c0.15 3.31-0.9 6.01-3.01 7.66z"/>
	<path class="s1" d="m264.89 468.42l4.06-0.45-1.2-11.42-4.66-1.06 0.9-4.35 6.76 1.65c1.2-1.05 2.41-1.8 3.61-2.41 1.2-0.6 2.7-0.9 4.21-1.05 2.7-0.3 4.96 0.3 6.46 1.81 1.5 1.5 2.4 3.45 2.71 6.16l0.9 8.87 3.91-0.46 0.45 4.36-11.28 1.21-0.45-4.36 1.96-0.15-0.91-8.12c-0.3-3.31-1.95-4.66-4.65-4.36-0.91 0.15-1.81 0.3-2.56 0.75q-1.35 0.68-2.25 1.36l1.2 11.42 1.95-0.15 0.45 4.36-11.27 1.2z"/>
	<path class="s1" d="m299.46 446.78l9.02-2.41 4.21 16.38 3.75-1.05 1.06 4.21-12.93 3.31-1.05-4.21 3.75-1.05-3.15-12.18-3.76 1.05zm5.86-11.27c0.75 0.45 1.2 1.05 1.51 2.11 0.3 0.9 0.15 1.8-0.31 2.55-0.45 0.75-1.05 1.2-2.1 1.5-0.9 0.31-1.8 0.15-2.55-0.3-0.76-0.45-1.21-1.05-1.51-2.1-0.3-0.9-0.15-1.8 0.3-2.56 0.45-0.75 1.06-1.2 2.11-1.5 1.05-0.15 1.8-0.15 2.55 0.3z"/>
	<path class="s1" d="m317.95 441.97l10.67-4.36 1.65 3.91-2.4 0.9 6.01 6.01 3.3 3.46-0.15-4.66 0.15-8.42-2.4 0.9-1.65-3.91 10.52-4.35 1.65 3.9-3.01 1.21-0.6 18.48-5.41 2.26-13.37-12.78-3.16 1.35z"/>
	<path class="s1" d="m370.4 441.22c-1.95 1.2-4.06 1.95-6.01 1.95-1.95 0.15-3.91-0.3-5.56-1.35-1.81-0.91-3.16-2.41-4.36-4.36-1.2-1.96-1.8-3.91-1.95-5.86-0.15-1.96 0.3-3.76 1.2-5.57 0.9-1.65 2.25-3.15 4.21-4.2 1.8-1.06 3.6-1.66 5.56-1.81 1.8-0.15 3.6 0.3 5.11 1.21q2.48 1.35 4.06 4.05c0.45 0.75 0.75 1.51 1.2 2.41l-13.98 8.42c1.05 1.5 2.25 2.25 3.91 2.4 1.5 0.15 3-0.3 4.66-1.2 2.25-1.36 3.75-3.31 4.81-5.71l3.3 1.8c-1.5 3.61-3.45 6.16-6.16 7.82zm-6.31-16.24c-1.35-0.3-2.71-0.15-4.06 0.75-1.35 0.76-2.25 1.96-2.7 3.31-0.46 1.35-0.31 2.86 0.45 4.21l9.46-5.71c-0.75-1.51-1.8-2.26-3.15-2.56z"/>
	<path class="s1" d="m385.73 401.54c0.9-0.76 1.96-1.36 3.01-1.66l4.36 4.06-2.86 3.61-1.95-1.66c-1.51 1.51-2.56 3.01-2.86 4.66l7.07 8.57 3.6-3 2.71 3.3-10.67 9.02-2.71-3.31 3.01-2.55-7.37-8.87-4.51 1.8-1.65-4.2 6.91-2.71c0.76-3.31 2.11-5.56 3.91-7.06z"/>
	<path class="s1" d="m403.77 388.76c-0.75 0.9-1.35 1.8-1.5 2.71-0.16 0.9 0 1.65 0.6 2.1 0.6 0.6 1.2 0.75 1.8 0.6 0.6-0.15 1.5-0.6 2.56-1.5l2.25-1.81c1.8-1.65 3.61-2.4 5.11-2.55 1.5-0.15 3.01 0.45 4.36 1.65 1.65 1.51 2.4 3.31 2.1 5.56-0.3 2.11-1.35 4.21-3 6.17-2.26 2.55-4.66 4.2-7.37 4.96l-4.21-2.71 2.41-3.91 2.25 1.36c1.36-0.61 2.56-1.36 3.46-2.41 0.9-1.05 1.5-2.1 1.8-3.01 0.3-0.9 0-1.8-0.6-2.25-0.45-0.45-1.05-0.6-1.65-0.6-0.6 0.15-1.5 0.6-2.56 1.5l-2.1 1.66c-1.8 1.5-3.61 2.4-5.26 2.55-1.65 0.15-3.16-0.3-4.36-1.5-1.5-1.36-2.25-3.01-1.95-5.11 0.15-2.11 1.2-4.06 3-6.01 1.96-2.26 4.21-3.61 6.62-4.21l3.9 2.4-2.1 3.46-2.71-1.35c-1.2 0.6-2.1 1.35-2.85 2.25z"/>
	<path class="s1" d="m410.38 360.2c0.9-0.15 1.65 0 2.41 0.6 0.75 0.61 1.35 1.21 1.5 2.11 0.15 0.9 0 1.65-0.6 2.4-0.6 0.75-1.2 1.21-2.11 1.36-0.75 0.15-1.65 0-2.4-0.61-0.75-0.6-1.35-1.2-1.5-2.1-0.15-0.75 0-1.65 0.6-2.4 0.6-0.76 1.35-1.21 2.1-1.36zm2.86 12.33l5.41-7.67 13.83 9.62 2.25-3.15 3.61 2.4-7.52 10.97-3.6-2.4 2.25-3.16-10.37-7.21-2.26 3.15z"/>
	<path class="s1" d="m445.55 358.85c-1.8 0.6-4.06 0.15-6.61-1.2l-8.12-4.36-1.8 3.46-3.76-1.96 1.81-3.45-3.61-1.96 1.05-5.26 4.96 2.71 2.71-5.11 3.75 1.95-2.7 5.11 6.76 3.61c3.31 1.8 5.56 1.8 6.61-0.15 0.46-0.75 0.61-1.81 0.61-3.31l3.9 1.05c-0.15 2.11-0.45 3.61-1.05 4.96-1.2 1.96-2.7 3.31-4.51 3.91z"/>
	<path class="s1" d="m445.25 307.6l4.06 1.35-1.2 3.46 16.53 15.03c2.25 1.95 3.76 3.9 4.36 5.56 0.75 1.65 0.75 3.46 0.15 5.11q-0.68 2.03-2.26 3.61l-3.6-2.26c0.45-0.45 0.75-0.9 1.05-1.35 0.3-0.45 0.45-0.75 0.6-1.35 0.3-0.76 0.3-1.36 0.15-1.96-0.15-0.6-0.6-1.2-1.2-1.95-0.6-0.75-1.65-1.66-3.01-2.86l-19.54 1.96-1.2 3.3-4.06-1.35 3.76-10.97 4.06 1.35-0.9 2.41 13.07-0.91-9.92-8.56-0.75 2.25-3.91-1.65z"/>
	<path class="s1" d="m45 268.97c-1.5-4.81 1.35-9.92 6.16-11.27 4.81-1.51 9.92 1.35 11.27 6.16 1.36 4.81-1.35 9.92-6.16 11.42-4.81 1.2-9.92-1.5-11.27-6.31z"/>
	<path class="s1" d="m450.21 268.97c-1.5-4.81 1.35-9.92 6.16-11.27 4.81-1.51 9.92 1.35 11.28 6.16 1.35 4.81-1.36 9.92-6.17 11.42-4.66 1.2-9.77-1.5-11.27-6.31z"/>
	<path class="s1" d="m88.74 264.31c-4.51-98.9 77.85-180.66 176.75-175.25 88.68 4.81 158.87 78.31 158.42 168.19-0.45 92.58-75.75 167.43-168.34 166.98-89.73-0.45-162.63-71.24-166.83-159.92z"/>
	<path class="s0" d="m169.75 173.68c1.05-2.71 4.06-4.21 6.76-3.31 2.71 1.05 4.21 4.06 3.31 6.77-1.05 2.85-4.06 4.2-6.76 3.3-2.86-1.05-4.36-4.06-3.31-6.76z"/>
	<path class="s0" d="m162.68 329.09c-1.95-2.25-1.65-5.71 0.61-7.66 2.25-1.96 5.71-1.66 7.66 0.6 1.95 2.25 1.65 5.71-0.6 7.66-2.25 1.96-5.71 1.81-7.67-0.6z"/>
	<path class="s0" d="m198.91 172.93l-4.66-2.11c-0.45-0.15-0.9 0.45-0.45 0.75l3.75 3.61c6.17 6.01 9.02 10.67 9.77 11.88l12.93 9.61-1.8-4.35c-4.21-10.83-12.93-16.54-19.54-19.39z"/>
	<path class="s0" d="m206.27 187.96c-3.46-1.05-6.61-0.75-9.17 0.75l-2.85 1.65 24.65 6.77-12.18-9.02z"/>
	<path class="s0" d="m182.37 195.32l-5.71-1.05c-0.45-0.15-0.75 0.6-0.3 0.9l4.81 2.71c8.12 4.66 12.33 8.56 13.38 9.77l16.23 6.76-2.85-4.06c-7.07-9.62-17.74-13.53-25.56-15.03z"/>
	<path class="s0" d="m193.95 208.7c-3.91-0.3-7.22 0.75-9.77 2.7l-2.71 2.26 28.26 1.5-15.33-6.31z"/>
	<path class="s0" d="m150.36 200.28c0.45-3 3.16-4.96 6.01-4.66 3.01 0.45 4.96 3.16 4.66 6.01-0.45 3.01-3.16 4.96-6.01 4.66-3.01-0.3-5.11-3-4.66-6.01z"/>
	<path class="s0" d="m171.7 219.22h-6.46c-0.45 0-0.6 0.75-0.15 0.9l6.01 2.11c9.32 3.3 14.73 6.61 16.08 7.66l18.19 3.76-3.91-3.61c-9.47-8.87-21.49-10.82-29.76-10.82z"/>
	<path class="s0" d="m186.73 231.09c-4.06 0.45-7.36 2.26-9.32 4.96l-2.25 2.86 29.31-4.21-17.29-3.61z"/>
	<path class="s0" d="m146 237.58c-3.25 0-5.89-2.63-5.89-5.89 0-3.25 2.64-5.88 5.89-5.88 3.26 0 5.89 2.63 5.89 5.88 0 3.26-2.63 5.89-5.89 5.89z"/>
	<path class="s0" d="m166.59 247.78l-6.61 1.2c-0.45 0.15-0.45 0.75 0 0.9l6.61 0.9c10.22 1.36 16.54 3.61 18.19 4.21l19.54 0.15-4.81-2.85c-11.73-6.77-24.35-6.17-32.92-4.51z"/>
	<path class="s0" d="m184.63 256.34c-4.06 1.36-6.92 3.61-8.42 6.62l-1.65 3.3 29.01-9.92-18.49-0.15z"/>
	<path class="s0" d="m138.79 267.32c-0.91-3.16 0.9-6.32 3.9-7.37 3.16-0.9 6.32 0.9 7.37 3.91 0.9 3.16-0.9 6.31-3.91 7.36-3.16 1.06-6.46-0.75-7.36-3.9z"/>
	<path class="s0" d="m164.79 277.24l-5.71 2.1c-0.45 0.15-0.3 0.9 0.15 0.9l6.31-0.3c10.07-0.6 16.53 0.3 18.19 0.75l18.63-3.3-5.26-1.66c-12.62-4.21-24.65-1.5-32.31 1.51z"/>
	<path class="s0" d="m183.88 281.9c-3.61 1.95-5.86 4.5-6.47 7.36l-0.75 3.31 25.55-13.98-17.58 3.01z"/>
	<path class="s0" d="m143.45 299.63c-1.36-2.55-0.46-5.86 2.1-7.36 2.56-1.36 5.86-0.45 7.36 2.1 1.36 2.71 0.46 5.86-2.1 7.37-2.7 1.5-6.01 0.6-7.36-2.11z"/>
	<path class="s0" d="m176.06 303.39l-4.21 3.16c-0.45 0.3-0.15 1.05 0.45 0.9l5.11-1.51c8.42-2.4 13.98-2.55 15.49-2.55l14.87-6.46-4.8-0.76c-11.58-1.8-21.05 2.86-26.91 7.22z"/>
	<path class="s0" d="m193.05 304.59c-2.56 2.41-3.91 5.41-3.91 8.42v3.3l18.48-18.18-14.12 6.16z"/>
	<path class="s0" d="m342.9 173.68c-1.06-2.71-4.06-4.21-6.77-3.31-2.7 1.05-4.21 4.06-3.3 6.77 1.05 2.85 4.05 4.2 6.76 3.3 2.86-1.05 4.36-4.06 3.31-6.76z"/>
	<path class="s0" d="m349.96 329.09c1.95-2.25 1.65-5.71-0.6-7.66-2.26-1.96-5.71-1.66-7.67 0.6-1.95 2.25-1.65 5.71 0.6 7.66 2.26 1.96 5.72 1.81 7.67-0.6z"/>
	<path class="s0" d="m313.74 172.93l4.66-2.11c0.45-0.15 0.9 0.45 0.45 0.75l-3.76 3.61c-6.16 6.01-9.02 10.67-9.77 11.88l-12.93 9.61 1.81-4.35c4.21-10.83 12.92-16.54 19.54-19.39z"/>
	<path class="s0" d="m306.22 187.96c3.46-1.05 6.62-0.75 9.17 0.75l2.86 1.65-24.65 6.77 12.17-9.02z"/>
	<path class="s0" d="m330.27 195.32l5.71-1.05c0.45-0.15 0.75 0.6 0.3 0.9l-4.81 2.71c-8.11 4.66-12.32 8.56-13.37 9.77l-16.24 6.76 2.86-4.06c6.91-9.62 17.74-13.53 25.55-15.03z"/>
	<path class="s0" d="m318.7 208.7c3.91-0.3 7.21 0.75 9.77 2.7l2.7 2.26-28.25 1.5 15.33-6.31z"/>
	<path class="s0" d="m362.29 200.28c-0.46-3-3.16-4.96-6.02-4.66-3 0.45-4.96 3.16-4.66 6.01 0.45 3.01 3.16 4.96 6.02 4.66 3-0.3 5.11-3 4.66-6.01z"/>
	<path class="s0" d="m340.94 219.22h6.47c0.45 0 0.6 0.75 0.15 0.9l-6.02 2.11c-9.32 3.3-14.73 6.61-16.08 7.66l-18.19 3.76 3.91-3.61c9.47-8.87 21.35-10.82 29.76-10.82z"/>
	<path class="s0" d="m325.91 231.09c4.06 0.45 7.37 2.26 9.32 4.96l2.26 2.86-29.31-4.21 17.28-3.61z"/>
	<path class="s0" d="m366.49 237.58c-3.25 0-5.88-2.63-5.88-5.89 0-3.25 2.63-5.88 5.88-5.88 3.26 0 5.89 2.63 5.89 5.88 0 3.26-2.63 5.89-5.89 5.89z"/>
	<path class="s0" d="m346.05 247.78l6.62 1.2c0.45 0.15 0.45 0.75 0 0.9l-6.62 0.9c-10.22 1.36-16.53 3.61-18.18 4.21l-19.54 0.15 4.81-2.85c11.72-6.77 24.35-6.17 32.91-4.51z"/>
	<path class="s0" d="m328.02 256.34c4.05 1.36 6.91 3.61 8.41 6.62l1.66 3.3-29.01-9.92 18.49-0.15z"/>
	<path class="s0" d="m373.86 267.32c0.9-3.16-0.9-6.32-3.91-7.37-3.16-0.9-6.31 0.9-7.36 3.91-0.91 3.16 0.9 6.31 3.9 7.36 3.16 1.06 6.32-0.75 7.37-3.9z"/>
	<path class="s0" d="m347.86 277.24l5.71 2.1c0.45 0.15 0.3 0.9-0.15 0.9l-6.32-0.3c-10.07-0.6-16.53 0.3-18.18 0.75l-18.64-3.3 5.26-1.66c12.63-4.21 24.5-1.5 32.32 1.51z"/>
	<path class="s0" d="m328.62 281.9c3.6 1.95 5.86 4.5 6.46 7.36l0.75 3.31-25.55-13.98 17.59 3.01z"/>
	<path class="s0" d="m369.2 299.63c1.35-2.55 0.45-5.86-2.11-7.36-2.55-1.36-5.86-0.45-7.36 2.1-1.35 2.71-0.45 5.86 2.1 7.37 2.71 1.5 5.87 0.6 7.37-2.11z"/>
	<path class="s0" d="m336.58 303.39l4.21 3.16c0.45 0.3 0.15 1.05-0.45 0.9l-5.11-1.51c-8.42-2.4-13.98-2.55-15.48-2.55l-14.88-6.46 4.81-0.76c11.57-1.8 21.04 2.86 26.9 7.22z"/>
	<path class="s0" d="m319.6 304.59c2.55 2.41 3.91 5.41 3.91 8.42v3.3l-18.49-18.18 14.13 6.16z"/>
	<path class="s0" d="m265.64 331.8c-0.3 1.8-4.36 5.41-9.47 5.41-4.96 0-9.17-3.61-9.47-5.41-2.55 2.4-4.21 5.86-4.21 9.77 0 7.51 6.02 13.52 13.53 13.52 7.52 0 13.53-6.01 13.53-13.52 0.3-3.76-1.35-7.22-3.91-9.77z"/>
	<path class="s2" d="m204.47 259.05l-2.41 1.65 33.52 1.66-19.99-5.26c-6.31-0.45-9.62 0.75-11.12 1.95z"/>
	<path class="s2" d="m225.21 254.39c-0.9-0.45-1.8-1.05-2.71-1.35h-0.15c-11.12-5.41-19.69-6.01-23.59-5.86-0.6 0-0.6 0.75-0.15 0.9 8.71 3.15 13.97 5.86 15.03 6.46l20.29 5.26-5.41-3.46c-1.21-0.75-2.26-1.35-3.31-1.95z"/>
	<path class="s2" d="m155.17 168.42c0 0 12.32-6.92 25.1-2.41 9.17 3.16 14.43 10.82 16.68 15.03 0.3 0.6-0.3 1.21-0.75 0.91l-11.57-4.06c-1.5-0.45-2.26-1.81-2.56-3.31-0.45-3.16-2.85-5.86-6.46-6.31-2.71-0.3-5.56 1.05-6.91 3.45-2.41 4.06-0.45 9.02 3.75 10.53 2.86 1.05 5.87 0.15 7.82-1.96 0.75-0.9 1.95-1.2 3.16-0.9l12.02 4.36c0.6 0.15 0.6 1.05 0 1.35-4.36 1.81-13.23 4.21-22.24 1.05-12.78-4.51-18.04-17.73-18.04-17.73z"/>
	<path class="s2" d="m217.09 199.23l-2.7 0.15 23.9 19.39-11.73-15.18c-4.36-3.61-7.51-4.36-9.47-4.36z"/>
	<path class="s2" d="m235.28 206.59c-0.45-0.9-0.75-1.8-1.2-2.7v-0.15c-4.81-9.62-10.22-14.73-13.38-17.14-0.6-0.45-1.35 0.31-0.9 0.91 4.36 6.91 6.46 11.72 6.91 12.62l11.88 15.33-1.96-5.71c-0.45-0.9-0.9-2.1-1.35-3.16z"/>
	<path class="s2" d="m134.88 198.33c0 0 10.67-9.47 24.2-7.67 9.62 1.21 16.38 7.67 19.54 11.28 0.45 0.45 0 1.2-0.6 1.05l-12.33-1.66c-1.5-0.15-2.7-1.35-3.16-2.7-1.05-3.01-4.05-5.11-7.66-4.81-2.71 0.3-5.26 2.25-6.16 4.81-1.51 4.51 1.5 9.02 5.86 9.62 3 0.45 5.86-1.05 7.21-3.61 0.6-1.05 1.66-1.65 2.86-1.5l12.77 1.65c0.61 0.15 0.91 0.9 0.3 1.35-3.9 2.71-12.17 6.92-21.64 5.72-13.23-1.66-21.19-13.53-21.19-13.53z"/>
	<path class="s2" d="m210.48 217.57l-2.71 0.6 27.51 12.77-14.58-11.27c-5.11-2.4-8.27-2.55-10.22-2.1z"/>
	<path class="s2" d="m229.87 220.72c-0.6-0.75-1.2-1.5-1.65-2.1 0 0 0 0-0.15-0.15-6.77-7.97-13.38-11.42-16.84-12.78-0.6-0.3-1.05 0.45-0.6 0.9 5.71 5.42 8.87 9.32 9.47 10.07l14.88 11.43-3.16-4.66c-0.6-1.05-1.35-1.81-1.95-2.71z"/>
	<path class="s2" d="m123.31 233.5c0 0 9.31-12.48 24.19-13.68 10.53-0.75 19.24 4.51 23.45 7.67 0.6 0.45 0.3 1.2-0.45 1.35l-13.53 1.05c-1.65 0.15-3.15-0.75-4.06-2.25-1.8-3.01-5.41-4.66-9.31-3.46-2.86 0.9-5.11 3.61-5.41 6.61-0.61 5.11 3.6 9.32 8.56 8.87 3.31-0.3 6.01-2.55 6.92-5.41 0.45-1.2 1.5-2.1 2.7-2.25l14.13-1.06c0.75 0 1.2 0.75 0.6 1.36-3.61 3.75-11.42 10.22-21.79 10.97-14.88 1.2-26-9.77-26-9.77z"/>
	<path class="s2" d="m206.87 237.86l-2.55 1.2 30.21 7.82-17.14-8.72c-5.56-1.66-8.86-1.05-10.52-0.3z"/>
	<path class="s2" d="m226.86 237.26q-1.12-0.91-2.25-1.81c0 0-0.15 0-0.15-0.15-8.72-6.91-16.23-9.17-19.99-9.92-0.6-0.15-0.9 0.6-0.45 1.05 7.06 4.51 11.27 7.97 12.02 8.72l17.44 8.72-4.21-4.21c-0.75-0.75-1.66-1.65-2.41-2.4z"/>
	<path class="s2" d="m122.55 272.13c0 0 6.47-14.13 20.75-18.34 10.22-3.01 19.84 0.45 24.49 2.55 0.61 0.31 0.46 1.21-0.15 1.36l-13.07 3.9c-1.66 0.46-3.31-0.15-4.36-1.35-2.41-2.55-6.31-3.3-9.77-1.35-2.71 1.5-4.21 4.51-3.91 7.51 0.45 5.27 5.41 8.42 10.22 6.92 3.16-0.9 5.26-3.61 5.71-6.77 0.15-1.35 1.06-2.4 2.26-2.7l13.53-4.06c0.75-0.15 1.35 0.6 0.9 1.2-2.71 4.36-9.02 12.33-19.09 15.33-14.28 4.21-27.51-4.2-27.51-4.2z"/>
	<path class="s2" d="m129.62 307.15c0 0 3.15-13.98 15.18-20.59 8.57-4.66 17.88-3.46 22.54-2.41 0.6 0.15 0.76 0.9 0.15 1.2l-10.97 6.01c-1.35 0.76-3 0.46-4.21-0.45-2.7-1.8-6.31-1.8-9.01 0.61-2.11 1.8-3.01 4.95-2.11 7.51 1.5 4.66 6.46 6.46 10.52 4.36 2.71-1.5 4.06-4.36 3.76-7.22-0.15-1.2 0.45-2.25 1.5-2.85l11.43-6.16c0.6-0.3 1.35 0.3 1.05 0.9-1.66 4.51-5.71 12.77-14.28 17.43-12.02 6.62-25.55 1.66-25.55 1.66z"/>
	<path class="s2" d="m204.17 281.14l-1.96 1.96 33.67-4.51-21.04-1.35c-6.46 0.75-9.32 2.55-10.67 3.9z"/>
	<path class="s2" d="m223.71 273.03c-1.06-0.3-2.11-0.6-3.01-0.9h-0.15c-12.02-3.01-20.59-2.11-24.5-1.36-0.6 0.15-0.6 0.91 0 1.06 9.32 1.35 15.03 3 16.08 3.3l21.35 1.35-6.17-2.25c-1.2-0.45-2.4-0.9-3.6-1.2z"/>
	<path class="s2" d="m150.81 339.31c0 0 0.15-14.43 10.52-23.3 7.52-6.31 16.84-7.06 21.65-7.06 0.6 0 0.9 0.75 0.45 1.2l-9.47 8.12c-1.21 1.05-2.86 1.05-4.21 0.45-3.01-1.2-6.61-0.45-8.72 2.4-1.65 2.26-1.8 5.42-0.45 7.82 2.41 4.21 7.82 4.96 11.27 2.1 2.26-1.95 3.16-5.11 2.26-7.81-0.3-1.2 0-2.41 0.9-3.16l9.92-8.41c0.45-0.46 1.35 0 1.2 0.6-0.75 4.81-3 13.82-10.22 19.99-10.97 9.17-25.1 7.06-25.1 7.06z"/>
	<path class="s2" d="m209.88 300.68l-1.35 2.41 28.85-10.97-18.93 2.55c-5.41 1.96-7.67 4.36-8.57 6.01z"/>
	<path class="s2" d="m225.36 288.66c-1.05-0.15-1.95-0.15-2.86-0.3h-0.15c-11.27-0.75-18.63 1.65-21.94 3.31-0.6 0.3-0.3 1.05 0.3 1.05 8.57-0.3 13.98 0.15 15.03 0.3l19.24-2.71-6.01-1.2q-1.81-0.23-3.61-0.45z"/>
	<path class="s2" d="m308.18 259.05l2.4 1.65-33.52 1.66 19.99-5.26c6.32-0.45 9.47 0.75 11.13 1.95z"/>
	<path class="s2" d="m287.43 254.39c0.91-0.45 1.81-1.05 2.71-1.35h0.15c11.12-5.41 19.69-6.01 23.6-5.86 0.6 0 0.6 0.75 0.15 0.9-8.72 3.15-13.98 5.86-15.03 6.46l-20.29 5.26 5.41-3.46c1.05-0.75 2.25-1.35 3.3-1.95z"/>
	<path class="s2" d="m357.48 168.42c0 0-12.33-6.92-25.1-2.41-9.17 3.16-14.43 10.82-16.69 15.03-0.3 0.6 0.3 1.21 0.75 0.91l11.58-4.06c1.5-0.45 2.25-1.81 2.55-3.31 0.45-3.16 2.86-5.86 6.46-6.31 2.71-0.3 5.57 1.05 6.92 3.45 2.4 4.06 0.45 9.02-3.76 10.53-2.86 1.05-5.86 0.15-7.81-1.96-0.76-0.9-1.96-1.2-3.16-0.9l-12.03 4.36c-0.6 0.15-0.6 1.05 0 1.35 4.36 1.81 13.23 4.21 22.25 1.05 12.77-4.51 18.04-17.73 18.04-17.73z"/>
	<path class="s2" d="m295.55 199.23l2.71 0.15-23.9 19.39 11.72-15.18c4.36-3.61 7.52-4.36 9.47-4.36z"/>
	<path class="s2" d="m277.36 206.59c0.46-0.9 0.76-1.8 1.21-2.7v-0.15c4.81-9.62 10.22-14.73 13.37-17.14 0.61-0.45 1.36 0.31 0.91 0.91-4.36 6.91-6.47 11.72-6.92 12.62l-11.87 15.33 1.95-5.71c0.45-0.9 0.75-2.1 1.35-3.16z"/>
	<path class="s2" d="m377.77 198.33c0 0-10.68-9.47-24.2-7.67-9.62 1.21-16.39 7.67-19.54 11.28-0.45 0.45 0 1.2 0.6 1.05l12.32-1.66c1.51-0.15 2.71-1.35 3.16-2.7 1.05-3.01 4.06-5.11 7.67-4.81 2.7 0.3 5.26 2.25 6.16 4.81 1.5 4.51-1.5 9.02-5.86 9.62-3.01 0.45-5.87-1.05-7.22-3.61-0.6-1.05-1.65-1.65-2.85-1.5l-12.78 1.65c-0.6 0.15-0.9 0.9-0.3 1.35 3.91 2.71 12.17 6.92 21.64 5.72 13.23-1.66 21.2-13.53 21.2-13.53z"/>
	<path class="s2" d="m302.01 217.57l2.71 0.6-27.51 12.77 14.58-11.27c5.26-2.4 8.42-2.55 10.22-2.1z"/>
	<path class="s2" d="m282.78 220.72c0.6-0.75 1.2-1.5 1.65-2.1 0 0 0 0 0.15-0.15 6.76-7.97 13.38-11.42 16.83-12.78 0.6-0.3 1.05 0.45 0.6 0.9-5.71 5.42-8.86 9.32-9.46 10.07l-14.88 11.43 3.15-4.66c0.6-1.05 1.2-1.81 1.96-2.71z"/>
	<path class="s2" d="m389.34 233.5c0 0-9.32-12.48-24.2-13.68-10.52-0.75-19.24 4.51-23.45 7.67-0.6 0.45-0.3 1.2 0.45 1.35l13.53 1.05c1.66 0.15 3.16-0.75 4.06-2.25 1.8-3.01 5.41-4.66 9.32-3.46 2.85 0.9 5.11 3.61 5.41 6.61 0.6 5.11-3.61 9.32-8.57 8.87-3.3-0.3-6.01-2.55-6.91-5.41-0.45-1.2-1.5-2.1-2.71-2.25l-14.13-1.06c-0.75 0-1.2 0.75-0.6 1.36 3.61 3.75 11.43 10.22 21.8 10.97 14.88 1.2 26-9.77 26-9.77z"/>
	<path class="s2" d="m305.77 237.86l2.56 1.2-30.21 7.82 17.13-8.72c5.56-1.66 8.72-1.05 10.52-0.3z"/>
	<path class="s2" d="m285.78 237.26q1.13-0.91 2.26-1.81c0 0 0.15 0 0.15-0.15 8.71-6.91 16.23-9.17 19.99-9.92 0.6-0.15 0.9 0.6 0.45 1.05-7.07 4.51-11.28 7.97-12.03 8.72l-17.43 8.72 4.21-4.21c0.75-0.75 1.5-1.65 2.4-2.4z"/>
	<path class="s2" d="m390.09 272.13c0 0-6.46-14.13-20.74-18.34-10.22-3.01-19.84 0.45-24.5 2.55-0.6 0.31-0.45 1.21 0.15 1.36l13.08 3.9c1.65 0.46 3.3-0.15 4.36-1.35 2.4-2.55 6.31-3.3 9.76-1.35 2.71 1.5 4.21 4.51 3.91 7.51-0.45 5.27-5.41 8.42-10.22 6.92-3.15-0.9-5.26-3.61-5.71-6.77-0.15-1.35-1.05-2.4-2.25-2.7l-13.53-4.06c-0.75-0.15-1.35 0.6-0.9 1.2 2.7 4.36 9.02 12.33 19.09 15.33 14.27 4.21 27.5-4.2 27.5-4.2z"/>
	<path class="s2" d="m382.88 307.15c0 0-3.16-13.98-15.18-20.59-8.57-4.66-17.89-3.46-22.55-2.41-0.6 0.15-0.75 0.9-0.15 1.2l10.97 6.01c1.36 0.76 3.01 0.46 4.21-0.45 2.71-1.8 6.31-1.8 9.02 0.61 2.1 1.8 3 4.95 2.1 7.51-1.5 4.66-6.46 6.46-10.52 4.36-2.7-1.5-4.06-4.36-3.76-7.22 0.15-1.2-0.45-2.25-1.5-2.85l-11.42-6.16c-0.6-0.3-1.35 0.3-1.05 0.9 1.65 4.51 5.71 12.77 14.28 17.43 12.17 6.62 25.55 1.66 25.55 1.66z"/>
	<path class="s2" d="m308.48 281.14l1.95 1.96-33.67-4.51 21.05-1.35c6.31 0.75 9.31 2.55 10.67 3.9z"/>
	<path class="s2" d="m288.94 273.03c1.05-0.3 2.1-0.6 3-0.9h0.15c12.03-3.01 20.6-2.11 24.5-1.36 0.6 0.15 0.6 0.91 0 1.06-9.32 1.35-15.03 3-16.08 3.3l-21.34 1.35 6.16-2.25c1.05-0.45 2.41-0.9 3.61-1.2z"/>
	<path class="s2" d="m361.83 339.31c0 0-0.15-14.43-10.52-23.3-7.51-6.31-16.83-7.06-21.64-7.06-0.6 0-0.9 0.75-0.45 1.2l9.47 8.12c1.2 1.05 2.85 1.05 4.21 0.45 3-1.2 6.61-0.45 8.71 2.4 1.66 2.26 1.81 5.42 0.45 7.82-2.4 4.21-7.81 4.96-11.27 2.1-2.25-1.95-3.15-5.11-2.25-7.81 0.3-1.2 0-2.41-0.9-3.16l-9.92-8.41c-0.46-0.46-1.36 0-1.21 0.6 0.75 4.81 3.01 13.82 10.22 19.99 10.83 9.17 25.1 7.06 25.1 7.06z"/>
	<path class="s2" d="m302.77 300.68l1.35 2.41-28.86-10.97 18.94 2.55c5.41 1.96 7.66 4.36 8.57 6.01z"/>
	<path class="s2" d="m287.28 288.66c1.06-0.15 1.96-0.15 2.86-0.3h0.15c11.27-0.75 18.64 1.65 21.94 3.31 0.61 0.3 0.31 1.05-0.3 1.05-8.56-0.3-13.97 0.15-15.03 0.3l-19.23-2.71 6.01-1.2q1.8-0.23 3.6-0.45z"/>
	<path class="s2" d="m271.5 287.16c-5.41 0-10.37 2.85-13.98 7.51-0.75 0.9-1.65 0.9-2.4 0-3.76-4.66-8.57-7.51-13.98-7.51-0.75 0-1.35 0-2.1 0.15 5.86 2.7 10.82 7.96 14.28 14.88 0.6 1.2 1.2 2.55 1.65 3.9 0.6 1.51 2.1 1.51 2.55 0 0.46-1.35 1.06-2.7 1.66-3.9 3.46-6.92 8.41-12.18 14.28-14.88-0.6-0.15-1.21-0.15-1.96-0.15z"/>
	<path class="s2" d="m272.86 270.77c-5.87 0-11.28 2.56-15.34 6.92-0.75 0.75-1.8 0.75-2.55 0-4.06-4.21-9.47-6.92-15.33-6.92-0.75 0-1.5 0-2.26 0.15 6.47 2.41 11.88 7.22 15.64 13.53 0.75 1.2 1.35 2.56 1.95 3.91 0.6 1.2 1.95 1.2 2.55 0 0.61-1.35 1.21-2.71 1.96-3.91 3.76-6.16 9.17-10.97 15.63-13.53-0.75-0.15-1.5-0.15-2.25-0.15z"/>
	<path class="s2" d="m274.21 255.89c-6.46 0-12.33 2.41-16.69 6.47-0.75 0.75-1.95 0.75-2.7 0-4.36-4.06-10.22-6.47-16.68-6.47-0.76 0-1.66 0-2.41 0.15 6.91 2.26 12.78 6.77 16.83 12.48 0.91 1.2 1.66 2.4 2.26 3.76 0.6 1.05 1.95 1.05 2.55 0 0.61-1.36 1.36-2.56 2.26-3.76 4.06-5.71 9.92-10.22 16.83-12.48-0.6-0.15-1.35-0.15-2.25-0.15z"/>
	<path class="s2" d="m272.86 238.01c-6.32 0-11.88 3.15-15.94 8.26-0.3 0.46-0.9 0.46-1.2 0-4.06-5.11-9.77-8.26-15.93-8.26-0.75 0-1.5 0-2.26 0.15 6.47 2.7 11.88 7.81 15.64 14.73 0.75 1.35 1.35 2.85 1.95 4.21 0.6 1.35 1.95 1.35 2.56 0 0.6-1.51 1.2-2.86 1.95-4.21 3.76-6.77 9.17-12.03 15.63-14.73-0.9-0.15-1.65-0.15-2.4-0.15z"/>
	<path class="s2" d="m271.5 222.23c-5.56 0-10.52 2.7-14.28 7.21-0.6 0.6-1.35 0.6-1.95 0-3.76-4.51-8.72-7.21-14.28-7.21-0.75 0-1.35 0-2.1 0.15 5.86 2.55 10.82 7.36 14.28 13.67 0.6 1.21 1.2 2.41 1.8 3.76 0.6 1.35 1.95 1.35 2.55 0 0.46-1.2 1.06-2.55 1.81-3.76 3.46-6.31 8.42-11.27 14.28-13.67-0.75-0.15-1.36-0.15-2.11-0.15z"/>
	<path class="s2" d="m270.15 208.7c-4.81 0-9.32 2.1-12.63 5.71-0.75 0.75-1.8 0.75-2.4 0-3.31-3.61-7.82-5.71-12.63-5.71-0.6 0-1.2 0-1.8 0.15 5.26 2.1 9.92 6.16 12.93 11.57 0.6 0.9 1.05 1.81 1.5 2.86 0.6 1.2 1.95 1.2 2.56 0 0.45-1.05 0.9-1.96 1.5-2.86 3.15-5.41 7.66-9.47 12.92-11.57-0.75-0.15-1.35-0.15-1.95-0.15z"/>
	<path class="s2" d="m265.34 361.86c0.9 0.75 4.51 0.9 7.06-1.06 2.56-2.1 3.16-5.71 2.56-6.76 2.4 0.15 4.66 1.35 6.16 3.31 3.16 3.9 2.56 9.47-1.35 12.62-3.91 3.16-9.47 2.56-12.63-1.35-1.5-2.1-2.1-4.51-1.8-6.76z"/>
	<path class="s2" d="m247.15 361.86c-0.9 0.75-4.51 0.9-7.06-1.06-2.56-2.1-3.16-5.71-2.56-6.76-2.4 0.15-4.65 1.35-6.16 3.31-3.15 3.9-2.55 9.47 1.36 12.62 3.9 3.16 9.46 2.56 12.62-1.35 1.5-2.1 2.1-4.51 1.8-6.76z"/>
	<path class="s2" d="m203.27 363.96q-0.68 0-1.36-0.45c-0.9-0.75-1.05-2.1-0.3-3.01q2.03-2.25 4.96-3.15 2.93-0.68 5.86 0.45c1.06 0.45 1.66 1.65 1.06 2.85-0.45 1.06-1.66 1.66-2.86 1.06-1.05-0.46-2.1-0.46-3.16-0.3-1.05 0.3-1.95 0.75-2.55 1.65-0.45 0.6-1.05 0.9-1.65 0.9z"/>
	<path class="s2" d="m309.53 363.96c-0.6 0-1.2-0.3-1.65-0.75-0.76-0.9-1.66-1.35-2.56-1.65-1.05-0.31-2.1-0.15-3.16 0.3-1.05 0.45-2.4 0-2.85-1.06-0.45-1.05 0-2.4 1.05-2.85 1.8-0.75 3.91-0.9 5.86-0.45q2.93 0.67 4.96 3.15c0.75 0.91 0.6 2.26-0.3 3.01-0.3 0.15-0.9 0.3-1.35 0.3z"/>
	<path class="s2" d="m249.86 394.32l6.31 5.56 6.31-5.56c0 0 1.81-1.8 0-3.91-1.65-2.1-2.85-3.6-4.35-1.5-0.61 0.6-2.26 1.8-4.21-0.15-1.51-1.95-2.71-0.3-4.36 1.65-1.5 2.11 0.3 3.91 0.3 3.91z"/>
	<path class="s2" d="m256.32 388.46c-1.16 0-2.1-1.48-2.1-3.31 0-1.83 0.94-3.3 2.1-3.3 1.17 0 2.11 1.47 2.11 3.3 0 1.83-0.94 3.31-2.11 3.31z"/>
	<path class="s2" d="m201.91 323.23c0 0 2.26 1.95 2.56 7.06 0 0 0 2.86 2.55 3.31 2.41 0.45 4.36-1.95 4.06-8.42 0-0.3-0.45-0.45-0.6-0.15-0.6 0.75-1.5 1.96-2.71 3.01-0.15 0-1.5-5.26-5.86-4.81z"/>
	<path class="s2" d="m207.62 340.21c1.81-8.41 10.68-13.83 18.19-11.12 7.67 2.71 9.62 13.23 2.11 16.83-6.47 2.56-12.63-4.05-9.02-9.46 1.5-2.11 4.21-2.56 5.41-1.81 1.65 0.9 1.95 3.16 0.3 4.21-0.9 1.05-0.75 3.46 1.5 3.16 1.35-0.3 2.71-1.66 3.01-3.91 0.9-6.31-9.62-9.17-12.93-1.81-1.65 3.61-0.15 6.02 1.5 9.02 0.76 1.51 2.26 6.32-0.45 9.17-0.6 0.75-2.7 2.86-6.91 1.35-1.05-0.45-4.21-1.8-8.42 1.51-2.25 1.8-4.96 0.15-6.01-1.05-4.06-4.96 0.75-10.98 1.05-15.49 1.21-7.51-4.51-10.37-5.56-9.01 1.2-3.61 11.58-4.21 16.23 8.41z"/>
	<path class="s2" d="m310.58 323.23c0 0-2.25 1.95-2.55 7.06 0 0 0 2.86-2.56 3.31-2.4 0.45-4.36-1.95-4.06-8.42 0-0.3 0.45-0.45 0.6-0.15 0.61 0.75 1.51 1.96 2.71 3.01 0.15 0 1.5-5.26 5.86-4.81z"/>
	<path class="s2" d="m304.87 340.21c-1.8-8.41-10.67-13.83-18.19-11.12-7.66 2.71-9.62 13.23-2.1 16.83 6.46 2.56 12.62-4.05 9.02-9.46-1.51-2.11-4.21-2.56-5.41-1.81-1.66 0.9-1.96 3.16-0.3 4.21 0.9 1.05 0.75 3.46-1.51 3.16-1.35-0.3-2.7-1.66-3-3.91-0.91-6.31 9.62-9.17 12.92-1.81 1.66 3.61 0.15 6.02-1.5 9.02-0.75 1.51-2.25 6.32 0.45 9.17 0.6 0.75 2.71 2.86 6.91 1.35 1.06-0.45 4.21-1.8 8.42 1.51 2.26 1.8 4.96 0.15 6.01-1.05 4.06-4.96-0.75-10.98-1.05-15.49-1.2-7.51 4.51-10.37 5.56-9.01-1.2-3.61-11.57-4.21-16.23 8.41z"/>
	<path class="s2" d="m304.57 363.36c-2.11-0.45-4.06 0.75-4.66 2.85-2.1 8.42-10.37 14.58-19.69 14.58-10.52 0-19.09-11.72-20.14-21.64 0-0.6-0.6-0.9-1.2-0.9-0.9 0.15-1.81 0.3-2.86 0.3-0.9 0-1.8 0-2.7-0.15-0.6-0.15-1.21 0.3-1.21 0.9-1.05 9.92-9.62 21.64-20.14 21.64-9.32 0-17.58-6.01-19.69-14.42-0.45-1.96-2.4-3.31-4.51-3.01-2.1 0.45-3.45 2.55-3 4.66 2.85 12.02 13.98 20.29 27.05 20.29 10.22 0 19.09-5.26 24.05-12.93 4.81 7.82 13.83 12.93 24.05 12.93 13.08 0 24.2-8.42 27.05-20.29 0.91-2.26-0.45-4.36-2.4-4.81z"/>
	<path class="s2" d="m256.17 132.35c-1.24 0-2.25-1.48-2.25-3.31 0-1.83 1.01-3.31 2.25-3.31 1.25 0 2.26 1.48 2.26 3.31 0 1.83-1.01 3.31-2.26 3.31z"/>
	<path class="s2" d="m296.45 160.9c-7.96-5.71-5.86-16.98-5.86-16.98 0.3-3.16-1.2-4.06-2.25-4.36-5.26-1.35-7.97 6.16-16.54 7.52-4.96 0.75-8.56-2.86-15.33-2.86-6.76 0-10.67 3.61-15.48 2.86-8.72-1.51-11.27-9.02-16.53-7.52-1.2 0.3-2.71 1.35-2.26 4.36 0 0 2.11 11.27-5.86 16.98-0.3 0.15-1.35 1.96 0.9 2.41 5.41 1.2 11.28-2.26 10.83-6.16-0.61-5.87 1.65-9.62 5.26-9.02 4.2 0.75 4.05 5.26 1.05 8.71-1.05 1.21-2.56 2.26-1.2 4.06 0.45 0.45 1.2 0.75 1.8 0.75 0.6 0 1.05 0.61 0.45 1.21 0 0-2.4 3.45-7.06 7.06-0.3 0.15-1.66 1.05-3.16 0.15-1.35-0.9-4.66-2.7-6.31-2.25-0.6 0.15-1.21 0.9-0.9 1.8 0 0 6.46 3.61 10.82 10.37 0 0 4.06 1.5 0.15-5.41-0.3-0.45-0.6-1.95 0.45-2.71 1.35-1.05 7.51-6.31 8.72-7.21 0.3-0.15 1.35-0.9 1.95 0 0.75 1.2 3.46 2.25 4.21-1.05 0.6-3.01 6.46-3.91 7.36 1.05 0.9 4.36-4.21 9.62-12.47 10.37-3.46 0.3-5.71 4.06-4.06 6.61 2.1 3.16 6.31 0.91 6.91 0.61 3.31-1.81 10.37-7.07 12.93-15.34 0 0 0.45-1.8 1.35-1.8 0.9 0 1.36 1.8 1.36 1.8 2.55 8.27 9.76 13.53 12.92 15.34 0.6 0.3 4.81 2.55 6.91-0.61 1.66-2.55-0.6-6.31-4.05-6.61-8.12-0.75-13.23-6.01-12.48-10.37 0.9-4.96 6.77-4.06 7.37-1.05 0.6 3.3 3.45 2.25 4.2 1.05 0.61-1.05 1.66-0.3 1.96 0 1.2 0.9 7.36 6.16 8.72 7.21 1.05 0.76 0.75 2.11 0.45 2.71-3.91 6.91 0.15 5.41 0.15 5.41 4.36-6.76 10.82-10.37 10.82-10.37 0.3-1.05-0.15-1.65-0.9-1.8-1.66-0.45-4.96 1.35-6.32 2.25-1.5 1.05-2.85 0.15-3.15-0.15-4.66-3.61-7.07-7.06-7.07-7.06-0.6-0.6-0.15-1.21 0.46-1.21 0.6 0 1.5-0.3 1.8-0.75 1.35-1.8-0.15-2.85-1.2-4.06-3.01-3.45-3.16-8.11 1.05-8.71 3.46-0.6 5.86 3.15 5.26 9.02-0.45 3.9 5.41 7.36 10.82 6.16 2.41-0.6 1.35-2.26 1.05-2.41z"/>
	<path class="s2" d="m256.32 169.02c2.71 7.21 8.72 12.47 13.38 15.03 0.3 0.15 0.9 0.45 1.8 0.75 0.15 0 0.15 0.15 0.3 0.15 1.51 0.75 1.96 2.56 1.21 3.91-0.76 1.35-2.56 1.95-3.91 1.2-1.2-0.45-9.02-4.81-12.93-13.68-3.91 8.87-11.72 13.23-12.92 13.68-1.36 0.75-3.16 0.15-3.91-1.2-0.75-1.5-0.15-3.16 1.2-3.91 0.15 0 0.15-0.15 0.3-0.15 0.9-0.3 1.5-0.6 1.8-0.75 4.66-2.56 10.68-7.97 13.38-15.03 0.15 0 0.3-0.15 0.3 0z"/>
	<path class="s2" d="m266.84 191.11c0 0 0-0.15 0 0-2.4-1.5-6.16-4.2-9.32-8.56-0.45-0.6-0.9-1.21-1.35-1.96-0.45 0.75-0.9 1.36-1.2 1.96-3.16 4.36-6.91 7.21-9.17 8.56h-0.15c-0.45 0.3-0.9 0.76-1.05 1.36-0.15 0.6-0.15 1.2 0.15 1.8 0.45 0.75 1.2 1.2 2.1 1.2 0.3 0 0.75-0.15 1.06-0.3 0.9-0.3 5.71-3 8.41-8.57 2.71 5.42 7.52 8.12 8.42 8.57 1.05 0.6 2.55 0.15 3.01-1.05 0.6-1.05 0.15-2.41-0.91-3.01z"/>
	<path class="s2" d="m290.14 125.28c0-0.45 0-0.9-0.15-1.2-0.3-1.65-1.05-3.31-2.1-4.66-1.06-1.2-2.56-2.25-4.06-2.86-0.75-0.3-1.51-0.45-2.41-0.6-0.75-0.15-1.5-0.15-2.4-0.15 0 0-13.23-1.2-20.44 19.09-0.75-0.15-1.51-0.15-2.26-0.15-0.75 0-1.5 0-2.25 0.15-7.22-20.29-20.44-19.09-20.44-19.09-0.9 0-1.66 0-2.41 0.15-0.9 0.15-1.65 0.3-2.4 0.6-1.66 0.61-3.01 1.66-4.06 2.86-1.05 1.35-1.8 2.86-2.11 4.66 0 0.3-0.15 0.75-0.15 1.2q0 0.68 0 1.35c0 0.91 0.31 1.81 0.61 2.56 0.6 1.65 1.8 3.01 3.15 4.06 1.35 1.05 2.71 1.35 4.36 1.35 0 0 0 0 0.15 0 1.8 0 3.61-0.75 4.96-1.95 1.65-1.51 3.76-4.96 1.35-8.12-1.35-1.65-3-1.2-3.45-1.05-0.6 0.15-1.21 0.6-1.21 1.2v0.3l0.31 0.15c0 0 1.05 0.45 1.05 2.41-0.15 0.6-0.45 1.35-1.05 1.8-0.61 0.45-1.21 0.75-1.96 0.6-1.8-0.15-2.7-1.35-3.16-2.4-0.15-0.3-0.15-0.76-0.3-1.21 0-0.15 0-0.3 0-0.6 0-0.15 0-0.45 0.15-0.6 0.31-1.65 1.51-3 3.16-3.61 0.45-0.15 0.9-0.3 1.35-0.3 0.45 0 0.91 0 1.51 0 1.05 0 2.1 0.3 3 0.6 1.96 0.61 3.61 1.81 4.96 3.46 1.2 1.5 2.41 3.46 3.31 5.71 0.75 1.81 1.2 3.76 1.8 6.17-0.45 0.15-0.9 0.45-1.35 0.75-1.65 0.9-2.25 3-1.35 4.66 0.9 1.65 3 2.25 4.66 1.35 2.4-1.35 5.26-1.96 7.96-1.96 2.86 0 5.56 0.76 7.97 1.96 0.45 0.3 1.05 0.45 1.65 0.45 1.2 0 2.41-0.6 3.01-1.8 0.9-1.66 0.3-3.76-1.35-4.66-0.46-0.3-0.91-0.45-1.36-0.75 0.45-2.41 1.05-4.36 1.81-6.17 0.9-2.25 2.1-4.21 3.3-5.71 1.36-1.65 3.01-2.85 4.96-3.46 0.9-0.3 1.96-0.45 3.01-0.6 0.6 0 0.9 0 1.5 0 0.45 0 0.9 0.15 1.35 0.3 1.66 0.61 2.86 1.96 3.16 3.61 0 0.15 0 0.45 0.15 0.6 0 0.3 0 0.45 0 0.6 0 0.45-0.15 0.75-0.3 1.21-0.45 1.05-1.2 2.4-3.16 2.4-0.75 0-1.35-0.15-1.95-0.6-0.6-0.45-0.9-1.05-1.05-1.8-0.15-1.96 0.9-2.41 1.05-2.41l0.3-0.15v-0.3c0-0.6-0.6-0.9-1.2-1.2-0.45-0.15-2.11-0.6-3.46 1.05-2.4 3.31-0.3 6.61 1.35 8.12 1.36 1.2 3.16 1.95 4.96 1.95 0 0 0 0 0.15 0 1.66 0 3.01-0.45 4.36-1.35q2.26-1.58 3.16-4.06c0.3-0.75 0.45-1.65 0.6-2.56-0.3-0.6-0.3-0.9-0.3-1.35z"/>
	<path class="s2" d="m261.28 117.92l-4.96-4.96-4.96 4.96c-1.65 1.65-1.8 4.21-0.45 6.16l1.81 2.4q0.22 0.23 0.45 0c0.6-1.35 1.8-2.25 3.3-2.25 1.36 0 2.56 0.9 3.31 2.25q0.22 0.23 0.45 0l1.8-2.4c1.06-1.95 0.76-4.51-0.75-6.16z"/>
	<path class="s2" d="m210.63 141.06c-0.6 0.9-4.21 6.02-10.67 7.97-1.2 0.3-2.41 0.3-3.61 0.15-6.61-0.6-7.06-7.67-7.06-7.67 6.76 1.66 14.88-3.15 17.73-5.56 0.3-0.3 0.75-0.15 0.91 0.3 0.45 3.61 3.45 3.61 2.7 4.81z"/>
	<path class="s2" d="m211.98 141.51c0.15-0.15 0.3-0.45 0.45-0.3 0.76 0.45 2.26 0.91 3.01 1.06 0.15 0 0.3 0.15 0.15 0.3-0.75 4.35-4.36 10.07-8.42 12.02-3.9 1.65-7.21-0.75-7.81-1.8-0.75-1.21-0.6-2.11 0.75-2.56 7.06-1.5 11.27-7.81 11.87-8.72z"/>
	<path class="s2" d="m217.09 142.72c0-0.3 0.3-0.45 0.45-0.45 0.91 0 1.96-0.15 2.41-0.46 0.15 0 0.3 0 0.15 0.15-0.15 2.11 0.3 5.42 0 8.12-0.6 4.06-2.25 7.67-5.26 9.32-1.5 0.75-4.36 0.3-6.31-1.65-1.21-1.21-0.6-2.26 0.45-2.86 4.66-2.4 7.96-8.42 8.11-12.17z"/>
	<path class="s2" d="m259.93 197.43l-3.01 5.11c-0.3 0.45-0.9 0.45-1.2 0l-3-5.11c-0.16-0.3-0.16-0.61 0.15-0.91l3.45-4.2 3.46 4.2c0.15 0.3 0.3 0.61 0.15 0.91z"/>
	<path class="s2" d="m222.2 129.79c-0.45 1.95-0.6 4.36-0.3 6.01 0.15 0.6 0.6 0.6 1.06 0.3 0.9-0.75 1.65-1.5 2.4-2.4-1.5-0.9-2.55-2.26-3.16-3.91z"/>
	<path class="s2" d="m290.59 129.79c0.45 1.95 0.6 4.36 0.3 6.01-0.15 0.6-0.6 0.6-1.05 0.3-0.9-0.75-1.65-1.5-2.41-2.4 1.36-0.9 2.41-2.26 3.16-3.91z"/>
	<path class="s2" d="m210.93 135.05l0.15 0.3c0.15 0.15 0.15 0.3 0.3 0.45 0.15 0.3 0.45 0.45 0.6 0.75 0.45 0.45 1.06 0.76 1.51 1.06 0.6 0.3 1.2 0.3 1.8 0.3 0.3 0 0.6-0.15 0.9-0.15 0.3 0 0.6-0.15 1.05-0.3l0.45-0.15c0.91-0.31 1.81 0.3 1.96 1.2 0.3 0.9-0.3 1.8-1.2 1.95 0 0 0 0-0.15 0-0.45 0.15-1.06 0.3-1.51 0.3-0.45 0-1.05 0.15-1.5 0-1.05 0-2.1-0.3-2.86-0.75q-1.35-0.68-2.25-1.8c-0.6-0.75-1.05-1.51-1.35-2.41v-0.15c-0.15-0.6 0-1.05 0.6-1.35 0.75 0.15 1.2 0.3 1.5 0.75z"/>
	<path class="s2" d="m301.56 141.06c0.6 0.9 4.21 6.02 10.67 7.97 1.21 0.3 2.41 0.3 3.61 0.15 6.62-0.6 7.07-7.67 7.07-7.67-6.77 1.66-14.88-3.15-17.74-5.56-0.3-0.3-0.75-0.15-0.9 0.3-0.45 3.61-3.46 3.61-2.71 4.81z"/>
	<path class="s2" d="m300.21 141.51c-0.15-0.15-0.3-0.45-0.45-0.3-0.75 0.45-2.25 0.91-3.01 1.06-0.15 0-0.3 0.15-0.15 0.3 0.75 4.35 4.36 10.07 8.42 12.02 3.91 1.65 7.21-0.75 7.82-1.8 0.75-1.21 0.6-2.11-0.76-2.56-7.06-1.5-11.27-7.81-11.87-8.72z"/>
	<path class="s2" d="m295.1 142.72c0-0.3-0.3-0.45-0.45-0.45-0.9 0-1.95-0.15-2.41-0.46-0.15 0-0.3 0-0.15 0.15 0.15 2.11-0.3 5.42 0 8.12 0.61 4.06 2.26 7.67 5.26 9.32 1.51 0.75 4.36 0.3 6.32-1.65 1.2-1.21 0.6-2.26-0.45-2.86-4.66-2.4-7.97-8.42-8.12-12.17z"/>
	<path class="s2" d="m301.26 135.05l-0.15 0.3c-0.15 0.15-0.15 0.3-0.3 0.45-0.15 0.3-0.45 0.45-0.6 0.75-0.45 0.45-1.05 0.76-1.5 1.06-0.6 0.3-1.2 0.3-1.81 0.3-0.3 0-0.6-0.15-0.9-0.15-0.3 0-0.6-0.15-1.05-0.3l-0.45-0.15c-0.9-0.31-1.8 0.3-1.95 1.2-0.31 0.9 0.3 1.8 1.2 1.95 0 0 0 0 0.15 0 0.45 0.15 1.05 0.3 1.5 0.3 0.45 0 1.05 0.15 1.5 0 1.06 0 2.11-0.3 2.86-0.75q1.35-0.68 2.25-1.8c0.61-0.75 1.06-1.51 1.36-2.41v-0.15c0.15-0.6 0-1.05-0.6-1.35-0.76 0.15-1.36 0.3-1.51 0.75z"/>
	<path class="s2" d="m237.68 313.76h1.66v10.07h3v2.25h-8.71v-2.25h3.15v-6.16l-2.25 1.8-1.5-1.8z"/>
	<path class="s2" d="m247.76 323.98c0.45 0.15 0.9 0.15 1.35 0.15 0.6 0 1.2-0.15 1.65-0.45 0.45-0.3 0.9-0.75 1.2-1.2 0.3-0.45 0.45-1.05 0.45-1.66-1.05 0.76-2.1 1.06-3.15 1.06-1.2 0-2.11-0.3-2.86-0.91-0.75-0.6-1.2-1.65-1.2-3 0-0.6 0.15-1.2 0.45-1.96 0.3-0.75 0.75-1.2 1.5-1.65 0.76-0.45 1.66-0.75 2.86-0.75 1.65 0 3.01 0.6 3.91 1.65 0.9 1.05 1.2 2.71 1.2 4.81 0 1.2-0.3 2.41-0.75 3.31-0.45 0.9-1.2 1.65-2.11 2.25-0.9 0.6-1.95 0.75-3.15 0.75-0.6 0-1.2-0.15-1.81-0.3-0.6-0.15-1.05-0.45-1.5-0.6l0.75-1.95c0.3 0.15 0.6 0.45 1.21 0.45zm0.3-7.51c-0.3 0.45-0.61 0.9-0.61 1.5 0 0.75 0.15 1.2 0.61 1.5 0.3 0.3 0.9 0.45 1.35 0.45 0.45 0 0.9-0.15 1.5-0.3 0.45-0.15 0.9-0.45 1.2-0.75-0.15-1.2-0.45-1.95-0.75-2.4-0.45-0.46-1.05-0.76-1.65-0.76-0.75 0.15-1.35 0.3-1.65 0.76z"/>
	<path class="s2" d="m263.69 317.97c0.75 0 1.35 0.15 1.95 0.45 0.6 0.3 1.05 0.75 1.5 1.5 0.3 0.6 0.61 1.35 0.61 2.26 0 1.35-0.46 2.55-1.36 3.3-0.9 0.75-2.1 1.06-3.75 1.06q-1.13 0-2.26-0.46c-0.75-0.3-1.35-0.6-2.1-1.2l1.5-1.8c0.45 0.45 1.05 0.6 1.5 0.9 0.45 0.15 0.9 0.3 1.36 0.3 0.75 0 1.5-0.15 1.8-0.6 0.45-0.3 0.6-0.9 0.6-1.65 0-0.6-0.15-1.21-0.6-1.51-0.45-0.45-0.9-0.6-1.65-0.6-0.46 0-0.91 0.15-1.36 0.3-0.45 0.15-0.9 0.6-1.2 0.9l-1.5-0.75v-6.31h7.81v2.25h-5.41v2.26c0.9-0.45 1.81-0.6 2.56-0.6z"/>
	<path class="s2" d="m277.82 320.67c-0.61 1.66-1.06 3.16-1.06 4.66 0 0.3 0 0.45 0 0.6h-2.55c0-1.65 0.3-3.15 0.75-4.66q0.9-2.25 2.71-4.96h-4.06l-0.3 1.51-2.41-0.45 0.6-3.16h9.02v1.5c-1.05 1.66-2.1 3.31-2.7 4.96z"/>
	<g id="Layer 1">
	</g>
</svg>