<svg version="1.2" xmlns="http://www.w3.org/2000/svg" viewBox="0 0 512 512" width="512" height="512">
	<style>
		.s0 { fill: #ffffff;stroke: #ffffff;stroke-miterlimit:3.8637 } 
		.s1 { fill: #ffd600 } 
		.s2 { fill: #218a3d } 
		.s3 { fill: #ffffff } 
	</style>
	<path fill-rule="evenodd" class="s0" d="m3.7 255.6c0-139.2 112.8-252 252-252 139.2 0 252 112.8 252 252 0 139.2-112.8 252-252 252-139.2 0-252-112.8-252-252z"/>
	<path fill-rule="evenodd" class="s1" d="m26.2 252.5c0-126.9 102.9-229.9 229.8-229.9 126.9 0 229.8 102.9 229.8 229.9 0 126.9-102.9 229.8-229.8 229.8-126.9 0.1-229.8-102.8-229.8-229.8z"/>
	<path fill-rule="evenodd" class="s2" d="m96.3 252.9c0-88.2 71.5-159.7 159.7-159.7 88.2 0 159.7 71.5 159.7 159.7 0 88.2-71.5 159.7-159.7 159.7-88.2 0-159.7-71.5-159.7-159.7z"/>
	<path fill-rule="evenodd" class="s1" d="m19.8 252.9c0-130.5 105.8-236.3 236.3-236.3 130.5 0 236.3 105.8 236.3 236.3 0 130.5-105.8 236.3-236.3 236.3-130.5 0-236.3-105.8-236.3-236.3zm236.2-230.7c127.4 0 230.7 103.3 230.7 230.7 0 127.4-103.3 230.7-230.7 230.7-127.4 0-230.7-103.3-230.7-230.7 0-127.4 103.3-230.7 230.7-230.7z"/>
	<path fill-rule="evenodd" class="s3" d="m92.9 252.9c0-90.1 73-163.1 163.1-163.1 90.1 0 163.1 73 163.1 163.1 0 90.1-73 163.1-163.1 163.1-90.1 0-163.1-73-163.1-163.1zm163.1-156.8c86.6 0 156.8 70.2 156.8 156.8 0 86.6-70.2 156.8-156.8 156.8-86.6 0-156.8-70.2-156.8-156.8 0-86.6 70.2-156.8 156.8-156.8z"/>
	<path class="s2" d="m378.3 425.9l-13.8-0.8-4.4 13.1-4.2-13.6-13.8-0.8 11.3-7.6-4.1-13.7 11.1 9 11.2-7.7-4.4 13.2z"/>
	<path class="s2" d="m132.9 425.9l13.8-0.8 4.4 13.1 4.1-13.6 13.8-0.8-11.2-7.6 4.1-13.7-11.1 9-11.3-7.7 4.5 13.2z"/>
	<path fill-rule="evenodd" class="s2" d="m100.7 395.8l5.1-4.2-7.4-9.1 25.1-20.3-5.1-6.2-25 20.2-7.2-8.8-5.1 4.2z"/>
	<path fill-rule="evenodd" class="s2" d="m112.2 347l-4.2-6.7-6.6 4.1 4.2 6.8z"/>
	<path fill-rule="evenodd" class="s2" d="m81.1 314.4c1.7-0.5 5.4-1.8 8.9 2.8 0.7 0.9 1.3 2 1.7 3 0.4 1 0.6 2.1 0.6 3.2-0.1 2.2-1 4.4-3.2 6.7-1.8 1.9-4.5 3.3-7.1 4.2-2.6 0.9-5.2 1.3-6.7 1.4-3.6 0.1-7-1.6-8.6-4.8-3.5-7 1-10.8 2.9-11.8l-2.8-7.1c-1.8 0.8-6.4 2.9-7.8 9.5-1.1 4.5 0.1 8.3 1.1 10.8 3.8 9.4 10.8 11.5 18.4 10.8 2.3-0.2 4.8-1 7.3-2 2.4-1 4.5-2.2 6.1-3.3 6.8-5 9.7-12.7 6.2-20.6-2-4.4-5.3-7.8-7.8-9.2-3.2-1.8-8.2-2.3-11.9-0.8z"/>
	<path fill-rule="evenodd" class="s2" d="m89.2 295.5l-1.9-7.8-7.6 1.9 2 7.7z"/>
	<path fill-rule="evenodd" class="s2" d="m44.9 257.4l0.3 8 38.9-1.4-0.3-8zm-11.4 7.4l6.5-0.2-0.2-5.9-6.5 0.2z"/>
	<path fill-rule="evenodd" class="s2" d="m59.8 215.3c-1.2-0.5-4.9-0.4-7.7 1.3-5.2 3.2-6.3 10.4-6.5 12.4-1.2 9.4 2.9 14.4 8.9 15.8 6.2 1.4 9.6-1.7 11.6-5.7 2.3-4.8 3.2-12.4 6.2-14.6 2.1-1.7 5.1-0.9 6.5 1 0.8 1.1 1.3 3.7 1 6.4-0.2 2.7-1.2 5.4-3.2 7-1.5 1.2-3.2 1.3-4.2 1.2l-1 7.7c3.7 0.2 7.7-1 10.6-4.2 2.4-2.6 3.7-7.2 3.9-9.1 0.5-4.3 0.5-8.9-1.2-12.4-2.5-5.2-11.4-8.4-16.6-4.5-2.8 2.1-4.3 6.6-4.9 8.6-0.5 1.5-2.5 8.6-3.6 9.4-0.9 1.7-1.5 2.5-4.2 2-3.1-0.7-4.1-3.7-3.6-7.5 0.8-5.4 3.9-7.7 7.1-7.2z"/>
	<path fill-rule="evenodd" class="s2" d="m50.5 200.7l6.4 2 3.6-11.2 30.7 10 2.4-7.6-30.6-10 3.5-10.8-6.3-2.1z"/>
	<path fill-rule="evenodd" class="s2" d="m74.1 143.9l-4.5 8.1 27.5 30.7 4-7.1-5.5-6.1 7-12.6 8.1 1.5 4-7.1zm6 8.5l15.7 2.8-4.8 8.7z"/>
	<path fill-rule="evenodd" class="s2" d="m91 118.9l28.4 26.5 5.5-5.9-19.8-18.5 30.5 7 5.4-5.8-28.5-26.5-5.4 5.9 19.5 18.2-30.2-6.7z"/>
	<path fill-rule="evenodd" class="s2" d="m148.9 115.6l14.7-9.6c2.1-1.3 5.5-4 6.5-7.4 1.3-4.4 0.2-8-2-10.5-2.2-2.6-5.4-4-8.3-4.3 1.1-3.5 0-6.7-1.3-8.7-0.5-0.7-2.7-2.8-3.5-3.2-1.5-0.8-2.9-0.8-3.4-0.9-3.3-0.6-7.8 1.6-9.4 2.6l-14.5 9.4zm-10.8-31.4l8-5.2c2.3-1.5 4.6-1.7 6.6 1 1.6 2.1 0.9 4.7-2.1 6.7l-7.6 4.9zm8.5 13l8.1-5.2c0.7-0.5 4.2-4 7.4 0.7 3.1 4.6-0.6 6.9-2.1 7.9l-7.9 5.1z"/>
	<path fill-rule="evenodd" class="s2" d="m192.6 49.9l8.8 25.5c0.8 2.3 1 6.3-5 8.3-6.1 2.1-8.1-1.2-9-3.5l-8.8-25.5-7.6 2.6 8.7 25.4c1.2 3.6 4.3 7.4 11.5 8.7 2.3 0.1 4.9-0.4 7.5-1.2 2.6-0.9 5.1-2.3 7-4.1 5.1-5.1 4.2-10.2 3.1-13.4l-8.7-25.4z"/>
	<path fill-rule="evenodd" class="s2" d="m217.2 43.3l5.4 38.5 26.4-3.7-0.9-6.6-18.5 2.6-4.5-31.9z"/>
	<path fill-rule="evenodd" class="s2" d="m286.2 36.8l5.8 0.9 1-6.4-5.8-0.9zm10.8-4.9l-1 6.4 5.8 0.9 1-6.4zm3.6 12.1l-4.2 26.6c-0.4 2.4-2.1 6-8.4 5-6.4-1-6.6-4.9-6.3-7.3l4.2-26.6-7.9-1.3-4.2 26.5c-0.6 3.8 0.3 8.6 6.1 13.1 2 1.1 4.5 2 7.2 2.4 2.7 0.4 5.6 0.3 8.1-0.3 6.9-2.1 8.5-7 9.1-10.4l4.2-26.5z"/>
	<path fill-rule="evenodd" class="s2" d="m327.9 51.5l-15.8 35.6 7.3 3.2 11-24.7 3.4 31.1 7.2 3.2 15.8-35.5-7.3-3.3-10.9 24.5-3.5-30.9z"/>
	<path fill-rule="evenodd" class="s2" d="m375.9 76.3l-6.7-4.4-21.2 32.6 6.7 4.4zm0.5-13.6l-3.6 5.5 4.9 3.2 3.6-5.4z"/>
	<path fill-rule="evenodd" class="s2" d="m405 100.2l-26 16.1 13.3-27.6-6-5.4-16.2 37.7 5.1 4.6 35.8-20z"/>
	<path fill-rule="evenodd" class="s2" d="m421.2 117.5l-31.5 22.9 17.1 23.5 5.4-3.9-12.4-17.1 8.1-5.9 11 15.1 5.4-3.9-11-15.1 7.2-5.2 11.9 16.3 5.4-3.9z"/>
	<path fill-rule="evenodd" class="s2" d="m411.2 172.1l3 7.4 14.2-5.8 3.5 8.7c1 2.6 0.6 4.8-1.8 5.9-2.7 1-5.5 2.1-7.3 2.9-1.2 0.6-2.1 1.3-3 2.3l3.2 8 1.3-0.5c0.2-1 0.4-1.8 2.4-2.6 1.8-0.8 6.5-2.8 7.9-3.6 3.1-1.7 3-4.4 3.4-6 2.4 1.8 4.2 3 7.7 2.6 3.5-0.4 5.8-2.1 7.1-3.3 3.5-2.6 3.7-7 2.4-10.6l-8.1-20zm32.9-4.6l4.1 10c1.3 3.3 0.3 5.1-2.2 6.1-3.4 1.9-6.5-0.5-7.2-2.2l-4.1-10.1z"/>
	<path fill-rule="evenodd" class="s2" d="m456.5 234.2c1.3 0.1 4.8-1 7.1-3.4 4.1-4.5 3.2-11.7 2.8-13.7-1.5-9.4-6.7-13.1-12.9-12.8-6.3 0.4-8.8 4.3-9.5 8.7-0.9 5.2 0.3 12.8-2 15.8-1.6 2.2-4.6 2.3-6.5 0.9-1.1-0.9-2.3-3.2-2.8-5.8-0.5-2.6-0.4-5.6 1.1-7.6 1.2-1.5 2.7-2.1 3.7-2.3l-1.2-7.7c-3.6 0.8-7.1 3.1-9.1 6.9-1.6 3.2-1.6 7.9-1.2 9.9 0.7 4.3 2 8.6 4.6 11.6 3.9 4.3 13.3 4.9 17.3-0.3 2.1-2.8 2.3-7.5 2.4-9.7 0-1.5 0-9 0.8-10 0.4-1.8 0.8-2.8 3.5-3 3.2-0.2 5 2.4 5.5 6.3 0.8 5.4-1.7 8.5-4.8 8.9z"/>
	<path fill-rule="evenodd" class="s2" d="m468.9 253.8l-0.1-8-38.9 0.7 0.1 8zm11.6-7.2l-6.5 0.1 0.1 5.9 6.5-0.1z"/>
	<path fill-rule="evenodd" class="s2" d="m468.9 265.8l-6.6-0.9-1.6 11.7-32-4.5-1.1 7.9 31.9 4.5-1.5 11.3 6.6 0.9z"/>
	<path fill-rule="evenodd" class="s2" d="m460.9 310.7l-36.8-12.7-9.5 27.5 6.3 2.2 6.9-19.9 9.5 3.2-6.1 17.7 6.3 2.1 6.1-17.6 8.3 2.9-6.5 19.1 6.3 2.1z"/>
	<path fill-rule="evenodd" class="s2" d="m417.9 371.7c0.9 0.9 4.3 2.4 7.6 2.1 6.1-0.7 10.1-6.7 11.2-8.5 5-8.1 3.5-14.3-1.4-18.1-5-3.9-9.4-2.6-12.9 0.3-4.1 3.3-8.2 9.9-11.8 10.6-2.6 0.6-5-1.3-5.5-3.6-0.3-1.4 0.4-3.9 1.8-6.2 1.3-2.3 3.3-4.4 5.8-5 1.9-0.4 3.4 0.2 4.3 0.7l4.1-6.6c-3.3-1.7-7.4-2.3-11.4-0.7-3.3 1.3-6.4 5-7.4 6.7-2.2 3.7-4.2 7.8-4.1 11.8 0.1 5.8 6.8 12.4 13.2 11.1 3.4-0.8 6.7-4.1 8.1-5.8 1-1.1 5.9-6.7 7.2-7 1.5-1.1 2.5-1.6 4.6 0 2.6 1.9 2.2 5.1 0.1 8.4-3 4.6-6.8 5.3-9.5 3.5z"/>
	<path fill-rule="evenodd" class="s2" d="m412.6 395.4l5.4-5.9-28.9-26-5.4 5.9zm13.4 2.7l-4.8-4.4-3.9 4.4 4.8 4.4z"/>
	<path fill-rule="evenodd" class="s2" d="m216.8 425.7l-4.8-1.3c-0.7 1.8-2.6 3-4.4 3.7-2.1 0.8-5.9 0.5-8.6-0.2l-1.3 4.8 8.8 2.4-6.8 25.2 7.2 1.9z"/>
	<path fill-rule="evenodd" class="s2" d="m239.3 429.9l-15.9 21.9-0.5 6.3 15.1 1.3-0.7 8.3 7.4 0.7 0.7-8.3 4 0.3 0.5-6.1-3.9-0.3 2-23.3zm0.5 7.7l-1.4 15.7-9.8-0.8z"/>
	<path fill-rule="evenodd" class="s2" d="m260.2 459c0 1.7 0.4 4.9 4.6 7.8 1.8 1.2 4.3 2.9 9.3 2.1 5.8-0.9 8.7-3.4 10.4-6.8 3.2-6.3 1.4-17.4-7.3-19.6-1.5-0.4-2.8-0.5-4.1-0.3-1.2 0.1-2.2 0.4-3 0.8-1.8 0.7-2.9 1.6-3.3 2l0.6-7.9 15.5-1.3-0.6-6.7-20.1 1.8-1.6 21.3 6.7-0.6c0.6-1.7 2.2-2.8 4-3.1 1.8-0.3 3.8 0.1 5.3 1.8 2.3 2.5 3.4 11.6-3.2 12.5-4.8 0.6-5.7-2-6-4.2z"/>
	<path fill-rule="evenodd" class="s2" d="m296.1 453.7c0.8 2.6 2 5.3 4.8 7.2 4.3 2.9 8 2.1 10.7 1.4 10.1-2.7 10.7-10.2 10-14.1-1.1-5.3-3.4-7.3-7.9-8.7 1.5-2.2 2.9-4 2.2-7.7-0.3-1.7-1-5.7-5.8-8-1.8-0.9-4.6-1-7.4-0.4-2.7 0.6-5.4 1.6-7.1 3.2-5.4 5.4-3.5 10.1-2.8 12.7l6.6-1.8c-0.5-2.5-1.7-6.7 3.2-7.9 4.1-1 6.1 1.5 6.4 5 0.5 3.2-2.5 5.1-6 6.1l1.3 4.9c6.7-3.1 12.2 3 8.7 8.9-0.4 0.7-0.9 1.3-1.8 1.7-0.8 0.4-1.9 0.6-3.4 0.4-3-0.2-3.6-1.6-4.9-4.7z"/>
	<path class="s3" d="m231.5 188.1c0-3.8 6.6-7.1 15.9-8.4v8.2h17.5v-8.2c9.1 1.3 15.6 4.6 15.6 8.4 0 4.9-11 9-24.5 9-13.5 0-24.5-4-24.5-9z"/>
	<path class="s3" d="m231.5 208.4c0-3.8 6.6-7.1 15.9-8.4v8.2h17.5v-8.2c9.1 1.3 15.6 4.6 15.6 8.4 0 5-11 9-24.5 9-13.5 0-24.5-4-24.5-9z"/>
	<path class="s3" d="m261.4 199.1v6.2h-10.9v-6.2c1.8 0.2 3.6 0.2 5.4 0.2 2 0 3.8 0 5.5-0.2z"/>
	<path class="s3" d="m231.5 228.8c0-3.8 6.6-7.1 15.9-8.4v8.2h17.5v-8.2c9.1 1.3 15.6 4.6 15.6 8.4 0 5-11 9-24.5 9-13.5 0-24.5-4-24.5-9z"/>
	<path class="s3" d="m231.5 249.1c0-3.9 6.6-7.1 15.9-8.4v8.2h17.5v-8.2c9.1 1.3 15.6 4.6 15.6 8.4 0 5-11 9-24.5 9-13.5 0-24.5-4-24.5-9z"/>
	<path class="s3" d="m231.5 269.5c0-3.8 6.6-7.1 15.9-8.4v8.2h17.5v-8.2c9.1 1.3 15.6 4.5 15.6 8.4 0 4.9-11 9-24.5 9-13.5-0.1-24.5-4.1-24.5-9z"/>
	<path class="s3" d="m231.5 289.8c0-3.8 6.6-7.1 15.9-8.4v8.2h17.5v-8.2c9.1 1.3 15.6 4.6 15.6 8.4 0 4.9-11 9-24.5 9-13.5 0-24.5-4-24.5-9z"/>
	<path class="s3" d="m231.5 310.2c0-3.8 6.6-7.1 15.9-8.4v8.2h17.5v-8.2c9.1 1.3 15.6 4.6 15.6 8.4 0 4.9-11 9-24.5 9-13.5-0.1-24.5-4.1-24.5-9z"/>
	<path class="s3" d="m231.5 330.5c0-3.8 6.6-7.1 15.9-8.4v8.2h17.5v-8.2c9.1 1.3 15.6 4.6 15.6 8.4 0 5-11 9-24.5 9-13.5 0-24.5-4.1-24.5-9z"/>
	<path class="s3" d="m231.5 166.8c0-3.8 6.6-7.1 15.9-8.4v8.2h17.5v-8.2c9.1 1.3 15.6 4.6 15.6 8.4 0 5-11 9-24.5 9-13.5 0-24.5-4-24.5-9z"/>
	<path class="s3" d="m256 136.6c5.8-12.3 19.1-13.2 19.1-13.2 8.4-0.9 11.9 5.5 11.9 5.5-24.5 2.1-25.7 28.6-25.7 28.6v6.2h-10.9v-6.2c0 0-1.2-26.4-25.6-28.6 0 0 3.5-6.4 11.9-5.5 0.1 0.1 13.5 0.9 19.3 13.2z"/>
	<path fill-rule="evenodd" class="s3" d="m244.3 114.4c0-6.4 5.2-11.7 11.7-11.7 6.4 0 11.7 5.2 11.7 11.7 0 6.4-5.2 11.7-11.7 11.7-6.4 0-11.7-5.3-11.7-11.7z"/>
	<path fill-rule="evenodd" class="s3" d="m166 150c0-6.4 5.2-11.7 11.7-11.7 6.4 0 11.7 5.2 11.7 11.7 0 6.4-5.2 11.7-11.7 11.7-6.5 0-11.7-5.2-11.7-11.7z"/>
	<path fill-rule="evenodd" class="s3" d="m179.7 310.6c10.6-27.1 25-37.3 25-37.3-50.9-35.8-59.2-87.9-59.2-87.9-53 34.4-24.6 105.1-24.6 105.1-0.4-21.3 7.6-34.6 7.6-34.6-3.5-25.9 9.7-45.3 9.7-45.3 13.7 39.9 44.9 63.9 44.9 63.9-11.3 13.4-17.2 31.6-17.2 31.6 7.6 4.7 13.8 4.5 13.8 4.5z"/>
	<path fill-rule="evenodd" class="s3" d="m145.5 237.4c0.8 1.8 3.6 6.1 8.5 13-34.4 53.8 5.8 88.1 5.8 88.1l1-9.7c5.8 2.6 13.9 4.4 13.9 4.4l-1 27.9c-47.2-11.8-48.6-67.1-48.6-67.1 0.6-35.7 20.4-56.6 20.4-56.6z"/>
	<path fill-rule="evenodd" class="s3" d="m145.9 298.4c22.8 22.3 58.8 19.5 58.8 19.5 11.2 27.1 38.5 29.4 38.5 29.4v14.9c-36-5.8-48-30-48-30-22.1-0.6-44.3-12.4-44.3-12.4-6-12.7-5-21.4-5-21.4z"/>
	<path fill-rule="evenodd" class="s3" d="m317.7 150c0-6.4 5.2-11.7 11.7-11.7 6.4 0 11.7 5.2 11.7 11.7 0 6.4-5.2 11.7-11.7 11.7-6.5 0-11.7-5.2-11.7-11.7z"/>
	<path fill-rule="evenodd" class="s3" d="m364.7 173.4c-2.7-7.2-17.9-7.7-17.9-7.7-9.7-0.4-19.7 7.6-19.7 7.6-7.6-12.8-29.3-11.3-29.3-11.3 19 12.7 20.9 36.7 20.9 36.7v24.8c46.7 13.5 51.4 62.4 51.4 62.4 6.6-8.1 8.1-25.8 8.1-25.8-13.7-33.9-44.3-46.4-44.3-46.4v-9.2c2.6-29.8 30.8-31.1 30.8-31.1z"/>
	<path fill-rule="evenodd" class="s3" d="m331.5 330c-3.8 0.8-12.3 2.5-16.5 2.4 0 0-12.1 23.7-46.2 29.7v-15c0 0 28.5-5.3 37.1-28.9 0 0 11.8 0.1 22.6-2.5 0 0 2.7 5.9 3 14.3z"/>
	<path fill-rule="evenodd" class="s3" d="m340.1 239.5c-14.9 19.5-33.8 33.9-33.8 33.9 36.1 29.8 30.3 87.3 30.3 87.3 42.3-8.8 47.6-57 47.6-57-5.8 9.5-20.7 17.9-20.7 17.9-3 9.1-12.5 16.6-12.5 16.6-1.6-39.5-23-63.9-23-63.9 13.8-11.8 22.6-24.4 22.6-24.4-4.1-5.8-10.5-10.4-10.5-10.4z"/>
	<path fill-rule="evenodd" class="s3" d="m352.3 219.8c8.5-14.3 12.7-34.8 12.7-34.8 44.6 29.5 29.3 88.4 29.3 88.4-7.9 37.5-41.6 49.9-41.6 49.9-1.2-10.5-3.7-14.6-3.7-14.6 28.9-14.3 31.6-36.6 31.6-36.6 8.1-40.7-8.3-61.1-8.3-61.1-3.3 10.7-9 19-9 19-3.1-3.8-11-10.2-11-10.2z"/>
	<path class="s3" d="m248.5 365v-22.3c2.4 0.3 4.9 0.4 7.5 0.4 2.6 0 5.1-0.2 7.5-0.4v22.3c6.2 0.7 11.7 2.2 16.1 4.4 12.1 3.4 23.2-9.7 23.2-9.7 1.8-2 3.7-3.2 5.4-4 1.7-0.9 3.8-1.4 6-1.4 4.1 0 7.6 1.7 9.4 4.1 1.5 2 2.5 4.6 2.5 7.5 0 6-4.1 10.9-9.1 10.9-4.2 0-7.7-3.5-8.7-8.1-1.8 0.8-2.4 5.4-2.4 5.4-3.5 12.9-7.4 17.3-11.6 21.6-2.9 3.4-8.1 5.7-14 5.7-4 0-7.7-1.1-10.6-2.9-2.9 3.4-8.1 5.6-13.8 5.6-5.8 0-10.9-2.2-13.8-5.6-2.9 1.8-6.6 2.9-10.6 2.9-5.9 0-11-2.3-14-5.7-4.2-4.3-8.1-8.7-11.6-21.6 0 0-0.6-4.6-2.4-5.4-1 4.7-4.6 8.1-8.7 8.1-5 0-9-4.9-9-10.9 0-2.9 0.9-5.5 2.5-7.5 1.8-2.4 5.3-4.1 9.4-4.1 2.2 0 4.3 0.5 6 1.4 1.7 0.7 3.6 2 5.4 4 0 0 11.2 13 23.2 9.7 4.5-2.1 10-3.7 16.2-4.4z"/>
	<path fill-rule="evenodd" class="s3" d="m142.5 172.5c2.7-7.2 17.9-7.7 17.9-7.7 9.7-0.4 19.7 7.6 19.7 7.6 9.6-15.9 31.3-11 31.3-11-19 12.7-20.3 37-20.3 37l-0.2 24.1c-7.9 2.5-19.1 10.5-19.1 10.5-5.6-6.2-7.4-12.8-7.4-12.8 5.5-3 11.4-6.4 11.4-6.4v-12.4c-2.4-29.7-33.3-28.9-33.3-28.9z"/>
	<path class="s3" d="m261.4 178.8v6.2h-10.9v-6.2c1.8 0.2 3.6 0.2 5.4 0.2 2 0 3.8-0.1 5.5-0.2z"/>
	<path class="s3" d="m261.4 219.4v6.2h-10.9v-6.2c1.8 0.2 3.6 0.2 5.4 0.2 2 0.1 3.8 0 5.5-0.2z"/>
	<path class="s3" d="m261.4 239.8v6.2h-10.9v-6.2c1.8 0.1 3.6 0.2 5.4 0.2 2 0 3.8-0.1 5.5-0.2z"/>
	<path class="s3" d="m261.4 260.1v6.2h-10.9v-6.2c1.8 0.1 3.6 0.2 5.4 0.2 2 0.1 3.8 0 5.5-0.2z"/>
	<path class="s3" d="m261.4 280.5v6.2h-10.9v-6.2c1.8 0.1 3.6 0.2 5.4 0.2 2 0 3.8-0.1 5.5-0.2z"/>
	<path class="s3" d="m261.4 300.8v6.2h-10.9v-6.2c1.8 0.2 3.6 0.2 5.4 0.2 2 0 3.8 0 5.5-0.2z"/>
	<path class="s3" d="m261.4 321.2v6.2h-10.9v-6.2c1.8 0.2 3.6 0.2 5.4 0.2 2 0 3.8-0.1 5.5-0.2z"/>
	<g id="Layer 1">
	</g>
</svg>