<?xml version="1.0" encoding="utf-8"?>
<!-- Generator: Adobe Illustrator 23.0.6, SVG Export Plug-In . SVG Version: 6.00 Build 0)  -->
<svg version="1.1" id="Layer_2" xmlns="http://www.w3.org/2000/svg" xmlns:xlink="http://www.w3.org/1999/xlink" x="0px" y="0px"
	 viewBox="0 0 198.43 198.43" style="enable-background:new 0 0 198.43 198.43;" xml:space="preserve">
<style type="text/css">
	.st0{fill:#173142;}
</style>
<polygon class="st0" points="94.67,59.11 79.41,50 79.41,38.07 94.67,30.22 111.04,38.07 111.04,50 "/>
<path class="st0" d="M117.19,41.04V55.7L94.67,65.78L73.19,53.41V40.3c0,0-17.78,3.85-21.93,26.37c-1.48,7.85-2.07,8-7.7,10.22
	c-5.63,2.22-11.56,3.7-12.3,6.81c-0.74,3.11,3.56,12.59,6.96,16.74c3.41,4.15,11.85,15.11,12.89,15.85c0.17,0.12,2.6,1.43,2.52,0.01
	c-0.18-2.91-3.3-8.9-4.44-14.97c-1.77-9.45-1.78-19.26-1.78-19.26l93.19-0.15c0,0,0.44,12.3-1.33,20c-1.78,7.7-4.15,12.3-4.15,12.3
	s-1.04,3.4,1.19,2.74c2.22-0.66,11.45-12.26,14.67-17.46c3.26-5.28,5.78-12.24,6.52-15.2c0.74-2.96-12.15-7.56-14.37-8.74
	c-2.22-1.19-5.04-2.22-5.93-9.33c-0.52-4.17-2.77-11.92-8.3-17.78C125,44.32,117.19,41.04,117.19,41.04z"/>
<path class="st0" d="M134.06,92.03c0,21.74-17.62,39.36-39.36,39.36s-39.36-17.62-39.36-39.36c0-2.03,0.66-3,0.66-3l77.44,0
	C133.44,89.02,134.08,91.75,134.06,92.03z"/>
<path class="st0" d="M121.11,140c0,0-4.22,10.22-3.11,18.56s7.22,16.33,7.22,16.33H47.11v-7.22c0,0,0.24-11,8.23-19
	s18.1-9.33,18.1-9.33h47.89L121.11,140z"/>
<path class="st0" d="M149.67,112.44c0,0,4.89,9.11-2.56,17.56s-14.78,11.78-15.44,22c-0.67,10.22,4,14.56,4.78,15.56
	c0.78,1,3.56,3.22,3.56,3.22s-3.78-7.33-0.78-14.89s5.33-8,5.33-8s-0.78,4.67,0.33,9.22s3.44,7.44,4.33,8.67
	c0.89,1.22,3.67,4.33,3.67,9.11c0,0,4.89,0.44,11.11-2.89s14.22-14.11,8.67-26.56c0,0,0.11,7.22-7.11,8
	c-7.22,0.78-9.29-8.01-6.73-10.79c1.16-1.26,6.01-7.08,2.62-16.77C157.56,114.78,149.67,112.44,149.67,112.44z"/>
</svg>
