<?xml version="1.0" encoding="utf-8"?>
<!-- Generator: Adobe Illustrator 23.0.6, SVG Export Plug-In . SVG Version: 6.00 Build 0)  -->
<svg version="1.1" id="Layer_2" xmlns="http://www.w3.org/2000/svg" xmlns:xlink="http://www.w3.org/1999/xlink" x="0px" y="0px"
	 viewBox="0 0 198.43 198.43" style="enable-background:new 0 0 198.43 198.43;" xml:space="preserve">
<style type="text/css">
	.st0{fill-rule:evenodd;clip-rule:evenodd;fill:#173142;}
	.st1{fill:#173142;}
</style>
<path class="st0" d="M101.41,153.21c-4.13,0-8.02-1.34-11.18-3.65c-2.59-1.9-4.7-4.45-6.06-7.48c-9.46-1.97-19.09-2.81-28.69-2.51
	c-10.23,0.32-20.42,1.93-30.33,4.82l3.3-11.04c24.32-4.28,38.83-3.03,59.24,1.96l2.06,0.46l0.64,2.02c0.76,2.39,2.26,4.41,4.2,5.83
	c1.94,1.42,4.31,2.24,6.82,2.24c2.51,0,4.89-0.82,6.82-2.24c1.94-1.42,3.44-3.44,4.2-5.83l0.64-2.02l2.06-0.46
	c20.41-4.99,34.92-6.24,59.24-1.96l3.3,11.04c-9.91-2.89-20.1-4.5-30.33-4.82c-9.59-0.3-19.22,0.54-28.69,2.51
	c-1.37,3.03-3.47,5.59-6.06,7.48C109.42,151.87,105.54,153.21,101.41,153.21"/>
<path class="st0" d="M169.12,121.71c-18.86-1.14-37.68,2.14-54.97,9.49c0.69,0.53,1.38,1.08,2.35,1.31
	c17.98-4.39,36.7-5.14,55.06-2.18C169.93,124.59,169.12,121.71,169.12,121.71"/>
<path class="st0" d="M163.77,112.57c-18.2-0.53-36.1,5.42-51.17,15.4c-0.16,0.97,0.64,1.89,0.94,1.77
	c16.7-7.22,34.86-10.63,53.13-9.89C165.72,117.52,163.77,112.57,163.77,112.57"/>
<path class="st0" d="M33.73,121.6c18.8-1.14,37.55,2.14,54.78,9.49c-0.68,0.53-1.37,1.08-2.35,1.31
	c-17.92-4.39-36.57-5.14-54.87-2.18C32.92,124.47,33.73,121.6,33.73,121.6"/>
<path class="st0" d="M39.06,112.45c18.14-0.53,35.98,5.42,50.99,15.4c0.16,0.97-0.64,1.89-0.93,1.77
	c-16.64-7.22-34.74-10.63-52.94-9.89C37.11,117.41,39.06,112.45,39.06,112.45"/>
<path class="st0" d="M92.5,136.28c0.24,1.05,0.67,2.07,1.29,3.02c1.54,2.34,4.07,3.84,6.87,4.07c0.25,0.02,0.5,0.03,0.75,0.03
	c0.25,0,0.5-0.01,0.75-0.03c2.79-0.23,5.32-1.73,6.87-4.07c0.63-0.95,1.06-1.97,1.29-3.02c-1.11,0.2-2.39,0.42-3.85,0.66
	c-0.09,0.16-0.18,0.32-0.29,0.48c-0.97,1.47-2.55,2.41-4.3,2.55c-0.16,0.01-0.31,0.02-0.47,0.02s-0.31-0.01-0.47-0.02
	c-1.75-0.14-3.34-1.08-4.3-2.55c-0.1-0.16-0.2-0.32-0.29-0.48C94.89,136.7,93.61,136.48,92.5,136.28"/>
<g>
	<path class="st1" d="M162.45,94.97c-0.29-0.32-0.71-0.51-1.14-0.51h-1.54l-14.4-36.35c0.81-0.18,1.53-0.47,2.16-0.91
		c1.23-0.87,1.94-2.2,2.11-3.95l0.16-1.74l-1.75,0.05c-2.22,0.07-8.39-0.85-16.01-4.76c-5.17-2.66-10.47-4.15-15.33-4.32
		c-5.88-0.2-11.17,1.47-15.76,4.95c-11.3-8.61-24.26-4.15-31.1-0.63c-7.61,3.91-13.8,4.83-16,4.76l-1.76-0.06l0.17,1.75
		c0.17,1.76,0.88,3.08,2.11,3.95c0.65,0.46,1.4,0.75,2.24,0.93L42.16,94.68h-1.54c-0.44,0-0.85,0.19-1.14,0.51
		c-0.29,0.32-0.43,0.76-0.39,1.19c0.45,4.36,2.7,8.4,6.35,11.35c3.62,2.94,8.31,4.55,13.2,4.55c4.89,0,9.58-1.62,13.2-4.55
		c3.64-2.96,5.9-6.99,6.35-11.35c0.04-0.43-0.1-0.87-0.39-1.19c-0.29-0.32-0.71-0.51-1.14-0.51h-1.54L60.54,58.21
		c2.57-0.27,5.61-1.04,9.01-1.89c6.64-1.67,14.17-3.57,19.57-1.82c3.32,1.08,6.17,2.9,8.53,5.46c0.58-0.87,1.19-1.71,1.84-2.49
		c-2.64-2.74-5.8-4.73-9.43-5.9c-6.24-2.02-14.23-0.01-21.27,1.76c-5.27,1.33-10.72,2.7-12.63,1.35c-0.06-0.05-0.13-0.1-0.2-0.17
		c2.86-0.31,8.31-1.38,15.32-4.98c4.77-2.45,9.62-3.83,14.03-3.98c5.53-0.19,10.46,1.5,14.67,5.02c0.54,0.45,1.29,0.47,1.85,0.1l0,0
		c0.01-0.01,0.02-0.01,0.03-0.02c0.03-0.02,0.06-0.04,0.09-0.07c0,0,0.01-0.01,0.01-0.01c4.21-3.52,9.14-5.21,14.67-5.02
		c4.41,0.15,9.26,1.53,14.03,3.98c7.01,3.6,12.46,4.67,15.31,4.98c-0.07,0.07-0.14,0.12-0.2,0.17c-1.91,1.34-7.36-0.03-12.63-1.35
		c-7.04-1.77-15.02-3.78-21.27-1.76c-7.93,2.57-13.66,9.05-16.56,18.75c-2.08,6.97-2.06,13.3-2.03,14.51
		c0.11,6.57,1.09,15.22,4.7,22.82c0.66-1.12,1.26-2.32,1.8-3.59c-2.58-6.54-3.33-13.7-3.42-19.28v-0.03
		c-0.02-0.69-0.09-6.89,1.9-13.55c2.63-8.81,7.53-14.42,14.56-16.7c5.4-1.75,12.93,0.15,19.57,1.82c3.36,0.85,6.37,1.6,8.92,1.89
		l-14.49,36.25h-1.54c-0.43,0-0.85,0.19-1.14,0.51c-0.28,0.31-0.42,0.72-0.39,1.14c-0.01,0.09-0.01,0.18,0,0.27
		c0.45,4.36,2.7,8.4,6.35,11.35c3.62,2.94,8.3,4.55,13.2,4.55c4.89,0,9.58-1.62,13.2-4.55c3.64-2.96,5.9-6.99,6.35-11.35
		c0.01-0.09,0.01-0.18,0-0.27C162.87,95.69,162.73,95.28,162.45,94.97z M69.9,105.34c-3.07,2.49-7.07,3.86-11.26,3.86
		c-4.19,0-8.19-1.37-11.26-3.86c-2.52-2.04-4.23-4.69-4.93-7.58h0.76h30.86h0.76C74.13,100.65,72.42,103.3,69.9,105.34z
		 M45.47,94.68l13.1-33.08L71.8,94.68H45.47z M143.29,108.98c-4.19,0-8.19-1.37-11.26-3.86c-2.45-1.99-4.14-4.56-4.87-7.36h0.7
		h30.86c0,0,0,0,0,0h0.7c-0.73,2.8-2.42,5.37-4.87,7.36C151.48,107.61,147.49,108.98,143.29,108.98z M156.37,94.46h-26.15
		l13.13-32.86L156.37,94.46z"/>
	<path class="st1" d="M117.15,119.44c-4.46,0-9.31-2.82-12.99-7.55c-0.56,0.93-1.17,1.82-1.8,2.67c4.18,5,9.65,19.47,14.79,19.47
		c3.71,0-36.08,0-32.37,0c5.42,0,11.2-14.81,15.46-20.31c6.7-8.65,8.27-20.49,8.41-28.91c0.03-1.2,0.05-7.53-2.03-14.5
		c-0.7-2.35-1.57-4.51-2.6-6.47c-0.67,0.99-1.29,2.07-1.85,3.24c0.56,1.28,1.06,2.65,1.5,4.11c1.99,6.66,1.92,12.86,1.9,13.55
		l0,0.03c-0.13,7.94-1.59,19.08-7.77,27.06c-3.68,4.75-8.55,7.59-13.03,7.59C80.09,119.44,121.85,119.44,117.15,119.44z"/>
</g>
</svg>
