<?xml version="1.0" encoding="utf-8"?>
<!-- Generator: Adobe Illustrator 23.0.6, SVG Export Plug-In . SVG Version: 6.00 Build 0)  -->
<svg version="1.1" id="Layer_2" xmlns="http://www.w3.org/2000/svg" xmlns:xlink="http://www.w3.org/1999/xlink" x="0px" y="0px"
	 viewBox="0 0 198.43 198.43" style="enable-background:new 0 0 198.43 198.43;" xml:space="preserve">
<style type="text/css">
	.st0{fill:#173142;}
</style>
<g>
	<g>
		<g>
			<path class="st0" d="M112.94,83.99c0-2.06-1.67-3.74-3.74-3.74H94.25c-2.06,0-3.74,1.67-3.74,3.74v52.33h22.43V83.99z
				 M144.71,91.47c0-2.06-1.67-3.74-3.74-3.74h-14.95c-2.06,0-3.74,1.67-3.74,3.74v44.86h22.43V91.47z M159.67,145.67H47.52
				c-3.1,0-5.61,2.51-5.61,5.61c0,3.1,2.51,5.61,5.61,5.61h112.15c3.1,0,5.61-2.51,5.61-5.61
				C165.27,148.19,162.76,145.67,159.67,145.67z M81.16,102.68c0-2.06-1.67-3.74-3.74-3.74H62.47c-2.06,0-3.74,1.67-3.74,3.74v33.64
				h22.43V102.68z"/>
			<path class="st0" d="M150.13,33.56l-16.81,2.4c-2.71,0.39-3.81,3.7-1.88,5.63l3.88,3.88l-13.56,13.56L99.5,42.14
				c-2.06-1.56-4.94-1.51-6.95,0.13L57.04,71.47c-2.4,1.97-2.74,5.5-0.77,7.89c1.11,1.35,2.72,2.05,4.34,2.05
				c1.25,0,2.51-0.42,3.56-1.27l32.09-26.38l22.64,17.17c2.23,1.69,5.37,1.48,7.35-0.5l17.01-17.01l2.59,2.59
				c1.93,1.93,5.24,0.83,5.63-1.88l2.4-16.81C154.2,35.13,152.32,33.25,150.13,33.56z"/>
		</g>
	</g>
</g>
</svg>
