<?xml version="1.0" encoding="utf-8"?>
<!-- Generator: Adobe Illustrator 23.0.6, SVG Export Plug-In . SVG Version: 6.00 Build 0)  -->
<svg version="1.1" xmlns="http://www.w3.org/2000/svg" xmlns:xlink="http://www.w3.org/1999/xlink" x="0px" y="0px"
	 viewBox="0 0 198.43 198.43" style="enable-background:new 0 0 198.43 198.43;" xml:space="preserve">
<style type="text/css">
	.st0{fill:#173142;}
</style>
<g id="Layer_2">
	<path class="st0" d="M129.89,94.52c0,0-3.02,8.06-6.59,10.44c-3.57,2.38-11.63,2.37-11.63,2.37s9-3.89,10.22-5.33
		c1.22-1.44,7.11-7.48,7.11-7.48H129.89"/>
	<path class="st0" d="M129.89,94.52c0,0,0.44,5.63-6.59,10.44c-6.41,3.81-11.63,2.37-11.63,2.37"/>
	<polygon class="st0" points="121.33,105.63 153.67,148.22 160,143 126,101.06 	"/>
</g>
<g id="Layer_3">
	<path class="st0" d="M121.56,129.11c0.22-4.3,2.19-8.68,4.34-12.87l-5.93-7.74c-4.58,2.37-9.78,3.72-15.29,3.72
		c-18.41,0-33.33-14.92-33.33-33.33s14.92-33.33,33.33-33.33S138,60.48,138,78.89c0,8.19-2.96,15.68-7.86,21.48l2.09,2.73
		c3.2-7.55,5.15-13.66,5.99-16.21c3.33-10.22,4-38.44-18.22-49.56c-5.17-2.52-15.78-4.67-15.78-4.67
		c-5.11-0.67-30.71-3.7-44.05,6.08c-13.33,9.78-12.81,31.67-12.81,31.67s0.85,4.25-4.7,10.25c-5.56,6-7.78,12-6.89,13.33
		c0.89,1.33,4.22,3.11,7.11,2.89c2.89-0.22,3.56,3.33,2.67,3.78c-0.17,0.08-2.31,0.86-2.72,2.83c-0.21,1,2.3,2.4,1.09,4.06
		c-1.31,1.79,0.98,4.3,1.63,5.33c1.11,1.78,1.56,6-1.11,11.11c-1.41,2.7-0.44,6.72,2.28,8.72c2.43,1.79,6.42,1.71,8.61,1.72
		c3.99,0.01,10.12-1.6,13.11-0.93c1.83,0.42,0.74,3.43,0.95,5.04c0.54,4.22,4.39,11,3.28,14.56c-1.11,3.56-2.76,11.33-2.76,11.33
		h62.98C132.89,164.44,120.65,147.12,121.56,129.11z"/>
	<path class="st0" d="M84.74,90.99c0.26,0.2,0.55,0.1,1.27-0.16c1.3-0.45,2.59-0.91,3.9-1.31c0.21-0.06,0.56,0.04,0.72,0.19
		c0.98,0.91,1.91,1.89,2.91,2.79c0.31,0.28,0.42,0.47,0.29,0.89c-0.51,1.68-0.98,3.37-1.45,5.04c1.29,0.94,4.97,2.39,6.35,2.49
		c0.74-1.5,1.52-3.02,2.24-4.56c0.22-0.48,0.44-0.61,1-0.58c1.29,0.06,2.6,0.01,3.89-0.07c0.52-0.03,0.86,0.01,1.13,0.53
		c0.71,1.35,1.5,2.67,2.23,4.01c0.2,0.36,0.42,0.5,0.8,0.33c1.79-0.78,3.58-1.57,5.37-2.36c0.44-0.19,0.25-0.52,0.16-0.8
		c-0.46-1.41-0.91-2.83-1.41-4.23c-0.19-0.52-0.1-0.83,0.32-1.21c1.1-1.01,2.13-2.1,3.28-3.24c1.66,0.47,3.5,0.99,5.39,1.52
		c1.17-1.96,1.94-4.05,2.41-6.34c-1.71-0.85-3.41-1.7-4.91-2.45c-0.08-1.79-0.12-3.44-0.25-5.09c-0.04-0.48,0.09-0.67,0.47-0.88
		c1.32-0.72,2.63-1.48,3.95-2.21c0.29-0.16,0.47-0.3,0.37-0.67c-0.53-1.87-1.21-3.67-2.27-5.32c-0.24-0.37-0.47-0.39-0.83-0.27
		c-1.47,0.49-2.95,0.95-4.42,1.45c-0.36,0.12-0.56,0.1-0.86-0.2c-1.05-1.04-2.14-2.04-3.26-3.01c-0.29-0.25-0.29-0.43-0.21-0.74
		c0.48-1.69,0.94-3.38,1.42-5.11c-1.97-1.12-4-1.98-6.24-2.45c-0.87,1.74-1.73,3.47-2.56,5.12c-1.87,0.04-3.68,0.08-5.61,0.12
		c-0.66-1.17-1.42-2.52-2.19-3.86c-0.64-1.1-0.39-1.09-1.69-0.67c-0.12,0.04-0.26,0.04-0.39,0.05c-1.07,0.48-2.14,0.96-3.2,1.44
		c-0.22,0.15-0.42,0.34-0.66,0.44c-0.62,0.27-0.8,0.61-0.54,1.3c0.53,1.43,0.98,2.9,1.43,4.36c0.06,0.19-0.02,0.51-0.15,0.66
		c-0.88,0.98-1.85,1.89-2.68,2.92c-0.41,0.5-0.72,0.55-1.28,0.38c-1.59-0.48-3.2-0.89-4.96-1.38c-0.83,2.11-1.64,4.18-2.46,6.26
		c0.38,0.2,0.59,0.31,0.81,0.42c1.35,0.67,2.69,1.36,4.05,2.01c0.39,0.18,0.46,0.41,0.47,0.82c0.02,1.43,0.13,2.86,0.16,4.3
		c0,0.22-0.18,0.54-0.38,0.66c-1.06,0.64-2.15,1.22-3.23,1.83c-0.87,0.5-1.19,0.69-1.21,1.13L84.74,90.99z M91.31,85.13
		c-1.66-3.31-1.93-7.06-0.76-10.57c1.17-3.51,3.63-6.35,6.93-8.01c3.31-1.66,7.06-1.93,10.57-0.76s6.35,3.63,8.01,6.93
		c1.66,3.31,1.93,7.06,0.76,10.57c-1.17,3.51-3.63,6.35-6.93,8.01c-3.31,1.66-7.06,1.93-10.57,0.76
		C95.81,90.9,92.96,88.43,91.31,85.13z"/>
</g>
<g id="Layer_4">
</g>
<g id="Layer_4_copy">
	<path class="st0" d="M104.15,48.89c-16.61,0-30.07,13.46-30.07,30.07s13.46,30.07,30.07,30.07c16.61,0,30.07-13.46,30.07-30.07
		S120.76,48.89,104.15,48.89z M104.15,106.67c-15.3,0-27.7-12.4-27.7-27.7s12.4-27.7,27.7-27.7c15.3,0,27.7,12.4,27.7,27.7
		S119.45,106.67,104.15,106.67z"/>
</g>
</svg>
