<?xml version="1.0" encoding="utf-8"?>
<!-- Generator: Adobe Illustrator 23.0.6, SVG Export Plug-In . SVG Version: 6.00 Build 0)  -->
<svg version="1.1" xmlns="http://www.w3.org/2000/svg" xmlns:xlink="http://www.w3.org/1999/xlink" x="0px" y="0px"
	 viewBox="0 0 198.43 198.43" style="enable-background:new 0 0 198.43 198.43;" xml:space="preserve">
<style type="text/css">
	.st0{fill:#173142;}
</style>
<g id="Layer_2">
	<g>
		<polygon class="st0" points="83.84,58.08 69.69,76.78 83.84,95.49 89.47,91.22 78.55,76.78 89.47,62.34 		"/>
		<polygon class="st0" points="110.48,62.34 121.41,76.78 110.48,91.22 116.12,95.49 130.27,76.78 116.12,58.08 		"/>
		<rect x="96.45" y="57.73" class="st0" width="7.07" height="38.09"/>
		<path class="st0" d="M160.27,146.5V61.27h-14.14V40.06h-92.3v21.21H39.69v85.23h40.26v7.08H69.34v7.07h61.28v-7.07h-10.61v-7.08
			H160.27z M60.89,47.12h78.17v59.31H60.89V47.12z M46.75,68.34h7.08v45.17h92.3V68.34h7.08v52.24H46.75V68.34z M112.95,153.58
			H87.01v-7.08h25.93V153.58z M46.75,139.44v-11.79h106.45v11.79H46.75z"/>
	</g>
</g>
<g id="Layer_3">
</g>
<g id="Layer_4">
</g>
<g id="Layer_4_copy">
</g>
</svg>
