<?xml version="1.0" encoding="utf-8"?>
<!-- Generator: Adobe Illustrator 23.0.6, SVG Export Plug-In . SVG Version: 6.00 Build 0)  -->
<svg version="1.1" xmlns="http://www.w3.org/2000/svg" xmlns:xlink="http://www.w3.org/1999/xlink" x="0px" y="0px"
	 viewBox="0 0 198.43 198.43" style="enable-background:new 0 0 198.43 198.43;" xml:space="preserve">
<style type="text/css">
	.st0{fill:#173142;}
</style>
<g id="Layer_2">
	<g>
		<rect x="87.63" y="133.96" class="st0" width="23.16" height="7.72"/>
		<rect x="118.51" y="133.96" class="st0" width="15.44" height="7.72"/>
		<rect x="64.47" y="133.96" class="st0" width="15.44" height="7.72"/>
		<path class="st0" d="M41.3,157.12h115.82v-38.61H41.3V157.12z M56.75,126.24h84.93v23.16H56.75V126.24z"/>
		<rect x="41.3" y="72.19" class="st0" width="38.61" height="7.72"/>
		<rect x="49.03" y="87.63" class="st0" width="38.61" height="7.72"/>
		<path class="st0" d="M149.4,103.07c0-5.18,0-13.43,0-15.44c0-7.02-3.16-13.42-8.26-17.71c-8.28,8.17-21.53,8.18-29.82,0
			c-5.09,4.29-8.26,10.69-8.26,17.71v15.44c-2.5,0-64.25,0-69.49,0v7.72h131.26v-7.72C160.15,103.07,153.99,103.07,149.4,103.07z"/>
		<path class="st0" d="M126.24,68.33c7.46,0,13.51-6.05,13.51-13.51S133.7,41.3,126.24,41.3c-7.46,0-13.51,6.05-13.51,13.51
			S118.77,68.33,126.24,68.33z"/>
	</g>
</g>
<g id="Layer_3">
</g>
<g id="Layer_4">
</g>
<g id="Layer_4_copy">
</g>
</svg>
