<?xml version="1.0" encoding="utf-8"?>
<!-- Generator: Adobe Illustrator 23.0.6, SVG Export Plug-In . SVG Version: 6.00 Build 0)  -->
<svg version="1.1" xmlns="http://www.w3.org/2000/svg" xmlns:xlink="http://www.w3.org/1999/xlink" x="0px" y="0px"
	 viewBox="0 0 198.43 198.43" style="enable-background:new 0 0 198.43 198.43;" xml:space="preserve">
<style type="text/css">
	.st0{fill:#173142;}
</style>
<g id="Layer_2">
	<g>
		<path class="st0" d="M142.65,66.95c-5.1-19.21-22.64-33.42-43.44-33.42s-38.34,14.2-43.44,33.42c-4.87,1.56-8.41,6.14-8.41,11.52
			c0,6.67,5.43,12.1,12.1,12.1h5.19v-12.1c0-19.06,15.51-34.57,34.57-34.57s34.57,15.51,34.57,34.57v12.1h5.19
			c6.67,0,12.1-5.43,12.1-12.1C151.06,73.09,147.53,68.51,142.65,66.95z"/>
		<path class="st0" d="M103.58,81.76c9.81-0.75,18.2-3.78,19.74-5.25c-1-12.44-11.41-22.23-24.11-22.23
			c-13.36,0-24.2,10.83-24.2,24.2s10.83,24.2,24.2,24.2c9.64,0,17.96-5.64,21.85-13.79c-0.32,0.1-0.64,0.21-0.97,0.31
			c-4.99,1.53-10.67,2.55-16.12,2.94c-2.7,2.57-6.99,2.53-9.64-0.12c-2.7-2.7-2.7-7.08,0-9.78C96.85,79.7,100.87,79.54,103.58,81.76
			z"/>
		<path class="st0" d="M115.34,109.01c-4.9,2.59-10.42,4.03-16.13,4.03c-5.83,0-11.34-1.46-16.16-4.02
			c-17.65,6.56-30.23,23.56-30.23,43.5c0,6.83,5.54,12.37,12.37,12.37h68.04c6.83,0,12.37-5.54,12.37-12.37
			C145.61,132.57,133.01,115.56,115.34,109.01z"/>
	</g>
</g>
<g id="Layer_3">
</g>
<g id="Layer_4">
</g>
<g id="Layer_4_copy">
</g>
</svg>
