<?xml version="1.0" encoding="utf-8"?>
<!-- Generator: Adobe Illustrator 23.0.6, SVG Export Plug-In . SVG Version: 6.00 Build 0)  -->
<svg version="1.1" xmlns="http://www.w3.org/2000/svg" xmlns:xlink="http://www.w3.org/1999/xlink" x="0px" y="0px"
	 viewBox="0 0 198.43 198.43" style="enable-background:new 0 0 198.43 198.43;" xml:space="preserve">
<style type="text/css">
	.st0{fill:#173142;}
</style>
<g id="Layer_2">
	<g>
		<path class="st0" d="M161.63,127.77h-7.61c-1.04,0-1.88,0.84-1.88,1.88v3.19H148l-0.44-2.64c-0.72-4.35-4.45-7.51-8.86-7.51h-0.25
			l-0.77-3.72c-0.96-4.62-5.07-7.98-9.79-7.98h-10.44v-2.72c5.81-2.71,10-8.33,10.67-14.98c4.26-0.06,7.71-3.55,7.71-7.82
			c0-2.41-1.09-4.56-2.81-6c0.48-0.71,0.76-1.56,0.76-2.48v-6c0-1.76-0.19-3.53-0.57-5.25c-0.23-1.02-1.23-1.66-2.25-1.43
			c-1.02,0.22-1.66,1.23-1.43,2.25c0.32,1.45,0.48,2.94,0.48,4.43v6c0,0.36-0.29,0.66-0.65,0.66h-7.19v-5.11
			c0-1.04-0.84-1.88-1.88-1.88c-1.04,0-1.88,0.84-1.88,1.88v5.11h-3.84v-2.58c0-1.04-0.84-1.88-1.88-1.88
			c-1.04,0-1.88,0.84-1.88,1.88v2.58h-8.92v-1.31c0-1.04-0.84-1.88-1.88-1.88c-1.04,0-1.88,0.84-1.88,1.88v1.31h-8.22
			c-0.36,0-0.65-0.29-0.65-0.66v-6c0-5.45,2.12-10.57,5.97-14.42c3.85-3.85,8.97-5.97,14.42-5.97c6.62,0,12.84,3.23,16.66,8.64
			c0.6,0.85,1.78,1.05,2.63,0.45c0.85-0.6,1.05-1.78,0.45-2.63c-4.52-6.41-11.9-10.23-19.74-10.23c-6.45,0-12.52,2.51-17.09,7.08
			c-1.3,1.31-2.44,2.73-3.4,4.26c-1.94-13.14-13.29-23.26-26.96-23.26c-15.03,0-27.26,12.23-27.26,27.26c0,4.54,1.14,9.04,3.3,13.01
			c0.5,0.91,1.64,1.25,2.55,0.75c0.91-0.5,1.25-1.64,0.75-2.55c-1.86-3.42-2.84-7.29-2.84-11.21c0-12.95,10.54-23.49,23.49-23.49
			c12.95,0,23.49,10.54,23.49,23.49c0,7.85-3.9,15.15-10.42,19.52c-0.52,0.35-0.83,0.94-0.83,1.56v7.91l-11.43-5.33
			c-0.25-0.12-0.52-0.18-0.8-0.18c-5.76,0-11.3-2.11-15.6-5.93c-0.78-0.69-1.97-0.62-2.66,0.15c-0.69,0.78-0.62,1.97,0.15,2.66
			c4.88,4.35,11.15,6.78,17.68,6.88l13.74,6.4c0.25,0.12,0.52,0.18,0.8,0.18c0.35,0,0.71-0.1,1.01-0.29
			c0.54-0.35,0.87-0.95,0.87-1.59v-9.88c2.97-2.15,5.43-4.85,7.29-7.9V77c0,0.92,0.28,1.77,0.76,2.48c-1.71,1.44-2.81,3.59-2.81,6
			c0,4.28,3.45,7.76,7.71,7.82c0.67,6.65,4.86,12.27,10.67,14.98V111H91.35c-4.72,0-8.84,3.36-9.8,7.98l-3.92,18.94h-1.18
			l-14.54-14.54c-1.5-1.51-3.51-2.34-5.64-2.34c-2.13,0-4.13,0.83-5.64,2.34c-1.51,1.51-2.34,3.51-2.34,5.64
			c0,2.13,0.83,4.13,2.34,5.64l16.03,16.03c1.98,1.98,4.49,3.31,7.24,3.86l42.68,8.36c2.04,0.4,4.13,0.6,6.21,0.6h38.82
			c1.04,0,1.88-0.84,1.88-1.88v-31.97C163.51,128.62,162.66,127.77,161.63,127.77z M128.21,81.43c2.14,0.11,3.84,1.89,3.84,4.05
			c0,2.16-1.71,3.94-3.84,4.05V81.43z M91.02,89.53c-2.14-0.11-3.84-1.89-3.84-4.05c0-2.17,1.71-3.94,3.84-4.05V89.53z M94.79,91.42
			v-10h29.65v10c0,8.17-6.65,14.83-14.82,14.83C101.44,106.25,94.79,99.6,94.79,91.42z M113.67,109.56v4.25
			c0,2.24-1.82,4.06-4.06,4.06c-2.24,0-4.06-1.82-4.06-4.06v-4.25c1.31,0.29,2.66,0.45,4.06,0.45
			C111.01,110.01,112.36,109.85,113.67,109.56z M152.13,159.74H122.8c-1.84,0-3.68-0.18-5.49-0.53l-42.68-8.36
			c-2.02-0.4-3.85-1.37-5.3-2.82L53.3,132c-0.79-0.79-1.23-1.85-1.23-2.97c0-1.12,0.44-2.18,1.23-2.97s1.85-1.23,2.97-1.23
			c1.13,0,2.18,0.44,2.97,1.23l15.09,15.09c0.35,0.35,0.83,0.55,1.33,0.55h17.04c0.06,0.07,0.12,0.14,0.19,0.2
			c1.51,1.5,3.51,2.33,5.64,2.33h20.53l1.98,1.98c0.37,0.37,0.85,0.55,1.33,0.55c0.48,0,0.97-0.18,1.33-0.55
			c0.74-0.74,0.74-1.93,0-2.66l-2.54-2.54c-0.35-0.35-0.83-0.55-1.33-0.55H98.54c-2.26,0.05-4.26-1.96-4.21-4.22
			c0.01-2.31,1.96-4.19,4.35-4.19h6.01c1.04,0,1.88-0.84,1.88-1.88c0-1.04-0.84-1.88-1.88-1.88h-6.01c-4.46,0-8.1,3.57-8.12,7.95
			c0,0.57,0.06,1.14,0.18,1.69h-9.26l3.76-18.18c0.6-2.88,3.16-4.97,6.11-4.97h10.5c0.47,3.87,3.77,6.87,7.76,6.87
			c3.99,0,7.29-3,7.77-6.87h10.5c2.94,0,5.51,2.09,6.1,4.97l0.61,2.96h-8.73c-3.67,0-6.95,2.27-8.31,5.58h-4.07
			c-1.04,0-1.88,0.84-1.88,1.88c0,1.04,0.84,1.88,1.88,1.88h5.45c0.89,0,1.65-0.62,1.84-1.48c0.52-2.38,2.66-4.1,5.1-4.1h12.83
			c2.56,0,4.73,1.83,5.15,4.36l0.7,4.21c0.15,0.91,0.94,1.57,1.86,1.57h5.73V159.74z M159.74,159.74h-3.84v-24.99
			c0-0.01,0-0.02,0-0.02c0-0.01,0-0.02,0-0.02v-3.17h3.84V159.74z"/>
		<path class="st0" d="M50.81,73.83l8.08,4.73c1.01,0.59,2.15,0.89,3.28,0.89c1.14,0,2.27-0.3,3.28-0.89l8.08-4.73
			c1.99-1.16,3.22-3.31,3.22-5.61v-7.47l1.94-1.15c1.14-0.68,1.82-1.88,1.82-3.21c0-1.33-0.68-2.53-1.82-3.21l-14.23-8.46
			c-1.42-0.84-3.17-0.84-4.59,0l-14.23,8.46c-1.14,0.68-1.82,1.88-1.82,3.21c0,1.33,0.68,2.53,1.82,3.21l1.94,1.15v7.47
			C47.59,70.52,48.82,72.67,50.81,73.83z M72.99,68.22c0,0.97-0.52,1.87-1.35,2.36l-8.08,4.73c-0.85,0.5-1.91,0.5-2.76,0l-8.08-4.73
			c-0.83-0.49-1.35-1.39-1.35-2.36v-5.23l8.52,5.07c0.71,0.42,1.5,0.63,2.29,0.63s1.59-0.21,2.29-0.63l8.52-5.07V68.22z M61.8,47.96
			c0.23-0.13,0.51-0.13,0.74,0l14.18,8.43l-14.18,8.43c-0.23,0.13-0.51,0.13-0.74,0l-14.18-8.43L61.8,47.96z"/>
	</g>
</g>
<g id="Layer_3">
</g>
<g id="Layer_4">
</g>
<g id="Layer_4_copy">
</g>
</svg>
