<?xml version="1.0" encoding="utf-8"?>
<!-- Generator: Adobe Illustrator 23.0.6, SVG Export Plug-In . SVG Version: 6.00 Build 0)  -->
<svg version="1.1" xmlns="http://www.w3.org/2000/svg" xmlns:xlink="http://www.w3.org/1999/xlink" x="0px" y="0px"
	 viewBox="0 0 198.43 198.43" style="enable-background:new 0 0 198.43 198.43;" xml:space="preserve">
<style type="text/css">
	.st0{fill:#173142;}
</style>
<g id="Layer_2">
	<g>
		<path class="st0" d="M109.74,89.27c2.88-2.84,4.47-6.69,4.47-10.85c-0.09-7.79-9.09-11.85-15-7.19c-2.64-2.07-6.21-2.56-9.37-1.22
			c-3.53,1.49-5.69,4.9-5.62,8.91c0.08,3.88,1.66,7.54,4.44,10.3C94.56,95.08,103.94,94.99,109.74,89.27L109.74,89.27z M91.29,73.46
			c0.71-0.3,1.46-0.45,2.2-0.45c1.45,0,2.87,0.57,3.94,1.64l0.46,0.46c0.35,0.35,0.83,0.55,1.32,0.55c0.49,0,0.97-0.2,1.32-0.55
			l0.46-0.46c3.48-3.48,9.43-1.04,9.48,3.8c0,3.14-1.19,6.04-3.36,8.17c-2.16,2.13-5.03,3.27-8.07,3.24
			c-5.99-0.09-10.96-5.02-11.09-10.99C87.91,76.37,89.16,74.36,91.29,73.46L91.29,73.46z M91.29,73.46"/>
		<path class="st0" d="M54.19,120.86c-1.03,0-1.87,0.84-1.87,1.87v3c0,1.03,0.84,1.87,1.87,1.87c1.03,0,1.87-0.84,1.87-1.87v-3
			C56.06,121.7,55.22,120.86,54.19,120.86L54.19,120.86z M54.19,120.86"/>
		<path class="st0" d="M85.43,120.86c-1.03,0-1.87,0.84-1.87,1.87v3c0,1.03,0.84,1.87,1.87,1.87c1.03,0,1.87-0.84,1.87-1.87v-3
			C87.3,121.7,86.46,120.86,85.43,120.86L85.43,120.86z M85.43,120.86"/>
		<path class="st0" d="M75.16,124.24c-0.78-0.68-1.96-0.6-2.64,0.18c-1.43,1.64-3.97,1.66-5.42,0c-0.68-0.78-1.86-0.86-2.64-0.18
			c-0.78,0.68-0.86,1.86-0.18,2.64c2.92,3.36,8.13,3.35,11.05,0C76.01,126.1,75.93,124.92,75.16,124.24L75.16,124.24z M75.16,124.24
			"/>
		<path class="st0" d="M113.28,120.37c-2.93,0-5.31,2.38-5.31,5.31c0,1.03,0.84,1.87,1.87,1.87c1.03,0,1.87-0.84,1.87-1.87
			c0-0.87,0.71-1.57,1.57-1.57c0.87,0,1.58,0.71,1.58,1.57c0,1.03,0.84,1.87,1.87,1.87c1.03,0,1.87-0.84,1.87-1.87
			C118.59,122.75,116.21,120.37,113.28,120.37L113.28,120.37z M113.28,120.37"/>
		<path class="st0" d="M144.06,120.37c-2.93,0-5.31,2.38-5.31,5.31c0,1.03,0.84,1.87,1.87,1.87c1.03,0,1.87-0.84,1.87-1.87
			c0-0.87,0.71-1.57,1.58-1.57c0.87,0,1.57,0.71,1.57,1.57c0,1.03,0.84,1.87,1.87,1.87c1.03,0,1.87-0.84,1.87-1.87
			C149.37,122.75,146.99,120.37,144.06,120.37L144.06,120.37z M144.06,120.37"/>
		<g>
			<path class="st0" d="M133.55,128.3c-0.78-0.68-1.96-0.6-2.64,0.18c-1.19,1.37-3.29,1.37-4.49,0c-0.68-0.78-1.86-0.86-2.64-0.18
				c-0.78,0.68-0.86,1.86-0.18,2.64c2.68,3.07,7.45,3.07,10.12,0C134.41,130.15,134.33,128.97,133.55,128.3L133.55,128.3z
				 M133.55,128.3"/>
			<path class="st0" d="M150.66,98.27l0.86-8.45c2.59,0.09,5.21-0.74,7.29-2.38c5.84-4.6,5.49-13.62-0.7-17.78L113.9,39.94
				c-8.93-6.01-20.46-6.01-29.39,0l-10.93,7.34c-0.86,0.57-1.08,1.74-0.51,2.59c0.58,0.86,1.74,1.08,2.59,0.51l10.93-7.34
				c7.66-5.15,17.56-5.15,25.22,0l44.21,29.72c4.03,2.71,4.38,8.66,0.47,11.74c-3.01,2.37-6.23,1.39-6.27,1.39
				c-2.15-0.51-1.33-0.61-40.03-25.03c-6.68-4.25-15.31-4.25-21.98,0C49.71,85.16,49.69,86.1,46.48,86.1c-3.51,0-7.31-2.79-7.31-7.3
				c0-2.43,1.2-4.69,3.22-6.04l26.02-17.49c0.86-0.58,1.08-1.74,0.51-2.59c-0.58-0.86-1.74-1.08-2.59-0.51L40.3,69.66
				c-3.05,2.05-4.87,5.47-4.87,9.14c0,6.08,4.95,11.03,11.04,11.03c0.14,0,0.28,0,0.42,0L47.73,98c-7.96,6.05-12.3,15.12-12.3,25.08
				c0,12.52,6.83,23.23,18.13,28.63c2.12,6.68,8.33,11.28,15.42,11.28h36.46c1.03,0,1.87-0.84,1.87-1.87c0-1.03-0.84-1.87-1.87-1.87
				H68.98c-4.28,0-8.15-2.18-10.4-5.6c14.76,4.47,32.07-0.21,40.61-13.32c8.36,13.13,25.61,17.98,40.44,13.59
				c-2.28,3.26-6.06,5.32-10.2,5.32H114.2c-1.03,0-1.87,0.84-1.87,1.87c0,1.03,0.84,1.87,1.87,1.87h15.23
				c6.96,0,13.13-4.49,15.33-11.01c9.77-4.62,16.31-13.27,17.86-23.76c0.02-0.08,0.03-0.16,0.03-0.24
				C164.24,116.73,160.15,105.45,150.66,98.27L150.66,98.27z M158.09,115.26c-1.59-2.48-3.56-4.73-5.88-6.72
				c-6.74-5.79-16.76-5.76-23.55-0.18c-6.79-5.59-16.81-5.61-23.55,0.18c-2.31,1.99-4.28,4.24-5.87,6.72
				c3.57-12.01,15.03-20.34,29.42-20.34C143.06,94.92,154.53,103.25,158.09,115.26L158.09,115.26z M50.56,88.95
				c3.86-1.82,11.52-7.18,39.66-24.94c5.46-3.47,12.51-3.47,17.98,0c32.97,20.8,37.39,24.06,39.65,25.04l-0.7,6.89
				c-5.4-3.09-11.76-4.75-18.47-4.75c-11.94,0-23.05,5.29-29.31,14.9c-3.49-5.47-8.74-9.82-15.08-12.43
				c-10.24-4.21-23.04-3.75-33.03,2L50.56,88.95z M69.81,94.61c4.02,0,7.88,0.64,11.48,1.91c-2.85,8.42-10.74,14.37-19.74,14.68
				l-20.1,0.69C45.95,101.54,56.67,94.61,69.81,94.61L69.81,94.61z M69.81,151.55c-17.47,0-30.64-12.24-30.64-28.47
				c0-2.58,0.33-5.06,0.96-7.41l21.55-0.74c10.8-0.37,19.7-7.41,23.06-16.96c5.43,2.67,9.81,6.83,12.52,11.92
				c-3.85,8.31-3.86,18.33-0.13,26.61C92.06,145.81,81.69,151.55,69.81,151.55L69.81,151.55z M128.67,151.75
				c-15.78,0-28.04-10.01-30.23-23.92c0.99-6.49,4.14-12.18,9.12-16.46c5.72-4.91,14.41-4.55,19.79,0.83c0.73,0.73,1.91,0.73,2.64,0
				c5.38-5.38,14.07-5.74,19.79-0.83c4.98,4.28,8.13,9.96,9.12,16.46C156.71,141.75,144.45,151.75,128.67,151.75L128.67,151.75z
				 M128.67,151.75"/>
		</g>
	</g>
</g>
<g id="Layer_3">
</g>
<g id="Layer_4">
</g>
<g id="Layer_4_copy">
</g>
</svg>
