<?xml version="1.0" encoding="utf-8"?>
<!-- Generator: Adobe Illustrator 23.0.6, SVG Export Plug-In . SVG Version: 6.00 Build 0)  -->
<svg version="1.1" xmlns="http://www.w3.org/2000/svg" xmlns:xlink="http://www.w3.org/1999/xlink" x="0px" y="0px"
	 viewBox="0 0 198.43 198.43" style="enable-background:new 0 0 198.43 198.43;" xml:space="preserve">
<style type="text/css">
	.st0{fill:#173142;}
</style>
<g id="Layer_2">
	<g>
		<path class="st0" d="M143.27,54.65v5.96h7.51V41.82H132v7.51h5.96l-20.17,20.17c0.27,3.76,0.08,7.51-0.57,11.2L143.27,54.65z"/>
		<path class="st0" d="M69.06,99.12h7.52v11.08c17.72-1.77,31.86-15.9,33.63-33.63H99.12v-7.52h11.08
			c-1.77-17.72-15.9-31.86-33.63-33.63v11.08h-7.52V35.43C51.34,37.2,37.2,51.34,35.43,69.06h11.08v7.52H35.43
			c1.77,17.72,15.9,31.86,33.63,33.63V99.12z M69.06,57.79h7.52v11.27h7.51v7.52H69.06V57.79z"/>
		<rect x="50.28" y="155.48" class="st0" width="112.72" height="7.51"/>
		<rect x="80.33" y="121.66" class="st0" width="10.27" height="26.3"/>
		<rect x="98.12" y="114.15" class="st0" width="10.27" height="33.82"/>
		<rect x="115.9" y="102.88" class="st0" width="10.27" height="45.09"/>
		<rect x="133.69" y="95.36" class="st0" width="10.27" height="52.6"/>
		<rect x="151.47" y="87.85" class="st0" width="11.52" height="60.12"/>
	</g>
</g>
<g id="Layer_3">
</g>
<g id="Layer_4">
</g>
<g id="Layer_4_copy">
</g>
</svg>
