<?xml version="1.0" encoding="UTF-8"?>
<svg id="Layer_2" data-name="Layer 2" xmlns="http://www.w3.org/2000/svg" version="1.1" viewBox="0 0 198.43 198.43">
  <defs>
    <style>
      .cls-1 {
        fill: #173142;
        stroke-width: 0px;
      }
    </style>
  </defs>
  <path class="cls-1" d="M189.85,134.72h-10.75c1.07-1.85,1.64-3.94,1.64-6.08V43.55c0-5.03-4.08-9.11-9.12-9.12H31.83c-5.03,0-9.11,4.08-9.12,9.12v85.09c0,2.13.56,4.23,1.64,6.08h-10.75c-1.68,0-3.04,1.36-3.04,3.04h0v6.08c0,6.71,5.45,12.15,12.16,12.16h158.02c6.71,0,12.15-5.45,12.16-12.16v-6.08c0-1.68-1.36-3.04-3.04-3.04h0ZM31.83,40.51h139.79c1.68,0,3.04,1.36,3.04,3.04v9.12H28.79v-9.12c0-1.68,1.36-3.04,3.04-3.04ZM28.79,128.64V58.75h145.86v69.89c0,3.36-2.72,6.07-6.08,6.08h-42.18c-2.71,0-5.37.63-7.8,1.84-1.58.79-3.32,1.2-5.08,1.2h-23.59c-1.76,0-3.5-.41-5.08-1.2-2.42-1.21-5.09-1.84-7.8-1.84h-42.18c-3.36,0-6.07-2.72-6.08-6.08ZM186.81,143.83c0,3.36-2.72,6.07-6.08,6.08H22.71c-3.36,0-6.07-2.72-6.08-6.08v-3.04h60.42c1.76,0,3.5.41,5.08,1.2,2.42,1.21,5.09,1.84,7.8,1.84h23.59c2.71,0,5.37-.63,7.8-1.84,1.58-.79,3.32-1.2,5.08-1.2h60.42v3.04Z"/>
  <circle class="cls-1" cx="37.91" cy="46.59" r="3.04"/>
  <circle class="cls-1" cx="47.02" cy="46.59" r="3.04"/>
  <circle class="cls-1" cx="56.14" cy="46.59" r="3.04"/>
  <path class="cls-1" d="M40.95,125.6c0,1.68,1.36,3.04,3.04,3.04s3.04-1.36,3.04-3.04v-3.04h18.23v3.04c0,1.68,1.36,3.04,3.04,3.04s3.04-1.36,3.04-3.04v-3.04h2.03c1.31,0,2.47-.84,2.88-2.08l15.51-46.54h6.93v-6.08h-9.12c-1.31,0-2.47.84-2.88,2.08l-2.35,7.04h-46.43c-1.68,0-3.04,1.36-3.04,3.04,0,.33.05.65.16.96l9.12,27.35c.41,1.24,1.57,2.08,2.88,2.08h26.17l-2.03,6.08h-36.3v6.08h6.08v3.04ZM49.22,104.33l-7.09-21.27h40.19l-7.09,21.27h-26.01Z"/>
  <path class="cls-1" d="M97.33,80.34c-1.03.51-1.68,1.57-1.68,2.72v12.16c0,1.15.65,2.2,1.68,2.72l10.48,5.24v22.43c0,1.68,1.36,3.04,3.04,3.04h9.12c1.45,0,2.7-1.02,2.98-2.44l2.86-14.29,2.39-2.39c.57-.57.89-1.34.89-2.15v-2.93l32.63,8.9c1.62.44,3.29-.51,3.73-2.13.07-.26.11-.53.11-.8v-42.54c0-1.68-1.36-3.04-3.04-3.04-.27,0-.54.04-.8.11l-33.03,9.01h-17.83c-.47,0-.94.11-1.36.32l-12.16,6.08ZM126.03,98.25h-12.16v-18.23h12.16v18.23ZM101.72,84.94l6.08-3.04v14.48l-6.08-3.04v-8.4ZM120.85,108.26c-.42.42-.71.96-.83,1.55l-2.55,12.75h-3.59v-18.23h9.12v1.78l-2.15,2.15ZM159.46,106.43l-27.35-7.46v-19.67l27.35-7.46v34.59Z"/>
</svg>