<?xml version="1.0" encoding="utf-8"?>
<!-- Generator: Adobe Illustrator 23.0.4, SVG Export Plug-In . SVG Version: 6.00 Build 0)  -->
<svg version="1.1" id="katman_1" xmlns="http://www.w3.org/2000/svg" xmlns:xlink="http://www.w3.org/1999/xlink" x="0px" y="0px"
	 viewBox="0 0 70 70" style="enable-background:new 0 0 70 70;" xml:space="preserve">
<style type="text/css">
	.st0{fill:#262753;}
	.st1{fill:#262653;}
</style>
<g>
	<g>
		<g>
			<path class="st0" d="M35.3,15.4c0,0,0.9,18.4,0.9,18.4c-0.1,2.4-0.7,4.2-1.8,5.1c-0.9,0.8-2.6,0.8-2.6,0.8l0.3,0.4
				c0,0,0.5,0,0.5,0c0.3,0,1.2-0.1,2.1-0.9c1.2-1,1.8-2.9,2-5.4l-0.9-18.4H35.3z"/>
		</g>
		<g>
			<path class="st0" d="M40.4,39.2c-2.9,0-4.3-3.1-4.4-3.3l0.4-0.2c0,0,1.4,3,4,3c0,0,1.1,0,1.1,0l-0.2,0.4
				C41.3,39.2,40.5,39.2,40.4,39.2z"/>
		</g>
		<g>
			<g>
				<path class="st0" d="M31.4,13.9c-1.3,0-2.4-1.1-2.4-2.4s1.1-2.4,2.4-2.4c1.3,0,2.4,1.1,2.4,2.4S32.7,13.9,31.4,13.9z M31.4,9.7
					c-1.1,0-1.9,0.9-1.9,1.9s0.9,1.9,1.9,1.9c1.1,0,1.9-0.9,1.9-1.9S32.5,9.7,31.4,9.7z"/>
			</g>
		</g>
		<g>
			<g>
				<path class="st0" d="M27.7,15.1c-1.1,0-2-0.9-2-2c0-1.1,0.9-2,2-2c1.1,0,2,0.9,2,2C29.6,14.2,28.7,15.1,27.7,15.1z M27.7,11.6
					c-0.9,0-1.6,0.7-1.6,1.6c0,0.9,0.7,1.6,1.6,1.6c0.9,0,1.6-0.7,1.6-1.6C29.2,12.3,28.5,11.6,27.7,11.6z"/>
			</g>
		</g>
		<g>
			<g>
				<path class="st0" d="M42.4,12.7c-1.1,0-2.1-0.9-2.1-2.1s0.9-2.1,2.1-2.1c1.1,0,2.1,0.9,2.1,2.1S43.5,12.7,42.4,12.7z M42.4,9
					c-0.9,0-1.6,0.7-1.6,1.6c0,0.9,0.7,1.6,1.6,1.6c0.9,0,1.6-0.7,1.6-1.6C44,9.7,43.3,9,42.4,9z"/>
			</g>
		</g>
		<g>
			<g>
				<path class="st0" d="M24.8,16.5c-0.9,0-1.6-0.7-1.6-1.6c0-0.9,0.7-1.6,1.6-1.6s1.6,0.7,1.6,1.6C26.3,15.8,25.6,16.5,24.8,16.5z
					 M24.8,13.7c-0.7,0-1.2,0.5-1.2,1.2c0,0.7,0.5,1.2,1.2,1.2s1.2-0.5,1.2-1.2C26,14.2,25.4,13.7,24.8,13.7z"/>
			</g>
		</g>
		<g>
			<g>
				<path class="st0" d="M45.3,13.7c-0.9,0-1.6-0.7-1.6-1.6s0.7-1.6,1.6-1.6s1.6,0.7,1.6,1.6S46.2,13.7,45.3,13.7z M45.3,10.9
					c-0.7,0-1.2,0.5-1.2,1.2s0.5,1.2,1.2,1.2c0.7,0,1.2-0.5,1.2-1.2S45.9,10.9,45.3,10.9z"/>
			</g>
		</g>
		<g>
			<g>
				<path class="st0" d="M22.8,18.3c-0.8,0-1.4-0.6-1.4-1.4s0.6-1.4,1.4-1.4c0.8,0,1.4,0.6,1.4,1.4S23.6,18.3,22.8,18.3z M22.8,15.9
					c-0.6,0-1,0.4-1,1c0,0.6,0.4,1,1,1c0.6,0,1-0.4,1-1C23.8,16.3,23.4,15.9,22.8,15.9z"/>
			</g>
		</g>
		<g>
			<g>
				<path class="st0" d="M47.3,15.1c-0.7,0-1.3-0.6-1.3-1.3c0-0.7,0.6-1.3,1.3-1.3c0.7,0,1.3,0.6,1.3,1.3
					C48.6,14.5,48,15.1,47.3,15.1z M47.3,12.9c-0.5,0-1,0.4-1,1c0,0.5,0.4,1,1,1s1-0.4,1-1C48.2,13.3,47.8,12.9,47.3,12.9z"/>
			</g>
		</g>
		<g>
			<g>
				<path class="st0" d="M48.8,16.6C48.9,16.6,48.9,16.6,48.8,16.6c0-0.1,0-0.1,0.1-0.1c-0.5,0-0.9-0.4-0.9-0.9
					c0-0.5,0.4-0.9,0.9-0.9c0.3,0,0.6,0.2,0.7,0.5c0.1-0.1,0.2-0.2,0.3-0.3c-0.2-0.3-0.6-0.6-1.1-0.6c-0.7,0-1.3,0.6-1.3,1.3
					c0,0.6,0.5,1.1,1.1,1.2C48.7,16.8,48.8,16.7,48.8,16.6z"/>
			</g>
		</g>
		<g>
			<g>
				<path class="st0" d="M38.3,13.3c-1.3,0-2.4-1.1-2.4-2.4s1.1-2.4,2.4-2.4s2.4,1.1,2.4,2.4S39.6,13.3,38.3,13.3z M38.3,9
					c-1.1,0-1.9,0.9-1.9,1.9s0.9,1.9,1.9,1.9s1.9-0.9,1.9-1.9S39.3,9,38.3,9z"/>
			</g>
		</g>
		<g>
			<path class="st0" d="M25.2,24.6c0,0-0.6-1.2-0.2-2.3c0.3-0.8,1-1.4,2.1-1.8c3-1.1,2.3-3.9,2.3-4.1l0.4-0.1c0,0,0.8,3.3-2.5,4.5
				c-0.9,0.4-1.6,0.9-1.8,1.6c-0.4,1,0.1,2,0.1,2L25.2,24.6z"/>
		</g>
		<g>
			<path class="st0" d="M32.9,32.2c0,0-0.8-1.9-2-1.9l0-0.4c1.4,0.1,2.3,2.1,2.4,2.2L32.9,32.2z"/>
		</g>
		<g>
			<polygon class="st0" points="33.4,30 32.9,27.7 33.3,27.6 33.8,30 			"/>
		</g>
		<g>
			<polygon class="st0" points="28.5,30.5 28.1,30.3 32.4,23.6 32.7,23.9 			"/>
		</g>
		<g>
			<rect x="31.1" y="18" transform="matrix(0.5701 -0.8216 0.8216 0.5701 -3.6507 34.6364)" class="st0" width="0.4" height="5.6"/>
		</g>
		<g>
			<rect x="42" y="13.8" transform="matrix(0.7899 -0.6132 0.6132 0.7899 -2.5542 29.77)" class="st0" width="0.4" height="9.6"/>
		</g>
		<g>
			<path class="st0" d="M37.3,22c0,0-0.2-0.8,0.1-1.3c0.2-0.3,0.5-0.4,0.9-0.5c1.2-0.1,3.5-1.7,3.6-1.7l0.2,0.3
				c-0.1,0.1-2.4,1.7-3.8,1.8c-0.3,0-0.5,0.1-0.6,0.3c-0.2,0.4-0.1,1-0.1,1L37.3,22z"/>
		</g>
		<g>
			<path class="st0" d="M40.7,24.5l-0.4-0.1c0.7-2.1,0-4.8,0-4.8l0.4-0.1C40.7,19.6,41.5,22.3,40.7,24.5z"/>
		</g>
		<g>
			<path class="st0" d="M42.4,31.2c-0.2,0-0.2-0.2-0.3-0.4c-0.2-1.5-3-4.5-3.1-4.5l0.3-0.3c0.1,0.1,2,2.1,2.8,3.7
				c0-1.3-0.2-3.4-0.2-4.9l0.4,0C42.8,31.2,42.7,31.2,42.4,31.2C42.4,31.2,42.4,31.2,42.4,31.2z"/>
		</g>
		<g>
			<polygon class="st0" points="40.2,35.1 39.5,31.5 39.9,31.5 40.6,35 			"/>
		</g>
		<g>
			<g>
				<path class="st0" d="M55.1,55.1h-0.9v-3.4l3.4-7.5l5.3-18.7l-2-11.1L47.9,3.3c-0.6-0.5-1.4-0.7-2.1-0.6c-0.4,0.1-0.7,0.2-1,0.5
					c-0.4,0.4-0.6,0.9-0.5,1.5c0.1,0.5,0.3,1,0.8,1.3l9.8,9.2l1.2,6.1l0.1,8.8l-1.9,9.6l-0.9-0.2l1.9-9.5l-0.1-8.7l-1.1-5.7l-9.6-9
					c-0.6-0.5-0.9-1.2-1-1.9c-0.2-0.9,0.1-1.7,0.8-2.3c0.4-0.4,0.9-0.6,1.4-0.7c1-0.2,2.1,0.1,2.9,0.8L61.7,14l2.1,11.6l0,0.1
					l-5.4,18.9l-3.3,7.3V55.1z"/>
			</g>
			<g>
				<path class="st0" d="M44.1,6.4c-0.3-0.4-3-3.8-1.4-5.5l0,0c1.1-1.1,2.9-1.1,4.1-0.1l3.8,3.6l-0.7,0.7l-3.8-3.6
					c-0.8-0.7-2-0.7-2.7,0L43,1.2l0.3,0.3c-0.9,0.9,0.8,3.4,1.4,4.2L44.1,6.4z"/>
			</g>
			<g>
				<path class="st0" d="M39.6,55.6h-0.9v-3.8c-1.9-5.8,0.2-9.8,0.3-9.9l0-0.1l8.5-11.7l-0.6-7l0,0c0.4-6.4,3-8.4,3.1-8.5
					c2.1-1.3,4.1-0.1,4.2,0l-0.5,0.8l0.2-0.4l-0.2,0.4c-0.1,0-1.7-1-3.2,0c0,0-2.4,1.8-2.7,7.7l0.6,7.3l-8.7,12
					c-0.2,0.3-1.9,4-0.2,9.2l0,0.1V55.6z"/>
			</g>
			<g>
				<path class="st0" d="M17.7,52.8l-2.8-9.9L11,35.7L10.5,30l0-0.1l2.4-15.5l3.9-4L28,2.8l0.1,0c0.3-0.1,3.1-0.8,4.3,0.5
					c1.2,1.3,0.8,3.6,0.8,3.7l0,0.2l-10.5,7.7c-0.1,0.4-0.6,1.5-1.5,2L20.7,16c0.8-0.4,1.1-1.5,1.1-1.5l0-0.2l10.5-7.7
					c0.1-0.5,0.1-1.9-0.6-2.7c-0.7-0.8-2.5-0.5-3.3-0.3l-11.1,7.6L13.7,15l-2.3,15.1l0.6,5.3l3.8,7.2l2.9,9.9L17.7,52.8z"/>
			</g>
			<g>
				<path class="st0" d="M32.8,56L32,55.6l2.5-5.3c1.4-6.3-1.2-8.3-1.2-8.3l-0.1-0.1l-9.9-10.2l-1.7-10.1c-0.1-2.6-0.8-4.3-0.9-4.6
					c-0.1-0.1-0.7-0.7-3-0.3c-2.3,0.4-2.5,1.4-2.6,1.6l1.2,14.4c3.2,4.3,4.2,11,4.2,11.3l-0.9,0.1c0-0.1-1-6.8-4.1-10.9L15.5,33
					l-1.2-14.7l0,0c0-0.1,0.1-1.9,3.4-2.5c3.1-0.6,3.9,0.5,4,0.8c0,0.1,0.9,2,1,5l1.6,9.7l9.6,9.9c0.4,0.3,3,2.7,1.5,9.3l0,0.1
					L32.8,56z"/>
			</g>
			<g>
				<path class="st0" d="M28,11l-0.6-0.8l8.1-5.9c0.4-0.3,0.7-0.8,0.7-1.3c0-0.5-0.2-1-0.6-1.3C34.6,1,33.2,1.3,33,1.4l-5.4,2.8
					l-0.4-0.8l5.5-2.9c0.1,0,1.9-0.7,3.5,0.5l0.1,0c0.6,0.5,0.9,1.2,0.9,2c0,0.8-0.4,1.6-1.1,2L28,11z"/>
			</g>
		</g>
		<g>
			<path class="st0" d="M37.4,13c-0.1,0-0.1,0-0.2,0c-0.5,0.3-1.2,0.9-1.7,2c0,0-0.8-1.3-2.5-1.7l-0.3,0.3c0,0,2.1,0.6,2.6,1.8h0.4
				c0,0,0.7-1.5,1.9-2.3C37.6,13,37.5,13,37.4,13z"/>
		</g>
	</g>
	<path class="st1" d="M38,55.2l17.6-1.5c0.4,0,0.9,0.1,1.2,0.3c0.3,0.2,0.6,0.6,0.7,1.2c0.1,0.6-0.1,1-0.3,1.3
		c-0.3,0.4-0.7,0.6-1.2,0.7l-4.2,0.7L49.9,64l3.1,2.8c0.5,0.4,0.7,1.1,0.5,1.7c-0.1,0.3-0.2,0.5-0.4,0.8c-0.3,0.5-0.8,0.6-1.2,0.7
		c-0.5,0-0.9-0.2-1.3-0.5L36.9,58.6c-0.6-0.5-0.9-1.2-0.7-1.9c0,0,0,0,0,0l0,0C36.5,55.8,37.2,55.3,38,55.2z"/>
	<path class="st1" d="M33.2,59l-15.2,9c-0.4,0.2-0.8,0.3-1.2,0.3c-0.4-0.1-0.8-0.3-1.1-0.8c-0.3-0.5-0.3-1-0.3-1.3
		c0.1-0.5,0.4-0.9,0.8-1.2l3.5-2.5l-1-6.3l-4-1.1c-0.6-0.2-1.1-0.7-1.2-1.3c0-0.3,0-0.6,0-0.9c0.1-0.6,0.5-0.9,0.8-1.1
		c0.4-0.2,0.9-0.2,1.4-0.1l17.1,4c0.7,0.2,1.3,0.7,1.4,1.5c0,0,0,0,0,0l0,0C34.2,57.8,33.9,58.6,33.2,59z"/>
</g>
</svg>
