<?xml version="1.0" encoding="utf-8"?>
<!-- Generator: Adobe Illustrator 23.0.4, SVG Export Plug-In . SVG Version: 6.00 Build 0)  -->
<svg version="1.1" id="katman_1" xmlns="http://www.w3.org/2000/svg" xmlns:xlink="http://www.w3.org/1999/xlink" x="0px" y="0px"
	 viewBox="0 0 70 70" style="enable-background:new 0 0 70 70;" xml:space="preserve">
<style type="text/css">
	.st0{fill:#262753;}
	.st1{fill:#262653;}
</style>
<g>
	<g>
		<g>
			<path class="st0" d="M34.2,43C34.2,43,34.2,43,34.2,43c0-0.7-0.4-8.1-10.6-8.9l-18.5,0v6.1H4.2v-7h19.4c7.2,0.6,9.9,4.3,10.9,7
				c0.4-1.5,1.1-2.8,2.2-3.8c3.5-3.3,9.4-2.9,9.6-2.9l19.8,0.1l0,6.7l-0.9,0l0-5.8l-19-0.1c-0.1,0-5.8-0.4-9,2.6
				c-1.5,1.4-2.3,3.4-2.3,5.9l0,0c0,0,0,0,0,0L34.2,43z"/>
		</g>
		<g>
			<path class="st0" d="M34.5,41.1l-0.4-0.7c0-0.1-2.9-5.5-8-9.8c-6.7-5.6-14.1-6.9-22-3.7l4.5,6.6l-0.7,0.5l-5.1-7.5l0.5-0.2
				c10.4-4.4,18.5-0.4,23.4,3.7c4.3,3.6,6.9,7.7,7.8,9.3c6.4-10.9,14.7-14,20.6-14.7c6.5-0.8,11.4,1.1,11.6,1.2l0.4,0.2l-3.6,8.3
				l-0.8-0.3l3.2-7.5c-1.3-0.4-5.6-1.6-10.8-1c-5.8,0.7-14,3.9-20.3,15L34.5,41.1z"/>
		</g>
		<g>
			<path class="st0" d="M0,44.4h14.4c0,0,13.2-0.3,20.7,8.6c0,0,6.6-8.5,16.8-8.6H70v-4.2H52.1c0,0-11.7-0.2-17.1,7.4
				c0,0-4.8-7.6-20.6-7.6H0V44.4z"/>
		</g>
	</g>
	<path class="st1" d="M37.7,13.7l2.1-4.9c0.1-0.1,0.1-0.2,0.3-0.3c0.1-0.1,0.2-0.1,0.4,0c0.2,0.1,0.3,0.2,0.3,0.3
		c0.1,0.1,0.1,0.3,0,0.4l-0.4,1.2l1.4,1.4l1.2-0.4c0.2-0.1,0.4,0,0.5,0.1c0.1,0.1,0.1,0.1,0.2,0.2c0.1,0.2,0.1,0.3,0,0.4
		c-0.1,0.1-0.2,0.2-0.3,0.3l-4.9,2.1c-0.2,0.1-0.5,0.1-0.6-0.1c0,0,0,0,0,0l0,0C37.6,14.1,37.6,13.9,37.7,13.7z"/>
	<path class="st1" d="M35.1,21.2l6.7,2.9c0.2,0.1,0.3,0.2,0.4,0.3c0.1,0.1,0.1,0.3,0,0.6c-0.1,0.2-0.2,0.4-0.4,0.4
		c-0.2,0.1-0.4,0.1-0.6,0l-1.7-0.6l-1.9,1.9l0.6,1.6c0.1,0.3,0,0.5-0.1,0.7c-0.1,0.1-0.2,0.2-0.3,0.2c-0.2,0.1-0.4,0.1-0.6,0
		c-0.2-0.1-0.3-0.2-0.4-0.4l-2.8-6.7C34,22,34,21.6,34.2,21.4c0,0,0,0,0,0l0,0C34.5,21.2,34.8,21.1,35.1,21.2z"/>
	<path class="st1" d="M26,13.9l2.6,6.6c0.1,0.2,0.1,0.3,0,0.5c0,0.1-0.2,0.3-0.4,0.4c-0.2,0.1-0.4,0.1-0.5,0
		c-0.2-0.1-0.3-0.2-0.4-0.4l-0.8-1.5H24l-0.7,1.5c-0.1,0.2-0.3,0.4-0.6,0.4c-0.1,0-0.2,0-0.4-0.1c-0.2-0.1-0.3-0.2-0.4-0.4
		c-0.1-0.2,0-0.4,0-0.6l2.6-6.6c0.1-0.3,0.4-0.5,0.7-0.5c0,0,0,0,0,0l0,0C25.6,13.5,25.8,13.6,26,13.9z"/>
</g>
</svg>
