<?xml version="1.0" encoding="utf-8"?>
<!-- Generator: Adobe Illustrator 23.0.6, SVG Export Plug-In . SVG Version: 6.00 Build 0)  -->
<svg version="1.1" xmlns="http://www.w3.org/2000/svg" xmlns:xlink="http://www.w3.org/1999/xlink" x="0px" y="0px"
	 viewBox="0 0 198.43 198.43" style="enable-background:new 0 0 198.43 198.43;" xml:space="preserve">
<style type="text/css">
	.st0{fill:#173142;}
</style>
<g id="Layer_2">
	<g>
		<path class="st0" d="M133.57,61.24c7.31,0,13.26-5.95,13.26-13.26s-5.95-13.26-13.26-13.26c-7.31,0-13.26,5.95-13.26,13.26
			S126.26,61.24,133.57,61.24L133.57,61.24z M133.57,61.24"/>
		<path class="st0" d="M102.98,139.33l16.81-22.89l-17.82-15.47l21.98-23.56l12.7,11.85l22.68-17.33l-4.93-6.46l-17.23,13.16
			l-36.51-34.06L75.84,56.53l3.53,7.32l19.83-9.54l7.84,7.31l-38.3,40.52l-29.19-1.34l-0.37,8.12l32.82,1.51l13.19-13.46
			l23.64,20.71L92.9,139.33H29.87v8.13h138.68v-8.13H102.98z M102.98,139.33"/>
		<rect x="29.87" y="155.58" class="st0" width="138.68" height="8.13"/>
	</g>
</g>
<g id="Layer_3">
</g>
<g id="Layer_4">
</g>
<g id="Layer_4_copy">
</g>
</svg>
