<?xml version="1.0" encoding="utf-8"?>
<!-- Generator: Adobe Illustrator 23.0.6, SVG Export Plug-In . SVG Version: 6.00 Build 0)  -->
<svg version="1.1" xmlns="http://www.w3.org/2000/svg" xmlns:xlink="http://www.w3.org/1999/xlink" x="0px" y="0px"
	 viewBox="0 0 198.43 198.43" style="enable-background:new 0 0 198.43 198.43;" xml:space="preserve">
<style type="text/css">
	.st0{fill:#173142;}
</style>
<g id="Layer_2">
	<g>
		<path class="st0" d="M89.94,136.1c-0.52,0.38-1.12,0.65-1.81,0.65H75.48c-1.71,0-3.1-1.38-3.1-3.09v-12.65
			c0-1.71,1.39-3.1,3.1-3.1h10.68c0.16-2.83,0.61-5.59,1.4-8.25H75.48c-1.71,0-3.1-1.39-3.1-3.1V93.93c0-1.71,1.39-3.1,3.1-3.1
			h12.65c1.71,0,3.09,1.38,3.09,3.1v7.55c1.49-2.46,3.25-4.78,5.34-6.86c6.76-6.76,15.75-10.49,25.33-10.49
			c2.41,0,4.78,0.24,7.09,0.71L97.36,57.56c-1.16-1-2.89-1-4.04,0L52.51,92.77c-0.68,0.59-1.08,1.44-1.08,2.35v50.91
			c0,1.71,1.39,3.09,3.1,3.09h46.65c-1.63-1.16-3.19-2.43-4.63-3.87C93.83,142.53,91.63,139.44,89.94,136.1z"/>
		<path class="st0" d="M161.63,150.94l-8.47-8.48c-1.62-1.62-3.9-2.13-5.96-1.58l-2.31-2.31c9.42-11.62,8.74-28.77-2.07-39.58
			c-5.59-5.59-13.03-8.67-20.94-8.67c-7.91,0-15.36,3.08-20.95,8.67c-5.6,5.6-8.68,13.03-8.68,20.94c0,7.91,3.08,15.35,8.68,20.94
			c5.59,5.6,13.04,8.68,20.95,8.68c6.86,0,13.38-2.33,18.64-6.61l2.31,2.31c-0.54,2.06-0.03,4.34,1.58,5.95l8.47,8.47
			c1.21,1.21,2.79,1.82,4.38,1.82c1.58,0,3.17-0.6,4.38-1.81C164.04,157.27,164.04,153.35,161.63,150.94z M138.45,136.49
			C138.45,136.49,138.45,136.49,138.45,136.49C138.45,136.5,138.45,136.5,138.45,136.49c-4.44,4.43-10.32,6.87-16.57,6.87
			c-6.26,0-12.14-2.44-16.57-6.87c-4.43-4.43-6.86-10.31-6.86-16.57c0-6.25,2.43-12.13,6.86-16.56c4.43-4.42,10.31-6.86,16.57-6.86
			c6.26,0,12.13,2.44,16.57,6.86C147.57,112.5,147.57,127.36,138.45,136.49z"/>
		<path class="st0" d="M145.47,94.39c1.16,1,2.6,1.5,4.03,1.5c1.74,0,3.47-0.73,4.69-2.15c2.23-2.59,1.94-6.5-0.65-8.73L99.38,38.43
			c-2.32-2-5.75-2-8.07,0L37.15,85c-2.6,2.23-2.89,6.14-0.66,8.73c2.23,2.59,6.14,2.88,8.73,0.66l50.13-43.11L145.47,94.39z"/>
	</g>
</g>
<g id="Layer_3">
</g>
<g id="Layer_4">
</g>
<g id="Layer_4_copy">
</g>
</svg>
