<?xml version="1.0" encoding="utf-8"?>
<!-- Generator: Adobe Illustrator 23.0.6, SVG Export Plug-In . SVG Version: 6.00 Build 0)  -->
<svg version="1.1" xmlns="http://www.w3.org/2000/svg" xmlns:xlink="http://www.w3.org/1999/xlink" x="0px" y="0px"
	 viewBox="0 0 198.43 198.43" style="enable-background:new 0 0 198.43 198.43;" xml:space="preserve">
<style type="text/css">
	.st0{fill:#173142;}
</style>
<g id="Layer_2">
	<g>
		<path class="st0" d="M133.54,76.21h-6.92l-5.67-9.76c-1.35-2.33-3.87-3.77-6.56-3.77h-27.2c-2.69,0-5.21,1.45-6.56,3.77
			l-5.67,9.76h-6.92c-6.3,0-11.42,5.12-11.42,11.42v37.89c0,6.3,5.12,11.42,11.42,11.42h65.51c6.3,0,11.42-5.12,11.42-11.42V87.63
			C144.96,81.33,139.84,76.21,133.54,76.21z M138.36,125.52c0,2.66-2.16,4.82-4.82,4.82H68.04c-2.66,0-4.82-2.16-4.82-4.82V87.63
			c0-2.66,2.16-4.82,4.82-4.82h8.82c1.18,0,2.26-0.63,2.85-1.64l6.63-11.4c0.18-0.3,0.5-0.49,0.85-0.49h27.2
			c0.35,0,0.68,0.19,0.85,0.49l6.63,11.4c0.59,1.02,1.68,1.64,2.85,1.64h8.82c2.66,0,4.82,2.16,4.82,4.82V125.52z"/>
		<path class="st0" d="M100.79,84.98c-10.39,0-18.82,8.42-18.82,18.82c0,10.39,8.42,18.82,18.82,18.82
			c10.39,0,18.82-8.42,18.82-18.82C119.61,93.41,111.18,84.98,100.79,84.98z M100.79,113.04c-5.1,0-9.24-4.14-9.24-9.24
			c0-5.1,4.14-9.24,9.24-9.24c5.1,0,9.24,4.14,9.24,9.24C110.03,108.9,105.9,113.04,100.79,113.04z"/>
		<path class="st0" d="M73.56,89.69c-1.82,0-3.3,1.48-3.3,3.3c0,1.82,1.48,3.3,3.3,3.3c1.82,0,3.3-1.48,3.3-3.3
			C76.86,91.17,75.38,89.69,73.56,89.69z"/>
		<path class="st0" d="M100.79,33.48c-38.37,0-69.48,31.11-69.48,69.48s31.11,69.48,69.48,69.48s69.48-31.11,69.48-69.48
			S139.16,33.48,100.79,33.48z M100.79,166.34c-35,0-63.37-28.37-63.37-63.37s28.37-63.37,63.37-63.37c35,0,63.37,28.37,63.37,63.37
			S135.79,166.34,100.79,166.34z"/>
	</g>
</g>
<g id="Layer_3">
</g>
<g id="Layer_4">
</g>
<g id="Layer_4_copy">
</g>
</svg>
