<?xml version="1.0" encoding="utf-8"?>
<!-- Generator: Adobe Illustrator 23.0.4, SVG Export Plug-In . SVG Version: 6.00 Build 0)  -->
<svg version="1.1" id="katman_1" xmlns="http://www.w3.org/2000/svg" xmlns:xlink="http://www.w3.org/1999/xlink" x="0px" y="0px"
	 viewBox="0 0 70 70" style="enable-background:new 0 0 70 70;" xml:space="preserve">
<style type="text/css">
	.st0{fill:#262753;}
</style>
<g>
	<g>
		<g>
			<g>
				<g>
					<path class="st0" d="M39.6,30.2c-1-1-2.5,0-2.8,1.2c-0.1,0.6,0.2,1.2,0.7,1.5c0.6,0.4,1.3,0.4,2,0.2c0.5-0.1,0.3-0.9-0.2-0.7
						c-0.6,0.2-1.8,0.1-1.7-0.8c0.1-0.6,0.9-1.4,1.5-0.8C39.4,31.1,39.9,30.6,39.6,30.2L39.6,30.2z"/>
				</g>
			</g>
			<g>
				<g>
					<path class="st0" d="M38.9,32.1c1.4,0.4,2.6,0,2.6-1.6c0-1.4-1-2.7-2.2-3.4c-0.4-0.3-0.8,0.4-0.4,0.7c0.6,0.4,1.2,1,1.5,1.6
						c0.2,0.3,0.3,0.8,0.3,1.1c0,1-0.9,1.1-1.6,0.9C38.6,31.3,38.4,32,38.9,32.1L38.9,32.1z"/>
				</g>
			</g>
			<g>
				<g>
					<path class="st0" d="M42.1,31.9c0.4-0.3,0.8-0.7,1-1c0.1-0.7,0-1.5-0.2-2.1c-0.3-1.3-1.4-1.4-2.1-2.4c-0.3-0.4-0.9,0-0.7,0.4
						c0.5,0.7,1.3,1,1.8,1.8c0.4,0.7,0.6,2.2,0.2,3c-0.3,0.5-1,0.9-1.5,1.1c-1.6,0.8-4,2.1-4.9,0c-0.8-1.9,1.8-3.9,3.4-3.5
						c0.5,0.1,0.7-0.6,0.2-0.7c-4-1-6.4,6.1-2.1,6.3c1.1,0.1,2.5-0.7,3.5-1.2c0.2-0.1,0.5-0.2,0.7-0.4
						C41.4,32.7,41.6,32.3,42.1,31.9z"/>
				</g>
			</g>
			<g>
				<g>
					<path class="st0" d="M35.9,37c-3-1-4.6-3.4-4.5-6.5c0-0.5-0.6-0.5-0.8-0.1c-1,2.8-2.4,4.6-4.9,6.1c0.2,0.2,0.4,0.3,0.6,0.5
						c1-0.6,2-1.2,2.7-1.9c0.8-0.8,1.3-1.8,1.7-2.8c0.4,2.1,1.5,3.9,3.5,4.9c0.6,0.4,1.6,0.7,2.5,1c0.6-0.2,1.1-0.4,1.7-0.6
						C37.5,37.6,36.7,37.3,35.9,37z"/>
				</g>
				<g>
					<path class="st0" d="M35.7,36.2c1.4,0.2,2.6-0.7,3.9-0.6c0.7,0.1,1,0.3,1.1,0.5c0.3-0.2,0.6-0.5,0.9-0.8
						c-0.1-0.3-0.3-0.6-0.6-0.8c-0.6-0.3-1.1,0.2-1.6,0.3c-1.2,0.3-2.2,0.7-3.5,0.5c-5.2-1-3.5-8.9,1.6-7.7c0.5,0.1,0.7-0.6,0.2-0.7
						c-4.5-1.1-7.8,4.6-4.5,7.9C33.9,35.6,34.8,36,35.7,36.2z"/>
				</g>
			</g>
			<g>
				<g>
					<path class="st0" d="M43.8,28.4c0,0.2,0.1,0.3,0.1,0.5c0.1-0.8,0-1.8,0-2.9c0-0.2,0-0.4,0-0.6c-0.6-0.7-1.5-1.1-2.5-1
						c-1.8,0.1-1.8,0.6-4.1,0c-1.1-0.3-1.9-0.6-3.1-0.3c-2,0.6-3.1,2.3-3.7,4.2c-0.1,0.5,0.6,0.7,0.7,0.2c0.7-2.3,2.5-4.3,5.2-3.6
						c0.6,0.2,1.2,0.6,1.8,0.7c0.5,0.1,0.9,0,1.3,0C41.6,25.3,43.3,26.3,43.8,28.4z"/>
				</g>
				<g>
					<path class="st0" d="M50,33.9c-0.5-0.5-1-0.8-1.5-1.2c-0.1,0.2-0.2,0.3-0.3,0.5c-0.1,0.2-0.1,0.4-0.2,0.6
						c0.5,0.2,1,0.4,1.6,0.7C49.9,34.8,50.3,34.2,50,33.9z"/>
				</g>
			</g>
			<g>
				<g>
					<path class="st0" d="M56.3,38.2c-1.3-1.8-2.7-3.9-4.5-5.3c-0.9-0.7-1.9-1.3-2.8-1.9c-0.1,0.3-0.2,0.6-0.3,0.9
						c0.3,0.2,0.6,0.4,0.9,0.5c2.6,1.5,4.3,3.8,6,6.2C55.9,39,56.6,38.6,56.3,38.2z"/>
				</g>
			</g>
			<g>
				<g>
					<path class="st0" d="M49.3,27.8c0.5,0.2,1,0.5,1.4,0.7c0.9,0.5,1.8,1,2.6,1.5c0.6,0.4,2.3,1.5,2.7,2.4c0,0,0,0,0,0.1
						c0,0,0,0,0,0c0,0.2,0.2,0.4,0.4,0.4c0,0,0,0,0.1,0c0.3,0,0.4-0.2,0.4-0.5c-0.4-1.9-3.9-3.5-5.4-4.4c-0.3-0.2-1.2-0.7-2.2-1.2
						C49.3,27.1,49.3,27.4,49.3,27.8z"/>
				</g>
				<g>
					<path class="st0" d="M56.8,35.6c-1.7-1.7-3.5-3.5-5.2-5.2c-0.7-0.7-1.4-1.5-2.2-2.2c0,0,0,0.1,0,0.1c0,0.2,0,0.4,0,0.6
						c0,0.1,0,0.2,0,0.2c1,0.9,1.9,2,2.9,3l4,4.1C56.6,36.5,57.1,35.9,56.8,35.6z"/>
				</g>
			</g>
			<g>
				<g>
					<path class="st0" d="M31.5,37.4C30.4,37,29,37.4,27.6,38c0.1,0.1,0.3,0.2,0.5,0.3c0.3,0.1,0.5,0.2,0.8,0.2c1-0.3,1.9-0.4,3,0
						c0.2,0.1,0.4,0.2,0.7,0.4c0.5,0,1,0,1.4-0.1C33.2,38.3,32.4,37.8,31.5,37.4z"/>
				</g>
				<g>
					<path class="st0" d="M56.1,41.1c-0.6-1.3-1.8-1.7-2.8-2.6c-1.2-1-2.1-2.3-3.4-3.2c-0.7-0.4-1.4-0.7-2.2-0.8
						c-0.1,0.2-0.2,0.5-0.4,0.7c0.3,0,0.6,0.1,1,0.2c1.7,0.5,2.7,1.9,3.9,3.1c0.9,0.8,2.2,1.5,3,2.5c-0.4,0.2-0.3,0.8,0.1,0.7
						c0.2,0,0.3,0,0.5-0.1C56.1,41.6,56.2,41.4,56.1,41.1z"/>
				</g>
			</g>
			<g>
				<g>
					<path class="st0" d="M54.6,42.1c-1.7-1.8-4.3-3.7-6.9-4c-0.9-0.1-1.7,0-2.6,0.2c-0.2,0.2-0.3,0.4-0.5,0.6
						c0,0.1-0.1,0.3-0.1,0.4c0.3-0.1,0.6-0.2,0.9-0.3c3.1-0.8,6.6,1.4,8.6,3.6C54.4,43,54.9,42.4,54.6,42.1z"/>
				</g>
			</g>
			<g>
				<g>
					<path class="st0" d="M26.4,42.7c-0.3,0.2-0.6,0.4-0.8,0.6c-0.4,0.3,0,1,0.4,0.7c0.6-0.4,1.3-0.9,2-1.2
						C27.4,42.7,26.9,42.7,26.4,42.7z"/>
				</g>
			</g>
			<g>
				<g>
					<path class="st0" d="M49.6,46.9C49.6,46.9,49.5,46.9,49.6,46.9C49.5,46.9,49.5,46.9,49.6,46.9c-0.1,0-0.1,0-0.1,0
						c-0.6-0.2-1.1-0.4-1.6-0.4c-1-0.2-2.2-0.3-2.8,0.1c0,0-0.1,0-0.1,0c-2.1,0.2-3.3-0.4-4.9-1.5c-0.7-0.5-1.3-0.9-2-1.2
						c-0.5-0.2-1-0.3-1.5-0.5c-0.2,0.1-0.5,0.1-0.8,0.2c-1.1,0.1-2.3,0-3.4,0.1c-0.7,0-1.5,0-2.2-0.1c-1.1,0.3-2.1,0.7-2.9,1.3
						c-0.4,0.3,0,0.9,0.4,0.7c3.9-2.6,9.2-1.8,12.7,0.8c0.8,0.6,1.5,1,2.4,1.2c0.6,0.1,1.2,0.1,1.8,0c-0.1,1.5,3.3,1.1,4,1.2
						c0.5,0,0.5-0.7,0-0.8c-0.5,0-2.8,0.2-1.3-0.4c0.7-0.3,1-0.2,1.5-0.1c0,0,0.1,0,0.1,0c0.1,0.1,0.3,0.1,0.5,0.2
						C49.7,47.8,50,47.1,49.6,46.9z"/>
				</g>
			</g>
			<g>
				<g>
					<path class="st0" d="M51.6,46.2c-1.4-1.5-3.2-1.5-5.1-1.5c-1.9,0.1-3.3-0.4-5-1.2c-0.9-0.5-1.6-0.7-2.6-0.8
						c-0.5-0.1-0.5,0.7,0,0.8c2.1,0.2,3.6,1.7,5.6,2c2.3,0.3,4.8-0.7,6.6,1.3C51.4,47.1,51.9,46.6,51.6,46.2L51.6,46.2z"/>
				</g>
			</g>
			<g>
				<g>
					<path class="st0" d="M53.4,43.7c-1.5-1.7-3.5-2.8-5.8-2.9c-1.1,0-2.1,0.3-3.2,0.5c-1.1,0.2-2.2-0.3-3,0.6
						c-0.1,0.1-0.2,0.3-0.1,0.5c0.7,1,1.9,1.2,3,1.3c0.9,0.1,1.8,0,2.7,0c0.2,0,4.7,0.8,4.6,1c-0.3,0.4,0.4,0.8,0.7,0.4
						c0,0,0-0.1,0.1-0.1c0.1-0.1,0.1-0.3,0-0.4c-1.4-2.3-6-1.5-8.1-1.7c-1,0.2-1.4,0-1.1-0.7c0.3,0,0.5,0,0.8,0
						c0.8-0.3,2-0.6,2.9-0.6c2.3-0.1,4.4,0.9,5.9,2.6C53.2,44.6,53.7,44.1,53.4,43.7L53.4,43.7z"/>
				</g>
			</g>
			<g>
				<g>
					<path class="st0" d="M44.7,50.9c-1.3-0.3-2.4-0.7-3.4-1.4c0,0.2,0,0.4,0,0.7c0.9-0.6,2.7-0.2,3.5,0c0.4,0.1,0.7-0.5,0.3-0.7
						c-1.1-0.6-2.4-0.7-3.6-1.2c-1.5-0.6-1.8-2-3.2-2.5c-0.3-0.1-0.7,0-1,0c-1.4-0.1-2.5-0.2-3.8-0.3c-0.9-0.1-2.2-0.1-3,0.5
						c-0.7,0.5-0.8,1.2,0,1.6c1.1,0.6,2.8-0.2,4-0.1c2.7,0.3,0,0.7-0.7,1.5c-0.1,0.1-0.2,0.3-0.1,0.5c1.2,2,4.7-1.4,5.9,1.8
						c0.2,0.5,0.9,0.3,0.7-0.2c-0.3-0.8-0.6-1.2-1.4-1.6c-0.5-0.2-3.7-0.6-3.7-0.2c0-0.8,2.9-0.7,1.4-2.2c-0.7-0.7-2.6-0.3-3.4-0.2
						c-0.3,0-3.5,0.3-0.7-0.7c0.7-0.3,2.5,0.4,3.3,0.5c2.4,0.5-1.7-2.2,3.4,0.9c0.2,0.2,0.4,0.5,0.6,0.7c1.5,0.9,3.3,0.9,4.8,1.8
						c0.1-0.2,0.2-0.5,0.3-0.7c-1.3-0.2-2.9-0.7-4.1,0.1c-0.2,0.2-0.2,0.5,0,0.7c1.2,0.8,2.3,1.2,3.6,1.5C45,51.8,45.2,51,44.7,50.9
						L44.7,50.9z"/>
				</g>
			</g>
			<g>
				<g>
					<path class="st0" d="M43.7,23.7c-1.8-0.3-3.7,0-5.7-0.4c-2.1-0.4-3.6-0.3-5.7,0.7c-1.8,0.9-2.8,2.1-3.5,3.9
						c-1,2.4-2.4,5.6-4.5,7.6c0.2,0.2,0.4,0.3,0.6,0.5c2.2-2.1,3.6-5.3,4.6-7.8c0.7-1.8,1.9-3,3.8-3.7c0.4-0.2,0.9-0.3,1.4-0.4
						c1.5-0.4,2.3,0,3.7,0.4c1.9,0.5,3.6-0.1,5.4,0.2C43.8,24.2,43.7,24,43.7,23.7z"/>
				</g>
			</g>
			<g>
				<g>
					<path class="st0" d="M57,27c-1.8-1.4-4-2.1-5.8-3.5c-1.2-0.9-2.1-1.6-3.3-2.2c0.1,0.3,0.2,0.6,0.3,1c1.3,0.8,2.4,1.9,3.8,2.7
						c1.4,0.8,2.8,1.5,4.2,2.4c0,0.2,0.1,0.3,0.4,0.3c0.1,0,0.2,0,0.3,0C57.3,27.7,57.3,27.2,57,27z"/>
				</g>
				<g>
					<path class="st0" d="M42.2,22.1c0.4,0,0.8,0.1,1.1,0.2c-0.1-0.3-0.3-0.7-0.5-1c-2.1-0.4-4.2,0.6-6.2-0.1c1.5-0.5,3.5-0.4,5-0.5
						c0.3,0,0.5,0,0.8,0c-0.2-0.2-0.4-0.5-0.6-0.7c-0.4,0-0.9,0.1-1.3,0.1c-1.8,0.2-3.4-0.1-5,0.8c-0.3,0.1-0.2,0.5,0,0.7
						c1.1,0.6,2.2,0.8,3.5,0.7C40,22.2,41.1,21.9,42.2,22.1z"/>
				</g>
				<g>
					<path class="st0" d="M58.2,30.8c-0.4-1.6-2.4-2.4-3.7-3.2c-1.8-1.2-3.6-2.2-5.6-3c0,0.1,0,0.2,0,0.3c0,0.2,0.1,0.4,0.1,0.6
						c0.7,0.3,1.4,0.6,2,0.9c1.5,0.8,6,3,6.4,4.7C57.6,31.4,58.3,31.2,58.2,30.8z"/>
				</g>
			</g>
			<g>
				<g>
					<path class="st0" d="M37.1,18.4c-3.5-1.3-5.9,2.2-8.7,3.5c-2.5,1.2-5.2,3-6,5.8c-0.1,0.1-0.2,0.2-0.2,0.3c0,0.2,0,0.3,0,0.5
						c0,0.4,0.7,0.5,0.8,0.1c0.5-3.2,3.4-4.9,6.1-6.2c2.1-1,3.9-3.3,6.2-3.5c-0.8,0.3-1.5,0.7-2,1.3c-0.8,0.9-1.3,1.8-2.4,2.5
						c-0.6,0.4-1.2,0.6-1.7,1c-3.2,2.7-3.2,7.4-6.1,10.3c0.1,0.2,0.3,0.4,0.4,0.7c2.3-2.3,2.8-5.5,4.4-8.3c0.6-1.1,1.4-2.1,2.6-2.7
						c0.5-0.3,1.6-0.5,2.1-1c0.5-0.5,0.6-1,0.9-1.5c0.9-1.3,2.2-1.7,3.6-2.1C37.5,19,37.4,18.5,37.1,18.4z"/>
				</g>
			</g>
			<g>
				<g>
					<path class="st0" d="M49.4,16.8c-1.4-0.3-3-0.4-4.5-0.5c0.3,0.3,0.5,0.6,0.8,0.9c0.1,0,0.1,0,0.2,0c3.1,0.2,8.1,1.3,8.6,5.1
						c-2-2.2-4.7-3.6-7.7-4c-0.1,0-0.2,0-0.3,0c0.2,0.3,0.4,0.6,0.5,0.9c3,0.5,5.7,2.1,7.6,4.5c0.2,0.3,0.6,0,0.7-0.3
						C55.5,20.4,52.2,17.5,49.4,16.8z"/>
				</g>
				<g>
					<path class="st0" d="M40.8,19.1c-1-0.8-2-1.6-3.1-2.3c-2.7-0.5-6.2,0.8-8.6,1.9c-3.2,1.4-5.8,3.5-7.9,6.2
						c-0.3,0.4,0.4,0.8,0.7,0.4c2.1-2.8,5-4.9,8.2-6.2c1.2-0.5,2.4-0.9,3.7-1.1c0.9-0.2,2.1-0.6,3-0.4c1.2,0.2,2.1,1.2,3.1,1.5
						c0.4,0.1,0.7,0.2,1.1,0.2C41,19.3,40.9,19.2,40.8,19.1z"/>
				</g>
			</g>
			<g>
				<g>
					<path class="st0" d="M41,13c1.7-0.7,3.1-1,5-0.3c0.5,0.2,0.7-0.6,0.2-0.7c-1.8-0.6-3.5-0.6-5.3,0.2c-0.3,0.1-0.6,0.3-0.9,0.4
						C40.3,12.6,40.7,12.8,41,13z"/>
				</g>
				<g>
					<path class="st0" d="M29.8,16.1c-1,0.5-2.9,1.4-4.3,2c-0.3,0.4-0.6,0.7-0.9,1.1c-0.2,0.2-0.4,0.4-0.5,0.6
						c1.6-0.3,3.7-1.6,4.7-2.1c1.6-0.8,2.9-1.7,4.5-2.1C32,15.6,30.9,15.8,29.8,16.1z"/>
				</g>
				<g>
					<path class="st0" d="M55.4,17.3c-0.4,1.1-1.3,0.7-1.9,0.1l-0.9-1.2c-0.2-0.2-0.4-0.5-0.6-0.7c-0.6-0.6-1.3-1.1-2.1-1.4
						c-2-0.9-4.1-0.9-6.2-0.6c-0.5,0.1-1,0.2-1.5,0.3c0.3,0.2,0.6,0.4,0.8,0.7c1.1-0.3,2.3-0.4,3.5-0.4c1.6,0.1,3.1,0.5,4.4,1.5
						c0.9,0.6,1.3,1.7,2.1,2.3c1.2,0.9,2.6,1.2,3.2-0.4C56.3,17,55.6,16.8,55.4,17.3z"/>
				</g>
			</g>
			<g>
				<g>
					<path class="st0" d="M54.4,14c-0.8-2.2-2.6-3.3-4.8-3.8c-1.9-0.5-4-1-5.9-1.4c-1.2-0.2-2.4-0.4-3.5,0.1
						c-0.3,0.1-0.2,0.4-0.7,0.7c-1,0.7-1.8,1.2-3,1.6c0.4,0.1,0.8,0.2,1.2,0.3c0.6-0.3,1.2-0.6,1.8-0.9c1.1-0.7,1.7-1.1,3-1.1
						c0.8,0,1.5,0.3,2.2,0.4c2.8,0.7,7,0.8,8.5,3.6c-1.7-0.4-3.4-0.8-5.1-1c-0.5-0.1-0.7,0.7-0.2,0.7c2,0.3,4,0.7,5.9,1.2
						C54.2,14.6,54.5,14.3,54.4,14z"/>
				</g>
			</g>
			<g>
				<g>
					<path class="st0" d="M29,10.6c3.1,0,6-0.7,8.8-2.1c2.2-1.1,3.9-1,6.2-0.7c1.8,0.2,5.6-0.1,6.2,2.1c0.1,0.5,0.9,0.3,0.7-0.2
						c-0.8-3-5.9-2.6-8.3-2.9c-1.9-0.2-3.2-0.1-4.9,0.8C35,9.1,32.2,9.8,29,9.8C28.5,9.8,28.5,10.6,29,10.6L29,10.6z"/>
				</g>
			</g>
			<g>
				<g>
					<path class="st0" d="M27.3,11c-0.7,0.6-1.6,1.1-2.5,1.4c-0.2-1.1,0.2-1.9,0.9-2.6c1.2-1.2,2.2-1,3.7-1.3
						C31,8.3,32,7.4,33.5,6.9c1.9-0.8,4-0.7,6-1.1c2.5-0.5,6.4-2,8.3,0.7c0.3,0.4,1,0,0.7-0.4c-1.9-2.6-5.3-1.9-7.9-1.3
						c-1.9,0.4-3.9,0.5-5.8,0.9c-2.2,0.5-3.8,1.9-6,2.2c-2,0.3-5.1,1.6-4.9,4.2c0.2,2.5,3,0.4,4-0.5C28.3,11.3,27.7,10.7,27.3,11
						L27.3,11z"/>
				</g>
			</g>
			<g>
				<g>
					<path class="st0" d="M44.4,2.5C41.2,4,37.4,3.4,34,4.1c-0.8,0.2-4.1,0.7-4.5,1.4c0.5-1.1,4-1.7,5.1-2C35,3.3,35,2.9,34.7,2.7
						c-0.6-0.4-1.1-0.6-1.8-0.7C33,2.3,33,2.5,33.1,2.7C34.4,2,36.4,1,38.4,0.9c1.3-0.1,1.9-0.2,2.2,0.9c-0.6,0-1.1,0-1.7,0
						c-0.6,0.1-1,0.2-1.7,0.4c-0.5,0.2-0.3,0.9,0.2,0.7c1.6-0.6,3.2-0.2,4.8-0.7c0.2-0.1,0.4-0.4,0.2-0.6c-0.9-1.3-2-1.8-3.5-1.6
						c-2,0.3-4.5,1-6.3,2c-0.4,0.2-0.2,0.7,0.2,0.7c0.5,0.2,1,0.4,1.4,0.6c0-0.2,0.1-0.5,0.1-0.7c-1.6,0.4-6.1,1.2-6.1,3.5
						c0,0.2,0.3,0.5,0.5,0.4c3-1.3,6.1-2.1,9.4-2.2c2.3-0.1,4.4-0.2,6.5-1.2C45.2,2.9,44.8,2.3,44.4,2.5L44.4,2.5z"/>
				</g>
			</g>
		</g>
		<g>
			<g>
				<path class="st0" d="M10.8,70L24,45.5l-3.2-1.7L7.2,68.3C7.2,68.3,8.6,69.5,10.8,70z"/>
			</g>
			<g>
				<polygon class="st0" points="21.5,44.2 24.6,38.4 26.6,39.5 23.6,45.3 				"/>
			</g>
			<g>
				<path class="st0" d="M33,42.8c-5.4,0-10.7-2.8-13.6-7.9c-2.1-3.6-2.6-7.8-1.5-11.8c1.1-4,3.7-7.4,7.3-9.4
					c3.6-2.1,7.8-2.6,11.8-1.5c4,1.1,7.4,3.7,9.4,7.3l0,0c2.1,3.6,2.6,7.8,1.5,11.8c-1.1,4-3.7,7.4-7.3,9.4
					C38.3,42.2,35.6,42.8,33,42.8z M32.9,14.9c-2.1,0-4.2,0.5-6.1,1.6C24,18.2,22,20.8,21.1,24c-0.9,3.2-0.4,6.5,1.2,9.3
					c3.4,5.9,10.9,7.9,16.7,4.6S47,27,43.6,21.1l0,0c-1.6-2.8-4.3-4.9-7.4-5.8C35.1,15.1,34,14.9,32.9,14.9z"/>
			</g>
		</g>
	</g>
	<path class="st0" d="M34.9,16.8l6.3,15.9c0.2,0.4,0.2,0.8,0.1,1.2c-0.1,0.4-0.4,0.7-0.9,1c-0.5,0.2-1,0.2-1.3,0.1
		c-0.4-0.1-0.8-0.5-1-0.9l-1.8-3.7h-6.2l-1.7,3.7c-0.3,0.6-0.8,1-1.4,1c-0.3,0-0.6,0-0.9-0.2c-0.6-0.2-0.8-0.6-1-1
		c-0.1-0.4-0.1-0.9,0.1-1.3l6.4-15.8c0.3-0.7,0.9-1.1,1.6-1.2c0,0,0,0,0,0l0,0C34,15.7,34.6,16.1,34.9,16.8z"/>
</g>
</svg>
