<?xml version="1.0" encoding="utf-8"?>
<!-- Generator: Adobe Illustrator 23.0.6, SVG Export Plug-In . SVG Version: 6.00 Build 0)  -->
<svg version="1.1" xmlns="http://www.w3.org/2000/svg" xmlns:xlink="http://www.w3.org/1999/xlink" x="0px" y="0px"
	 viewBox="0 0 198.43 198.43" style="enable-background:new 0 0 198.43 198.43;" xml:space="preserve">
<style type="text/css">
	.st0{fill:#173142;}
</style>
<g id="Layer_2">
	<g>
		<path class="st0" d="M118.98,125.42l3.15-16.97c0.16-0.86,0.01-1.76-0.42-2.52l-18.64-32.9v29.64c1.86,1.22,3.09,3.32,3.09,5.71
			c0,3.76-3.06,6.83-6.82,6.83s-6.82-3.06-6.82-6.83c0-2.38,1.23-4.48,3.09-5.71V73.03l-18.64,32.9c-0.43,0.77-0.58,1.66-0.42,2.52
			l3.15,16.97L118.98,125.42L118.98,125.42z M118.98,125.42"/>
		<path class="st0" d="M80.43,151.58v7.67c0,2.06,1.67,3.74,3.74,3.74h30.31c2.06,0,3.74-1.67,3.74-3.74v-7.67H80.43z M80.43,151.58
			"/>
		<rect x="80.43" y="132.9" class="st0" width="37.79" height="11.21"/>
		<path class="st0" d="M151.95,57.58c6.09,0,11.05-4.96,11.05-11.05s-4.96-11.05-11.05-11.05c-4.78,0-8.86,3.05-10.39,7.31h-31.13
			v-3.62c0-2.06-1.67-3.74-3.74-3.74H91.97c-2.06,0-3.74,1.67-3.74,3.74v3.62H56.87c-1.54-4.26-5.61-7.31-10.39-7.31
			c-6.09,0-11.05,4.96-11.05,11.05s4.96,11.05,11.05,11.05c4.78,0,8.86-3.05,10.39-7.31h15.38C56.93,59.47,46.65,76.26,46.65,95.4
			v3.55h-3.62c-2.06,0-3.74,1.67-3.74,3.74v14.72c0,2.06,1.67,3.74,3.74,3.74h14.72c2.06,0,3.74-1.67,3.74-3.74v-14.72
			c0-2.06-1.67-3.74-3.74-3.74h-3.62V95.4c0-21.09,14.53-38.84,34.11-43.77v2.26c0,2.06,1.67,3.74,3.74,3.74h14.72
			c2.06,0,3.74-1.67,3.74-3.74v-2.22c19.51,4.98,33.98,22.7,33.98,43.74v3.55h-3.62c-2.06,0-3.74,1.67-3.74,3.74v14.72
			c0,2.06,1.67,3.74,3.74,3.74h14.72c2.06,0,3.74-1.67,3.74-3.74v-14.72c0-2.06-1.67-3.74-3.74-3.74h-3.62V95.4
			c0-19.15-10.28-35.93-25.61-45.14h15.29C143.09,54.52,147.17,57.58,151.95,57.58L151.95,57.58z M151.95,57.58"/>
	</g>
</g>
<g id="Layer_3">
</g>
<g id="Layer_4">
</g>
<g id="Layer_4_copy">
</g>
</svg>
