<?xml version="1.0" encoding="utf-8"?>
<!-- Generator: Adobe Illustrator 23.0.6, SVG Export Plug-In . SVG Version: 6.00 Build 0)  -->
<svg version="1.1" xmlns="http://www.w3.org/2000/svg" xmlns:xlink="http://www.w3.org/1999/xlink" x="0px" y="0px"
	 viewBox="0 0 198.43 198.43" style="enable-background:new 0 0 198.43 198.43;" xml:space="preserve">
<style type="text/css">
	.st0{fill:#173142;}
</style>
<g id="Layer_2">
	<g>
		<path class="st0" d="M109.53,41.66c-26.09,0-47.23,21.15-47.23,47.23c0,26.09,21.15,47.23,47.23,47.23
			c26.09,0,47.23-21.15,47.23-47.23S135.62,41.66,109.53,41.66z M115.63,107.18l-12.19,0h0c-4.2,0-7.62-3.42-7.62-7.62
			c0-7.56,6.15-13.71,13.71-13.71c-4.2,0-7.62-3.42-7.62-7.62c0-4.2,3.42-7.62,7.62-7.62c4.2,0,7.62,3.42,7.62,7.62
			c0,4.2-3.42,7.62-7.62,7.62c7.56,0,13.71,6.15,13.71,13.71C123.25,103.76,119.83,107.18,115.63,107.18z"/>
		<path class="st0" d="M63.73,121.77l-22.07,22.07l12.93,12.93l22.07-22.07c-2.46-1.77-4.8-3.76-6.99-5.94
			C67.48,126.57,65.5,124.23,63.73,121.77z"/>
	</g>
</g>
<g id="Layer_3">
</g>
<g id="Layer_4">
</g>
<g id="Layer_4_copy">
</g>
</svg>
