<?xml version="1.0" encoding="utf-8"?>
<!-- Generator: Adobe Illustrator 23.0.4, SVG Export Plug-In . SVG Version: 6.00 Build 0)  -->
<svg version="1.1" id="katman_1" xmlns="http://www.w3.org/2000/svg" xmlns:xlink="http://www.w3.org/1999/xlink" x="0px" y="0px"
	 viewBox="0 0 70 70" style="enable-background:new 0 0 70 70;" xml:space="preserve">
<style type="text/css">
	.st0{fill:#262753;}
</style>
<g>
	<g>
		<g>
			<circle class="st0" cx="38.4" cy="17.7" r="11"/>
		</g>
	</g>
	<path class="st0" d="M33.9,67L17.6,25.8c-0.4-1-0.5-2.1-0.2-3.1c0.3-0.9,0.9-1.9,2.3-2.5c1.4-0.6,2.5-0.5,3.4-0.2
		c1.1,0.4,2,1.3,2.6,2.3l4.7,9.5h15.9l4.4-9.5c0.7-1.5,2.1-2.5,3.7-2.5c0.7,0,1.4,0.1,2.3,0.4c1.4,0.5,2.1,1.5,2.5,2.5
		c0.4,1.1,0.3,2.3-0.2,3.4L42.7,67c-0.7,1.7-2.3,2.9-4.2,3c0,0-0.1,0-0.1,0l-0.1,0C35.8,70,34.6,68.8,33.9,67z"/>
	<g>
		<path class="st0" d="M29.6,13.5h-0.9v-12L29,1.5c0.2-0.1,4.7-1.6,9.2-1.4c4.5,0.1,9.5,1.4,9.5,1.4l0.3,0.1v11.8h-0.9V2.2
			C46,2,41.9,1,38.2,0.9c-3.7-0.1-7.5,1-8.6,1.3V13.5z"/>
	</g>
	<g>
		<path class="st0" d="M40.6,3c0,0-1-2.2-3.4-1c0,0-1.1,0.6-1,2C36.3,5.5,37.3,6,37.3,6s1.4,0.9,2.7-0.3c0,0,0.4-0.4,0.6-0.8
			c0,0-0.5,0.7-1.5,0.5c0,0-1.2-0.2-1.1-1.6c0,0,0.1-1.3,1.4-1.3C39.4,2.5,40.1,2.4,40.6,3z"/>
	</g>
</g>
</svg>
