<?xml version="1.0" encoding="utf-8"?>
<!-- Generator: Adobe Illustrator 23.0.4, SVG Export Plug-In . SVG Version: 6.00 Build 0)  -->
<svg version="1.1" id="katman_1" xmlns="http://www.w3.org/2000/svg" xmlns:xlink="http://www.w3.org/1999/xlink" x="0px" y="0px"
	 viewBox="0 0 70 70" style="enable-background:new 0 0 70 70;" xml:space="preserve">
<style type="text/css">
	.st0{fill:#262753;}
	.st1{fill:#262653;}
</style>
<g>
	<g>
		<g>
			<g>
				<g>
					<g>
						<polygon class="st0" points="36.3,24.4 42.8,24 45,21.8 45.1,20.5 44.2,20.5 44.2,21.4 42.5,23.1 36.3,23.5 						"/>
					</g>
					<g>
						<polygon class="st0" points="35.4,22.2 36,22.9 39.6,19.3 39.6,17.8 37.3,15.4 37.3,12.4 38.7,11 40.8,11 40.8,7.3 45.3,2.8 
							48.7,2.8 50.2,1.2 53.1,1.2 60.5,8.6 60.4,11.2 65.5,16.3 65.4,22.9 61.3,27.1 55.8,27.1 52.6,23.9 49.3,24 43.2,17.9 
							42.5,18.5 48.9,24.9 52.2,24.8 55.4,28 61.7,27.9 66.3,23.3 66.4,15.9 61.3,10.8 61.4,8.2 53.5,0.3 49.9,0.4 48.3,1.9 45,1.9 
							39.9,7 39.9,10.1 38.4,10.2 36.5,12.1 36.4,15.8 38.7,18.1 38.7,18.9 						"/>
					</g>
					<g>
						<polygon class="st0" points="39.9,12.4 42.5,15 45.8,14.9 45.8,14 42.9,14.1 40.8,12 40.8,10.6 39.9,10.6 						"/>
					</g>
					<g>
						<polygon class="st0" points="38.7,18 39.6,17.9 39.6,15.2 41.5,13.4 40.9,12.7 38.8,14.8 						"/>
					</g>
					<g>
						
							<rect x="52.2" y="23.5" transform="matrix(0.7071 -0.7071 0.7071 0.7071 -1.3997 44.4024)" class="st0" width="1.4" height="0.9"/>
					</g>
					<g>
						<polygon class="st0" points="54.9,22.4 56.9,24.3 57.5,23.7 55.8,22 55.9,19.3 48.7,12.1 48,12.7 55,19.7 						"/>
					</g>
					<g>
						<polygon class="st0" points="58.2,17.9 59.8,17.8 62.5,20.6 65.9,20.5 65.9,19.6 62.9,19.7 60.2,16.9 58.2,17 						"/>
					</g>
					<g>
						<polygon class="st0" points="44.5,11.4 45.4,11.4 45.4,9.2 48.9,5.7 49,2.3 48.1,2.3 48,5.3 44.5,8.8 						"/>
					</g>
					<g>
						<polygon class="st0" points="42.4,9.5 45,9.5 45,8.6 42.4,8.6 						"/>
					</g>
					<g>
						<polygon class="st0" points="47.8,10.1 51,10 55.4,14.5 60,14.4 62.6,17 63.2,16.4 60.4,13.5 55.8,13.6 51.4,9.1 47.8,9.2 
													"/>
					</g>
					<g>
						<polygon class="st0" points="55.2,10.4 56.1,10.4 56.1,8.8 57.4,8.8 57.4,7.9 55.2,7.9 						"/>
					</g>
					<g>
						<polygon class="st0" points="50.3,5.6 52.8,5.5 52.8,3.3 51.9,3.3 51.9,4.7 50.3,4.7 						"/>
					</g>
					<g>
						
							<rect x="53.6" y="4.4" transform="matrix(0.7071 -0.7071 0.7071 0.7071 11.0762 40.1696)" class="st0" width="0.9" height="4.6"/>
					</g>
					<g>
						<polygon class="st0" points="58.7,11.4 60.9,11.4 60.9,10.5 58.7,10.6 						"/>
					</g>
					<g>
						<polygon class="st0" points="55.2,16.2 56.1,16.2 56.1,14 55.2,14 						"/>
					</g>
					<g>
						<polygon class="st0" points="49.8,21.4 50.7,21.4 50.8,20 52.3,20 52.4,19.1 49.9,19.1 						"/>
					</g>
					<g>
						
							<rect x="48.3" y="15.8" transform="matrix(0.7071 -0.7071 0.7071 0.7071 1.5753 39.7676)" class="st0" width="0.9" height="4.4"/>
					</g>
					<g>
						<polygon class="st0" points="59.6,24.8 60.5,24.8 60.5,23.1 62,23.1 62,22.2 59.6,22.2 						"/>
					</g>
					<g>
						
							<rect x="58.8" y="20.8" transform="matrix(0.7071 -0.7071 0.7071 0.7071 1.8934 48.3322)" class="st0" width="0.9" height="2.2"/>
					</g>
				</g>
				<g>
					<path class="st0" d="M23.6,42.1c0.2-0.2,0.4-0.4,0.6-0.6L41.7,24l-0.6-0.6L14.2,50.3c-0.6,0.6-0.6,1.2-0.5,1.7L23.6,42.1z"/>
					<path class="st0" d="M7.2,58.5l0.8-0.8c-0.3-0.1-0.5-0.1-0.8-0.1c-0.9,0.1-1.6,0.7-2,1.2l-2.5-2.5l36.9-36.9l-0.6-0.6L1.7,56
						l-0.3,0.3l3.8,3.8l0.3-0.4C5.7,59.4,6.5,58.6,7.2,58.5z"/>
				</g>
			</g>
		</g>
		<path class="st1" d="M8.4,55.5l11.8,5.1c0.3,0.1,0.5,0.3,0.7,0.6c0.1,0.3,0.2,0.6,0,1c-0.2,0.4-0.4,0.6-0.7,0.7
			c-0.3,0.2-0.7,0.2-1,0.1l-2.9-1l-3.3,3.3l1,2.9c0.2,0.4,0.1,1-0.3,1.3c-0.1,0.1-0.3,0.3-0.6,0.4c-0.4,0.2-0.8,0.1-1,0
			c-0.3-0.2-0.5-0.4-0.7-0.7l-5-11.8c-0.2-0.5-0.1-1.1,0.3-1.5c0,0,0,0,0,0l0,0C7.3,55.4,7.9,55.3,8.4,55.5z"/>
	</g>
	<polygon class="st0" points="7.2,58.5 13.7,52 42,23.2 35.3,23.4 2.2,56.2 5.1,59.3 	"/>
</g>
</svg>
