<?xml version="1.0" encoding="utf-8"?>
<!-- Generator: Adobe Illustrator 23.0.4, SVG Export Plug-In . SVG Version: 6.00 Build 0)  -->
<svg version="1.1" id="katman_1" xmlns="http://www.w3.org/2000/svg" xmlns:xlink="http://www.w3.org/1999/xlink" x="0px" y="0px"
	 viewBox="0 0 70 70" style="enable-background:new 0 0 70 70;" xml:space="preserve">
<style type="text/css">
	.st0{fill:#262753;}
	.st1{fill:#FFFFFF;}
	.st2{fill:#262653;}
</style>
<g>
	<g>
		<g>
			<g>
				<circle class="st0" cx="33.2" cy="18.9" r="10.8"/>
			</g>
		</g>
		<g>
			<path class="st1" d="M21.4,15.5h23.8c0,0,1.2-0.3,1-1.6s-0.9-1.2-0.9-1.2h-1.2v-2.2c0,0-1-5.5-5.9-7.8l-0.9,5.3
				c0,0-0.4,0.7-1,0.5c-0.6-0.2-0.7-0.7-0.7-0.7l0.9-5.8c0,0,0.2-0.9-1.4-1.4h-4.1c0,0-0.9,0.2-1.2,1.2l1.1,5.8c0,0,0.2,0.9-0.8,1
				c-1,0.1-1-0.5-1-0.5l-0.7-5.4c0,0-4.3,1.9-5.8,6.9v2.9h-1.4c0,0-1.3,0.6-1.1,1.7C20.4,15.3,21.4,15.5,21.4,15.5z"/>
			<path class="st0" d="M45.2,16.1l-24,0c-0.5-0.1-1.4-0.6-1.6-1.8c-0.2-1.2,0.8-2,1.4-2.3l0.1-0.1h0.9l0-2.5
				c1.5-5.2,5.9-7.2,6.1-7.3l0.7-0.3L29.8,8c0,0,0,0,0.1,0c0,0,0.1,0,0.2,0c0.1,0,0.2,0,0.3-0.1c0-0.1,0-0.2,0-0.2l-1.1-5.9l0.1-0.1
				C29.8,0.4,30.9,0,31,0l0.2,0l4.2,0c2,0.6,1.8,2,1.8,2l-0.9,5.6c0,0.1,0.1,0.2,0.3,0.3c0.1,0,0.2-0.1,0.3-0.2l1-5.9l0.7,0.3
				c5,2.4,6.1,8,6.2,8.2l0,0.1v1.6h0.6c0.1,0,0.5,0,0.8,0.3c0.4,0.3,0.6,0.8,0.6,1.5C46.9,15.3,45.8,15.9,45.2,16.1L45.2,16.1z
				 M21.4,14.9h23.6c0.2-0.1,0.6-0.3,0.6-1c0-0.5-0.2-0.7-0.3-0.7l-1.8,0v-2.7c-0.1-0.5-1.1-4.8-4.8-7l-0.8,4.6l-0.1,0.1
				c-0.3,0.4-0.9,1-1.6,0.7c-0.8-0.2-1.1-1-1.1-1.1l0-0.1L36,1.8c0-0.1-0.2-0.5-0.9-0.7h-3.9c-0.1,0.1-0.5,0.2-0.7,0.7l1,5.6
				c0,0,0.1,0.6-0.2,1.1c-0.2,0.2-0.5,0.5-1,0.6c-0.5,0.1-0.9,0-1.2-0.3c-0.3-0.3-0.4-0.6-0.4-0.8L28,3.6c-1.2,0.8-3.7,2.7-4.7,6.1
				v3.4h-1.8c-0.2,0.1-0.7,0.5-0.7,1C20.9,14.7,21.3,14.9,21.4,14.9z"/>
		</g>
	</g>
	<path class="st2" d="M28.8,67.1l-16-40.3c-0.4-1-0.5-2.1-0.2-3.1c0.3-0.9,0.9-1.9,2.3-2.4c1.3-0.5,2.5-0.5,3.3-0.2
		c1.1,0.4,2,1.2,2.5,2.3l4.6,9.3h15.6l4.3-9.3C46,22,47.4,20.9,49,21c0.6,0,1.4,0.1,2.3,0.4c1.4,0.5,2.1,1.5,2.4,2.5
		c0.4,1.1,0.3,2.3-0.2,3.4L37.4,67.1c-0.7,1.7-2.3,2.9-4.1,2.9c0,0-0.1,0-0.1,0l-0.1,0C31.2,70,29.5,68.8,28.8,67.1z"/>
</g>
</svg>
