<?xml version="1.0" encoding="utf-8"?>
<!-- Generator: Adobe Illustrator 23.0.6, SVG Export Plug-In . SVG Version: 6.00 Build 0)  -->
<svg version="1.1" xmlns="http://www.w3.org/2000/svg" xmlns:xlink="http://www.w3.org/1999/xlink" x="0px" y="0px"
	 viewBox="0 0 198.43 198.43" style="enable-background:new 0 0 198.43 198.43;" xml:space="preserve">
<style type="text/css">
	.st0{fill:#173142;}
</style>
<g id="Layer_2">
	<g>
		<path class="st0" d="M155.61,89.98h-1.13c-2.23-13.43-9.22-25.48-19.83-34.15v-3.4c0-2-1.62-3.62-3.62-3.62h-3.74
			c-0.81,0-1.56,0.27-2.16,0.72c-5.86-3.06-12.14-5.04-18.7-5.88c-0.58-2.41-2.75-4.2-5.34-4.2h-3.74c-2.58,0-4.76,1.79-5.34,4.2
			c-6.56,0.84-12.84,2.82-18.7,5.88c-0.61-0.45-1.35-0.72-2.16-0.72H67.4c-2,0-3.62,1.63-3.62,3.62v3.4
			c-10.61,8.67-17.6,20.72-19.83,34.15h-1.13c-1.86,0-3.37,1.51-3.37,3.37v7.99c0,1.86,1.51,3.37,3.37,3.37h10.06
			c0.23,1.91,0.57,3.81,1.03,5.68l-7.73,4.46c-2.37,1.37-3.37,4.33-2.33,6.88c1.03,2.53,2.24,5.01,3.6,7.37
			c1.36,2.36,2.9,4.65,4.58,6.81c1.69,2.18,4.76,2.79,7.12,1.42l7.73-4.46c5.47,5.26,12.11,9.1,19.34,11.19v8.91
			c0,2.73,2.04,5.08,4.74,5.45c2.73,0.38,5.5,0.57,8.24,0.57c2.74,0,5.51-0.19,8.24-0.57c2.7-0.38,4.74-2.72,4.74-5.45v-8.91
			c7.23-2.09,13.87-5.93,19.34-11.19l7.73,4.46c2.37,1.37,5.43,0.76,7.12-1.42c1.68-2.16,3.22-4.45,4.58-6.81
			c1.36-2.36,2.57-4.84,3.6-7.37c1.04-2.56,0.04-5.51-2.33-6.88l-7.73-4.46c0.46-1.87,0.81-3.77,1.03-5.68h10.06
			c1.86,0,3.37-1.51,3.37-3.37v-7.99C158.98,91.49,157.47,89.98,155.61,89.98L155.61,89.98z M141.61,112.75l8.88,5.13
			c0.88,0.51,1.23,1.57,0.84,2.53c-0.97,2.39-2.11,4.72-3.39,6.94c-1.28,2.22-2.73,4.38-4.31,6.41c-0.64,0.82-1.73,1.04-2.61,0.54
			l-8.89-5.13c-0.69-0.4-1.57-0.28-2.13,0.29c-5.52,5.62-12.44,9.62-20,11.57c-0.77,0.2-1.31,0.9-1.31,1.7v10.24
			c0,0.99-0.74,1.85-1.72,1.98c-2.57,0.36-5.18,0.54-7.76,0.54c-2.58,0-5.19-0.18-7.76-0.54c-0.98-0.14-1.72-0.99-1.72-1.98v-10.24
			c0-0.8-0.54-1.5-1.31-1.7c-7.56-1.95-14.48-5.95-20-11.57c-0.56-0.57-1.43-0.69-2.13-0.29l-8.89,5.13
			c-0.88,0.51-1.97,0.28-2.61-0.54c-1.58-2.03-3.03-4.19-4.31-6.41c-1.28-2.22-2.42-4.55-3.39-6.94c-0.39-0.96-0.04-2.02,0.84-2.53
			l8.88-5.13c0.69-0.4,1.03-1.21,0.81-1.98c-0.55-1.99-0.96-4.02-1.22-6.06h66.64c-1.15,4.98-3.85,9.52-7.74,12.92
			c-4.45,3.89-10.16,6.04-16.08,6.04c-4.71,0-9.29-1.34-13.23-3.89c-3.84-2.48-6.91-5.97-8.86-10.09c-0.41-0.87-1.46-1.25-2.33-0.83
			c-0.87,0.42-1.25,1.46-0.83,2.33c2.24,4.71,5.74,8.69,10.13,11.53c4.51,2.91,9.74,4.45,15.13,4.45c6.77,0,13.3-2.45,18.39-6.9
			c4.65-4.07,7.82-9.55,9.02-15.56h15.4c-0.26,2.04-0.67,4.07-1.22,6.06C140.59,111.53,140.92,112.35,141.61,112.75L141.61,112.75z
			 M155.48,101.2H42.95v-7.73h82.47c0.97,0,1.75-0.78,1.75-1.75c0-0.97-0.78-1.75-1.75-1.75H47.5c2.02-11.4,7.71-21.72,16.27-29.53
			v23.8c0,0.97,0.78,1.75,1.75,1.75c0.97,0,1.75-0.78,1.75-1.75V52.43c0-0.07,0.05-0.12,0.12-0.12h3.74c0.07,0,0.12,0.05,0.12,0.12
			v31.81c0,0.97,0.78,1.75,1.75,1.75c0.97,0,1.75-0.78,1.75-1.75V52.72c5.36-2.83,11.09-4.67,17.08-5.51v37.04
			c0,0.97,0.78,1.75,1.75,1.75c0.97,0,1.75-0.78,1.75-1.75v-39.3c0-1.1,0.89-1.99,1.99-1.99h3.74c1.1,0,1.99,0.89,1.99,1.99v39.3
			c0,0.97,0.78,1.75,1.75,1.75c0.97,0,1.75-0.78,1.75-1.75V47.21c5.99,0.84,11.73,2.69,17.08,5.51v31.52c0,0.97,0.78,1.75,1.75,1.75
			c0.97,0,1.75-0.78,1.75-1.75V52.43c0-0.07,0.05-0.12,0.12-0.12h3.74c0.07,0,0.12,0.05,0.12,0.12v31.81c0,0.97,0.78,1.75,1.75,1.75
			c0.97,0,1.75-0.78,1.75-1.75v-23.8c8.56,7.81,14.25,18.13,16.27,29.53H132.9c-0.97,0-1.75,0.78-1.75,1.75
			c0,0.97,0.78,1.75,1.75,1.75h22.58V101.2z M155.48,101.2"/>
	</g>
</g>
<g id="Layer_3">
</g>
<g id="Layer_4">
</g>
<g id="Layer_4_copy">
</g>
</svg>
