<?xml version="1.0" encoding="utf-8"?>
<!-- Generator: Adobe Illustrator 23.0.6, SVG Export Plug-In . SVG Version: 6.00 Build 0)  -->
<svg version="1.1" xmlns="http://www.w3.org/2000/svg" xmlns:xlink="http://www.w3.org/1999/xlink" x="0px" y="0px"
	 viewBox="0 0 198.43 198.43" style="enable-background:new 0 0 198.43 198.43;" xml:space="preserve">
<style type="text/css">
	.st0{fill:#173142;}
</style>
<g id="Layer_2">
	<g>
		<path class="st0" d="M122.65,82.99c-0.22-0.68-0.8-1.17-1.51-1.27l-5.97-0.87l-2.67-5.4c-0.32-0.64-0.97-1.04-1.68-1.04
			c-0.71,0-1.36,0.4-1.68,1.04l-2.67,5.4l-5.97,0.87c-0.7,0.1-1.29,0.59-1.51,1.27c-0.22,0.68-0.04,1.42,0.47,1.92l4.32,4.21
			l-1.02,5.94c-0.12,0.7,0.17,1.41,0.74,1.83c0.33,0.24,0.71,0.36,1.1,0.36c0.3,0,0.6-0.07,0.87-0.21l5.34-2.81l5.34,2.81
			c0.63,0.33,1.39,0.28,1.97-0.14c0.58-0.42,0.86-1.13,0.74-1.83l-1.02-5.94l4.32-4.21C122.69,84.41,122.87,83.67,122.65,82.99z
			 M114.55,87.13c-0.44,0.43-0.64,1.05-0.54,1.65l0.55,3.18l-2.85-1.5c-0.54-0.29-1.19-0.29-1.74,0l-2.85,1.5l0.55-3.18
			c0.1-0.61-0.1-1.23-0.54-1.65l-2.31-2.25l3.19-0.46c0.61-0.09,1.14-0.47,1.41-1.02l1.43-2.89l1.43,2.89
			c0.27,0.55,0.8,0.93,1.41,1.02l3.19,0.46L114.55,87.13z"/>
		<path class="st0" d="M162.44,97.89l-17.59-17.59V55.44c0-1.03-0.84-1.87-1.87-1.87h-24.87l-17.59-17.59
			c-0.36-0.36-0.84-0.55-1.32-0.55h-0.01c-0.48,0-0.95,0.18-1.32,0.55L80.31,53.57H55.44c-1.03,0-1.87,0.84-1.87,1.87v24.87
			L35.98,97.89c-0.36,0.36-0.55,0.84-0.55,1.32v0.01c0,0.48,0.18,0.95,0.55,1.32l17.59,17.59v24.87c0,1.03,0.84,1.87,1.87,1.87
			h24.87l17.59,17.59c0.36,0.36,0.84,0.55,1.32,0.55c0.48,0,0.96-0.18,1.32-0.55l17.59-17.59h24.87c1.03,0,1.87-0.84,1.87-1.87
			v-24.87l17.59-17.59c0.36-0.36,0.55-0.84,0.55-1.32v-0.01C162.99,98.73,162.81,98.26,162.44,97.89z M141.67,116.02
			c-0.35,0.35-0.55,0.83-0.55,1.32v23.77h-23.77c-0.5,0-0.97,0.2-1.32,0.55l-16.81,16.81L82.4,141.67
			c-0.35-0.35-0.83-0.55-1.32-0.55H57.3v-23.77c0-0.5-0.2-0.97-0.55-1.32L39.94,99.21L56.76,82.4c0.35-0.35,0.55-0.83,0.55-1.32
			V57.3h23.78c0.5,0,0.97-0.2,1.32-0.55l16.81-16.81l16.81,16.81c0.35,0.35,0.83,0.55,1.32,0.55h23.78v23.77
			c0,0.5,0.2,0.97,0.55,1.32l16.81,16.81L141.67,116.02z"/>
		<path class="st0" d="M86.98,90.86c1.01,0.23,2.01-0.4,2.24-1.41c0.95-4.18,3.93-8.34,7.6-10.61c0.76-0.47,1.08-1.41,0.77-2.24
			c-0.31-0.83-1.17-1.33-2.05-1.19c-5.57,0.9-10.67,3.75-14.36,8.04c-3.74,4.34-5.8,9.89-5.8,15.62c0,13.23,10.76,23.99,23.99,23.99
			c5.73,0,11.28-2.06,15.62-5.8c4.29-3.69,7.14-8.8,8.04-14.36c0.14-0.88-0.36-1.74-1.19-2.05c-0.83-0.31-1.77,0.01-2.24,0.77
			c-3.05,4.93-8.32,7.87-14.08,7.87c-7.58,0-14.18-5.12-16.05-12.45c-0.26-1-1.27-1.6-2.27-1.35c-1,0.26-1.6,1.27-1.35,2.27
			c2.3,8.98,10.39,15.26,19.67,15.26c3.91,0,7.63-1.1,10.8-3.11c-1.04,1.6-2.3,3.05-3.77,4.31c-3.66,3.15-8.34,4.89-13.18,4.89
			c-11.17,0-20.25-9.09-20.25-20.25c0-4.84,1.74-9.52,4.89-13.18c1.28-1.49,2.77-2.77,4.39-3.82c-1.32,2.04-2.3,4.28-2.82,6.56
			C85.35,89.63,85.98,90.63,86.98,90.86z"/>
		<path class="st0" d="M136.87,81.08V63.42c0-1.03-0.84-1.87-1.87-1.87h-3.86c-1.03,0-1.87,0.84-1.87,1.87
			c0,1.03,0.84,1.87,1.87,1.87h1.99v15.79c0,2.63,1.03,5.11,2.89,6.97l11.16,11.16l-11.16,11.16c-1.86,1.86-2.89,4.34-2.89,6.97
			v15.79h-15.79c-2.63,0-5.11,1.03-6.97,2.89l-11.16,11.16l-11.16-11.16c-1.86-1.86-4.34-2.89-6.97-2.89H65.29v-1.97
			c0-1.03-0.84-1.87-1.87-1.87c-1.03,0-1.87,0.84-1.87,1.87V135c0,1.03,0.84,1.87,1.87,1.87h17.66c1.63,0,3.17,0.64,4.33,1.79
			l12.48,12.48c0.35,0.35,0.83,0.55,1.32,0.55s0.97-0.2,1.32-0.55l12.48-12.48c1.16-1.16,2.69-1.79,4.33-1.79H135
			c1.03,0,1.87-0.84,1.87-1.87v-17.65c0-1.61,0.65-3.19,1.79-4.33l12.49-12.49c0.73-0.73,0.73-1.91,0-2.64L138.66,85.4
			C137.52,84.27,136.87,82.69,136.87,81.08z"/>
		<path class="st0" d="M61.56,123.18c0,1.03,0.84,1.87,1.87,1.87c1.03,0,1.87-0.84,1.87-1.87v-5.83c0-2.63-1.03-5.11-2.89-6.97
			L51.24,99.21L62.4,88.05c1.86-1.86,2.89-4.34,2.89-6.97V65.29h15.79c2.63,0,5.11-1.03,6.97-2.89l11.16-11.16l11.16,11.16
			c1.86,1.86,4.34,2.89,6.97,2.89h5.74c1.03,0,1.87-0.84,1.87-1.87c0-1.03-0.84-1.87-1.87-1.87h-5.74c-1.63,0-3.17-0.64-4.33-1.79
			l-12.48-12.48c-0.35-0.35-0.83-0.55-1.32-0.55s-0.97,0.2-1.32,0.55L85.41,59.76c-1.16,1.16-2.69,1.79-4.33,1.79H63.42
			c-1.03,0-1.87,0.84-1.87,1.87v17.65c0,1.61-0.65,3.19-1.79,4.33L47.28,97.89c-0.73,0.73-0.73,1.91,0,2.64l12.49,12.49
			c1.14,1.14,1.79,2.72,1.79,4.33V123.18z"/>
	</g>
</g>
<g id="Layer_3">
</g>
<g id="Layer_4">
</g>
<g id="Layer_4_copy">
</g>
</svg>
