<?xml version="1.0" encoding="utf-8"?>
<!-- Generator: Adobe Illustrator 23.0.4, SVG Export Plug-In . SVG Version: 6.00 Build 0)  -->
<svg version="1.1" id="katman_1" xmlns="http://www.w3.org/2000/svg" xmlns:xlink="http://www.w3.org/1999/xlink" x="0px" y="0px"
	 viewBox="0 0 70 70" style="enable-background:new 0 0 70 70;" xml:space="preserve">
<style type="text/css">
	.st0{fill:#262653;}
	.st1{fill:#FFFFFF;}
</style>
<g>
	<g>
		<circle class="st0" cx="36.8" cy="12.3" r="12.3"/>
	</g>
	<path class="st0" d="M31.8,66.7l-18-45.5c-0.4-1.1-0.5-2.3-0.2-3.5c0.3-1,1-2.1,2.5-2.7c1.5-0.6,2.8-0.5,3.8-0.2
		c1.3,0.4,2.3,1.4,2.8,2.6L28,27.9h17.6l4.9-10.5c0.8-1.6,2.4-2.8,4.1-2.8c0.7,0,1.6,0.1,2.6,0.5c1.6,0.5,2.4,1.7,2.7,2.8
		c0.4,1.2,0.3,2.6-0.2,3.8l-18.2,45c-0.8,1.9-2.6,3.3-4.6,3.3c0,0-0.1,0-0.1,0l-0.1,0C34.5,70,32.6,68.7,31.8,66.7z"/>
	<g>
		<polygon class="st1" points="35.7,27.9 37.8,27.9 39,29.9 38.3,31.9 35.2,31.9 34.6,29.9 		"/>
		<polygon class="st1" points="35.2,31.9 38.3,31.9 39.1,37.6 36.8,61.2 34.4,37.6 		"/>
	</g>
</g>
</svg>
