<?xml version="1.0" encoding="utf-8"?>
<!-- Generator: Adobe Illustrator 23.0.6, SVG Export Plug-In . SVG Version: 6.00 Build 0)  -->
<svg version="1.1" xmlns="http://www.w3.org/2000/svg" xmlns:xlink="http://www.w3.org/1999/xlink" x="0px" y="0px"
	 viewBox="0 0 198.43 198.43" style="enable-background:new 0 0 198.43 198.43;" xml:space="preserve">
<style type="text/css">
	.st0{fill:#173142;}
</style>
<g id="Layer_2">
	<g>
		<path class="st0" d="M110.42,46.64c0-6.18-5.03-11.21-11.21-11.21C93.03,35.43,88,40.46,88,46.64c0,6.18,5.03,11.21,11.21,11.21
			C105.39,57.86,110.42,52.83,110.42,46.64L110.42,46.64z M99.21,50.38c-2.06,0-3.74-1.68-3.74-3.74c0-2.06,1.68-3.74,3.74-3.74
			c2.06,0,3.74,1.68,3.74,3.74C102.95,48.7,101.27,50.38,99.21,50.38L99.21,50.38z M99.21,50.38"/>
		<path class="st0" d="M117.9,76.54c0-10.3-8.38-18.69-18.69-18.69c-10.3,0-18.69,8.38-18.69,18.69v3.74h37.37V76.54z M88.64,72.8
			c1.54-4.35,5.7-7.47,10.57-7.47c4.87,0,9.03,3.12,10.57,7.47H88.64z M88.64,72.8"/>
		<path class="st0" d="M65.33,46.64c0-6.18-5.03-11.21-11.21-11.21s-11.21,5.03-11.21,11.21c0,6.18,5.03,11.21,11.21,11.21
			S65.33,52.83,65.33,46.64L65.33,46.64z M54.12,50.38c-2.06,0-3.74-1.68-3.74-3.74c0-2.06,1.68-3.74,3.74-3.74
			c2.06,0,3.74,1.68,3.74,3.74C57.86,48.7,56.18,50.38,54.12,50.38L54.12,50.38z M54.12,50.38"/>
		<path class="st0" d="M72.8,76.54c0-10.3-8.38-18.69-18.69-18.69s-18.69,8.38-18.69,18.69v3.74H72.8V76.54z M43.55,72.8
			c1.54-4.35,5.7-7.47,10.57-7.47s9.03,3.12,10.57,7.47H43.55z M43.55,72.8"/>
		<path class="st0" d="M155.52,46.64c0-6.18-5.03-11.21-11.21-11.21s-11.21,5.03-11.21,11.21c0,6.18,5.03,11.21,11.21,11.21
			S155.52,52.83,155.52,46.64L155.52,46.64z M144.31,50.38c-2.06,0-3.74-1.68-3.74-3.74c0-2.06,1.68-3.74,3.74-3.74
			s3.74,1.68,3.74,3.74C148.04,48.7,146.37,50.38,144.31,50.38L144.31,50.38z M144.31,50.38"/>
		<path class="st0" d="M144.31,57.86c-10.3,0-18.69,8.38-18.69,18.69v3.74h37.37v-3.74C162.99,66.24,154.61,57.86,144.31,57.86
			L144.31,57.86z M133.74,72.8c1.54-4.35,5.7-7.47,10.57-7.47s9.03,3.12,10.57,7.47H133.74z M133.74,72.8"/>
		<path class="st0" d="M110.42,98.96c0,6.18-5.03,11.21-11.21,11.21c-6.18,0-11.21-5.03-11.21-11.21V87.75H35.43v22.42h16.55
			c1.19,5.07,3.17,9.84,5.9,14.26l-11.52,11.52l15.86,15.86l11.52-11.52c4.42,2.73,9.19,4.71,14.26,5.9v16.8h22.42v-16.8
			c5.07-1.19,9.85-3.17,14.26-5.9l11.52,11.52l15.85-15.86l-11.52-11.52c2.73-4.42,4.71-9.19,5.9-14.26h16.55V87.75h-52.57V98.96z
			 M155.52,102.7h-15.29l-0.52,3.12c-1.04,6.16-3.39,11.86-7.01,16.93l-1.83,2.57l10.63,10.63l-5.28,5.29l-10.63-10.63l-2.57,1.83
			c-5.07,3.61-10.77,5.97-16.93,7.01l-3.12,0.52v15.54h-7.47v-15.54l-3.12-0.52c-6.16-1.04-11.86-3.39-16.93-7.01l-2.57-1.83
			l-10.63,10.63l-5.29-5.29l10.63-10.63l-1.83-2.57c-3.61-5.07-5.97-10.77-7.01-16.93l-0.52-3.12H42.91v-7.47h22.67v3.74
			c0,18.55,15.09,33.63,33.63,33.63s33.63-15.09,33.63-33.63v-3.74h22.67V102.7z M117.9,98.96v-3.74h7.47v3.74
			c0,14.42-11.74,26.16-26.16,26.16s-26.16-11.74-26.16-26.16v-3.74h7.47v3.74c0,10.3,8.38,18.69,18.69,18.69
			C109.52,117.65,117.9,109.27,117.9,98.96L117.9,98.96z M117.9,98.96"/>
	</g>
</g>
<g id="Layer_3">
</g>
<g id="Layer_4">
</g>
<g id="Layer_4_copy">
</g>
</svg>
