<?xml version="1.0" encoding="utf-8"?>
<!-- Generator: Adobe Illustrator 23.0.4, SVG Export Plug-In . SVG Version: 6.00 Build 0)  -->
<svg version="1.1" id="katman_1" xmlns="http://www.w3.org/2000/svg" xmlns:xlink="http://www.w3.org/1999/xlink" x="0px" y="0px"
	 viewBox="0 0 70 70" style="enable-background:new 0 0 70 70;" xml:space="preserve">
<style type="text/css">
	.st0{fill:#262653;}
	.st1{fill:#FFFFFF;}
	.st2{fill:#292559;}
</style>
<g>
	<g>
		<g>
			<circle class="st0" cx="26.5" cy="30.4" r="8"/>
		</g>
		<path class="st0" d="M23.3,66L11.5,36.3c-0.3-0.7-0.4-1.5-0.1-2.3c0.2-0.7,0.7-1.4,1.7-1.8c1-0.4,1.8-0.4,2.5-0.1
			c0.8,0.3,1.5,0.9,1.9,1.7l3.4,6.9h11.5l3.2-6.9C36,32.8,37,32,38.2,32c0.5,0,1,0.1,1.7,0.3c1,0.3,1.5,1.1,1.8,1.8
			c0.3,0.8,0.2,1.7-0.1,2.5L29.6,66c-0.5,1.2-1.7,2.1-3,2.2c0,0,0,0-0.1,0l-0.1,0C25.1,68.2,23.8,67.3,23.3,66z"/>
		<g>
			<polygon class="st1" points="25.8,40.7 27.2,40.7 28,41.9 27.6,43.3 25.5,43.3 25.1,42 			"/>
			<polygon class="st1" points="25.5,43.3 27.6,43.3 28.1,47 26.5,62.4 25,47 			"/>
		</g>
	</g>
	<g>
		<path class="st2" d="M36,21.2l0.1-15.6l0-0.1c1-3.1,3.2-3.5,3.2-3.5l0.1,0c0.6,0,14-0.3,16.2,0c2.5,0.4,3.1,3,3.1,3.1l0,0.1v9.1
			l0,0.1c-1.1,3.2-3.7,3.2-3.8,3.2H41.2L36,21.2z M37.1,5.7L37,19.3l3.9-2.7h14.1c0.1,0,1.9-0.1,2.8-2.5V5.2
			c-0.1-0.3-0.6-2.1-2.3-2.3c-2.1-0.3-15.1,0-16,0C39.3,3,37.9,3.4,37.1,5.7z"/>
	</g>
	<g>
		<g>
			<path class="st2" d="M40.9,7.6v1.7h2V7.6h0.5v4.1h-0.5V9.8h-2v1.9h-0.5V7.6H40.9z"/>
		</g>
		<g>
			<path class="st2" d="M44.6,10.3c0,0.7,0.5,1,1,1c0.4,0,0.6-0.1,0.8-0.2l0.1,0.4c-0.2,0.1-0.5,0.2-1,0.2c-0.9,0-1.4-0.6-1.4-1.5
				s0.5-1.6,1.4-1.6c1,0,1.2,0.8,1.2,1.4c0,0.1,0,0.2,0,0.2H44.6z M46.2,10c0-0.3-0.1-0.9-0.7-0.9c-0.5,0-0.8,0.5-0.8,0.9H46.2z"/>
		</g>
		<g>
			<path class="st2" d="M47.4,7.4h0.5v4.3h-0.5V7.4z"/>
		</g>
		<g>
			<path class="st2" d="M48.8,7.4h0.5v4.3h-0.5V7.4z"/>
		</g>
		<g>
			<path class="st2" d="M52.9,10.2c0,1.1-0.8,1.6-1.5,1.6c-0.8,0-1.4-0.6-1.4-1.5c0-1,0.6-1.6,1.5-1.6C52.3,8.7,52.9,9.3,52.9,10.2z
				 M50.6,10.3c0,0.6,0.4,1.1,0.9,1.1c0.5,0,0.9-0.5,0.9-1.1c0-0.5-0.2-1.1-0.9-1.1C50.8,9.1,50.6,9.7,50.6,10.3z"/>
		</g>
		<g>
			<path class="st2" d="M53.5,11.4c0-0.2,0.2-0.4,0.4-0.4c0.2,0,0.4,0.2,0.4,0.4c0,0.2-0.1,0.4-0.4,0.4
				C53.6,11.8,53.5,11.6,53.5,11.4z M53.6,10.5l-0.1-2.9h0.6L54,10.5H53.6z"/>
		</g>
	</g>
</g>
</svg>
