<?xml version="1.0" encoding="utf-8"?>
<!-- Generator: Adobe Illustrator 23.0.6, SVG Export Plug-In . SVG Version: 6.00 Build 0)  -->
<svg version="1.1" xmlns="http://www.w3.org/2000/svg" xmlns:xlink="http://www.w3.org/1999/xlink" x="0px" y="0px"
	 viewBox="0 0 198.43 198.43" style="enable-background:new 0 0 198.43 198.43;" xml:space="preserve">
<style type="text/css">
	.st0{fill:#173142;}
</style>
<g id="Layer_2">
	<g>
		<path class="st0" d="M129.23,61.62V59.1c0-4.81-3.93-8.72-8.75-8.72h-7.5v-6.23c0-4.81-3.93-8.72-8.75-8.72h-10
			c-4.83,0-8.75,3.91-8.75,8.72v6.23h-7.5c-4.83,0-8.75,3.91-8.75,8.72v2.52l30.01,8.54L129.23,61.62z M92.96,44.15
			c0-0.69,0.56-1.25,1.25-1.25h10c0.69,0,1.25,0.56,1.25,1.25v6.23H92.96V44.15z M92.96,44.15"/>
		<path class="st0" d="M77.95,97.72h42.52c4.83,0,8.75-3.91,8.75-8.72v-19.6l-28.98,8.25c-0.67,0.19-1.39,0.19-2.06,0L69.2,69.39V89
			C69.2,93.81,73.13,97.72,77.95,97.72L77.95,97.72z M77.95,97.72"/>
		<path class="st0" d="M153.61,60.85c-5.18,0-9.38,4.18-9.38,9.34v26.69c0.46,0.37,0.9,0.76,1.32,1.19c6.58,6.56,6.58,17.23,0,23.79
			l-15.35,15.29c-1.47,1.46-3.84,1.46-5.31,0c-1.46-1.46-1.46-3.83,0-5.29l15.35-15.29c3.66-3.65,3.66-9.56,0-13.21
			c-3.66-3.65-9.6-3.65-13.27,0l-18.53,18.46c-3.52,3.5-5.49,8.26-5.49,13.21v27.97h31.26c1.18,0,2.29-0.55,2.99-1.49l21.48-28.33
			c2.77-3.65,4.29-8.19,4.29-12.76V70.19C162.99,65.03,158.79,60.85,153.61,60.85L153.61,60.85z M153.61,60.85"/>
		<path class="st0" d="M89.97,121.81l-18.53-18.46c-3.66-3.65-9.6-3.65-13.27,0c-3.66,3.65-3.66,9.56,0,13.21l15.35,15.29
			c1.46,1.46,1.46,3.83,0,5.29c-1.47,1.46-3.84,1.46-5.31,0l-15.35-15.29c-6.58-6.56-6.58-17.23,0-23.79
			c0.42-0.42,0.87-0.82,1.32-1.19V70.19c0-5.16-4.2-9.34-9.38-9.34c-5.18,0-9.38,4.18-9.38,9.34v50.23c0,4.58,1.53,9.11,4.29,12.76
			l21.48,28.33c0.71,0.94,1.82,1.49,2.99,1.49h31.26v-27.97C95.46,130.06,93.48,125.31,89.97,121.81L89.97,121.81z M89.97,121.81"/>
	</g>
</g>
<g id="Layer_3">
</g>
<g id="Layer_4">
</g>
<g id="Layer_4_copy">
</g>
</svg>
