<?xml version="1.0" encoding="utf-8"?>
<!-- Generator: Adobe Illustrator 23.0.6, SVG Export Plug-In . SVG Version: 6.00 Build 0)  -->
<svg version="1.1" xmlns="http://www.w3.org/2000/svg" xmlns:xlink="http://www.w3.org/1999/xlink" x="0px" y="0px"
	 viewBox="0 0 198.43 198.43" style="enable-background:new 0 0 198.43 198.43;" xml:space="preserve">
<style type="text/css">
	.st0{fill:#173142;}
</style>
<g id="Layer_2">
	<g>
		<path class="st0" d="M129.19,88.21V76.42l-11.45-11.45l11.16-26.81l-6.92-2.88l-18.73,45l6.92,2.88l4.46-10.71l7.07,7.07v8.69
			H76.73v7.49h7.49v14.99h14.99v52.45h7.49v-7.49h37.47v7.49h7.49c0-2.18,0-72.98,0-74.93H129.19z M91.72,103.2V95.7h52.45v52.45
			h-37.47V103.2H91.72z M91.72,103.2"/>
		<path class="st0" d="M54.25,103.2h14.99V58.24H46.76v104.91h7.49v-22.48h29.97v22.48h7.49v-44.96H54.25V103.2z M54.25,65.73h7.49
			V95.7h-7.49V65.73z M84.23,125.68v7.49H54.25v-7.49H84.23z M84.23,125.68"/>
	</g>
</g>
<g id="Layer_3">
</g>
<g id="Layer_4">
</g>
<g id="Layer_4_copy">
</g>
</svg>
