<?xml version="1.0" encoding="utf-8"?>
<!-- Generator: Adobe Illustrator 23.0.6, SVG Export Plug-In . SVG Version: 6.00 Build 0)  -->
<svg version="1.1" xmlns="http://www.w3.org/2000/svg" xmlns:xlink="http://www.w3.org/1999/xlink" x="0px" y="0px"
	 viewBox="0 0 198.43 198.43" style="enable-background:new 0 0 198.43 198.43;" xml:space="preserve">
<style type="text/css">
	.st0{fill:#173142;}
</style>
<g id="Layer_2">
	<g>
		<path class="st0" d="M140.07,85.26c-8.24,0-14.95-6.71-14.95-14.95s6.71-14.95,14.95-14.95c8.24,0,14.95,6.71,14.95,14.95
			S148.31,85.26,140.07,85.26L140.07,85.26z M140.07,65.33c-2.75,0-4.98,2.24-4.98,4.98c0,2.75,2.24,4.98,4.98,4.98
			c2.75,0,4.98-2.24,4.98-4.98C145.05,67.57,142.82,65.33,140.07,65.33L140.07,65.33z M140.07,65.33"/>
		<path class="st0" d="M145.05,40.42c0,2.75-2.23,4.98-4.98,4.98c-2.75,0-4.98-2.23-4.98-4.98c0-2.75,2.23-4.98,4.98-4.98
			C142.82,35.43,145.05,37.66,145.05,40.42L145.05,40.42z M145.05,40.42"/>
		<path class="st0" d="M127.48,46.13c0,2.75-2.23,4.98-4.98,4.98c-2.75,0-4.98-2.23-4.98-4.98c0-2.75,2.23-4.98,4.98-4.98
			C125.25,41.14,127.48,43.37,127.48,46.13L127.48,46.13z M127.48,46.13"/>
		<path class="st0" d="M162.63,46.13c0,2.75-2.23,4.98-4.98,4.98c-2.75,0-4.98-2.23-4.98-4.98c0-2.75,2.23-4.98,4.98-4.98
			C160.4,41.14,162.63,43.37,162.63,46.13L162.63,46.13z M162.63,46.13"/>
		<path class="st0" d="M141.01,114.12c-2.23-1.62-5.34-1.13-6.96,1.1c-1.62,2.23-1.12,5.34,1.1,6.96c2.23,1.62,5.34,1.12,6.96-1.1
			C143.73,118.85,143.23,115.73,141.01,114.12L141.01,114.12z M141.01,114.12"/>
		<path class="st0" d="M138.08,93.23c-12.03,0-22.1,8.57-24.41,19.93h-3.49c-8.24,0-14.95,6.71-14.95,14.95v14.95
			c0,5.5-4.47,9.97-9.97,9.97c-5.5,0-9.97-4.47-9.97-9.97v-24.91c0-2.75-2.23-4.98-4.98-4.98c-2.75,0-4.98,2.23-4.98,4.98v24.91
			c0,10.99,8.94,19.93,19.93,19.93s19.93-8.94,19.93-19.93v-14.95c0-2.75,2.24-4.98,4.98-4.98h3.49
			c2.32,11.36,12.38,19.93,24.41,19.93c13.74,0,24.91-11.18,24.91-24.91S151.82,93.23,138.08,93.23L138.08,93.23z M138.08,133.1
			c-8.24,0-14.95-6.71-14.95-14.95s6.71-14.95,14.95-14.95s14.95,6.71,14.95,14.95S146.32,133.1,138.08,133.1L138.08,133.1z
			 M138.08,133.1"/>
		<path class="st0" d="M105.19,68.32v-27.9c0-2.75-2.23-4.98-4.98-4.98h-9.97c-2.75,0-4.98,2.23-4.98,4.98
			c0,2.75,2.23,4.98,4.98,4.98h4.98v22.92c0,13.74-11.18,24.91-24.91,24.91S45.4,82.06,45.4,68.32V45.4h4.98
			c2.75,0,4.98-2.23,4.98-4.98c0-2.75-2.23-4.98-4.98-4.98h-9.97c-2.75,0-4.98,2.23-4.98,4.98v27.9c0,19.23,15.65,34.88,34.88,34.88
			S105.19,87.55,105.19,68.32L105.19,68.32z M105.19,68.32"/>
	</g>
</g>
<g id="Layer_3">
</g>
<g id="Layer_4">
</g>
<g id="Layer_4_copy">
</g>
</svg>
