<?xml version="1.0" encoding="utf-8"?>
<!-- Generator: Adobe Illustrator 23.0.6, SVG Export Plug-In . SVG Version: 6.00 Build 0)  -->
<svg version="1.1" xmlns="http://www.w3.org/2000/svg" xmlns:xlink="http://www.w3.org/1999/xlink" x="0px" y="0px"
	 viewBox="0 0 198.43 198.43" style="enable-background:new 0 0 198.43 198.43;" xml:space="preserve">
<style type="text/css">
	.st0{fill:#173142;}
</style>
<g id="Layer_2">
	<g>
		<path class="st0" d="M159.29,94.93l-11.7-3.64l-9.29-28.47c-0.74-2.26-2.59-3.76-4.65-3.76h-17.45V41.28
			c0-3.23-2.23-5.85-4.98-5.85H59.35c-2.75,0-4.98,2.62-4.98,5.85c0,3.23,2.23,5.85,4.98,5.85h46.88v93.04H82.38
			c-2.03-6.48-7.35-11.12-13.56-11.12c-7.97,0-14.45,7.61-14.45,16.97c0,9.36,6.48,16.97,14.45,16.97c6.22,0,11.53-4.64,13.56-11.12
			h43.13c2.03,6.48,7.35,11.12,13.56,11.12s11.53-4.64,13.56-11.12h5.37c2.75,0,4.98-2.62,4.98-5.85v-45.44
			C162.99,97.93,161.47,95.61,159.29,94.93L159.29,94.93z M68.82,151.29c-2.47,0-4.48-2.36-4.48-5.27c0-2.9,2.01-5.27,4.48-5.27
			s4.48,2.36,4.48,5.27C73.3,148.93,71.29,151.29,68.82,151.29L68.82,151.29z M116.19,70.76h14.02l8.98,27.5
			c0.57,1.76,1.83,3.08,3.38,3.56l10.46,3.25v35.09h-0.39c-2.03-6.48-7.35-11.12-13.56-11.12s-11.53,4.64-13.56,11.12h-9.32V70.76z
			 M139.07,151.29c-2.47,0-4.48-2.36-4.48-5.27c0-2.9,2.01-5.27,4.48-5.27s4.48,2.36,4.48,5.27
			C143.56,148.93,141.55,151.29,139.07,151.29L139.07,151.29z M139.07,151.29"/>
		<path class="st0" d="M46.73,71.71h12.62c2.75,0,4.98-2.62,4.98-5.85c0-3.23-2.23-5.85-4.98-5.85H46.73
			c-2.75,0-4.98,2.62-4.98,5.85C41.74,69.09,43.98,71.71,46.73,71.71L46.73,71.71z M46.73,71.71"/>
		<path class="st0" d="M58.02,88.1c0-3.23-2.23-5.85-4.98-5.85H40.42c-2.75,0-4.98,2.62-4.98,5.85c0,3.23,2.23,5.85,4.98,5.85h12.62
			C55.79,93.95,58.02,91.33,58.02,88.1L58.02,88.1z M58.02,88.1"/>
		<path class="st0" d="M64.33,110.33c0-3.23-2.23-5.85-4.98-5.85H46.73c-2.75,0-4.98,2.62-4.98,5.85c0,3.23,2.23,5.85,4.98,5.85
			h12.62C62.1,116.18,64.33,113.56,64.33,110.33L64.33,110.33z M64.33,110.33"/>
	</g>
</g>
<g id="Layer_3">
</g>
<g id="Layer_4">
</g>
<g id="Layer_4_copy">
</g>
</svg>
