<?xml version="1.0" encoding="utf-8"?>
<!-- Generator: Adobe Illustrator 23.0.4, SVG Export Plug-In . SVG Version: 6.00 Build 0)  -->
<svg version="1.1" id="katman_1" xmlns="http://www.w3.org/2000/svg" xmlns:xlink="http://www.w3.org/1999/xlink" x="0px" y="0px"
	 viewBox="0 0 70 70" style="enable-background:new 0 0 70 70;" xml:space="preserve">
<style type="text/css">
	.st0{fill:#262653;}
</style>
<g>
	<path class="st0" d="M7,17.4c0,0,0.2-0.3,0.5-0.9c3.2-4.7,8.5-7.5,14.2-7.5h42.8c0,0,4.2,0,3.9-5.1c0,0-0.2-3.9-4.4-3.9H21.7
		C21.7,0,8.3,0.8,7,17.4z"/>
	<path class="st0" d="M44.1,4.2l22.7,57.4c0.5,1.4,0.7,2.9,0.2,4.4c-0.4,1.3-1.3,2.7-3.2,3.4c-1.9,0.8-3.5,0.7-4.8,0.3
		c-1.6-0.5-2.8-1.8-3.6-3.2l-6.6-13.3H26.6l-6.1,13.3c-0.9,2.1-3,3.5-5.2,3.5c-0.9,0-2-0.2-3.2-0.6c-2-0.7-3-2.1-3.4-3.5
		c-0.5-1.6-0.4-3.3,0.3-4.8L31.8,4.2c1-2.4,3.3-4.1,5.9-4.2c0,0,0.1,0,0.1,0l0.1,0C40.6,0,43.1,1.6,44.1,4.2z"/>
</g>
</svg>
