<?xml version="1.0" encoding="utf-8"?>
<!-- Generator: Adobe Illustrator 23.0.6, SVG Export Plug-In . SVG Version: 6.00 Build 0)  -->
<svg version="1.1" xmlns="http://www.w3.org/2000/svg" xmlns:xlink="http://www.w3.org/1999/xlink" x="0px" y="0px"
	 viewBox="0 0 198.43 198.43" style="enable-background:new 0 0 198.43 198.43;" xml:space="preserve">
<style type="text/css">
	.st0{fill:#173142;}
</style>
<g id="Layer_2">
	<g>
		<path class="st0" d="M44.13,49.14v16.19c-4.8,0-8.7,3.35-8.7,7.47v82.71c0,4.12,3.9,7.47,8.7,7.47h24.64c1.6,0,2.9-1.12,2.9-2.49
			c0-1.38-1.3-2.49-2.9-2.49H44.13c-1.6,0-2.9-1.12-2.9-2.49V72.8c0-1.37,1.3-2.49,2.9-2.49h75.38c1.6,0,2.9,1.12,2.9,2.49v82.71
			c0,1.37-1.3,2.49-2.9,2.49H94.86c-1.6,0-2.9,1.12-2.9,2.49c0,1.38,1.3,2.49,2.9,2.49h24.64c4.8,0,8.7-3.35,8.7-7.47v-16.44h23.19
			c6.39,0,11.6-4.47,11.6-9.97V60.35c0-1.38-1.3-2.49-2.9-2.49h-14.5v-8.72c0-7.56-7.15-13.7-15.94-13.7H60.08
			C51.28,35.43,44.13,41.58,44.13,49.14L44.13,49.14z M49.93,49.14c0-4.81,4.55-8.72,10.15-8.72h57.29
			c-2.28,2.37-3.65,5.41-3.65,8.72v16.19H49.93V49.14z M145.6,62.84h11.6v66.27c0,2.75-2.6,4.98-5.8,4.98c-3.2,0-5.8-2.24-5.8-4.98
			V62.84z M139.8,49.14v79.97c0,1.81,0.57,3.52,1.56,4.98H128.2V72.8c0-4.12-3.9-7.47-8.7-7.47V49.14c0-4.81,4.55-8.72,10.15-8.72
			C135.25,40.42,139.8,44.33,139.8,49.14L139.8,49.14z M139.8,49.14"/>
		<path class="st0" d="M55.73,101.7h52.18c1.6,0,2.9-1.12,2.9-2.49V84.26c0-1.38-1.3-2.49-2.9-2.49H55.73c-1.6,0-2.9,1.12-2.9,2.49
			v14.95C52.83,100.59,54.13,101.7,55.73,101.7L55.73,101.7z M58.63,86.76h46.39v9.97H58.63V86.76z M58.63,86.76"/>
		<path class="st0" d="M107.91,146.55c1.6,0,2.9-1.12,2.9-2.49v-29.9c0-1.38-1.3-2.49-2.9-2.49H55.73c-1.6,0-2.9,1.12-2.9,2.49v29.9
			c0,1.38,1.3,2.49,2.9,2.49H107.91z M87.62,126.62h-11.6v-9.97h11.6V126.62z M87.62,131.6v9.97h-11.6v-9.97H87.62z M105.01,141.57
			h-11.6v-24.91h11.6V141.57z M70.22,116.65v9.97h-11.6v-9.97H70.22z M58.63,131.6h11.6v9.97h-11.6V131.6z M58.63,131.6"/>
		<path class="st0" d="M99.21,50.38H64.42c-1.6,0-2.9,1.12-2.9,2.49s1.3,2.49,2.9,2.49h34.79c1.6,0,2.9-1.12,2.9-2.49
			S100.81,50.38,99.21,50.38L99.21,50.38z M99.21,50.38"/>
		<path class="st0" d="M84.72,160.5c0,1.38-1.3,2.49-2.9,2.49c-1.6,0-2.9-1.12-2.9-2.49c0-1.38,1.3-2.49,2.9-2.49
			C83.42,158.01,84.72,159.13,84.72,160.5L84.72,160.5z M84.72,160.5"/>
	</g>
</g>
<g id="Layer_3">
</g>
<g id="Layer_4">
</g>
<g id="Layer_4_copy">
</g>
</svg>
