<?xml version="1.0" encoding="utf-8"?>
<!-- Generator: Adobe Illustrator 23.0.6, SVG Export Plug-In . SVG Version: 6.00 Build 0)  -->
<svg version="1.1" xmlns="http://www.w3.org/2000/svg" xmlns:xlink="http://www.w3.org/1999/xlink" x="0px" y="0px"
	 viewBox="0 0 198.43 198.43" style="enable-background:new 0 0 198.43 198.43;" xml:space="preserve">
<style type="text/css">
	.st0{fill:#173142;}
</style>
<g id="Layer_2">
	<g>
		<path class="st0" d="M75.67,136.56h-14.6c-0.45,0-0.81,0.36-0.81,0.81v11.52c0,2.15,1.74,3.89,3.89,3.89h8.44
			c2.15,0,3.89-1.74,3.89-3.89v-11.52C76.48,136.92,76.11,136.56,75.67,136.56L75.67,136.56z M75.67,136.56"/>
		<path class="st0" d="M135.78,138.49c0-0.55,0.17-1.08,0.49-1.52l0.56-0.77c0.26-0.35,0.22-0.84-0.09-1.14l-1.25-1.25
			c-0.24-0.24-0.59-0.32-0.9-0.21c-1.61,0.53-3.18,0.31-4.43-0.12c-0.18-0.06-0.38-0.06-0.57,0c-1.26,0.42-2.83,0.65-4.43,0.12
			c-0.32-0.11-0.67-0.02-0.9,0.21l-1.25,1.25c-0.31,0.31-0.35,0.79-0.09,1.14l0.56,0.77c0.32,0.44,0.49,0.97,0.49,1.52
			c0,0.59-0.2,1.17-0.58,1.63c-1.1,1.36-1.71,3.06-1.71,4.82c0,2.98,1.87,5.63,4.67,6.63l3.22,1.15c0.19,0.07,0.4,0.07,0.6,0
			l3.22-1.15c2.8-1,4.67-3.66,4.67-6.63c0-1.75-0.6-3.45-1.71-4.82C135.98,139.66,135.78,139.09,135.78,138.49L135.78,138.49z
			 M135.78,138.49"/>
		<g>
			<path class="st0" d="M103.8,51.14c0-0.41,0.13-0.81,0.37-1.14l0.42-0.58c0.19-0.26,0.16-0.63-0.07-0.86l-0.94-0.94
				c-0.18-0.18-0.44-0.24-0.68-0.16c-1.21,0.4-2.39,0.23-3.33-0.09c-0.14-0.05-0.29-0.05-0.43,0c-0.94,0.32-2.12,0.49-3.33,0.09
				c-0.24-0.08-0.5-0.02-0.68,0.16l-0.94,0.94c-0.23,0.23-0.26,0.6-0.07,0.86L94.56,50c0.24,0.33,0.37,0.73,0.37,1.14
				c0,0.45-0.15,0.88-0.43,1.22c-0.83,1.02-1.28,2.3-1.28,3.62c0,2.24,1.41,4.23,3.51,4.99l2.42,0.87c0.14,0.05,0.3,0.05,0.45,0
				l2.42-0.87c2.11-0.75,3.51-2.75,3.51-4.99c0-1.32-0.45-2.59-1.28-3.62C103.96,52.02,103.8,51.59,103.8,51.14L103.8,51.14z
				 M103.8,51.14"/>
			<path class="st0" d="M145.26,116.58l-29.94-8.7v-7.07c5.11-4.48,8.34-11.06,8.34-18.37v-9.18c0.26-0.14,0.49-0.32,0.69-0.53
				l8.73-9.55c0.62-0.68,0.84-1.64,0.57-2.51l-3.92-12.83c-0.21-0.7-0.71-1.27-1.37-1.59L100.24,32.9c-0.71-0.33-1.53-0.33-2.23,0
				L69.9,46.24c-0.66,0.31-1.16,0.89-1.37,1.59l-3.92,12.82c-0.27,0.88-0.05,1.84,0.57,2.52l8.73,9.55
				c0.24,0.27,0.54,0.48,0.86,0.62v9.1c0,7.31,3.23,13.89,8.34,18.37v7.07l-29.94,8.7c-7.06,2.05-11.99,8.62-11.99,15.97v30.62
				c0,1.44,1.16,2.6,2.6,2.6h110.89c1.44,0,2.6-1.16,2.6-2.6v-30.62C157.26,125.2,152.32,118.63,145.26,116.58L145.26,116.58z
				 M120.25,114.73l-10.08,14.94l-7.43-10.2l10.2-6.87L120.25,114.73z M76.98,68.37l-6.96-7.61l3.15-10.31l25.96-12.32l25.96,12.32
				l3.15,10.31l-6.96,7.61H76.98z M79.97,82.44v-7.09c3.26,3.84,8.1,6.16,13.31,6.16h11.69c5.3,0,10.22-2.4,13.48-6.36v7.29
				c0,10.61-8.63,19.24-19.24,19.24S79.97,93.05,79.97,82.44L79.97,82.44z M85.26,112.67l10.11,6.8l-7.43,10.2l-10.03-14.86
				L85.26,112.67z M90.58,160.58H46.37v-28.02c0-5.06,3.39-9.57,8.24-10.98l18.06-5.25l13.03,19.32c0.47,0.7,1.26,1.13,2.11,1.15
				c0.02,0,0.03,0,0.05,0c0.83,0,1.61-0.4,2.1-1.07l3.49-4.78l2.74,2.74L90.58,160.58z M99.06,115.69l-10.75-7.24v-4.14
				c3.29,1.64,6.99,2.57,10.91,2.57c3.92,0,7.62-0.93,10.91-2.57v3.93L99.06,115.69z M152.06,160.58h-44.52l-5.61-26.89l2.74-2.74
				l3.49,4.78c0.49,0.67,1.27,1.07,2.1,1.07c0.02,0,0.03,0,0.05,0c0.85-0.02,1.63-0.44,2.11-1.15l13.08-19.4l18.31,5.32
				c4.85,1.41,8.24,5.92,8.24,10.98V160.58z M152.06,160.58"/>
		</g>
	</g>
</g>
<g id="Layer_3">
</g>
<g id="Layer_4">
</g>
<g id="Layer_4_copy">
</g>
</svg>
