<?xml version="1.0" encoding="utf-8"?>
<!-- Generator: Adobe Illustrator 23.0.4, SVG Export Plug-In . SVG Version: 6.00 Build 0)  -->
<svg version="1.1" id="katman_1" xmlns="http://www.w3.org/2000/svg" xmlns:xlink="http://www.w3.org/1999/xlink" x="0px" y="0px"
	 viewBox="0 0 70 70" style="enable-background:new 0 0 70 70;" xml:space="preserve">
<style type="text/css">
	.st0{fill:#262653;}
</style>
<g>
	<g>
		<g>
			<path class="st0" d="M60.3,44.8c-1.7,0-2.6-0.8-2.7-0.8L46,34.5l0.5-0.7l11.6,9.5c0.1,0,1.5,1.1,4,0.3c1.1-0.4,1.6-1.4,1.4-3.1
				c-0.1-0.8-0.4-1.5-1-2L48.4,26.1h-5.6c-2.9,0.1-4.8-0.5-5.8-1.8c-0.7-0.9-0.7-1.9-0.6-2.5h-4l-0.8,6.6l0,0.1
				c-2.1,3.7-4.3,5.8-6.6,6.3c-1.7,0.4-2.8-0.3-2.8-0.4l-0.2-0.1V23l7-8.2l0.7,0.6l-6.8,7.9v10.5c0.3,0.1,1,0.4,2,0.1
				c1.4-0.3,3.5-1.6,6-5.8l0.8-7.2h5.9l-0.2,0.6c0,0-0.4,1.3,0.4,2.3c0.8,1,2.5,1.5,5.1,1.4l5.9,0l14.3,12.6
				c0.8,0.7,1.2,1.6,1.3,2.6c0.2,2.1-0.5,3.5-2,4C61.6,44.7,60.9,44.8,60.3,44.8z"/>
		</g>
		<g>
			<path class="st0" d="M54.2,30.9L54.2,30c1.5-0.1,2.3-1.9,2.3-1.9l0.1-0.3h5.6v0.9h-5.1C56.8,29.3,55.9,30.7,54.2,30.9z"/>
		</g>
		<g>
			<path class="st0" d="M53.8,49c-1.5,0-2.7-0.6-2.8-0.6l-0.1,0l-9.1-7l0.5-0.7l9.1,6.9c0.3,0.1,2.6,1.1,4.3,0
				c1.8-1.2,1.8-3.9,1.8-3.9l0.9,0c0,0.1,0,3.2-2.2,4.7C55.4,48.9,54.6,49,53.8,49z"/>
		</g>
		<g>
			<path class="st0" d="M47.2,53.8c-1.5,0-2.8-0.5-2.9-0.5l-0.1,0L38,48.2l0.5-0.7l6.1,5c0.5,0.2,3.4,1,4.9-0.3
				c1.6-1.4,1.3-3.9,1.3-3.9l0.9-0.1c0,0.1,0.4,3-1.5,4.7C49.3,53.5,48.2,53.8,47.2,53.8z"/>
		</g>
		<g>
			<path class="st0" d="M41.1,58.6c-0.9,0-1.6-0.3-2.1-0.6l-7.1-4.8l0.5-0.7l7.1,4.8c0.1,0.1,1.9,1.2,3.4-0.3c1.8-1.8,1.1-3.9,1.1-4
				l0.8-0.3c0,0.1,0.9,2.7-1.3,4.8C42.8,58.4,41.9,58.6,41.1,58.6z"/>
		</g>
		<g>
			<path class="st0" d="M28.5,46.7l-0.7-0.4c0.1-0.1,1.5-2.6-1.3-4.9c-2.4-1.9-4.7,0.3-5.4,1c-0.1,0.2-0.4,0.2-0.6,0.1
				c-0.2-0.1-0.3-0.3-0.3-0.5c0.2-2.3-1.6-3.1-1.7-3.1l-0.1,0c-2.6-1.5-4.2-0.1-4.2-0.1L14,39.1l-0.3-0.3c-1.3-1.2-2.7-3.8-2.8-3.9
				l0-0.1c-0.7-2,0.4-4.3,0.8-5.2l-3.1-2.9l0.6-0.6l3.6,3.3l-0.2,0.3c0,0-1.5,2.7-0.9,4.8c0.2,0.3,1.3,2.3,2.4,3.4
				c0.7-0.5,2.5-1.2,4.9,0.2c0.7,0.3,2,1.3,2.1,3.1c1.6-1.4,3.8-2.2,5.9-0.5C30.4,43.5,28.5,46.7,28.5,46.7z"/>
		</g>
		<g>
			<path class="st0" d="M23.1,60.5c-0.9,0-2.1-0.3-3.1-1.3c-1.2-1.3-1.3-4-1.3-4.1l0-0.2l11.6-11.3c1.3-1.1,3-1.3,4.5-0.6
				c1.5,0.7,2.4,2.2,2.3,3.8l0,0.1c0,0.7-0.3,1.3-0.8,1.7L25.2,59.9c-0.3,0.3-0.7,0.5-1.1,0.6C23.9,60.5,23.5,60.5,23.1,60.5z
				 M19.6,55.3c0,0.6,0.2,2.4,1.1,3.4c1,1.1,2.5,1.1,3.3,0.9c0.2,0,0.4-0.2,0.6-0.3l11.2-11.2c0.3-0.3,0.5-0.7,0.5-1.1l0-0.1
				c0-1.3-0.6-2.4-1.8-3c-1.2-0.6-2.5-0.4-3.6,0.4l0,0L19.6,55.3z"/>
		</g>
		<g>
			<path class="st0" d="M18.8,55.6c-0.7,0-2.2-0.2-3.9-1.7c-1.9-1.6-1.6-3.6-1.4-4.5c0.1-0.4,0.3-0.7,0.6-1l6.2-6.5l0.6,0.6L14.7,49
				c-0.2,0.2-0.3,0.4-0.4,0.7c-0.2,0.8-0.3,2.4,1.1,3.6c2.1,1.7,3.6,1.5,3.6,1.4l0.2,0.8C19.2,55.5,19.1,55.6,18.8,55.6z"/>
		</g>
		<g>
			<path class="st0" d="M13.8,49.5c-0.7,0-2.6-0.2-4-1.7c-1.2-1.3-1.4-2.5-1.3-3.3c0-0.5,0.2-0.9,0.6-1.3l4.5-5l0.6,0.6l-4.5,5
				c-0.2,0.2-0.4,0.5-0.4,0.8c0,0.6,0.1,1.6,1.1,2.6c1.4,1.6,3.5,1.4,3.6,1.4l0.1,0.9C14.1,49.5,14,49.5,13.8,49.5z"/>
		</g>
		<g>
			<path class="st0" d="M8.9,42.1c-2.3,0-4.1-1.9-4.1-4.1s1.9-4.1,4.1-4.1S13,35.7,13,38S11.1,42.1,8.9,42.1z M8.9,34.7
				c-1.8,0-3.3,1.5-3.3,3.3c0,1.8,1.5,3.3,3.3,3.3c1.8,0,3.3-1.5,3.3-3.3C12.1,36.2,10.7,34.7,8.9,34.7z"/>
		</g>
		<g>
			<path class="st0" d="M48.6,15.3H25c-1.4,0-2.7-1-2.9-2.4l0.8-0.2c0.2,1,1.1,1.7,2.1,1.7h23.6V15.3z"/>
		</g>
	</g>
	<path class="st0" d="M22.8,13L9.1,26.8c-0.3,0.3-0.8,0.6-1.2,0.6c-0.4,0-0.9,0-1.4-0.5C6,26.5,5.8,26,5.8,25.6c0-0.5,0.1-1,0.5-1.4
		l3-3.6l-2.8-6.4l-4.6-0.1c-0.7,0-1.4-0.4-1.7-1.1C0.1,12.7,0,12.4,0,12c-0.1-0.7,0.2-1.1,0.6-1.4C1,10.2,1.5,10,2,10l19.3-0.5
		c0.8,0,1.6,0.4,1.9,1.2c0,0,0,0,0,0l0,0C23.6,11.5,23.4,12.4,22.8,13z"/>
	<path class="st0" d="M49.1,11.6l19,0.2c0.5,0,0.9,0.1,1.3,0.4c0.3,0.3,0.6,0.7,0.6,1.3c0,0.6-0.2,1.1-0.5,1.4
		c-0.3,0.4-0.8,0.6-1.3,0.6l-4.6,0.3L61,22.2l3.1,3.3c0.5,0.5,0.6,1.3,0.4,1.9c-0.1,0.3-0.3,0.5-0.5,0.9c-0.4,0.5-1,0.6-1.4,0.6
		c-0.5,0-1-0.3-1.3-0.6L47.7,15c-0.6-0.6-0.8-1.4-0.5-2.2c0,0,0,0,0,0l0,0C47.6,12,48.3,11.5,49.1,11.6z"/>
</g>
</svg>
