<?xml version="1.0" encoding="utf-8"?>
<!-- Generator: Adobe Illustrator 23.0.4, SVG Export Plug-In . SVG Version: 6.00 Build 0)  -->
<svg version="1.1" id="katman_1" xmlns="http://www.w3.org/2000/svg" xmlns:xlink="http://www.w3.org/1999/xlink" x="0px" y="0px"
	 viewBox="0 0 70 70" style="enable-background:new 0 0 70 70;" xml:space="preserve">
<style type="text/css">
	.st0{fill:#FFFFFF;}
	.st1{fill:#262753;}
</style>
<g>
	<rect x="17" y="3.5" class="st0" width="27.9" height="41"/>
	<path class="st1" d="M45.3,44.9H16.6V3.1h28.7V44.9z M17.4,44.2h27.2V3.9H17.4V44.2z"/>
	<g>
		<g>
			<rect x="24.6" y="44.5" class="st1" width="2.3" height="2.3"/>
		</g>
	</g>
	<g>
		<g>
			<rect x="23.7" y="46.9" class="st1" width="4" height="13.8"/>
		</g>
	</g>
	<g>
		<g>
			<rect x="22.9" y="15.8" class="st1" width="15.9" height="9.5"/>
		</g>
	</g>
	<g>
		<g>
			<rect x="48.9" y="25.4" class="st1" width="4.4" height="13.2"/>
		</g>
	</g>
	<g>
		<g>
			<path class="st1" d="M35.9,70c-0.6,0-1.2,0-1.9-0.1c-3.1-0.3-5.7-1.8-7.3-4.2c-1-1.6-1.5-3.3-1.4-5.1l0.8,0
				c-0.1,1.6,0.3,3.2,1.3,4.6c1.4,2.2,3.9,3.6,6.7,3.9c8.8,0.9,11.5-4.6,11.6-4.9c0,0,0.5-0.7,1-1.8c-0.2,0.2-0.5,0.5-0.7,0.7
				c-2.5,2.2-5.6,3-9.5,2.3c-3.5-0.6-6.2-2.8-7.1-5.9c-0.5-1.7-0.5-3.5,0.1-5.3c0.6-1.7,1.6-3.2,3-4.4c2.2-1.9,6.7-4.4,12.2-0.5
				c3.4,2.4,4.2,5.4,4.1,8.1c2.2-5.4,2-11.7,1.9-11.8V5.4h0.8v40.3c0,0.4,0.3,8.7-3.2,14.6c-0.7,2.5-1.9,4.3-2,4.4
				C46.4,64.7,43.8,70,35.9,70z M38.8,48.2c-2.4,0-4.4,1.1-5.8,2.4c-1.3,1.1-2.3,2.5-2.8,4.1c-0.6,1.6-0.6,3.3-0.1,4.8
				c0.9,2.8,3.4,4.8,6.5,5.3c3.6,0.6,6.5-0.1,8.8-2.2c0.9-0.8,1.6-1.7,2.2-2.8c0.1-0.3,0.1-0.5,0.2-0.8c0.7-3.8-0.5-6.8-3.6-9
				C42.3,48.7,40.5,48.2,38.8,48.2z"/>
		</g>
	</g>
	<g>
		<path class="st1" d="M33.7,3.6c0-0.1-0.4-2.8-2.8-2.8c-2.4,0-2.8,2.7-2.8,2.8l-0.7-0.1C27.5,2.3,28.4,0,30.9,0
			c2.4,0,3.4,2.3,3.5,3.5L33.7,3.6z"/>
	</g>
	<g>
		<path class="st0" d="M31.7,17.1l2.6,6.5c0.1,0.2,0.1,0.3,0,0.5c0,0.1-0.1,0.3-0.4,0.4c-0.2,0.1-0.4,0.1-0.5,0
			c-0.2-0.1-0.3-0.2-0.4-0.4l-0.7-1.5h-2.5L29,24.2c-0.1,0.2-0.3,0.4-0.6,0.4c-0.1,0-0.2,0-0.4-0.1c-0.2-0.1-0.3-0.2-0.4-0.4
			c-0.1-0.2,0-0.4,0-0.5l2.6-6.4c0.1-0.3,0.4-0.5,0.7-0.5c0,0,0,0,0,0l0,0C31.3,16.6,31.6,16.8,31.7,17.1z"/>
	</g>
</g>
</svg>
