<?xml version="1.0" encoding="utf-8"?>
<!-- Generator: Adobe Illustrator 23.0.6, SVG Export Plug-In . SVG Version: 6.00 Build 0)  -->
<svg version="1.1" xmlns="http://www.w3.org/2000/svg" xmlns:xlink="http://www.w3.org/1999/xlink" x="0px" y="0px"
	 viewBox="0 0 198.43 198.43" style="enable-background:new 0 0 198.43 198.43;" xml:space="preserve">
<style type="text/css">
	.st0{fill:#173142;}
</style>
<g id="Layer_2">
	<path class="st0" d="M166.54,90.18c-0.01-1.08-0.89-1.96-1.97-1.96c-1.09,0-1.97,0.88-1.97,1.97v19.13c0,0.88-0.47,1.65-1.24,2.07
		c-0.78,0.41-1.68,0.36-2.41-0.13l-15.9-10.78V81.5l15.9-10.78c0.73-0.49,1.63-0.54,2.41-0.13c0.78,0.41,1.24,1.18,1.24,2.07v9.2
		c0,1.09,0.88,1.97,1.97,1.97c1.09,0,1.97-0.88,1.97-1.97v-9.2c0-2.33-1.28-4.46-3.34-5.55c-2.06-1.09-4.54-0.96-6.47,0.35
		l-16.26,11.03h-7.28v-9.4c0-6.08-4.94-11.03-11.02-11.03h-2.39L107.9,43.51c-2.82-3.43-6.98-5.4-11.42-5.4h-27.6
		c-1.09,0-1.97,0.88-1.97,1.97c0,1.09,0.88,1.97,1.97,1.97h27.6c3.25,0,6.31,1.44,8.37,3.95l9.83,12.05h-6.7l-6.3-7.65
		c-1.62-1.98-4.02-3.11-6.58-3.11H38.56c-1.45,0-2.68-1.13-2.73-2.52c-0.02-0.72,0.23-1.4,0.73-1.91c0.5-0.52,1.17-0.8,1.88-0.8
		h22.64c1.09,0,1.97-0.88,1.97-1.97c0-1.09-0.88-1.97-1.97-1.97H38.45c-1.8,0-3.47,0.71-4.72,2.01c-1.25,1.29-1.9,2.99-1.84,4.79
		c0.13,3.55,3.06,6.33,6.67,6.33H95.1c1.37,0,2.66,0.61,3.53,1.67l4.23,5.15H49.23c-6.08,0-11.03,4.95-11.03,11.03v43.82
		c0,6.08,4.95,11.03,11.03,11.03h3.77v2.46c0,3.67,2.98,6.65,6.65,6.65h6.2v7.83h-6.98c-3.23,0-5.86,2.63-5.86,5.86v7.73
		c0,3.23,2.63,5.86,5.86,5.86h53.65c3.23,0,5.86-2.63,5.86-5.86v-7.73c0-3.23-2.63-5.86-5.86-5.86h-6.98v-7.83h6.2
		c3.67,0,6.65-2.98,6.65-6.65v-2.46h3.77c6.08,0,11.02-4.95,11.02-11.03v-9.4h7.28l16.26,11.03c1.06,0.72,2.29,1.09,3.53,1.09
		c1.01,0,2.02-0.24,2.95-0.73c2.05-1.09,3.33-3.21,3.34-5.53V90.18z M112.52,144.81c1.06,0,1.92,0.86,1.92,1.92v7.73
		c0,1.06-0.86,1.92-1.92,1.92H58.87c-1.06,0-1.92-0.86-1.92-1.92v-7.73c0-1.06,0.86-1.92,1.92-1.92H112.52z M69.8,140.86v-7.83h31.8
		v7.83H69.8z M129.23,112.9c0,3.9-3.18,7.08-7.08,7.08H75.86c-1.09,0-1.97,0.88-1.97,1.97c0,1.09,0.88,1.97,1.97,1.97h38.57v2.46
		c0,1.49-1.21,2.7-2.7,2.7H59.66c-1.49,0-2.7-1.21-2.7-2.7v-2.46h12.06c1.09,0,1.97-0.88,1.97-1.97c0-1.09-0.88-1.97-1.97-1.97
		H49.23c-3.9,0-7.08-3.18-7.08-7.08V69.08c0-3.9,3.18-7.08,7.08-7.08h72.92c3.9,0,7.08,3.18,7.08,7.08V112.9z M139.1,99.55h-5.92
		V82.43h5.92V99.55z"/>
	<path class="st0" d="M75.34,67.98H54.96c-3.82,0-6.93,3.11-6.93,6.93v13.89c0,3.82,3.11,6.93,6.93,6.93h20.38
		c3.82,0,6.93-3.11,6.93-6.93V74.92C82.28,71.09,79.17,67.98,75.34,67.98z M78.33,88.81c0,1.65-1.34,2.99-2.99,2.99H54.96
		c-1.65,0-2.99-1.34-2.99-2.99V74.92c0-1.65,1.34-2.99,2.99-2.99h20.38c1.65,0,2.99,1.34,2.99,2.99V88.81z"/>
	<path class="st0" d="M116.41,101.73c-3.43,0-6.21,2.79-6.21,6.21c0,3.43,2.79,6.21,6.21,6.21c3.43,0,6.21-2.79,6.21-6.21
		C122.62,104.51,119.84,101.73,116.41,101.73z M116.41,110.21c-1.25,0-2.27-1.02-2.27-2.27c0-1.25,1.02-2.27,2.27-2.27
		c1.25,0,2.27,1.02,2.27,2.27C118.68,109.19,117.66,110.21,116.41,110.21z"/>
	<path class="st0" d="M98.63,101.73c-3.43,0-6.21,2.79-6.21,6.21c0,3.43,2.79,6.21,6.21,6.21c3.43,0,6.21-2.79,6.21-6.21
		C104.85,104.51,102.06,101.73,98.63,101.73z M98.63,110.21c-1.25,0-2.27-1.02-2.27-2.27c0-1.25,1.02-2.27,2.27-2.27
		c1.25,0,2.27,1.02,2.27,2.27C100.9,109.19,99.88,110.21,98.63,110.21z"/>
	<path class="st0" d="M120.65,67.98h-13.76c-1.09,0-1.97,0.88-1.97,1.97c0,1.09,0.88,1.97,1.97,1.97h13.76
		c1.09,0,1.97-0.88,1.97-1.97C122.62,68.87,121.74,67.98,120.65,67.98z"/>
	<path class="st0" d="M120.65,76.75h-13.76c-1.09,0-1.97,0.88-1.97,1.97c0,1.09,0.88,1.97,1.97,1.97h13.76
		c1.09,0,1.97-0.88,1.97-1.97C122.62,77.63,121.74,76.75,120.65,76.75z"/>
	<path class="st0" d="M120.65,85.52h-13.76c-1.09,0-1.97,0.88-1.97,1.97c0,1.09,0.88,1.97,1.97,1.97h13.76
		c1.09,0,1.97-0.88,1.97-1.97C122.62,86.4,121.74,85.52,120.65,85.52z"/>
	<path class="st0" d="M64.6,152.56h2.26c1.09,0,1.97-0.88,1.97-1.97c0-1.09-0.88-1.97-1.97-1.97H64.6c-1.09,0-1.97,0.88-1.97,1.97
		C62.63,151.68,63.51,152.56,64.6,152.56z"/>
	<path class="st0" d="M74.14,152.56h2.26c1.09,0,1.97-0.88,1.97-1.97c0-1.09-0.88-1.97-1.97-1.97h-2.26c-1.09,0-1.97,0.88-1.97,1.97
		C72.16,151.68,73.05,152.56,74.14,152.56z"/>
</g>
<g id="Layer_3">
</g>
<g id="Layer_4">
</g>
<g id="Layer_4_copy">
</g>
</svg>
