<?xml version="1.0" encoding="utf-8"?>
<!-- Generator: Adobe Illustrator 23.0.6, SVG Export Plug-In . SVG Version: 6.00 Build 0)  -->
<svg version="1.1" xmlns="http://www.w3.org/2000/svg" xmlns:xlink="http://www.w3.org/1999/xlink" x="0px" y="0px"
	 viewBox="0 0 198.43 198.43" style="enable-background:new 0 0 198.43 198.43;" xml:space="preserve">
<style type="text/css">
	.st0{fill:#173142;}
</style>
<g id="Layer_2">
	<g>
		<path class="st0" d="M160.5,55.36h-18.93v-4.98h7.47c1.38,0,2.49-1.12,2.49-2.49v-9.97c0-1.38-1.11-2.49-2.49-2.49h-19.93
			c-1.38,0-2.49,1.12-2.49,2.49v9.97c0,1.38,1.12,2.49,2.49,2.49h7.47v4.98H101.7v-4.98h7.47c1.38,0,2.49-1.12,2.49-2.49v-9.97
			c0-1.38-1.12-2.49-2.49-2.49H89.25c-1.38,0-2.49,1.12-2.49,2.49v9.97c0,1.38,1.12,2.49,2.49,2.49h7.47v4.98H61.84v-4.98h7.47
			c1.38,0,2.49-1.12,2.49-2.49v-9.97c0-1.38-1.12-2.49-2.49-2.49H49.38c-1.38,0-2.49,1.12-2.49,2.49v9.97
			c0,1.38,1.11,2.49,2.49,2.49h7.47v4.98H37.92c-1.38,0-2.49,1.12-2.49,2.49v69.76c0,1.38,1.12,2.49,2.49,2.49h42.35v2.49
			c0,1.38,1.12,2.49,2.49,2.49h8.97v22.92H74.3c-3.3,0.13-3.3,4.85,0,4.98h49.83c3.31-0.13,3.3-4.85,0-4.98h-17.44v-22.92h8.97
			c1.38,0,2.49-1.11,2.49-2.49v-2.49h42.35c1.38,0,2.49-1.12,2.49-2.49V57.86C162.99,56.48,161.88,55.36,160.5,55.36L160.5,55.36z
			 M131.6,40.42h14.95v4.98H131.6V40.42z M91.74,40.42h14.95v4.98H91.74V40.42z M51.88,40.42h14.95v4.98H51.88V40.42z M101.7,158.01
			h-4.98v-22.92h4.98V158.01z M113.16,130.11h-27.9v-4.98h27.9V130.11z M158.01,125.12h-39.86v-2.49c0-1.38-1.12-2.49-2.49-2.49
			H82.77c-1.38,0-2.49,1.12-2.49,2.49v2.49H40.42V60.35h117.59V125.12z M158.01,125.12"/>
		<path class="st0" d="M89.47,107.68c1.05,0,2.11-0.27,3.08-0.83l19.46-11.22c0.96-0.54,1.76-1.33,2.31-2.28
			c0.83-1.43,1.05-3.09,0.62-4.69c-0.43-1.59-1.45-2.93-2.88-3.76L92.84,73.81c-4.04-2.69-9.62,0.33-9.58,5.19v22.51
			c0,1.08,0.29,2.15,0.84,3.1C85.26,106.58,87.34,107.68,89.47,107.68L89.47,107.68z M88.25,78.99c-0.02-0.97,1.15-1.54,1.89-1
			c0.05,0.03,0.1,0.06,0.15,0.09l19.29,11.13c0.37,0.22,0.51,0.55,0.56,0.73c0.05,0.18,0.09,0.53-0.12,0.91
			c-0.11,0.19-0.26,0.34-0.45,0.44c-0.01,0.01-0.02,0.01-0.03,0.02l-19.47,11.23c-0.57,0.33-1.31,0.14-1.64-0.44
			c-0.11-0.19-0.17-0.4-0.17-0.6V78.99z M88.25,78.99"/>
	</g>
</g>
<g id="Layer_3">
</g>
<g id="Layer_4">
</g>
<g id="Layer_4_copy">
</g>
</svg>
