<?xml version="1.0" encoding="utf-8"?>
<!-- Generator: Adobe Illustrator 23.0.6, SVG Export Plug-In . SVG Version: 6.00 Build 0)  -->
<svg version="1.1" xmlns="http://www.w3.org/2000/svg" xmlns:xlink="http://www.w3.org/1999/xlink" x="0px" y="0px"
	 viewBox="0 0 198.43 198.43" style="enable-background:new 0 0 198.43 198.43;" xml:space="preserve">
<style type="text/css">
	.st0{fill:#173142;}
</style>
<g id="Layer_2">
	<g>
		<path class="st0" d="M160.5,100.71H92.01c0.28-1.6,0.42-3.24,0.42-4.91c0-8.63-3.93-16.78-10.59-22.17
			c0.63-1.89,0.94-3.87,0.94-5.89c0-10.4-8.46-18.85-18.85-18.85s-18.85,8.46-18.85,18.85c0,2.02,0.32,4,0.94,5.89
			c-6.67,5.39-10.59,13.54-10.59,22.17c0,14.87,11.46,27.12,26.01,28.39v10.71l-2.89-2.89c-0.97-0.97-2.55-0.97-3.52,0
			c-0.97,0.97-0.97,2.55,0,3.52l6.41,6.41v18.56c0,1.38,1.12,2.49,2.49,2.49c1.38,0,2.49-1.12,2.49-2.49v-36.31
			c8.12-0.71,15.28-4.83,20.02-10.93v9.87c0,1.38,1.11,2.49,2.49,2.49h12.46v6.98H88.93c-1.38,0-2.49,1.12-2.49,2.49v11.96
			c0,1.38,1.11,2.49,2.49,2.49h7.47v10.96c0,1.38,1.11,2.49,2.49,2.49h9.97c1.38,0,2.49-1.12,2.49-2.49v-10.96h26.72v10.96
			c0,1.38,1.12,2.49,2.49,2.49h9.97c1.38,0,2.49-1.12,2.49-2.49v-10.96h7.47c1.38,0,2.49-1.12,2.49-2.49v-11.96
			c0-1.38-1.12-2.49-2.49-2.49h-12.46v-6.98h12.46c1.38,0,2.49-1.12,2.49-2.49V103.2C162.99,101.82,161.88,100.71,160.5,100.71
			L160.5,100.71z M158.01,110.67H91.42v-4.98h66.58V110.67z M66.42,119.18v-7.76l10.92-10.92c0.97-0.97,0.97-2.55,0-3.52
			c-0.97-0.97-2.55-0.97-3.52,0l-7.39,7.39V86.59c0-1.38-1.11-2.49-2.49-2.49c-1.38,0-2.49,1.12-2.49,2.49v9.98l-7.39-7.39
			c-0.97-0.97-2.55-0.97-3.52,0c-0.97,0.97-0.97,2.55,0,3.52l10.92,10.92v15.57c-11.8-1.25-21.02-11.26-21.02-23.39
			c0-7.67,3.75-14.87,10.04-19.27c0.98-0.69,1.33-1.98,0.84-3.07c-0.82-1.81-1.23-3.73-1.23-5.72c0-7.65,6.22-13.87,13.87-13.87
			c7.65,0,13.87,6.22,13.87,13.87c0,1.99-0.42,3.91-1.23,5.72c-0.49,1.09-0.14,2.38,0.84,3.07c6.29,4.4,10.04,11.61,10.04,19.27
			C87.45,107.92,78.23,117.93,66.42,119.18L66.42,119.18z M106.37,158.01h-4.98v-8.47h4.98V158.01z M148.04,158.01h-4.98v-8.47h4.98
			V158.01z M158.01,144.56H91.42v-6.98h66.58V144.56z M143.06,132.6h-36.69v-6.98h36.69V132.6z M158.01,120.64H91.42v-4.98h66.58
			V120.64z M158.01,120.64"/>
		<path class="st0" d="M129.1,72.11h24.03c5.44,0,9.86-4.42,9.86-9.86c0-3.71-2.08-7.06-5.3-8.74c-1.79-6.19-7.49-10.55-14.04-10.55
			c-0.25,0-0.51,0.01-0.76,0.02c-1.89-4.48-6.36-7.56-11.35-7.56c-6.78,0-12.3,5.52-12.3,12.3c0,2.85,0.98,5.56,2.73,7.73
			c-1.72,1.81-2.73,4.24-2.73,6.8C119.25,67.69,123.67,72.11,129.1,72.11L129.1,72.11z M153.11,55.77c0.17,0.87,0.79,1.59,1.63,1.89
			c1.96,0.68,3.27,2.53,3.27,4.6c0,2.69-2.19,4.88-4.88,4.88H129.1c-2.69,0-4.87-2.19-4.87-4.88c0-1.89,1.06-3.57,2.76-4.39
			c0.77-0.37,1.29-1.11,1.39-1.95c0.06-0.5,0.26-1.23,0.91-1.87c0.6-0.6,1.42-0.93,2.25-0.93c0.37,0,0.74,0.06,1.1,0.2
			c1.09,0.4,2.31,0,2.95-0.98c1.79-2.74,4.81-4.38,8.07-4.38C148.27,47.95,152.25,51.24,153.11,55.77L153.11,55.77z M131.54,40.42
			c2.67,0,5.09,1.49,6.37,3.73c-2.09,0.89-3.96,2.26-5.44,4.04c-2.44-0.28-4.93,0.55-6.71,2.33c-0.23,0.23-0.44,0.47-0.64,0.72
			c-0.58-1.06-0.89-2.26-0.89-3.5C124.23,43.7,127.51,40.42,131.54,40.42L131.54,40.42z M131.54,40.42"/>
	</g>
</g>
<g id="Layer_3">
</g>
<g id="Layer_4">
</g>
<g id="Layer_4_copy">
</g>
</svg>
