<?xml version="1.0" encoding="utf-8"?>
<!-- Generator: Adobe Illustrator 23.0.6, SVG Export Plug-In . SVG Version: 6.00 Build 0)  -->
<svg version="1.1" xmlns="http://www.w3.org/2000/svg" xmlns:xlink="http://www.w3.org/1999/xlink" x="0px" y="0px"
	 viewBox="0 0 198.43 198.43" style="enable-background:new 0 0 198.43 198.43;" xml:space="preserve">
<style type="text/css">
	.st0{fill:#173142;}
</style>
<g id="Layer_2">
	<g>
		<path class="st0" d="M87.05,100.94c-0.46-0.46-1.11-0.73-1.76-0.73c-0.66,0-1.3,0.27-1.76,0.73c-0.46,0.46-0.73,1.11-0.73,1.76
			c0,0.66,0.27,1.3,0.73,1.76c0.46,0.46,1.11,0.73,1.76,0.73c0.65,0,1.3-0.27,1.76-0.73c0.46-0.46,0.73-1.11,0.73-1.76
			C87.78,102.04,87.51,101.4,87.05,100.94L87.05,100.94z M87.05,100.94"/>
		<path class="st0" d="M150.54,35.43H81.05c-1.38,0-2.49,1.12-2.49,2.49s1.12,2.49,2.49,2.49h69.48c4.12,0,7.47,3.35,7.47,7.47
			v44.84c0,4.12-3.35,7.47-7.47,7.47H95.31c-1.38,0-2.49,1.12-2.49,2.49c0,1.38,1.12,2.49,2.49,2.49h55.23
			c6.87,0,12.46-5.59,12.46-12.46V47.89C162.99,41.02,157.4,35.43,150.54,35.43L150.54,35.43z M150.54,35.43"/>
		<path class="st0" d="M150.54,45.4H80.78c-1.38,0-2.49,1.12-2.49,2.49v4.73c0,1.38,1.11,2.49,2.49,2.49c1.38,0,2.49-1.12,2.49-2.49
			v-2.24h64.78v39.86H106.8l10.72-10.72l5.01,5.01c0.97,0.97,2.55,0.97,3.52,0l11.12-11.11c0.05,1.33,1.14,2.39,2.49,2.39
			c1.38,0,2.49-1.12,2.49-2.49v-6.01c0-1.38-1.12-2.49-2.49-2.49h-6.01c-1.38,0-2.49,1.12-2.49,2.49s1.12,2.49,2.49,2.49h0.09
			l-9.44,9.45l-5.01-5.01c-0.97-0.97-2.55-0.97-3.52,0l-16.01,16H86.17c-1.38,0-2.49,1.12-2.49,2.49s1.12,2.49,2.49,2.49h64.36
			c1.38,0,2.49-1.12,2.49-2.49V47.89C153.03,46.51,151.91,45.4,150.54,45.4L150.54,45.4z M150.54,45.4"/>
		<path class="st0" d="M98.25,59.68H70.67c1.93-2.35,3.09-5.35,3.09-8.62v-2.02c0-7.5-6.1-13.61-13.61-13.61s-13.61,6.1-13.61,13.61
			v2.02c0,3.27,1.16,6.27,3.09,8.62h-0.57c-7.52,0-13.63,6.12-13.63,13.63v25.91c0,6.72,4.9,12.32,11.31,13.43v47.84
			c0,1.38,1.12,2.49,2.49,2.49h23.92c1.38,0,2.49-1.12,2.49-2.49v-24.15c0-1.38-1.11-2.49-2.49-2.49c-1.38,0-2.49,1.12-2.49,2.49
			v21.66h-6.98v-42.03c0-1.38-1.12-2.49-2.49-2.49s-2.49,1.12-2.49,2.49v42.03h-6.98v-52.93c0,0,0.01,0,0.01,0h18.91
			c0,0,0.01,0,0.01,0v12c0,1.38,1.12,2.49,2.49,2.49c1.38,0,2.49-1.12,2.49-2.49V75.81h33.75c1.38,0,2.49-1.12,2.49-2.49
			C111.88,65.8,105.76,59.68,98.25,59.68L98.25,59.68z M51.53,49.04c0-4.75,3.87-8.62,8.62-8.62c4.75,0,8.62,3.87,8.62,8.62v2.02
			c0,4.76-3.87,8.62-8.62,8.62c-4.76,0-8.62-3.87-8.62-8.62V49.04z M73.32,70.82c-0.03,0-0.05,0-0.08,0c-0.03,0-0.05,0-0.08,0
			c-1.38,0-2.49,1.12-2.49,2.49v26.78c0,0-0.01,0-0.01,0H51.74c0,0-0.01,0-0.01,0V73.32c0-1.38-1.12-2.49-2.49-2.49
			c-1.38,0-2.49,1.12-2.49,2.49v34.25c-3.64-1.02-6.33-4.37-6.33-8.33V73.32c0-4.77,3.88-8.65,8.65-8.65h8.6v5.65
			c0,1.38,1.12,2.49,2.49,2.49s2.49-1.12,2.49-2.49v-5.65h35.6c3.9,0,7.21,2.6,8.28,6.16H73.32z M73.32,70.82"/>
		<path class="st0" d="M74.91,124.79c-0.46-0.46-1.11-0.73-1.76-0.73c-0.66,0-1.3,0.27-1.76,0.73c-0.46,0.46-0.73,1.11-0.73,1.76
			c0,0.66,0.27,1.3,0.73,1.76c0.46,0.46,1.11,0.73,1.76,0.73c0.65,0,1.3-0.27,1.76-0.73c0.46-0.46,0.73-1.11,0.73-1.76
			C75.64,125.89,75.38,125.25,74.91,124.79L74.91,124.79z M74.91,124.79"/>
	</g>
</g>
<g id="Layer_3">
</g>
<g id="Layer_4">
</g>
<g id="Layer_4_copy">
</g>
</svg>
