<?xml version="1.0" encoding="utf-8"?>
<!-- Generator: Adobe Illustrator 23.0.4, SVG Export Plug-In . SVG Version: 6.00 Build 0)  -->
<svg version="1.1" id="katman_1" xmlns="http://www.w3.org/2000/svg" xmlns:xlink="http://www.w3.org/1999/xlink" x="0px" y="0px"
	 viewBox="0 0 70 70" style="enable-background:new 0 0 70 70;" xml:space="preserve">
<style type="text/css">
	.st0{fill:#262753;}
	.st1{fill:#FFFFFF;}
</style>
<g>
	<g>
		<g>
			<g>
				<path class="st0" d="M33.4,47.6c0,0,9-6.1,11.9-11.5c0,0,4.9-6.6,0.4-11.6c-2.9-3.2-6.1-2.7-8.1-1.8c-1.4,0.6-2.6,1.6-3.3,2.9
					c-0.3,0.5-0.6,1.2-0.8,2c0,0-0.1-1.9-2.4-3.7c0,0-3.4-3.4-8.4-0.7c0,0-4.6,2.4-3.2,8.6S27.7,43.5,33.4,47.6z"/>
			</g>
		</g>
		<g>
			<polygon class="st0" points="13,48.3 12.9,47.9 7.8,23.9 6.8,36.7 6.4,36.7 0,36.7 0,35.8 6,35.8 7.2,20.5 8,20.4 8.1,20.8 
				13.2,45.2 15.7,26 16.4,25.9 16.6,26.3 20.4,41.1 23.2,35.6 23.5,35.6 41.8,35.6 41.9,35.7 46.4,39.6 50.6,28.4 51.3,28.5 
				51.4,28.8 54.9,42.7 59,25 59.7,25 59.9,25.3 63.1,34.8 70,34.8 70,35.7 62.5,35.7 62.3,35.4 59.5,27 55.3,45 54.5,45 54.4,44.6 
				50.9,30.4 47,40.7 46.5,40.8 46.3,40.7 41.4,36.5 23.7,36.5 20.5,42.8 19.8,42.7 19.8,42.4 16.2,28.7 13.8,48.3 			"/>
		</g>
	</g>
	<path class="st1" d="M44,24l2.4,6.2c0.1,0.1,0.1,0.3,0,0.5c0,0.1-0.1,0.3-0.3,0.4c-0.2,0.1-0.4,0.1-0.5,0c-0.2-0.1-0.3-0.2-0.4-0.3
		l-0.7-1.4h-2.4l-0.7,1.4c-0.1,0.2-0.3,0.4-0.6,0.4c-0.1,0-0.2,0-0.3-0.1c-0.2-0.1-0.3-0.2-0.4-0.4c-0.1-0.2,0-0.4,0-0.5l2.5-6.1
		c0.1-0.3,0.4-0.4,0.6-0.4c0,0,0,0,0,0l0,0C43.7,23.5,43.9,23.7,44,24z"/>
</g>
</svg>
