<?xml version="1.0" encoding="utf-8"?>
<!-- Generator: Adobe Illustrator 23.0.6, SVG Export Plug-In . SVG Version: 6.00 Build 0)  -->
<svg version="1.1" xmlns="http://www.w3.org/2000/svg" xmlns:xlink="http://www.w3.org/1999/xlink" x="0px" y="0px"
	 viewBox="0 0 198.43 198.43" style="enable-background:new 0 0 198.43 198.43;" xml:space="preserve">
<style type="text/css">
	.st0{fill:#173142;}
</style>
<g id="Layer_2">
	<g>
		<path class="st0" d="M153.38,77.18v28.25l-30.93,33.69l-5.51-5.06l17.74-19.32c-1.99-1.14-4.25-1.75-6.61-1.75
			c-3.52,0-6.82,1.35-9.33,3.81l-15.79,18.45v27.74h24.17v-8.68l35.88-38.59V64.36C157.44,65.98,153.38,71.12,153.38,77.18
			L153.38,77.18z M153.38,77.18"/>
		<path class="st0" d="M136.29,107.2c1.23,0.53,2.41,1.18,3.53,1.94l6.08-6.63V81.27c-5.55,1.62-9.61,6.75-9.61,12.82V107.2z
			 M136.29,107.2"/>
		<path class="st0" d="M52.52,81.27v21.25l6.08,6.63c1.11-0.77,2.3-1.42,3.53-1.94V94.08C62.14,88.02,58.07,82.89,52.52,81.27
			L52.52,81.27z M52.52,81.27"/>
		<path class="st0" d="M95.48,162.99v-27.74L79.69,116.8c-2.51-2.46-5.81-3.81-9.33-3.81c-2.36,0-4.62,0.61-6.61,1.75l17.74,19.32
			l-5.51,5.06l-30.93-33.69V77.18c0-6.07-4.07-11.2-9.62-12.82v51.36l35.88,38.59v8.68H95.48z M95.48,162.99"/>
		<path class="st0" d="M99.21,35.43c-13.08,0-23.72,10.64-23.72,23.72c0,13.08,10.64,23.72,23.72,23.72
			c13.08,0,23.72-10.64,23.72-23.72C122.93,46.07,112.29,35.43,99.21,35.43L99.21,35.43z M97.23,69.65L85.48,57.9l5.28-5.29
			l6.47,6.47l10.43-10.43l5.28,5.28L97.23,69.65z M97.23,69.65"/>
	</g>
</g>
<g id="Layer_3">
</g>
<g id="Layer_4">
</g>
<g id="Layer_4_copy">
</g>
</svg>
