<?xml version="1.0" encoding="utf-8"?>
<!-- Generator: Adobe Illustrator 23.0.6, SVG Export Plug-In . SVG Version: 6.00 Build 0)  -->
<svg version="1.1" xmlns="http://www.w3.org/2000/svg" xmlns:xlink="http://www.w3.org/1999/xlink" x="0px" y="0px"
	 viewBox="0 0 198.43 198.43" style="enable-background:new 0 0 198.43 198.43;" xml:space="preserve">
<style type="text/css">
	.st0{fill:none;}
	.st1{fill:#173142;}
</style>
<g id="Layer_2">
	<g>
		<path class="st0" d="M101.29,111.37c-0.07,0.72,0.2,1.4,0.74,1.87c0.55,0.47,1.26,0.64,1.96,0.47l8.85-2.22
			c0.89-0.22,1.55-0.98,1.64-1.9l1.22-11.98l-13.36,3.35L101.29,111.37z"/>
		<path class="st0" d="M149.68,81.35c0.97-1.65,1.22-3.57,0.72-5.42c0,0,0,0,0,0c-0.98-3.61-4.97-5.88-8.71-4.94l-26.06,6.54
			c-1.1,0.28-2.25-0.17-2.89-1.11L98.65,55.51c-0.51-0.76-1.45-1.12-2.34-0.9l-8.85,2.22c-0.7,0.17-1.25,0.66-1.51,1.33
			c-0.26,0.67-0.18,1.4,0.23,2L98.3,78.15c0.49,0.73,0.59,1.65,0.28,2.47c-0.31,0.82-1.01,1.43-1.86,1.65l-34.26,8.59
			c-0.02,0-0.03,0.01-0.05,0.01c-1.51,0.35-2.99-0.55-3.39-2.04c0-0.01-0.01-0.03-0.01-0.04l-0.92-3.68
			c-0.63-2.5-2.19-4.6-4.39-5.92c-1.52-0.91-3.21-1.37-4.93-1.37c-0.79,0-1.58,0.1-2.36,0.29l5.43,21.67
			c0.52,2.09,1.82,3.84,3.67,4.94c1.84,1.1,4.01,1.42,6.09,0.9l83.71-20.99C147.16,84.16,148.71,83,149.68,81.35z"/>
		<path class="st1" d="M98.5,117.31c1.39,1.2,3.16,1.84,4.96,1.84c0.61,0,1.23-0.07,1.84-0.23l8.85-2.22
			c3.08-0.77,5.36-3.41,5.69-6.57l1.42-13.93l25.35-6.36c3.27-0.82,6.01-2.87,7.71-5.78c1.7-2.91,2.15-6.3,1.26-9.56
			c-0.85-3.14-2.93-5.78-5.86-7.44c-2.88-1.63-6.21-2.1-9.36-1.31l-24.22,6.08L103.11,52.5c-1.77-2.63-5.04-3.88-8.11-3.11
			l-8.85,2.22c-2.39,0.6-4.34,2.33-5.22,4.63c-0.88,2.3-0.58,4.89,0.79,6.94l9.97,14.8l-28.07,7.04l-0.3-1.22
			c-0.98-3.89-3.41-7.17-6.85-9.23c-3.44-2.06-7.48-2.66-11.37-1.68c-2.4,0.6-4.07,2.75-4.07,5.22c0,0.43,0.05,0.87,0.16,1.31
			l5.44,21.66c0.87,3.48,3.05,6.41,6.13,8.26c2.11,1.27,4.48,1.91,6.87,1.91c1.1,0,2.2-0.13,3.29-0.41l33.89-8.5l-0.86,8.48
			C95.68,113.27,96.64,115.7,98.5,117.31z M114.48,109.59c-0.09,0.91-0.75,1.67-1.64,1.9l-8.85,2.22c-0.7,0.18-1.41,0.01-1.96-0.47
			c-0.55-0.47-0.82-1.15-0.74-1.87l1.06-10.41l13.36-3.35L114.48,109.59z M61.6,105.62c-2.08,0.52-4.25,0.2-6.09-0.9
			c-1.84-1.1-3.15-2.86-3.67-4.94L46.4,78.11c0.78-0.2,1.57-0.29,2.36-0.29c1.72,0,3.42,0.47,4.93,1.37
			c2.21,1.32,3.77,3.42,4.39,5.92l0.92,3.68c0,0.01,0.01,0.03,0.01,0.04c0.4,1.49,1.89,2.39,3.39,2.04c0.02,0,0.03-0.01,0.05-0.01
			l34.26-8.59c0.85-0.21,1.54-0.83,1.86-1.65c0.31-0.82,0.21-1.74-0.28-2.47L86.18,60.17c-0.4-0.6-0.49-1.33-0.23-2
			c0.26-0.67,0.81-1.16,1.51-1.33l8.85-2.22c0.89-0.22,1.83,0.14,2.34,0.9l14.09,20.91c0.63,0.94,1.79,1.38,2.89,1.11l26.06-6.54
			c3.74-0.94,7.72,1.32,8.71,4.94c0,0,0,0,0,0c0.5,1.85,0.25,3.77-0.72,5.42c-0.97,1.65-2.52,2.81-4.37,3.28L61.6,105.62z"/>
		<path class="st1" d="M162.62,133.11H35.81c-2.97,0-5.38,2.42-5.38,5.39v5.38c0,2.97,2.42,5.39,5.38,5.39h77.12
			c1.49,0,2.69-1.21,2.69-2.69c0-1.49-1.2-2.69-2.69-2.69H35.81v-5.38h126.81v5.38h-25.55c-1.49,0-2.69,1.2-2.69,2.69
			c0,1.49,1.2,2.69,2.69,2.69h25.55c2.97,0,5.38-2.42,5.38-5.39v-5.38C168,135.52,165.58,133.11,162.62,133.11z"/>
		<path class="st1" d="M127.69,146.57c0-1.49-1.21-2.69-2.69-2.69c-1.49,0-2.69,1.2-2.69,2.69c0,1.49,1.2,2.69,2.69,2.69
			C126.48,149.26,127.69,148.05,127.69,146.57z"/>
	</g>
</g>
<g id="Layer_3">
</g>
<g id="Layer_4">
</g>
<g id="Layer_4_copy">
</g>
</svg>
