<?xml version="1.0" encoding="utf-8"?>
<!-- Generator: Adobe Illustrator 23.0.6, SVG Export Plug-In . SVG Version: 6.00 Build 0)  -->
<svg version="1.1" xmlns="http://www.w3.org/2000/svg" xmlns:xlink="http://www.w3.org/1999/xlink" x="0px" y="0px"
	 viewBox="0 0 198.43 198.43" style="enable-background:new 0 0 198.43 198.43;" xml:space="preserve">
<style type="text/css">
	.st0{fill:#173142;}
</style>
<g id="Layer_2">
	<g>
		<path class="st0" d="M108.32,44.54c0-5.02-4.09-9.11-9.11-9.11c-5.02,0-9.11,4.09-9.11,9.11s4.09,9.11,9.11,9.11
			C104.24,53.66,108.32,49.57,108.32,44.54z"/>
		<path class="st0" d="M91.92,79.17h14.58c5.02,0,9.11-4.09,9.11-9.11c0-9.04-7.36-16.4-16.4-16.4s-16.4,7.36-16.4,16.4
			C82.81,75.08,86.9,79.17,91.92,79.17z"/>
		<path class="st0" d="M155.7,128.37c0-5.02-4.09-9.11-9.11-9.11s-9.11,4.09-9.11,9.11c0,5.02,4.09,9.11,9.11,9.11
			S155.7,133.39,155.7,128.37z"/>
		<path class="st0" d="M146.59,137.48c-9.04,0-16.4,7.36-16.4,16.4c0,5.02,4.09,9.11,9.11,9.11h14.58c5.02,0,9.11-4.09,9.11-9.11
			C162.99,144.84,155.64,137.48,146.59,137.48z"/>
		<path class="st0" d="M60.94,126.55c0-5.02-4.09-9.11-9.11-9.11s-9.11,4.09-9.11,9.11s4.09,9.11,9.11,9.11
			S60.94,131.57,60.94,126.55z"/>
		<path class="st0" d="M51.83,135.66c-9.04,0-16.4,7.36-16.4,16.4c0,5.02,4.09,9.11,9.11,9.11h14.58c5.02,0,9.11-4.09,9.11-9.11
			C68.23,143.02,60.88,135.66,51.83,135.66z"/>
		<path class="st0" d="M127.47,134.38c-0.6-1.9-0.92-3.91-0.92-6.01c0-0.24,0.01-0.48,0.02-0.71l-21.89-14.93V90.1H93.75v22.62
			l-21.9,14.94c-0.09,1.69-0.4,3.33-0.89,4.89c1.77,1.73,3.29,3.7,4.54,5.86l23.72-16.18l24.51,16.72
			C124.81,137.29,126.06,135.76,127.47,134.38z"/>
	</g>
</g>
<g id="Layer_3">
</g>
<g id="Layer_4">
</g>
<g id="Layer_4_copy">
</g>
</svg>
