<?xml version="1.0" encoding="utf-8"?>
<!-- Generator: Adobe Illustrator 23.0.6, SVG Export Plug-In . SVG Version: 6.00 Build 0)  -->
<svg version="1.1" id="Layer_3" xmlns="http://www.w3.org/2000/svg" xmlns:xlink="http://www.w3.org/1999/xlink" x="0px" y="0px"
	 viewBox="0 0 198.43 198.43" style="enable-background:new 0 0 198.43 198.43;" xml:space="preserve">
<style type="text/css">
	.st0{fill:#173142;}
</style>
<g>
	<path class="st0" d="M168.29,86.38c-6.11-5.78-11.78-1.56-11.78-1.56l-18.44,14.89c0,0-2.11,0.87-1.44,4.21s4.22,8.68-2.44,15.68
		s-16.78,3.11-16.78,3.11s-11.22-1.56-13.11-2.11c-1.89-0.56-10.78-2.89-10.78-2.89l0.78-0.67l25.33,4.89c0,0,9,1.11,11.44-3.78
		c2.44-4.89-1.56-8.22-1.56-8.22s-10.11-4.67-28.44-9.56c-18.33-4.89-26.44-6.11-26.44-6.11s-4.78-1.44-9.56,2.89
		c-4.78,4.33-21.33,21.44-21.33,21.44l22.78,22.22c0,0,3.44-1.89,7.11-1.33s42.11,6.56,42.11,6.56s4.22,0.89,8.11-2.22
		c3.89-3.11,45.22-45.33,45.22-45.33S174.4,92.15,168.29,86.38z"/>
	<path class="st0" d="M39.05,116.38c-0.76-0.72-1.97-0.7-2.69,0.06l-8.63,9.04c-0.72,0.76-0.7,1.97,0.06,2.69l28.76,27.46
		c0.76,0.72,1.97,0.7,2.69-0.06l8.63-9.04c0.72-0.76,0.7-1.97-0.06-2.69L39.05,116.38z M58.81,149.33c-1.75,0-3.17-1.42-3.17-3.17
		s1.42-3.17,3.17-3.17s3.17,1.42,3.17,3.17S60.56,149.33,58.81,149.33z"/>
	<path class="st0" d="M92.29,58.49c0,0-4,6.56,3.67,10.11c0,0,2.22,3.11,2.22,5c0,1.89-0.56,6.22-3.56,8.33
		c-3,2.11-5.44,1.02-6.33,1.4c-0.89,0.38-3.33,1.38-4.78,3.71c-1.44,2.33-1.2,4.22-1.2,4.22h47.54c0,0,0.89-4.44-5-7.44
		c-5.22-0.49-9.44-0.89-10.33-10.44l2.44-5c0,0,4.11-0.67,4.89-5.22c0.04-3.06-1.33-4.67-1.33-4.67s2.64-16.16-14.64-16.22
		C91.18,42.21,92.29,58.49,92.29,58.49z"/>
	<path class="st0" d="M90.12,82.65c3.67-0.11,5.72-4.22,5.72-4.22c-4.28-3.06-2.81-8.91-2.81-8.91h1.96l-0.62-1.08
		c0,0-2.08-0.79-3.75-2.9c-1.96-3.28,0.22-7.17,0.22-7.17c-0.88-6.33,3.22-11.22,3.22-11.22s-5-5.83-11.06-4.11
		c-7.64,2.17-10.5,9.06-11,10.89c-0.5,1.83,0.22,5.56-0.28,8.56s-3.78,7.06-3.78,7.06h9.11c0,0,1.45,4.09-1.22,7.28
		c-3.44,4.11-8.83,3.5-10.72,5.33c-1.94,1-2.28,4.94-2.28,4.94h18.83C82.68,84.49,86.46,82.76,90.12,82.65z"/>
	<path class="st0" d="M122.14,58.41c0,0,4.07,5.85-2.74,9.78c0,0,3.41,5.56-2.07,10.44c0,0,1.6,4.07,6.02,4s7.09,4.46,7.09,4.46
		h18.74c0,0,0.07-3.43-2.44-5.5c-2.52-2.07-5.78-1.7-6.37-1.63c-0.59,0.07-4.81-3.33-4.89-6.81c-0.07-3.48,1.93-6.39,1.93-6.39
		s4.44-1.61,4.52-4.57c0.07-2.96-0.96-4.44-0.96-4.44s1.33-10.44-8-13.78c-9.33-3.33-14.37,3.19-14.37,3.19
		S122.14,49.6,122.14,58.41z"/>
</g>
</svg>
