<?xml version="1.0" encoding="utf-8"?>
<!-- Generator: Adobe Illustrator 23.0.6, SVG Export Plug-In . SVG Version: 6.00 Build 0)  -->
<svg version="1.1" xmlns="http://www.w3.org/2000/svg" xmlns:xlink="http://www.w3.org/1999/xlink" x="0px" y="0px"
	 viewBox="0 0 198.43 198.43" style="enable-background:new 0 0 198.43 198.43;" xml:space="preserve">
<style type="text/css">
	.st0{fill:#173142;}
</style>
<g id="Layer_2">
	<g>
		<path class="st0" d="M161.12,118.52c1.03,0,1.87-0.84,1.87-1.87v-8.88c0-5.37-4.08-9.81-9.31-10.37V76.95
			c1.54-1.4,2.52-3.42,2.52-5.67c0-2.24-0.97-4.27-2.52-5.67V52.4c0-5.1-3.87-9.32-8.83-9.86c-2.1-4.3-6.53-7.11-11.38-7.11h-6.33
			c-11.3,0-20.49,9.19-20.49,20.49v9.68c-1.54,1.4-2.52,3.42-2.52,5.67c0,2.25,0.97,4.27,2.52,5.67v14.84
			c-0.86-0.23-1.75-0.36-2.66-0.36h-0.43c-1.03,0-1.87,0.84-1.87,1.87c0,1.03,0.84,1.87,1.87,1.87H104c1.28,0,2.52,0.37,3.59,1.08
			c1.07,0.71,1.9,1.7,2.4,2.88c0.18,0.41,0.5,0.75,0.9,0.95l1.36,0.66c3.48,1.7,5.73,5.3,5.73,9.18v6.04c0,0.36-0.29,0.65-0.65,0.65
			h-1.93l-2.07-3.64c-0.29-0.52-0.81-0.86-1.4-0.93c-0.59-0.07-1.18,0.14-1.58,0.57l-0.73,0.77c-1.92,2.05-4.63,3.22-7.44,3.22
			h-2.41l0.99-2.62c0.37-0.97-0.12-2.04-1.09-2.41c-0.96-0.36-2.04,0.12-2.41,1.09l-1.49,3.94h-3.18l0.42-1.1
			c0.36-0.97-0.12-2.04-1.09-2.41c-0.97-0.37-2.04,0.12-2.41,1.09l-0.92,2.43h-7.5c-0.36,0-0.65-0.29-0.65-0.65v-4.53
			c0-8.38,6.28-15.33,14.6-16.17c1.03-0.1,1.78-1.02,1.67-2.05c-0.1-1.03-1.02-1.78-2.05-1.67c-4.9,0.49-9.44,2.78-12.76,6.44
			c-0.13,0.15-0.26,0.3-0.39,0.45c-0.35-0.55-0.82-1.03-1.38-1.38l-4.22-2.62v-0.55c5.84-2.67,10.06-8.29,10.73-14.94
			c4.22-0.01,7.64-3.44,7.64-7.66c0-2.25-0.97-4.27-2.52-5.67V52.4c0-5.1-3.87-9.32-8.83-9.86c-2.1-4.3-6.53-7.11-11.38-7.11h-6.33
			c-11.3,0-20.49,9.19-20.49,20.49v9.68c-1.54,1.4-2.52,3.42-2.52,5.67c0,4.22,3.43,7.65,7.64,7.66
			c0.67,6.65,4.89,12.27,10.73,14.94v0.55l-4.21,2.61c-0.15,0.09-0.29,0.19-0.43,0.3h-10.1c-5.75,0-10.43,4.68-10.43,10.43v8.88
			c0,1.03,0.84,1.87,1.87,1.87c1.03,0,1.87-0.84,1.87-1.87v-8.88c0-3.69,3-6.69,6.69-6.69h8.32l-1.9,10.1
			c-0.28,1.49,0.44,2.95,1.79,3.64c0.49,0.25,1.02,0.37,1.54,0.37c0.91,0,1.79-0.37,2.45-1.07l3.49-3.71
			c0.39-0.42,1.02-0.49,1.49-0.16l3.35,2.31v11.32c0,1.03,0.84,1.87,1.87,1.87c1.03,0,1.87-0.84,1.87-1.87v-11.32l3.35-2.31
			c0.47-0.33,1.1-0.26,1.49,0.16l1.74,1.85v3.69c0,1.03,0.36,1.98,0.96,2.73c-1.22,1.24-1.97,2.95-1.97,4.82
			c0,3.72,2.96,6.76,6.65,6.9c0.66,6,4.45,11.07,9.71,13.52v1.12h-9.09c-4.65,0-8.62,3.16-9.67,7.69l-1.51,6.53H54.27v-33.87
			c0-1.03-0.84-1.87-1.87-1.87c-1.03,0-1.87,0.84-1.87,1.87v33.87H39.17v-33.89c0-1.03-0.84-1.87-1.87-1.87
			c-1.03,0-1.87,0.84-1.87,1.87v35.75c0,1.03,0.84,1.87,1.87,1.87h123.82c1.03,0,1.87-0.84,1.87-1.87v-35.75
			c0-1.03-0.84-1.87-1.87-1.87s-1.87,0.84-1.87,1.87v33.89h-11.36v-33.87c0-1.03-0.84-1.87-1.87-1.87c-1.03,0-1.87,0.84-1.87,1.87
			v33.87h-17.52l-1.51-6.53c-1.04-4.53-5.02-7.69-9.67-7.69h-9.09v-1.12c5.26-2.45,9.05-7.52,9.71-13.52
			c3.69-0.13,6.65-3.18,6.65-6.9c0-1.87-0.75-3.57-1.97-4.82c0.18-0.23,0.35-0.48,0.48-0.75c2.78,1.33,5.82,2.02,8.93,2.02
			c10.81,0,19.71-8.31,20.65-18.87h1.74c3.69,0,6.69,3,6.69,6.69v8.88C159.26,117.68,160.09,118.52,161.12,118.52L161.12,118.52z
			 M149.94,97.34h-12.12v-3.47c5.84-2.67,10.06-8.29,10.73-14.94c0.48,0,0.94-0.05,1.39-0.13V97.34z M119.87,101.08h4.51
			c1.03,0,1.87-0.84,1.87-1.87v-4.09c1.26,0.27,2.57,0.42,3.92,0.42c1.35,0,2.66-0.15,3.92-0.42v4.09c0,1.03,0.84,1.87,1.87,1.87
			h4.51c-0.88,4.88-5.16,8.6-10.3,8.6C125.04,109.68,120.76,105.96,119.87,101.08L119.87,101.08z M107.88,71.28
			c0-2.13,1.7-3.86,3.81-3.92v7.84C109.58,75.14,107.88,73.4,107.88,71.28L107.88,71.28z M115.43,68.24c1.86,0.6,3.79,0.9,5.7,0.9
			c4.1,0,8.15-1.36,11.49-4l4.63-3.66c1.05,3.29,4.07,5.7,7.66,5.87v9.72c0,8.13-6.61,14.74-14.74,14.74
			c-8.13,0-14.74-6.61-14.74-14.74V68.24z M152.46,71.28c0,2.13-1.7,3.86-3.81,3.92v-7.84C150.76,67.41,152.46,69.15,152.46,71.28
			L152.46,71.28z M110.39,55.92c0-9.24,7.52-16.75,16.76-16.75h6.33c3.72,0,7.08,2.34,8.37,5.83c0.27,0.73,0.97,1.22,1.75,1.22h0.16
			c3.41,0,6.19,2.77,6.19,6.18v11.35c-0.46-0.08-0.92-0.13-1.4-0.13h-3.25c-2.59,0-4.7-2.11-4.7-4.69v-0.99
			c0-0.72-0.41-1.37-1.05-1.68c-0.64-0.31-1.41-0.23-1.97,0.22l-7.26,5.74c-4.29,3.39-10.07,4.14-15.09,1.96l-0.91-0.4
			c-0.23-0.1-0.48-0.16-0.75-0.16h-1.76c-0.48,0-0.95,0.05-1.4,0.13V55.92z M110.39,93.67V78.8c0.45,0.08,0.92,0.13,1.39,0.13
			c0.67,6.65,4.89,12.27,10.73,14.94v3.47h-8.68l-0.72-0.35C112.45,95.71,111.53,94.58,110.39,93.67L110.39,93.67z M64.34,95.12
			c1.26,0.27,2.57,0.42,3.92,0.42c1.35,0,2.66-0.15,3.92-0.42v4.63c0,0.53-0.14,1.06-0.39,1.52l-3.53,6.42l-3.53-6.42
			c-0.25-0.47-0.39-0.99-0.39-1.52V95.12z M86.74,75.2v-7.84c2.11,0.06,3.81,1.79,3.81,3.92C90.55,73.4,88.85,75.14,86.74,75.2
			L86.74,75.2z M48.48,55.92c0-9.24,7.52-16.75,16.76-16.75h6.33c3.72,0,7.08,2.34,8.37,5.83c0.27,0.73,0.97,1.22,1.75,1.22h0.16
			c3.41,0,6.19,2.77,6.19,6.18v11.35c-0.46-0.08-0.92-0.13-1.4-0.13h-0.53l-1.37-3.15c-1.19-2.75-4.25-4.13-7.1-3.2l-6.26,2.03
			c-2.03,0.66-4.19,0.66-6.22,0l-6.26-2.03c-2.85-0.93-5.91,0.45-7.1,3.2l-1.37,3.15h-0.54c-0.48,0-0.95,0.05-1.4,0.13V55.92z
			 M45.97,71.28c0-2.13,1.7-3.86,3.81-3.92v7.84C47.67,75.14,45.97,73.4,45.97,71.28L45.97,71.28z M53.52,77.07V65.88l1.7-3.92
			c0.42-0.98,1.51-1.46,2.52-1.14l6.26,2.03c2.79,0.91,5.74,0.91,8.53,0l6.26-2.03c1.01-0.33,2.09,0.16,2.52,1.14l1.7,3.92v11.19
			c0,8.13-6.61,14.74-14.74,14.74C60.13,91.81,53.52,85.19,53.52,77.07L53.52,77.07z M58.82,107.85l-2.65,2.82l1.88-10.02
			c0.04-0.18,0.14-0.34,0.3-0.43l2.24-1.39v0.93c0,1.16,0.29,2.31,0.85,3.32l1.82,3.31C61.68,106.09,60,106.59,58.82,107.85
			L58.82,107.85z M73.24,106.38l1.82-3.31c0.56-1.01,0.85-2.16,0.85-3.32v-0.93l2.24,1.39c0.15,0.1,0.26,0.25,0.3,0.43l0.35,1.86
			c-0.76,1.53-1.32,3.16-1.67,4.84C76.01,106.46,74.59,106.13,73.24,106.38L73.24,106.38z M79.44,123.5c0-1.62,1.23-2.97,2.81-3.14
			v6.29C80.67,126.46,79.44,125.12,79.44,123.5L79.44,123.5z M121.48,153.56l1.32,5.69H75.62l1.32-5.69
			c0.65-2.82,3.13-4.79,6.03-4.79h9.34c0.82,3.04,3.61,5.29,6.9,5.29c3.3,0,6.08-2.24,6.9-5.29h9.34
			C118.35,148.77,120.83,150.74,121.48,153.56L121.48,153.56z M102.63,146.9c0,1.88-1.53,3.42-3.42,3.42
			c-1.88,0-3.42-1.53-3.42-3.42v-1.75c1.1,0.23,2.25,0.35,3.42,0.35c1.17,0,2.31-0.12,3.42-0.35V146.9z M99.21,141.76
			c-7.3,0-13.23-5.94-13.23-13.23v-8.2h16.19c3.35,0,6.6-1.23,9.12-3.4l1.15,2.02v9.57C112.44,135.83,106.51,141.76,99.21,141.76
			L99.21,141.76z M116.18,126.64v-6.29c1.58,0.18,2.81,1.52,2.81,3.14C118.99,125.12,117.76,126.46,116.18,126.64L116.18,126.64z
			 M130.17,116.22c-2.98,0-5.88-0.78-8.45-2.25v-3.35c2.36,1.76,5.29,2.8,8.45,2.8c7.2,0,13.15-5.38,14.07-12.33h2.83
			C146.14,109.58,138.91,116.22,130.17,116.22L130.17,116.22z M130.17,116.22"/>
	</g>
</g>
<g id="Layer_3">
</g>
<g id="Layer_4">
</g>
<g id="Layer_4_copy">
</g>
</svg>
