<?xml version="1.0" encoding="utf-8"?>
<!-- Generator: Adobe Illustrator 23.0.6, SVG Export Plug-In . SVG Version: 6.00 Build 0)  -->
<svg version="1.1" id="Layer_3" xmlns="http://www.w3.org/2000/svg" xmlns:xlink="http://www.w3.org/1999/xlink" x="0px" y="0px"
	 viewBox="0 0 198.43 198.43" style="enable-background:new 0 0 198.43 198.43;" xml:space="preserve">
<style type="text/css">
	.st0{fill:#173142;}
</style>
<g>
	<path class="st0" d="M48.43,87.45c1.42,0.82,2.63,1.56,3.74,2.24c5.17,3.15,7.78,4.75,15.07,4.75c0.06,0,26.38,0,26.38,0
		c3.92,0,7.11-3.21,7.11-7.14c0-1.26-0.34-2.45-0.92-3.49c3.21-0.95,5.56-3.92,5.56-7.44c0-1.92-0.7-3.68-1.86-5.03
		c2.21-1.37,3.68-3.81,3.68-6.59c0-1.41-0.38-2.73-1.04-3.86h11.37c4.29,0,7.77-3.48,7.77-7.76s-3.49-7.76-7.77-7.76H93.64l0-2.42
		c0-2.9-0.91-5.34-2.63-7.05c-1.74-1.74-4.26-2.7-7.1-2.7c-0.01,0-0.02,0-0.02,0l-13.27,0.01c-6.19,0.01-15.33,3.76-22.34,13.97
		c-0.77-0.79-1.84-1.29-3.03-1.29H34.71c-1.07,0-1.95,0.87-1.95,1.95c0,1.07,0.87,1.95,1.95,1.95h10.55c0.17,0,0.32,0.15,0.32,0.32
		v13.03c0,1.07,0.87,1.95,1.95,1.95c1.07,0,1.95-0.87,1.95-1.95V52.66c5.97-10.73,14.89-15.55,21.16-15.56l13.27-0.01h0.02
		c1.05,0,2.99,0.2,4.35,1.56c0.99,0.99,1.49,2.43,1.49,4.3l0,4.28c0,0.03,0,0.06,0,0.09c0,0.03,0,0.06,0,0.08l0,6.25
		c0,1.5-0.77,2.83-1.93,3.63c-0.03,0.02-0.06,0.04-0.09,0.06c-0.69,0.44-1.51,0.71-2.39,0.71c-2.43,0-4.4-1.97-4.4-4.39V46
		c0-1.08-0.87-1.95-1.95-1.95c-1.08,0-1.95,0.87-1.95,1.95c0,2.12-1.23,4.55-3.28,6.5c-2.15,2.04-4.81,3.19-7.1,3.07
		c-1.07-0.06-1.99,0.77-2.05,1.84c-0.06,1.07,0.77,1.99,1.84,2.05c3.34,0.18,7.07-1.37,9.98-4.14c0.23-0.22,0.45-0.44,0.66-0.66
		c0.22,1.78,1.01,3.39,2.18,4.64c-1.41,1.42-2.24,3.36-2.24,5.44c0,2.3,1.01,4.37,2.62,5.79C78.03,71.96,77,74.04,77,76.37
		c0,2.99,1.71,5.6,4.21,6.89c-0.81,1.16-1.29,2.56-1.29,4.08c0,1.15,0.28,2.24,0.77,3.21H67.4c-6.32,0.03-8.2-1.12-13.21-4.18
		c-1.36-0.83-2.87-1.75-4.73-2.81V72.17c0-1.07-0.87-1.95-1.95-1.95c-1.08,0-1.95,0.87-1.95,1.95v12.52c0,0.17-0.15,0.31-0.32,0.31
		H34.71c-1.07,0-1.95,0.87-1.95,1.95c0,1.07,0.87,1.95,1.95,1.95h10.55C46.52,88.9,47.66,88.34,48.43,87.45L48.43,87.45z
		 M117.52,49.26c2.14,0,3.88,1.73,3.88,3.86c0,2.13-1.74,3.86-3.88,3.86H92.93c0.45-1.02,0.71-2.15,0.71-3.34l0-4.39H117.52z
		 M89.37,60.88h10.04c2.14,0,3.88,1.73,3.88,3.86s-1.74,3.86-3.88,3.86H84.79c-2.13-0.01-3.86-1.75-3.86-3.86
		c0-1.31,0.69-2.53,1.78-3.24c0.83,0.28,1.71,0.43,2.63,0.43C86.8,61.93,88.18,61.55,89.37,60.88L89.37,60.88z M84.78,72.5H97.6
		c2.14,0,3.88,1.73,3.88,3.86c0,2.13-1.74,3.86-3.88,3.86H84.78c-2.14,0-3.88-1.73-3.88-3.86C80.9,74.24,82.64,72.5,84.78,72.5
		L84.78,72.5z M83.81,87.34c0-1.77,1.44-3.21,3.22-3.21h7.09c1.55,0.24,2.72,1.59,2.72,3.17c0,1.76-1.48,3.25-3.22,3.25h-6.59
		C85.25,90.54,83.81,89.1,83.81,87.34L83.81,87.34z M83.81,87.34"/>
	<path class="st0" d="M163.71,39.14c-1.07,0-1.95,0.87-1.95,1.95v9.39h-8.65c-1.07,0-1.95,0.87-1.95,1.95
		c0,1.07,0.87,1.95,1.95,1.95h8.65v18.22h-8.65c-1.07,0-1.95,0.87-1.95,1.95c0,1.07,0.87,1.95,1.95,1.95h8.65V94.7h-8.65
		c-1.07,0-1.95,0.87-1.95,1.95c0,1.08,0.87,1.95,1.95,1.95h8.65v18.22h-8.65c-1.07,0-1.95,0.87-1.95,1.95
		c0,1.08,0.87,1.95,1.95,1.95h8.65v18.23h-8.65c-1.07,0-1.95,0.87-1.95,1.95c0,1.07,0.87,1.95,1.95,1.95h8.65v18.5h-18.56V95.34
		c0-1.07-0.87-1.95-1.95-1.95h-23.6c-1.08,0-1.95,0.87-1.95,1.95v28.73c0,1.08,0.87,1.95,1.95,1.95c1.07,0,1.95-0.87,1.95-1.95
		V97.29h19.7v63.75h-19.7V133.1c0-1.07-0.87-1.95-1.95-1.95c-1.08,0-1.95,0.87-1.95,1.95v28.23h-7.17v-42.57
		c0-1.07-0.87-1.95-1.95-1.95H83.01c-1.08,0-1.95,0.87-1.95,1.95v42.57h-7.17v-20.45c0-1.08-0.87-1.95-1.95-1.95h-23.6
		c-1.07,0-1.95,0.87-1.95,1.95v20.45h-7.73c-1.07,0-1.95,0.87-1.95,1.95c0,1.08,0.87,1.95,1.95,1.95h125.05
		c1.07,0,1.95-0.87,1.95-1.95V41.09C165.66,40.02,164.79,39.14,163.71,39.14L163.71,39.14z M84.96,120.71h19.7v40.34h-19.7V120.71z
		 M50.29,142.83H70v18.22H50.29V142.83z M50.29,142.83"/>
</g>
</svg>
