<?xml version="1.0" encoding="utf-8"?>
<!-- Generator: Adobe Illustrator 23.0.6, SVG Export Plug-In . SVG Version: 6.00 Build 0)  -->
<svg version="1.1" xmlns="http://www.w3.org/2000/svg" xmlns:xlink="http://www.w3.org/1999/xlink" x="0px" y="0px"
	 viewBox="0 0 198.43 198.43" style="enable-background:new 0 0 198.43 198.43;" xml:space="preserve">
<style type="text/css">
	.st0{fill:#173142;}
</style>
<g id="Layer_2">
	<g>
		<path class="st0" d="M160.93,83.1c-0.03-0.16-0.08-0.32-0.14-0.47c-0.06-0.15-0.14-0.3-0.23-0.43c-0.09-0.14-0.19-0.26-0.31-0.38
			c-0.11-0.11-0.24-0.22-0.38-0.31c-0.14-0.09-0.28-0.17-0.43-0.23c-0.15-0.06-0.31-0.11-0.47-0.14c-0.32-0.06-0.65-0.06-0.97,0
			c-0.16,0.03-0.32,0.08-0.47,0.14c-0.15,0.06-0.29,0.14-0.43,0.23c-0.14,0.09-0.26,0.19-0.38,0.31c-0.11,0.11-0.22,0.24-0.31,0.38
			c-0.09,0.13-0.16,0.28-0.23,0.43c-0.06,0.15-0.11,0.31-0.14,0.47c-0.03,0.16-0.05,0.32-0.05,0.49c0,0.16,0.02,0.33,0.05,0.49
			c0.03,0.16,0.08,0.31,0.14,0.47c0.06,0.15,0.14,0.29,0.23,0.43c0.09,0.14,0.19,0.26,0.31,0.38c0.46,0.46,1.11,0.73,1.76,0.73
			c0.16,0,0.33-0.01,0.49-0.05c0.16-0.03,0.32-0.08,0.47-0.14c0.15-0.06,0.3-0.14,0.43-0.23c0.14-0.09,0.26-0.2,0.38-0.31
			c0.11-0.11,0.22-0.24,0.31-0.38c0.09-0.14,0.17-0.28,0.23-0.43c0.06-0.15,0.11-0.31,0.14-0.47c0.03-0.16,0.05-0.33,0.05-0.49
			C160.98,83.42,160.96,83.26,160.93,83.1L160.93,83.1z M160.93,83.1"/>
		<path class="st0" d="M162.78,93.96c-0.11-1.37-1.32-2.39-2.68-2.28c-1.37,0.11-2.39,1.31-2.28,2.69c0.13,1.6,0.2,3.23,0.2,4.85
			c0,16.19-6.77,31.81-18.58,42.89c-0.02,0.02-0.05,0.04-0.07,0.06c-2.26,2.12-4.67,4.04-7.2,5.76v-16.7c0-1.38-1.12-2.49-2.49-2.49
			h-3.66v-10.49c0-6.59-3.93-12.5-10-15.06l-10.36-4.35l7.46-3.13c0,0,0.01,0,0.01,0l2.9-1.22c6.08-2.55,10.01-8.46,10.01-15.06
			V69.7h3.66c1.38,0,2.49-1.12,2.49-2.49V50.49c7.85,5.31,14.43,12.53,19.05,21.25c0.17,0.32,0.33,0.64,0.5,0.96
			c0.4,0.79,0.78,1.59,1.15,2.4c0.57,1.25,2.04,1.81,3.3,1.25c1.25-0.57,1.81-2.04,1.25-3.3c-0.39-0.87-0.81-1.75-1.24-2.6
			c-0.18-0.35-0.36-0.69-0.54-1.04c-11.1-20.95-32.71-33.97-56.4-33.97c-17.04,0-33.05,6.63-45.1,18.68
			c-12.05,12.05-18.68,28.06-18.68,45.1c0,8.99,1.83,17.68,5.45,25.83c3.49,7.87,8.46,14.86,14.78,20.76
			c6.29,5.89,13.57,10.37,21.63,13.32c5.47,2,11.2,3.24,17.03,3.68c1.63,0.12,3.28,0.18,4.89,0.18c8.11,0,16.02-1.5,23.49-4.47
			c7.41-2.94,14.13-7.19,19.99-12.66c0.02-0.02,0.05-0.04,0.07-0.06c6.32-5.91,11.29-12.89,14.78-20.77
			c3.61-8.15,5.45-16.84,5.45-25.83C162.99,97.46,162.92,95.7,162.78,93.96L162.78,93.96z M114.07,107.78
			c4.22,1.77,6.95,5.88,6.95,10.46v10.49h-6.4v-3.78c0-2-1.19-3.79-3.03-4.56c0,0,0,0,0,0l-11.42-4.8c-0.62-0.26-1.31-0.26-1.93,0
			l-11.42,4.8c-1.84,0.77-3.03,2.57-3.03,4.57v3.78h-6.4v-10.49c0-4.58,2.73-8.69,6.95-10.46l14.86-6.25L114.07,107.78z
			 M109.65,124.97v3.76H88.78v-3.76l10.43-4.39L109.65,124.97z M109.65,91.74l-10.43,4.38l-10.43-4.38v-8.39h20.87V91.74z
			 M121.03,79.42c0,4.38-2.49,8.32-6.4,10.21v-8.77c0-1.38-1.12-2.49-2.49-2.49H86.29c-1.38,0-2.49,1.12-2.49,2.49v8.77
			c-3.91-1.89-6.4-5.83-6.4-10.21v-9.72h43.63V79.42z M99.21,40.42c9.8,0,19.21,2.42,27.53,6.82h-55
			C79.95,42.89,89.3,40.42,99.21,40.42L99.21,40.42z M71.25,52.22h55.93v12.49H71.25v-3.81h34.57c1.38,0,2.49-1.12,2.49-2.49
			c0-1.38-1.12-2.49-2.49-2.49H71.25V52.22z M66.27,131.22v16.7c-2.53-1.72-4.94-3.64-7.2-5.76
			c-11.85-11.08-18.65-26.74-18.65-42.95c0-20.22,10.26-38.09,25.85-48.67V67.2c0,1.38,1.12,2.49,2.49,2.49h3.66v9.72
			c0,6.59,3.93,12.5,10.01,15.06l2.9,1.22c0,0,0.01,0,0.01,0l7.46,3.13l-10.36,4.35c-6.08,2.55-10,8.46-10,15.06v10.49h-3.66
			C67.38,128.73,66.27,129.84,66.27,131.22L66.27,131.22z M120.87,153.89c-6.89,2.73-14.18,4.12-21.66,4.12
			c-1.49,0-3.01-0.06-4.52-0.17c-5.37-0.41-10.65-1.55-15.69-3.39c-2.52-0.92-4.96-2.01-7.31-3.26h55.04
			C124.83,152.19,122.88,153.1,120.87,153.89L120.87,153.89z M127.17,137.52H92.6c-1.38,0-2.49,1.11-2.49,2.49
			c0,1.38,1.12,2.49,2.49,2.49h34.57v3.7H71.25v-12.49h55.93V137.52z M127.17,137.52"/>
		<path class="st0" d="M83.83,139.52c-0.03-0.16-0.08-0.32-0.14-0.47c-0.06-0.15-0.14-0.3-0.23-0.43c-0.09-0.14-0.19-0.26-0.31-0.38
			c-0.11-0.11-0.24-0.22-0.38-0.31c-0.13-0.09-0.28-0.17-0.43-0.23c-0.15-0.06-0.31-0.11-0.47-0.14c-0.81-0.17-1.67,0.1-2.25,0.68
			c-0.11,0.12-0.22,0.24-0.31,0.38c-0.09,0.13-0.17,0.28-0.23,0.43c-0.06,0.15-0.11,0.31-0.14,0.47c-0.03,0.16-0.05,0.32-0.05,0.49
			c0,0.16,0.02,0.33,0.05,0.49c0.03,0.16,0.08,0.32,0.14,0.47c0.06,0.15,0.14,0.29,0.23,0.43c0.09,0.14,0.19,0.26,0.31,0.38
			c0.47,0.46,1.11,0.73,1.76,0.73c0.66,0,1.3-0.27,1.76-0.73c0.12-0.11,0.22-0.24,0.31-0.38c0.09-0.13,0.17-0.28,0.23-0.43
			c0.06-0.15,0.11-0.31,0.14-0.47c0.03-0.16,0.05-0.32,0.05-0.49C83.88,139.85,83.87,139.68,83.83,139.52L83.83,139.52z
			 M83.83,139.52"/>
		<path class="st0" d="M119.48,57.93c-0.03-0.16-0.08-0.31-0.14-0.47c-0.06-0.15-0.14-0.29-0.23-0.43
			c-0.09-0.14-0.19-0.27-0.31-0.38c-0.47-0.46-1.11-0.73-1.76-0.73c-0.65,0-1.3,0.27-1.76,0.73c-0.11,0.11-0.22,0.24-0.31,0.38
			c-0.09,0.13-0.17,0.28-0.23,0.43c-0.06,0.15-0.11,0.31-0.14,0.47c-0.03,0.16-0.05,0.33-0.05,0.49c0,0.16,0.01,0.33,0.05,0.49
			c0.03,0.16,0.08,0.32,0.14,0.47c0.06,0.15,0.14,0.3,0.23,0.43c0.09,0.14,0.19,0.26,0.31,0.38c0.11,0.12,0.24,0.22,0.38,0.31
			c0.13,0.09,0.28,0.17,0.43,0.23c0.15,0.06,0.31,0.11,0.47,0.14c0.16,0.03,0.32,0.05,0.49,0.05c0.16,0,0.33-0.02,0.49-0.05
			c0.16-0.03,0.32-0.08,0.47-0.14c0.15-0.06,0.29-0.14,0.43-0.23c0.13-0.09,0.26-0.19,0.38-0.31c0.11-0.11,0.22-0.24,0.31-0.38
			c0.09-0.13,0.17-0.28,0.23-0.43c0.06-0.15,0.11-0.31,0.14-0.47c0.03-0.16,0.05-0.32,0.05-0.49
			C119.53,58.25,119.51,58.09,119.48,57.93L119.48,57.93z M119.48,57.93"/>
	</g>
</g>
<g id="Layer_3">
</g>
<g id="Layer_4">
</g>
<g id="Layer_4_copy">
</g>
</svg>
