<?xml version="1.0" encoding="utf-8"?>
<!-- Generator: Adobe Illustrator 23.0.6, SVG Export Plug-In . SVG Version: 6.00 Build 0)  -->
<svg version="1.1" xmlns="http://www.w3.org/2000/svg" xmlns:xlink="http://www.w3.org/1999/xlink" x="0px" y="0px"
	 viewBox="0 0 198.43 198.43" style="enable-background:new 0 0 198.43 198.43;" xml:space="preserve">
<style type="text/css">
	.st0{fill:#173142;}
</style>
<g id="Layer_2">
	<g>
		<path class="st0" d="M93.05,152.23v12.33h29.98V95.66c-3.49-1.99-6.83-4.26-9.99-6.8v63.37H93.05z M93.05,152.23"/>
		<path class="st0" d="M90.71,84.2l-1.54,1.42c-4.24,3.89-8.86,7.25-13.77,10.05v48.9h29.98V84.2H90.71z M90.71,84.2"/>
		<path class="st0" d="M113.04,78.68l1.4,1.28c12.51,11.48,28.71,17.85,45.68,17.96V33.87c-16.96,0.12-33.17,6.49-45.68,17.96
			l-1.4,1.28V78.68z M113.04,78.68"/>
		<path class="st0" d="M83.99,51.84C71.48,40.36,55.28,33.99,38.31,33.87v64.06c16.96-0.12,33.17-6.49,45.67-17.96l1.4-1.28V53.12
			L83.99,51.84z M83.99,51.84"/>
		<rect x="93.05" y="55.27" class="st0" width="12.33" height="21.27"/>
	</g>
</g>
<g id="Layer_3">
</g>
<g id="Layer_4">
</g>
<g id="Layer_4_copy">
</g>
</svg>
