<?xml version="1.0" encoding="utf-8"?>
<!-- Generator: Adobe Illustrator 23.0.6, SVG Export Plug-In . SVG Version: 6.00 Build 0)  -->
<svg version="1.1" id="Layer_3" xmlns="http://www.w3.org/2000/svg" xmlns:xlink="http://www.w3.org/1999/xlink" x="0px" y="0px"
	 viewBox="0 0 198.43 198.43" style="enable-background:new 0 0 198.43 198.43;" xml:space="preserve">
<style type="text/css">
	.st0{fill:#173142;}
</style>
<g>
	<path class="st0" d="M150.78,39.21H54.68c-1.94,0-3.52,1.57-3.52,3.52v10.78h-3.52c-1.94,0-3.52,1.57-3.52,3.52
		c0,1.94,1.57,3.52,3.52,3.52h3.52v7.03h-3.52c-1.94,0-3.52,1.57-3.52,3.52c0,1.94,1.57,3.52,3.52,3.52h3.52v7.03h-3.52
		c-1.94,0-3.52,1.57-3.52,3.52c0,1.94,1.57,3.52,3.52,3.52h3.52v7.03h-3.52c-1.94,0-3.52,1.57-3.52,3.52c0,1.94,1.57,3.52,3.52,3.52
		h3.52v7.03h-3.52c-1.94,0-3.52,1.57-3.52,3.52c0,1.94,1.57,3.52,3.52,3.52h3.52v7.03h-3.52c-1.94,0-3.52,1.57-3.52,3.52
		c0,1.94,1.57,3.52,3.52,3.52h3.52v7.03h-3.52c-1.94,0-3.52,1.57-3.52,3.52s1.57,3.52,3.52,3.52h3.52v10.78
		c0,1.94,1.57,3.52,3.52,3.52h96.09c1.94,0,3.52-1.57,3.52-3.52V42.73C154.29,40.79,152.72,39.21,150.78,39.21L150.78,39.21z
		 M72.26,152.18H58.2v-7.27h3.52c1.94,0,3.52-1.57,3.52-3.52s-1.57-3.52-3.52-3.52H58.2v-7.03h3.52c1.94,0,3.52-1.57,3.52-3.52
		c0-1.94-1.57-3.52-3.52-3.52H58.2v-7.03h3.52c1.94,0,3.52-1.57,3.52-3.52c0-1.94-1.57-3.52-3.52-3.52H58.2v-7.03h3.52
		c1.94,0,3.52-1.57,3.52-3.52c0-1.94-1.57-3.52-3.52-3.52H58.2v-7.03h3.52c1.94,0,3.52-1.57,3.52-3.52c0-1.94-1.57-3.52-3.52-3.52
		H58.2V74.6h3.52c1.94,0,3.52-1.57,3.52-3.52c0-1.94-1.57-3.52-3.52-3.52H58.2v-7.03h3.52c1.94,0,3.52-1.57,3.52-3.52
		c0-1.94-1.57-3.52-3.52-3.52H58.2v-7.27h14.06V152.18z M147.26,152.18H79.29V46.24h67.97V152.18z M147.26,152.18"/>
	<path class="st0" d="M113.28,107.42c14.86,0,26.95-12.09,26.95-26.95s-12.09-26.95-26.95-26.95S86.32,65.6,86.32,80.46
		S98.41,107.42,113.28,107.42L113.28,107.42z M121.48,98.61c-2.5,1.14-5.28,1.77-8.2,1.77c-2.92,0-5.7-0.64-8.2-1.77v-1.74
		c0-4.52,3.68-8.2,8.2-8.2c4.52,0,8.2,3.68,8.2,8.2V98.61z M109.76,78.12c0-1.94,1.58-3.52,3.52-3.52c1.94,0,3.52,1.58,3.52,3.52
		c0,1.94-1.58,3.52-3.52,3.52C111.34,81.63,109.76,80.06,109.76,78.12L109.76,78.12z M113.28,60.54c10.99,0,19.92,8.94,19.92,19.92
		c0,5.06-1.9,9.69-5.03,13.21c-0.83-3.89-3.15-7.23-6.34-9.4c1.25-1.73,1.99-3.86,1.99-6.15c0-5.82-4.73-10.55-10.55-10.55
		c-5.82,0-10.55,4.73-10.55,10.55c0,2.29,0.74,4.42,1.99,6.15c-3.18,2.17-5.5,5.51-6.34,9.4c-3.13-3.52-5.03-8.15-5.03-13.21
		C93.35,69.48,102.29,60.54,113.28,60.54L113.28,60.54z M113.28,60.54"/>
	<path class="st0" d="M89.84,144.92h46.88c1.94,0,3.52-1.57,3.52-3.52s-1.57-3.52-3.52-3.52H89.84c-1.94,0-3.52,1.57-3.52,3.52
		S87.9,144.92,89.84,144.92L89.84,144.92z M89.84,144.92"/>
	<path class="st0" d="M89.84,130.85h46.88c1.94,0,3.52-1.57,3.52-3.52c0-1.94-1.57-3.52-3.52-3.52H89.84
		c-1.94,0-3.52,1.57-3.52,3.52C86.32,129.28,87.9,130.85,89.84,130.85L89.84,130.85z M89.84,130.85"/>
</g>
</svg>
