<?xml version="1.0" encoding="utf-8"?>
<!-- Generator: Adobe Illustrator 23.0.6, SVG Export Plug-In . SVG Version: 6.00 Build 0)  -->
<svg version="1.1" id="Layer_3" xmlns="http://www.w3.org/2000/svg" xmlns:xlink="http://www.w3.org/1999/xlink" x="0px" y="0px"
	 viewBox="0 0 198.43 198.43" style="enable-background:new 0 0 198.43 198.43;" xml:space="preserve">
<style type="text/css">
	.st0{fill:#173142;}
</style>
<g>
	<path class="st0" d="M123.63,45.4h-14.03v-2.49c0-4.12-3.35-7.47-7.47-7.47c-4.12,0-7.47,3.35-7.47,7.47v2.49H73.72v-2.49
		c0-4.12-3.35-7.47-7.47-7.47c-4.12,0-7.47,3.35-7.47,7.47v2.49H47.89c-6.87,0-12.46,5.59-12.46,12.46v41.61
		c0,1.38,1.12,2.49,2.49,2.49s2.49-1.12,2.49-2.49V57.86c0-4.12,3.35-7.47,7.47-7.47h20.77c-0.27,1.09-1.25,1.9-2.42,1.9
		c-1.38,0-2.49,1.12-2.49,2.49s1.12,2.49,2.49,2.49c3.92,0,7.15-3.04,7.45-6.89h30.85c-0.27,1.09-1.25,1.9-2.42,1.9
		c-1.38,0-2.49,1.12-2.49,2.49s1.12,2.49,2.49,2.49c3.92,0,7.15-3.04,7.45-6.89h14.06c4.12,0,7.47,3.35,7.47,7.47v5.72
		c0,1.38,1.12,2.49,2.49,2.49c1.38,0,2.49-1.12,2.49-2.49v-5.72C136.08,50.99,130.5,45.4,123.63,45.4L123.63,45.4z M68.73,45.4
		h-4.98v-2.49c0-1.37,1.12-2.49,2.49-2.49c1.37,0,2.49,1.12,2.49,2.49V45.4z M104.61,45.4h-4.98v-2.49c0-1.37,1.12-2.49,2.49-2.49
		c1.37,0,2.49,1.12,2.49,2.49V45.4z M104.61,45.4"/>
	<path class="st0" d="M39.69,107.45c-0.46-0.46-1.11-0.73-1.76-0.73c-0.66,0-1.3,0.27-1.76,0.73c-0.46,0.46-0.73,1.1-0.73,1.76
		c0,0.66,0.27,1.3,0.73,1.76c0.46,0.46,1.11,0.73,1.76,0.73c0.66,0,1.3-0.27,1.76-0.73c0.46-0.46,0.73-1.11,0.73-1.76
		C40.42,108.55,40.15,107.91,39.69,107.45L39.69,107.45z M39.69,107.45"/>
	<path class="st0" d="M117.9,158.01H47.89c-4.12,0-7.47-3.35-7.47-7.47v-31.72c0-1.38-1.12-2.49-2.49-2.49s-2.49,1.12-2.49,2.49
		v31.72c0,6.87,5.59,12.46,12.46,12.46h70.01c1.38,0,2.49-1.12,2.49-2.49C120.39,159.12,119.27,158.01,117.9,158.01L117.9,158.01z
		 M117.9,158.01"/>
	<path class="st0" d="M73.32,78.96c0.79-1.39,1.24-3,1.24-4.71v-1.78c0-5.31-4.32-9.62-9.63-9.62c-5.31,0-9.62,4.32-9.62,9.62v1.78
		c0,1.71,0.45,3.32,1.24,4.71c-5.7,0.63-10.15,5.47-10.15,11.34v8.92c0,1.38,1.12,2.49,2.49,2.49h32.1c1.38,0,2.49-1.12,2.49-2.49
		V90.3C83.48,84.43,79.03,79.58,73.32,78.96L73.32,78.96z M64.94,67.82c2.56,0,4.64,2.08,4.64,4.64v1.78c0,2.56-2.08,4.64-4.64,4.64
		c-2.56,0-4.64-2.08-4.64-4.64v-1.78C60.29,69.9,62.38,67.82,64.94,67.82L64.94,67.82z M78.49,96.72H51.38V90.3
		c0-3.54,2.88-6.43,6.43-6.43h14.27c3.54,0,6.43,2.88,6.43,6.43V96.72z M78.49,96.72"/>
	<path class="st0" d="M73.32,126.79c0.79-1.39,1.24-3,1.24-4.71v-1.78c0-5.31-4.32-9.62-9.63-9.62c-5.31,0-9.62,4.32-9.62,9.62v1.78
		c0,1.71,0.45,3.32,1.24,4.71c-5.7,0.63-10.15,5.47-10.15,11.34v8.92c0,1.38,1.12,2.49,2.49,2.49h32.1c1.38,0,2.49-1.12,2.49-2.49
		v-8.92C83.48,132.26,79.03,127.42,73.32,126.79L73.32,126.79z M64.94,115.66c2.56,0,4.64,2.08,4.64,4.64v1.78
		c0,2.56-2.08,4.64-4.64,4.64c-2.56,0-4.64-2.08-4.64-4.64v-1.78C60.29,117.74,62.38,115.66,64.94,115.66L64.94,115.66z
		 M78.49,144.55H51.38v-6.42c0-3.54,2.88-6.43,6.43-6.43h14.27c3.54,0,6.43,2.88,6.43,6.43V144.55z M78.49,144.55"/>
	<path class="st0" d="M104.69,84.76H93.32c-1.38,0-2.49,1.12-2.49,2.49c0,1.38,1.12,2.49,2.49,2.49h11.38
		c1.38,0,2.49-1.12,2.49-2.49C107.18,85.88,106.07,84.76,104.69,84.76L104.69,84.76z M104.69,84.76"/>
	<path class="st0" d="M104.69,96.72H93.32c-1.38,0-2.49,1.12-2.49,2.49s1.12,2.49,2.49,2.49h11.38c1.38,0,2.49-1.12,2.49-2.49
		S106.07,96.72,104.69,96.72L104.69,96.72z M104.69,96.72"/>
	<path class="st0" d="M99.95,72.8h-6.64c-1.38,0-2.49,1.12-2.49,2.49c0,1.38,1.12,2.49,2.49,2.49h6.64c1.38,0,2.49-1.12,2.49-2.49
		C102.44,73.92,101.33,72.8,99.95,72.8L99.95,72.8z M99.95,72.8"/>
	<path class="st0" d="M117.9,132.6H93.32c-1.38,0-2.49,1.12-2.49,2.49c0,1.38,1.12,2.49,2.49,2.49h24.58c1.38,0,2.49-1.12,2.49-2.49
		C120.39,133.71,119.27,132.6,117.9,132.6L117.9,132.6z M117.9,132.6"/>
	<path class="st0" d="M117.9,144.55H93.32c-1.38,0-2.49,1.12-2.49,2.49c0,1.38,1.12,2.49,2.49,2.49h24.58
		c1.38,0,2.49-1.12,2.49-2.49C120.39,145.67,119.27,144.55,117.9,144.55L117.9,144.55z M117.9,144.55"/>
	<path class="st0" d="M107.85,120.64H93.32c-1.38,0-2.49,1.12-2.49,2.49c0,1.38,1.12,2.49,2.49,2.49h14.53
		c1.38,0,2.49-1.12,2.49-2.49C110.34,121.75,109.23,120.64,107.85,120.64L107.85,120.64z M107.85,120.64"/>
	<path class="st0" d="M119.66,121.37c-0.46-0.46-1.11-0.73-1.76-0.73c-0.66,0-1.3,0.27-1.76,0.73c-0.46,0.46-0.73,1.11-0.73,1.76
		c0,0.65,0.27,1.3,0.73,1.76c0.46,0.46,1.11,0.73,1.76,0.73c0.65,0,1.3-0.27,1.76-0.73c0.46-0.46,0.73-1.11,0.73-1.76
		C120.39,122.47,120.12,121.83,119.66,121.37L119.66,121.37z M119.66,121.37"/>
	<path class="st0" d="M136.58,70.77c-14.56,0-26.41,11.85-26.41,26.41c0,11.88,7.88,21.95,18.69,25.26v32.83
		c0,4.26,3.46,7.72,7.72,7.72c4.26,0,7.72-3.46,7.72-7.72v-32.83c10.8-3.31,18.69-13.38,18.69-25.26
		C162.99,82.62,151.14,70.77,136.58,70.77L136.58,70.77z M139.07,75.91c9.83,1.14,17.64,8.96,18.78,18.78h-18.78V75.91z
		 M134.09,75.91v16.58l-13.71-9.3C123.8,79.23,128.63,76.54,134.09,75.91L134.09,75.91z M139.32,155.27c0,1.51-1.23,2.74-2.74,2.74
		c-1.51,0-2.74-1.23-2.74-2.74v-31.82c0.9,0.09,1.81,0.14,2.74,0.14c0.92,0,1.84-0.05,2.74-0.14V155.27z M136.58,118.61
		c-11.81,0-21.43-9.61-21.43-21.43c0-3.56,0.88-6.92,2.42-9.88l17.61,11.94c0.4,0.27,0.88,0.43,1.4,0.43h21.28
		C156.62,110.32,147.55,118.61,136.58,118.61L136.58,118.61z M136.58,118.61"/>
</g>
</svg>
