<?xml version="1.0" encoding="utf-8"?>
<!-- Generator: Adobe Illustrator 23.0.6, SVG Export Plug-In . SVG Version: 6.00 Build 0)  -->
<svg version="1.1" id="Layer_3" xmlns="http://www.w3.org/2000/svg" xmlns:xlink="http://www.w3.org/1999/xlink" x="0px" y="0px"
	 viewBox="0 0 198.43 198.43" style="enable-background:new 0 0 198.43 198.43;" xml:space="preserve">
<style type="text/css">
	.st0{fill:none;}
	.st1{fill:#173142;}
</style>
<g>
	<rect x="121.45" y="94.67" class="st0" width="14.97" height="34.91"/>
	<path class="st0" d="M125.02,83.74h-3.76c-1.54,0-2.79,1.25-2.79,2.79v2.67h6.55V83.74z"/>
	<path class="st0" d="M139.39,86.53c0-1.54-1.25-2.79-2.79-2.79h-6.11v5.46h8.9V86.53z"/>
	<rect x="139.7" y="94.67" class="st0" width="4.86" height="34.91"/>
	<path class="st0" d="M112.37,46.98c0-0.33-0.27-0.61-0.61-0.61h-17.2c-0.34,0-0.61,0.27-0.61,0.61h0v11.87h18.41V46.98z"/>
	<path class="st0" d="M154.54,126.64V97.63c0-1.63-1.33-2.95-2.95-2.95h-3.74v34.91h3.74C153.21,129.59,154.54,128.26,154.54,126.64
		z"/>
	<path class="st0" d="M84.62,129.59h13.76c-0.34-0.92-0.53-1.91-0.53-2.95V97.63c0-4.65,3.78-8.43,8.43-8.43H113v-2.67
		c0-4.56,3.71-8.26,8.26-8.26h3.76V67.63c0-1.83-1.49-3.31-3.31-3.31H84.62c-1.83,0-3.31,1.49-3.31,3.31v58.64
		C81.31,128.1,82.8,129.59,84.62,129.59z M105.95,74.44c0-0.91,0.74-1.64,1.64-1.64c0.91,0,1.64,0.73,1.64,1.64v4.15
		c0,0.91-0.73,1.64-1.64,1.64c-0.91,0-1.64-0.73-1.64-1.64V74.44z M87.93,72.17c0-1.51,1.23-2.74,2.74-2.74
		c1.51,0,2.74,1.23,2.74,2.74v1.89c0,1.51-1.23,2.74-2.74,2.74c-1.51,0-2.74-1.23-2.74-2.74V72.17z M87.92,84.03
		c0.01-1.51,1.23-2.73,2.74-2.73h0.01c1.51,0.01,2.73,1.23,2.73,2.75c-0.01,1.92,0,3.89,0.01,5.85c0.01,1.51-1.21,2.75-2.72,2.76
		c-0.01,0-0.01,0-0.02,0c-1.5,0-2.73-1.21-2.74-2.72C87.92,87.96,87.92,85.97,87.92,84.03z M87.43,112.13
		c0-0.91,0.74-1.64,1.64-1.64c0.91,0,1.64,0.74,1.64,1.64v4.15c0,0.91-0.73,1.64-1.64,1.64c-0.91,0-1.64-0.73-1.64-1.64V112.13z"/>
	<rect x="113.31" y="94.67" class="st0" width="4.86" height="34.91"/>
	<circle class="st0" cx="147.49" cy="154.66" r="6.25"/>
	<path class="st0" d="M103.33,97.63v29.01c0,1.63,1.32,2.95,2.95,2.95h3.74V94.67h-3.74C104.65,94.67,103.33,96,103.33,97.63z"/>
	<path class="st0" d="M161.66,135.06H76.5c-1.01,0-1.84,0.82-1.84,1.84v10.02c0,1.01,0.82,1.84,1.84,1.84h4.05
		c2.04-3.47,5.81-5.81,10.12-5.81c4.31,0,8.08,2.34,10.12,5.81h36.58c2.04-3.47,5.81-5.81,10.12-5.81c4.31,0,8.08,2.34,10.12,5.81
		h4.05c1.01,0,1.84-0.82,1.84-1.84V136.9C163.49,135.89,162.67,135.06,161.66,135.06z"/>
	<circle class="st0" cx="90.67" cy="154.66" r="6.25"/>
	<path class="st1" d="M161.66,129.59h-2.18c0.34-0.92,0.54-1.91,0.54-2.95V97.63c0-4.65-3.78-8.43-8.43-8.43h-6.72v-2.67
		c0-4.56-3.71-8.26-8.26-8.26h-6.11V67.63c0-4.84-3.94-8.78-8.79-8.78h-3.86V46.98c0-3.35-2.73-6.08-6.08-6.08h-17.2
		c-3.35,0-6.08,2.73-6.08,6.08v11.87h-3.86c-4.85,0-8.79,3.94-8.79,8.79v58.64c0,1.17,0.23,2.29,0.65,3.31
		c-2.23,0-4.22,1.01-5.56,2.58L47.17,67.95c-0.4-1.07-1.42-1.79-2.57-1.79H32.19c-1.51,0-2.74,1.22-2.74,2.74
		c0,1.51,1.22,2.74,2.74,2.74H42.7l26.49,71.6v3.67c0,4.03,3.28,7.31,7.31,7.31h2.46c-0.01,0.14-0.01,0.29-0.01,0.44
		c0,6.46,5.26,11.72,11.72,11.72s11.72-5.26,11.72-11.72c0-0.15-0.01-0.29-0.01-0.44h33.39c-0.01,0.14-0.01,0.29-0.01,0.44
		c0,6.46,5.26,11.72,11.72,11.72c6.46,0,11.72-5.26,11.72-11.72c0-0.15-0.01-0.29-0.01-0.44h2.46c4.03,0,7.31-3.28,7.31-7.31V136.9
		C168.97,132.87,165.69,129.59,161.66,129.59z M147.84,94.67h3.74c1.63,0,2.95,1.32,2.95,2.95v29.01c0,1.63-1.33,2.95-2.95,2.95
		h-3.74V94.67z M139.7,94.67h4.86v34.91h-4.86V94.67z M130.5,83.74h6.11c1.54,0,2.79,1.25,2.79,2.79v2.67h-8.9V83.74z M136.41,94.67
		v34.91h-14.97V94.67H136.41z M118.47,89.2v-2.67c0-1.54,1.25-2.79,2.79-2.79h3.76v5.46H118.47z M93.96,46.98L93.96,46.98
		c0-0.33,0.27-0.61,0.61-0.61h17.2c0.33,0,0.61,0.27,0.61,0.61v11.87H93.96V46.98z M81.31,67.63c0-1.83,1.49-3.31,3.31-3.31h37.09
		c1.83,0,3.31,1.49,3.31,3.31v10.63h-3.76c-4.56,0-8.26,3.71-8.26,8.26v2.67h-6.72c-4.64,0-8.43,3.78-8.43,8.43v29.01
		c0,1.04,0.19,2.03,0.53,2.95H84.62c-1.83,0-3.31-1.49-3.31-3.31V67.63z M118.16,94.67v34.91h-4.86V94.67H118.16z M110.02,94.67
		v34.91h-3.74c-1.63,0-2.95-1.32-2.95-2.95V97.63c0-1.63,1.33-2.95,2.95-2.95H110.02z M90.67,160.91c-3.45,0-6.25-2.8-6.25-6.25
		c0-3.45,2.8-6.25,6.25-6.25c3.45,0,6.25,2.8,6.25,6.25C96.92,158.11,94.12,160.91,90.67,160.91z M147.49,160.91
		c-3.45,0-6.25-2.8-6.25-6.25c0-3.45,2.8-6.25,6.25-6.25c3.45,0,6.25,2.8,6.25,6.25C153.74,158.11,150.94,160.91,147.49,160.91z
		 M163.49,146.92c0,1.01-0.82,1.84-1.84,1.84h-4.05c-2.04-3.47-5.81-5.81-10.12-5.81c-4.31,0-8.08,2.34-10.12,5.81h-36.58
		c-2.04-3.47-5.81-5.81-10.12-5.81c-4.31,0-8.08,2.34-10.12,5.81H76.5c-1.01,0-1.84-0.82-1.84-1.84V136.9
		c0-1.01,0.82-1.84,1.84-1.84h85.16c1.01,0,1.84,0.82,1.84,1.84V146.92z"/>
	<path class="st1" d="M107.59,80.23c0.91,0,1.64-0.74,1.64-1.64v-4.15c0-0.91-0.73-1.64-1.64-1.64c-0.91,0-1.64,0.73-1.64,1.64v4.15
		C105.95,79.49,106.68,80.23,107.59,80.23z"/>
	<path class="st1" d="M89.07,117.92c0.91,0,1.64-0.73,1.64-1.64v-4.15c0-0.91-0.73-1.64-1.64-1.64c-0.91,0-1.64,0.74-1.64,1.64v4.15
		C87.43,117.19,88.17,117.92,89.07,117.92z"/>
	<path class="st1" d="M90.67,92.65c0.01,0,0.01,0,0.02,0c1.51-0.01,2.73-1.24,2.72-2.76c-0.01-1.96-0.02-3.92-0.01-5.85
		c0-1.51-1.22-2.74-2.73-2.75h-0.01c-1.51,0-2.73,1.22-2.74,2.73c-0.01,1.94,0,3.93,0.01,5.9C87.94,91.44,89.17,92.65,90.67,92.65z"
		/>
	<path class="st1" d="M90.67,76.8c1.51,0,2.74-1.23,2.74-2.74v-1.89c0-1.51-1.23-2.74-2.74-2.74c-1.51,0-2.74,1.23-2.74,2.74v1.89
		C87.93,75.57,89.16,76.8,90.67,76.8z"/>
	<path class="st1" d="M160.93,54.51c-0.24-0.11-0.43-0.32-0.53-0.59l-2.25-6.32c-0.32-0.89-1.44-0.89-1.76,0l-2.25,6.32
		c-0.09,0.27-0.29,0.49-0.53,0.59L148,57.04c-0.79,0.36-0.79,1.62,0,1.98l5.62,2.53c0.24,0.11,0.43,0.32,0.53,0.59l2.25,6.32
		c0.32,0.89,1.44,0.89,1.76,0l2.25-6.32c0.1-0.27,0.29-0.48,0.53-0.59l5.62-2.53c0.79-0.36,0.79-1.62,0-1.98L160.93,54.51z"/>
	<path class="st1" d="M77.14,39.25c-0.18-0.08-0.32-0.24-0.39-0.44l-1.67-4.69c-0.24-0.66-1.07-0.66-1.3,0l-1.67,4.69
		c-0.07,0.2-0.21,0.36-0.39,0.44l-4.17,1.88c-0.59,0.27-0.59,1.2,0,1.47l4.17,1.88c0.18,0.08,0.32,0.24,0.39,0.44l1.67,4.69
		c0.24,0.66,1.07,0.66,1.3,0l1.67-4.69c0.07-0.2,0.21-0.36,0.39-0.44l4.17-1.88c0.59-0.27,0.59-1.2,0-1.47L77.14,39.25z"/>
	<path class="st1" d="M137.26,32.12c-2.68,0.43-4.49,2.95-4.06,5.63c0.43,2.68,2.95,4.49,5.63,4.06c2.68-0.43,4.49-2.95,4.06-5.63
		C142.46,33.51,139.94,31.69,137.26,32.12z"/>
	<path class="st1" d="M61.92,58.82c0,1.17,0.95,2.12,2.12,2.12c1.17,0,2.12-0.95,2.12-2.12c0-1.17-0.95-2.12-2.12-2.12
		C62.87,56.7,61.92,57.65,61.92,58.82z"/>
</g>
</svg>
