<?xml version="1.0" encoding="utf-8"?>
<!-- Generator: Adobe Illustrator 23.0.4, SVG Export Plug-In . SVG Version: 6.00 Build 0)  -->
<svg version="1.1" id="katman_1" xmlns="http://www.w3.org/2000/svg" xmlns:xlink="http://www.w3.org/1999/xlink" x="0px" y="0px"
	 viewBox="0 0 70 70" style="enable-background:new 0 0 70 70;" xml:space="preserve">
<style type="text/css">
	.st0{fill:#262753;}
	.st1{fill:#262653;}
</style>
<g>
	<g>
		<g>
			<g>
				<rect x="26.7" y="34.6" class="st0" width="16.4" height="4.1"/>
			</g>
		</g>
		<g>
			<path class="st0" d="M46.3,0.4L46.1,0l-0.2,0.4c0,0-3,4.5-9,8.2c-2.2,1.3-6.1,4.2-7.9,9.4c-1.8,5-1.1,10.6,2.1,16.7l0.5-0.2
				c-3.1-6-3.8-11.5-2.1-16.3c1.8-5,5.5-7.9,7.7-9.1c5.2-3.1,8.1-6.8,9-8c6.1,11.9,0.3,18.9-0.1,19.3c-0.3,0.3-1.7,1.4-2.4,5.8
				c-0.8,4.6-4.3,8.2-4.3,8.2l0.4,0.4c0.1-0.1,3.6-3.7,4.4-8.5c0.8-4.5,2.2-5.4,2.2-5.4l0,0c0,0,0,0,0,0c0,0,0.1-0.1,0.1-0.1
				c0.2-0.2,1.8-2,2.6-5.3C50.3,9.7,48.3,4.1,46.3,0.4z"/>
		</g>
		<g>
			<g>
				<path class="st0" d="M36.7,9.1c-0.7,1.8-0.6,3.9,0.5,5.4c0.2,0.3,0.7,0,0.5-0.3c-1-1.4-1.1-3.4-0.4-5
					C37.4,8.9,36.9,8.7,36.7,9.1L36.7,9.1z"/>
			</g>
		</g>
		<g>
			<g>
				<path class="st0" d="M30.4,15c0.3,2,1.8,3.7,3.5,4.7c0.3,0.2,0.6-0.3,0.3-0.5c-1.6-0.9-3-2.5-3.2-4.3
					C30.9,14.5,30.4,14.6,30.4,15L30.4,15z"/>
			</g>
		</g>
		<g>
			<g>
				<path class="st0" d="M28.1,24c0.5,1.8,2.3,2.9,4,3.3c0.4,0.1,0.5-0.5,0.2-0.6c-1.5-0.4-3.2-1.3-3.6-2.9
					C28.6,23.5,28,23.6,28.1,24L28.1,24z"/>
			</g>
		</g>
		<g>
			<g>
				<path class="st0" d="M48.4,14.3c-1.1,1.2-2.9,1.8-4.5,1.7c-0.4,0-0.4,0.6,0,0.6c1.8,0.1,3.7-0.5,4.9-1.8
					C49.1,14.4,48.7,14,48.4,14.3L48.4,14.3z"/>
			</g>
		</g>
		<g>
			<g>
				<path class="st0" d="M43.1,27.1c-1.4,1.2-3.5,1.6-5.2,1.7c-0.4,0-0.4,0.6,0,0.6c1.9-0.1,4.1-0.6,5.6-1.8
					C43.8,27.3,43.3,26.8,43.1,27.1L43.1,27.1z"/>
			</g>
		</g>
		<g>
			<g>
				<path class="st0" d="M34.4,34.6c-0.1-8.4,3.4-17.4,9.7-23c0.3-0.2-0.1-0.7-0.4-0.4c-6.4,5.7-10,14.9-9.9,23.4
					C33.8,34.9,34.4,34.9,34.4,34.6L34.4,34.6z"/>
			</g>
		</g>
	</g>
	<path class="st1" d="M37.3,39.3l10.6,26.8c0.3,0.6,0.3,1.4,0.1,2c-0.2,0.6-0.6,1.2-1.5,1.6c-0.9,0.4-1.6,0.3-2.2,0.1
		c-0.7-0.2-1.3-0.8-1.7-1.5l-3.1-6.2H29.2l-2.9,6.2c-0.4,1-1.4,1.6-2.4,1.6c-0.4,0-0.9-0.1-1.5-0.3c-0.9-0.3-1.4-1-1.6-1.6
		c-0.2-0.7-0.2-1.5,0.1-2.2l10.7-26.5c0.5-1.1,1.5-1.9,2.7-1.9c0,0,0,0,0.1,0l0.1,0C35.7,37.4,36.8,38.1,37.3,39.3z"/>
</g>
</svg>
