<?xml version="1.0" encoding="utf-8"?>
<!-- Generator: Adobe Illustrator 23.0.6, SVG Export Plug-In . SVG Version: 6.00 Build 0)  -->
<svg version="1.1" xmlns="http://www.w3.org/2000/svg" xmlns:xlink="http://www.w3.org/1999/xlink" x="0px" y="0px"
	 viewBox="0 0 198.43 198.43" style="enable-background:new 0 0 198.43 198.43;" xml:space="preserve">
<style type="text/css">
	.st0{display:none;}
	.st1{fill:#173142;stroke:#173142;stroke-width:3.0422;stroke-miterlimit:10;}
	.st2{fill:#F5F6F6;stroke:#173142;stroke-width:3.0422;stroke-miterlimit:10;}
	.st3{fill:#173142;}
	.st4{fill:#F5F6F6;}
	.st5{fill:none;stroke:#F5F6F6;stroke-width:11.1106;stroke-linecap:round;stroke-miterlimit:10;}
</style>
<g id="Layer_2" class="st0">
</g>
<g id="Layer_5">
	<g>
		<g>
			<g>
				<path class="st1" d="M153.34,37.92H45.08c-10.58,0-19.15,8.58-19.15,19.16v10.43H172.5V57.07
					C172.5,46.49,163.92,37.92,153.34,37.92z"/>
				<path class="st2" d="M25.93,67.51v65.61c0,10.58,8.58,19.15,19.15,19.15h108.26c10.58,0,19.15-8.58,19.15-19.15V67.51H25.93z"/>
			</g>
			<g>
				<path class="st3" d="M83.31,100.43l-20.56,9.45l20.56,9.38v9.69l-29.39-14.03v-10.07l29.39-14.03V100.43z"/>
				<path class="st3" d="M105.42,80.81H114l-20.37,58.15h-8.58L105.42,80.81z"/>
				<path class="st3" d="M144.5,104.85v10.07l-29.39,14.03v-9.69l20.56-9.38l-20.56-9.45v-9.61L144.5,104.85z"/>
			</g>
			<g>
				
					<ellipse transform="matrix(0.1605 -0.987 0.987 0.1605 -12.899 90.2562)" class="st4" cx="46.61" cy="52.71" rx="7.31" ry="7.31"/>
				
					<ellipse transform="matrix(0.2305 -0.9731 0.9731 0.2305 2.8362 109.0092)" class="st4" cx="70.34" cy="52.71" rx="7.31" ry="7.31"/>
				
					<ellipse transform="matrix(0.1605 -0.987 0.987 0.1605 26.938 137.0965)" class="st4" cx="94.07" cy="52.71" rx="7.31" ry="7.31"/>
				<line class="st5" x1="115.72" y1="52.71" x2="159.12" y2="52.71"/>
			</g>
		</g>
	</g>
</g>
<g id="Layer_3" class="st0">
</g>
<g id="Layer_4" class="st0">
</g>
<g id="Layer_4_copy" class="st0">
</g>
</svg>
