<?xml version="1.0" encoding="utf-8"?>
<!-- Generator: Adobe Illustrator 23.0.6, SVG Export Plug-In . SVG Version: 6.00 Build 0)  -->
<svg version="1.1" id="Layer_3" xmlns="http://www.w3.org/2000/svg" xmlns:xlink="http://www.w3.org/1999/xlink" x="0px" y="0px"
	 viewBox="0 0 198.43 198.43" style="enable-background:new 0 0 198.43 198.43;" xml:space="preserve">
<style type="text/css">
	.st0{fill:#173142;}
</style>
<g>
	<path class="st0" d="M113.9,76.93c-0.78-0.68-1.96-0.6-2.64,0.18c-0.96,1.1-2.67,1.11-3.64,0c-0.68-0.78-1.86-0.86-2.64-0.18
		c-0.78,0.68-0.86,1.86-0.18,2.64c2.45,2.81,6.82,2.81,9.27,0C114.76,78.79,114.67,77.61,113.9,76.93L113.9,76.93z M113.9,76.93"/>
	<path class="st0" d="M145.19,79.57c0.68-0.78,0.6-1.96-0.18-2.64c-0.78-0.68-1.96-0.6-2.64,0.18c-0.96,1.1-2.67,1.11-3.64,0
		c-0.68-0.78-1.86-0.86-2.64-0.18c-0.78,0.68-0.86,1.86-0.18,2.64C138.37,82.38,142.74,82.38,145.19,79.57L145.19,79.57z
		 M145.19,79.57"/>
	<path class="st0" d="M116.34,79.04c-2.66,3.94,2.26,9.14,8.66,9.14c6.41,0,11.31-5.21,8.66-9.14c-2.42-3.58-6.22-1.28-8.66-1.28
		C122.56,77.76,118.76,75.46,116.34,79.04L116.34,79.04z M130.56,81.13c0.49,0.72-1.65,3.31-5.56,3.31c-4.7,0-6.89-3.69-4.87-3.69
		c1.02,0,2.88,0.75,4.87,0.75C127.75,81.5,129.9,80.15,130.56,81.13L130.56,81.13z M130.56,81.13"/>
	<path class="st0" d="M148.42,69.81V59.72c0-13.39-10.9-24.29-24.29-24.29H74.3c-13.39,0-24.29,10.9-24.29,24.29v3.88
		c-2.29,0.91-4.42,2.19-6.31,3.79c-0.79,0.67-0.88,1.85-0.21,2.63c0.67,0.79,1.85,0.88,2.63,0.21c3.59-3.05,8.1-4.57,12.6-4.57
		c10.76,0,19.52,8.69,19.52,19.43c0,5.37-2.24,10.52-6.16,14.24H45.36c-3.99-3.77-6.19-8.71-6.19-14.01c0-3.43,0.91-6.83,2.63-9.85
		c0.51-0.9,0.2-2.04-0.7-2.55c-0.9-0.51-2.04-0.2-2.55,0.7c-2.04,3.58-3.12,7.63-3.12,11.7c0,5.56,1.99,10.76,5.67,14.98
		c-2,1.2-3.35,3.39-3.35,5.89v18.41c0,3.78,3.07,6.85,6.85,6.85h1.18l3.67,16.99c0.53,2.44,2.64,4.24,5.1,4.41
		c4.57,6.37,11.87,10.14,19.74,10.14h49.83c13.39,0,24.29-10.9,24.29-24.29v-9.08c4.02-3.15,7.35-7.07,9.81-11.48
		c0.5-0.9,0.18-2.04-0.72-2.54c-0.9-0.5-2.04-0.18-2.54,0.72c-1.03,1.86-2.23,3.59-3.56,5.2c-0.57-4.63-4.63-8.42-9.7-8.42h-13.75
		c-0.59,0-1.07-0.48-1.07-1.07v-0.42c0-1.88-0.9-3.54-2.31-4.59l2.15-2.15c2-2,1.51-5.31-0.87-6.69c0.5-1.16,1.66-1.98,3.01-1.98
		h4.69c0.32,0,0.63,0.13,0.85,0.35c3.21,3.2,3.25,3.24,3.31,3.29c2.83,2.45,7.27,0.36,7.27-3.41v-4.63c0-0.84,0.6-1.7,1.67-1.72
		c1.74-0.04,3.39-0.68,4.62-1.91c1.24-1.24,1.92-2.88,1.92-4.63v-3.29c3.82,5.53,6.07,12.23,6.07,19.44c0,3.45-0.51,6.85-1.52,10.11
		c-0.3,0.99,0.25,2.03,1.23,2.34c0.98,0.3,2.03-0.25,2.34-1.23c1.12-3.62,1.68-7.39,1.68-11.21
		C162.99,87.53,157.28,76.76,148.42,69.81L148.42,69.81z M64.96,59.72v3.05c-2-0.55-4.1-0.84-6.23-0.84c-1.72,0-3.4,0.19-4.98,0.53
		v-2.74c0-11.33,9.22-20.55,20.55-20.55h49.83c11.33,0,20.55,9.22,20.55,20.55v7.5c-3.42-2.08-7.2-3.63-11.21-4.55v-2.94
		c0-5.15-4.19-9.34-9.34-9.34h-9.97c-3.09,0-5.61,2.51-5.61,5.61c0,1.03-0.84,1.87-1.87,1.87H91.74c-1.03,0-1.87-0.84-1.87-1.87
		c0-1.74-0.79-3.35-2.16-4.42c-0.99-0.78-2.18-1.19-3.44-1.19H74.3C69.15,50.38,64.96,54.57,64.96,59.72L64.96,59.72z M81.98,85.1
		c0-9.26-5.46-17.23-13.29-20.94v-4.44c0-3.09,2.51-5.61,5.61-5.61h9.97c0.53,0,0.91,0.22,1.14,0.4c0.46,0.36,0.72,0.9,0.72,1.47
		c0,3.09,2.51,5.61,5.61,5.61h14.95c3.09,0,5.61-2.51,5.61-5.61c0-1.03,0.84-1.87,1.87-1.87h9.97c3.09,0,5.61,2.51,5.61,5.61v2.29
		c-1.55-0.19-3.12-0.29-4.72-0.29c-21,0-38.01,17.09-38.01,38c0,20.98,17.11,37.99,38.05,37.99c1.58,0,3.14-0.1,4.68-0.3v1.29
		c0,3.09-2.51,5.61-5.61,5.61H74.3c-1.96,0-3.77-1.04-4.78-2.69l2.15-10.16h1.12c3.78,0,6.85-3.07,6.85-6.85V106.2
		c0-2.49-1.34-4.68-3.33-5.88C79.94,96.09,81.98,90.7,81.98,85.1L81.98,85.1z M108.15,103.1c0.3-0.84,1.52-0.71,1.68,0.15l1.35,7.43
		c1.35,7.4,7.75,12.79,15.27,12.87c-0.73,1.65-1.91,3-3.52,4.03c-1.34,0.86-2.32,2.46-2.36,4.29c0,0.02,0,1.81,0,1.81
		c-16.81-2.2-29.82-16.59-29.82-33.96c0-3.32,0.48-6.52,1.36-9.56h1.55c1.88,0,3.4,1.52,3.4,3.4v7.88
		C97.06,107.51,105.97,109.24,108.15,103.1L108.15,103.1z M44.6,127.72c-1.72,0-3.11-1.4-3.11-3.11V106.2c0-1.72,1.4-3.11,3.11-3.11
		h28.19c1.72,0,3.11,1.4,3.11,3.11v18.41c0,1.72-1.4,3.11-3.11,3.11H44.6z M54.93,149.13c-0.87,0-1.64-0.62-1.83-1.47l-3.5-16.2
		h18.24l-3.43,16.19c-0.18,0.86-0.95,1.48-1.83,1.48H54.93z M144.68,138.7c0,11.33-9.22,20.55-20.55,20.55H74.3
		c-5.7,0-11.05-2.34-14.89-6.39h3.18c2.63,0,4.94-1.87,5.48-4.45l0.5-2.35c1.61,1.25,3.62,1.98,5.72,1.98h49.83
		c5.15,0,9.34-4.19,9.34-9.34v-1.95c3.97-0.91,7.76-2.45,11.21-4.55V138.7z M149.45,83.56c0,0.75-0.29,1.45-0.82,1.98
		c-0.53,0.53-1.23,0.83-1.98,0.82c-0.01,0-0.01,0-0.02,0c-2.96,0.06-5.39,2.44-5.39,5.46v4.63c0,0.56-0.65,0.92-1.06,0.61
		c-0.3-0.3-2.05-2.04-3.15-3.14c-0.93-0.93-2.17-1.45-3.49-1.45h-4.69c-3.87,0-7.01,3.15-7.02,7.01c0,1.03,0.84,1.87,1.87,1.87
		c0.46,0,0.69,0.55,0.36,0.88l-4.22,4.22c-1.17,1.17-0.34,3.19,1.32,3.19c0.53,0,1.02,0.2,1.39,0.58c0.37,0.37,0.58,0.87,0.58,1.39
		v0.42c0,2.65,2.15,4.8,4.8,4.8h13.75c1.59,0,3.08,0.59,4.2,1.67c1.56,1.51,1.87,2.89,1.87,4.77v2.02
		c-6.18,5.49-14.22,8.67-22.71,8.67c-0.25,0-0.5,0-0.75-0.01v-2.02c0.02-0.47,0.23-0.9,0.59-1.19l0.05-0.03
		c3.01-1.93,4.46-4.44,5.15-6.21c0.88-2.24-0.76-4.7-3.21-4.7h-0.27c-5.78,0-10.72-4.12-11.76-9.8l-1.35-7.43
		c-0.83-4.57-7.29-5.2-8.88-0.73c-0.74,2.09-3.7,1.65-3.84-0.46v-7.83c0-3.94-3.19-7.14-7.14-7.14h-0.23
		c5.2-12.3,17.4-20.96,31.58-20.96c9.56,0,18.22,3.94,24.43,10.29V83.56z M149.45,83.56"/>
	<path class="st0" d="M99.21,54.12c3.09,0,5.61-2.51,5.61-5.61s-2.51-5.61-5.61-5.61c-3.09,0-5.61,2.51-5.61,5.61
		S96.12,54.12,99.21,54.12L99.21,54.12z M99.21,46.64c1.03,0,1.87,0.84,1.87,1.87c0,1.03-0.84,1.87-1.87,1.87
		c-1.03,0-1.87-0.84-1.87-1.87C97.34,47.48,98.18,46.64,99.21,46.64L99.21,46.64z M99.21,46.64"/>
</g>
</svg>
