<?xml version="1.0" encoding="utf-8"?>
<!-- Generator: Adobe Illustrator 23.0.6, SVG Export Plug-In . SVG Version: 6.00 Build 0)  -->
<svg version="1.1" id="Layer_3" xmlns="http://www.w3.org/2000/svg" xmlns:xlink="http://www.w3.org/1999/xlink" x="0px" y="0px"
	 viewBox="0 0 198.43 198.43" style="enable-background:new 0 0 198.43 198.43;" xml:space="preserve">
<style type="text/css">
	.st0{fill:#173142;}
</style>
<g>
	<g>
		<path class="st0" d="M139.07,54.87h-9.22V43.03c0-0.99-0.39-1.94-1.1-2.64l-3.86-3.86c-1.46-1.46-3.83-1.46-5.28,0
			c-1.46,1.46-1.46,3.83,0,5.29l2.77,2.77v10.29H76.04V44.58l2.77-2.77c1.46-1.46,1.46-3.83,0-5.29c-1.46-1.46-3.83-1.46-5.29,0
			l-3.86,3.86c-0.7,0.7-1.09,1.65-1.09,2.64v11.83h-9.22c-2.06,0-3.74,1.67-3.74,3.74v29.15c0,2.06,1.67,3.74,3.74,3.74h3.63
			l12.05,64.03h-3.47c-4.95,0.18-4.95,7.29,0,7.47h55.31c4.95-0.18,4.95-7.29,0-7.47h-3.47l12.05-64.03h3.63
			c2.06,0,3.74-1.67,3.74-3.74V58.6C142.81,56.54,141.14,54.87,139.07,54.87L139.07,54.87z M135.34,84.02h-27.75
			c7.06-5.28,7.06-16.4,0-21.68h27.75V84.02z M99.21,66.95c3.43,0,6.23,2.79,6.23,6.23c-0.31,8.25-12.15,8.25-12.46,0
			C92.98,69.74,95.78,66.95,99.21,66.95L99.21,66.95z M63.09,62.34h27.75c-7.06,5.28-7.06,16.4,0,21.68H63.09V62.34z M115.79,155.52
			H82.63L70.58,91.49h57.26L115.79,155.52z M115.79,155.52"/>
	</g>
</g>
</svg>
