<?xml version="1.0" encoding="utf-8"?>
<!-- Generator: Adobe Illustrator 23.0.4, SVG Export Plug-In . SVG Version: 6.00 Build 0)  -->
<svg version="1.1" id="katman_1" xmlns="http://www.w3.org/2000/svg" xmlns:xlink="http://www.w3.org/1999/xlink" x="0px" y="0px"
	 viewBox="0 0 70 70" style="enable-background:new 0 0 70 70;" xml:space="preserve">
<style type="text/css">
	.st0{fill:#262653;}
	.st1{fill:#FFFFFF;}
</style>
<g>
	<g>
		<g>
			<circle class="st0" cx="35.3" cy="10.6" r="10.6"/>
		</g>
		<path class="st0" d="M39.6,25l15.5,39.3c0.4,0.9,0.5,2,0.2,3c-0.3,0.9-0.9,1.8-2.2,2.4c-1.3,0.5-2.4,0.5-3.2,0.2
			c-1.1-0.4-1.9-1.2-2.5-2.2l-4.5-9.1H27.7l-4.2,9.1c-0.6,1.4-2,2.4-3.6,2.4c-0.6,0-1.4-0.1-2.2-0.4c-1.4-0.5-2-1.5-2.3-2.4
			c-0.3-1.1-0.2-2.2,0.2-3.3L31.2,25c0.7-1.6,2.2-2.8,4-2.8c0,0,0.1,0,0.1,0l0.1,0C37.2,22.2,38.9,23.3,39.6,25z"/>
		<g>
			<polygon class="st1" points="34.4,24.1 36.2,24.1 37.2,25.8 36.6,27.5 34,27.5 33.4,25.8 			"/>
			<polygon class="st1" points="34,27.5 36.7,27.5 37.4,32.5 35.3,52.8 33.3,32.5 			"/>
		</g>
	</g>
	<g>
		<g>
			<circle class="st0" cx="53.6" cy="22.9" r="6"/>
		</g>
		<path class="st0" d="M51.2,49.6l-8.8-22.2c-0.2-0.5-0.3-1.1-0.1-1.7c0.2-0.5,0.5-1,1.2-1.3c0.7-0.3,1.4-0.3,1.8-0.1
			c0.6,0.2,1.1,0.7,1.4,1.3l2.6,5.1H58l2.4-5.1c0.4-0.8,1.1-1.4,2-1.3c0.4,0,0.8,0.1,1.3,0.2c0.8,0.3,1.2,0.8,1.3,1.4
			c0.2,0.6,0.1,1.3-0.1,1.9l-8.9,22c-0.4,0.9-1.3,1.6-2.3,1.6c0,0,0,0,0,0l0,0C52.6,51.2,51.6,50.5,51.2,49.6z"/>
		<g>
			<polygon class="st1" points="53.1,30.6 54.2,30.6 54.7,31.5 54.4,32.5 52.9,32.5 52.6,31.6 			"/>
			<polygon class="st1" points="52.9,32.5 54.4,32.5 54.8,35.3 53.6,46.9 52.5,35.3 			"/>
		</g>
	</g>
	<g>
		<g>
			<circle class="st0" cx="17.1" cy="22.9" r="6"/>
		</g>
		<path class="st0" d="M14.7,49.6L5.9,27.3c-0.2-0.5-0.3-1.1-0.1-1.7c0.2-0.5,0.5-1,1.2-1.3C7.8,24,8.4,24,8.9,24.2
			c0.6,0.2,1.1,0.7,1.4,1.3l2.6,5.1h8.6l2.4-5.1c0.4-0.8,1.1-1.4,2-1.3c0.4,0,0.8,0.1,1.3,0.2c0.8,0.3,1.2,0.8,1.3,1.4
			c0.2,0.6,0.1,1.3-0.1,1.9l-8.9,22c-0.4,0.9-1.3,1.6-2.3,1.6c0,0,0,0,0,0l0,0C16,51.2,15.1,50.5,14.7,49.6z"/>
		<g>
			<polygon class="st1" points="16.6,30.6 17.6,30.6 18.2,31.5 17.9,32.5 16.4,32.5 16,31.6 			"/>
			<polygon class="st1" points="16.4,32.5 17.9,32.5 18.3,35.3 17.1,46.9 16,35.3 			"/>
		</g>
	</g>
</g>
</svg>
