<?xml version="1.0" encoding="utf-8"?>
<!-- Generator: Adobe Illustrator 23.0.4, SVG Export Plug-In . SVG Version: 6.00 Build 0)  -->
<svg version="1.1" id="katman_1" xmlns="http://www.w3.org/2000/svg" xmlns:xlink="http://www.w3.org/1999/xlink" x="0px" y="0px"
	 viewBox="0 0 70 70" style="enable-background:new 0 0 70 70;" xml:space="preserve">
<style type="text/css">
	.st0{fill:#262653;}
	.st1{fill:#FFFFFF;}
	.st2{fill:#292559;}
	.st3{fill:#262753;}
</style>
<g>
	<g>
		<g>
			<g>
				<circle class="st0" cx="30.5" cy="26.5" r="7"/>
			</g>
			<path class="st0" d="M33.3,36.1l10.2,25.9c0.2,0.6,0.3,1.3,0.1,2c-0.2,0.6-0.6,1.2-1.4,1.6c-0.9,0.4-1.6,0.3-2.1,0.1
				c-0.7-0.2-1.3-0.8-1.6-1.5l-3-6h-10l-2.8,6c-0.4,0.9-1.3,1.6-2.4,1.6c-0.4,0-0.9-0.1-1.5-0.3c-0.9-0.3-1.3-1-1.5-1.6
				c-0.2-0.7-0.2-1.5,0.1-2.2l10.3-25.6c0.4-1.1,1.5-1.9,2.6-1.9c0,0,0,0,0.1,0l0.1,0C31.8,34.2,32.9,34.9,33.3,36.1z"/>
			<g>
				<polygon class="st1" points="29.9,35.4 31.1,35.4 31.8,36.5 31.4,37.7 29.6,37.7 29.2,36.6 				"/>
				<polygon class="st1" points="29.6,37.7 31.4,37.7 31.8,41 30.5,54.4 29.2,41 				"/>
			</g>
		</g>
		<g>
			<g>
				<circle class="st0" cx="42.6" cy="34.7" r="3.9"/>
			</g>
			<path class="st0" d="M41,52.2l-5.8-14.7c-0.1-0.4-0.2-0.7-0.1-1.1c0.1-0.3,0.3-0.7,0.8-0.9c0.5-0.2,0.9-0.2,1.2-0.1
				c0.4,0.1,0.7,0.4,0.9,0.8l1.7,3.4h5.7l1.6-3.4c0.2-0.5,0.8-0.9,1.3-0.9c0.2,0,0.5,0,0.8,0.1c0.5,0.2,0.8,0.5,0.9,0.9
				c0.1,0.4,0.1,0.8-0.1,1.2l-5.9,14.5c-0.2,0.6-0.8,1-1.5,1.1c0,0,0,0,0,0l0,0C41.9,53.3,41.2,52.9,41,52.2z"/>
			<g>
				<polygon class="st1" points="42.2,39.7 42.9,39.7 43.3,40.4 43.1,41 42.1,41 41.9,40.4 				"/>
				<polygon class="st1" points="42.1,41 43.1,41 43.3,42.9 42.6,50.5 41.8,42.9 				"/>
			</g>
		</g>
		<g>
			<g>
				<circle class="st0" cx="18.5" cy="34.7" r="3.9"/>
			</g>
			<path class="st0" d="M16.9,52.2l-5.8-14.7c-0.1-0.4-0.2-0.7-0.1-1.1c0.1-0.3,0.3-0.7,0.8-0.9c0.5-0.2,0.9-0.2,1.2-0.1
				c0.4,0.1,0.7,0.4,0.9,0.8l1.7,3.4h5.7l1.6-3.4c0.2-0.5,0.8-0.9,1.3-0.9c0.2,0,0.5,0,0.8,0.1c0.5,0.2,0.8,0.5,0.9,0.9
				c0.1,0.4,0.1,0.8-0.1,1.2L20,52.2c-0.2,0.6-0.8,1-1.5,1.1c0,0,0,0,0,0l0,0C17.8,53.3,17.2,52.9,16.9,52.2z"/>
			<g>
				<polygon class="st1" points="18.2,39.7 18.8,39.7 19.2,40.4 19,41 18,41 17.8,40.4 				"/>
				<polygon class="st1" points="18,41 19,41 19.3,42.9 18.5,50.5 17.7,42.9 				"/>
			</g>
		</g>
	</g>
	<g>
		<g>
			<path class="st2" d="M39.2,21.2l0.1-13.6l0-0.1c0.9-2.7,2.7-3,2.8-3.1l0.1,0c0.5,0,12.2-0.3,14.1,0C58.5,4.7,59,7,59,7.1l0,0.1
				v7.9l0,0.1C58,18,55.8,18,55.7,18h-12L39.2,21.2z M40.2,7.7l-0.1,11.9l3.4-2.4h12.3c0.1,0,1.7,0,2.5-2.2V7.3
				c-0.1-0.3-0.5-1.8-2-2c-1.8-0.3-13.2,0-13.9,0C42.1,5.3,40.9,5.7,40.2,7.7z"/>
		</g>
		<g>
			<path class="st3" d="M41.1,9.3h0.4v2.8h1.4v0.3h-1.8V9.3z"/>
			<path class="st3" d="M43.4,11.4c0,0.6,0.4,0.8,0.8,0.8c0.3,0,0.5-0.1,0.6-0.1l0.1,0.3c-0.1,0.1-0.4,0.1-0.8,0.1
				c-0.7,0-1.1-0.5-1.1-1.1c0-0.7,0.4-1.2,1.1-1.2c0.7,0,0.9,0.7,0.9,1.1c0,0.1,0,0.2,0,0.2H43.4z M44.6,11.1c0-0.3-0.1-0.7-0.6-0.7
				c-0.4,0-0.6,0.4-0.6,0.7H44.6z"/>
			<path class="st3" d="M46.1,9.5v0.7h0.6v0.3h-0.6v1.2c0,0.3,0.1,0.4,0.3,0.4c0.1,0,0.2,0,0.2,0l0,0.3c-0.1,0-0.2,0.1-0.4,0.1
				c-0.2,0-0.3-0.1-0.4-0.2c-0.1-0.1-0.2-0.3-0.2-0.6v-1.2h-0.4v-0.3h0.4V9.6L46.1,9.5z"/>
			<path class="st3" d="M47.7,9.2c-0.1,0.4-0.3,0.9-0.4,1.1l-0.3,0c0.1-0.3,0.2-0.8,0.3-1.1L47.7,9.2z"/>
			<path class="st3" d="M47.8,12c0.1,0.1,0.3,0.2,0.5,0.2c0.3,0,0.4-0.2,0.4-0.3c0-0.2-0.1-0.3-0.4-0.4c-0.4-0.1-0.6-0.4-0.6-0.6
				c0-0.4,0.3-0.7,0.8-0.7c0.2,0,0.4,0.1,0.6,0.1L49,10.6c-0.1-0.1-0.3-0.1-0.5-0.1c-0.2,0-0.4,0.1-0.4,0.3c0,0.2,0.1,0.3,0.4,0.4
				c0.4,0.2,0.6,0.3,0.6,0.7c0,0.4-0.3,0.7-0.9,0.7c-0.2,0-0.5-0.1-0.6-0.2L47.8,12z"/>
			<path class="st3" d="M52.7,10.2c0,0.2,0,0.3,0,0.6v1.3c0,0.5-0.1,0.8-0.3,1c-0.2,0.2-0.5,0.3-0.8,0.3c-0.3,0-0.6-0.1-0.8-0.2
				l0.1-0.3c0.2,0.1,0.4,0.2,0.7,0.2c0.4,0,0.7-0.2,0.7-0.8v-0.3h0c-0.1,0.2-0.4,0.4-0.7,0.4c-0.6,0-1-0.5-1-1.1
				c0-0.8,0.5-1.2,1-1.2c0.4,0,0.6,0.2,0.7,0.4h0l0-0.3H52.7z M52.2,11.1c0-0.1,0-0.1,0-0.2c-0.1-0.2-0.3-0.4-0.6-0.4
				c-0.4,0-0.7,0.3-0.7,0.9c0,0.4,0.2,0.8,0.7,0.8c0.3,0,0.5-0.2,0.6-0.4c0-0.1,0-0.2,0-0.2V11.1z"/>
			<path class="st3" d="M55.4,11.3c0,0.8-0.6,1.2-1.1,1.2c-0.6,0-1.1-0.5-1.1-1.2c0-0.8,0.5-1.2,1.1-1.2
				C55,10.1,55.4,10.6,55.4,11.3z M53.6,11.3c0,0.5,0.3,0.9,0.7,0.9c0.4,0,0.7-0.4,0.7-0.9c0-0.4-0.2-0.9-0.7-0.9
				C53.8,10.4,53.6,10.9,53.6,11.3z"/>
			<path class="st3" d="M55.8,12.2c0-0.2,0.1-0.3,0.3-0.3c0.2,0,0.3,0.1,0.3,0.3c0,0.2-0.1,0.3-0.3,0.3
				C55.9,12.5,55.8,12.4,55.8,12.2z M56,11.5l-0.1-2.3h0.5l-0.1,2.3H56z"/>
		</g>
	</g>
</g>
</svg>
